<svg width="323" height="61" viewBox="0 0 323 61" fill="none" xmlns="http://www.w3.org/2000/svg">
<path d="M5.088 0.672H6.352L11.168 12H9.6L8.448 9.216H2.784L1.616 12H0.096L5.088 0.672ZM5.696 2.4H5.664L3.312 7.968H7.936L5.696 2.4ZM14.6736 0.672H18.1296C18.599 0.672 19.0576 0.72 19.5056 0.815999C19.9536 0.911999 20.3536 1.072 20.7056 1.296C21.0576 1.50933 21.3403 1.792 21.5536 2.144C21.7776 2.496 21.8896 2.93333 21.8896 3.456C21.8896 4.11733 21.7083 4.66667 21.3456 5.104C20.9936 5.53067 20.5136 5.83467 19.9056 6.016V6.048C20.2683 6.08 20.6043 6.176 20.9136 6.336C21.2336 6.48533 21.5056 6.68267 21.7296 6.928C21.9643 7.17333 22.1456 7.46133 22.2736 7.792C22.4016 8.112 22.4656 8.45867 22.4656 8.832C22.4656 9.46133 22.3323 9.97867 22.0656 10.384C21.8096 10.7893 21.4683 11.1147 21.0416 11.36C20.6256 11.5947 20.151 11.76 19.6176 11.856C19.095 11.952 18.5723 12 18.0496 12H14.6736V0.672ZM16.0176 5.472H17.8736C18.1936 5.472 18.503 5.45067 18.8016 5.408C19.111 5.36533 19.3883 5.28 19.6336 5.152C19.879 5.01333 20.0763 4.82667 20.2256 4.592C20.375 4.34667 20.4496 4.02667 20.4496 3.632C20.4496 3.28 20.3803 2.99733 20.2416 2.784C20.103 2.56 19.9163 2.384 19.6816 2.256C19.4576 2.128 19.1963 2.04267 18.8976 2C18.6096 1.94667 18.3163 1.92 18.0176 1.92H16.0176V5.472ZM16.0176 10.752H18.2896C18.6203 10.752 18.9456 10.72 19.2656 10.656C19.5963 10.5813 19.8896 10.4693 20.1456 10.32C20.4123 10.16 20.6256 9.95733 20.7856 9.712C20.9456 9.456 21.0256 9.14667 21.0256 8.784C21.0256 8.38933 20.9456 8.05867 20.7856 7.792C20.6363 7.52533 20.4336 7.312 20.1776 7.152C19.9323 6.992 19.6443 6.88 19.3136 6.816C18.9936 6.752 18.663 6.72 18.3216 6.72H16.0176V10.752ZM34.6878 3.008C34.3464 2.54933 33.9251 2.208 33.4237 1.984C32.9224 1.74933 32.3998 1.632 31.8558 1.632C31.2264 1.632 30.6451 1.76 30.1118 2.016C29.5891 2.272 29.1358 2.61867 28.7518 3.056C28.3678 3.48267 28.0691 3.984 27.8558 4.56C27.6424 5.12533 27.5358 5.71733 27.5358 6.336C27.5358 6.99733 27.6424 7.616 27.8558 8.192C28.0691 8.75733 28.3624 9.25333 28.7358 9.68C29.1198 10.096 29.5731 10.4267 30.0958 10.672C30.6291 10.9173 31.2158 11.04 31.8558 11.04C32.5491 11.04 33.1678 10.9067 33.7118 10.64C34.2558 10.3627 34.7304 9.968 35.1358 9.456L36.1438 10.304C35.6318 10.9867 35.0131 11.488 34.2878 11.808C33.5731 12.128 32.7624 12.288 31.8558 12.288C31.0451 12.288 30.2878 12.1387 29.5838 11.84C28.8798 11.5413 28.2664 11.1307 27.7438 10.608C27.2318 10.0747 26.8264 9.44533 26.5278 8.72C26.2398 7.99467 26.0958 7.2 26.0958 6.336C26.0958 5.504 26.2344 4.72533 26.5118 4C26.7998 3.27467 27.1998 2.64533 27.7118 2.112C28.2238 1.57867 28.8318 1.15733 29.5358 0.848C30.2398 0.538666 31.0131 0.384 31.8558 0.384C32.6238 0.384 33.3598 0.522666 34.0638 0.799999C34.7784 1.07733 35.3758 1.53067 35.8558 2.16L34.6878 3.008ZM39.8094 0.672H44.1614C44.5347 0.672 44.9294 0.714666 45.3454 0.799999C45.7614 0.885333 46.172 1.024 46.5774 1.216C46.9934 1.39733 47.388 1.63733 47.7614 1.936C48.1454 2.23467 48.4814 2.59733 48.7694 3.024C49.0574 3.44 49.2867 3.92533 49.4574 4.48C49.628 5.024 49.7134 5.64267 49.7134 6.336C49.7134 7.02933 49.628 7.65333 49.4574 8.208C49.2867 8.752 49.0574 9.23733 48.7694 9.664C48.4814 10.08 48.1454 10.4373 47.7614 10.736C47.388 11.0347 46.9934 11.28 46.5774 11.472C46.172 11.6533 45.7614 11.7867 45.3454 11.872C44.9294 11.9573 44.5347 12 44.1614 12H39.8094V0.672ZM41.1534 10.752H43.7134C44.364 10.752 44.9667 10.6667 45.5214 10.496C46.076 10.3253 46.556 10.064 46.9614 9.712C47.3667 9.34933 47.6867 8.89067 47.9214 8.336C48.156 7.78133 48.2734 7.11467 48.2734 6.336C48.2734 5.55733 48.156 4.89067 47.9214 4.336C47.6867 3.78133 47.3667 3.328 46.9614 2.976C46.556 2.61333 46.076 2.34667 45.5214 2.176C44.9667 2.00533 44.364 1.92 43.7134 1.92H41.1534V10.752ZM53.8768 0.672H60.9968V1.92H55.2208V5.472H60.6128V6.72H55.2208V10.752H61.2847V12H53.8768V0.672ZM65.3611 0.672H72.3851V1.92H66.7051V5.664H71.9851V6.912H66.7051V12H65.3611V0.672ZM85.8838 11.232C85.2331 11.5947 84.5451 11.8613 83.8198 12.032C83.1051 12.2027 82.3798 12.288 81.6438 12.288C80.7584 12.288 79.9478 12.144 79.2118 11.856C78.4758 11.568 77.8358 11.1627 77.2918 10.64C76.7584 10.1173 76.3424 9.49333 76.0438 8.768C75.7451 8.032 75.5958 7.22133 75.5958 6.336C75.5958 5.44 75.7504 4.62933 76.0598 3.904C76.3798 3.168 76.8171 2.544 77.3718 2.032C77.9264 1.50933 78.5718 1.104 79.3078 0.815999C80.0438 0.528 80.8384 0.384 81.6918 0.384C82.4384 0.384 83.1531 0.496 83.8358 0.719999C84.5291 0.944 85.1478 1.328 85.6918 1.872L84.6838 2.928C84.2998 2.512 83.8304 2.192 83.2758 1.968C82.7318 1.744 82.1718 1.632 81.5958 1.632C80.9451 1.632 80.3424 1.74933 79.7878 1.984C79.2331 2.21867 78.7478 2.544 78.3318 2.96C77.9264 3.376 77.6064 3.872 77.3718 4.448C77.1478 5.024 77.0358 5.65333 77.0358 6.336C77.0358 7.008 77.1478 7.632 77.3718 8.208C77.6064 8.784 77.9264 9.28533 78.3318 9.712C78.7478 10.128 79.2438 10.4533 79.8198 10.688C80.3958 10.9227 81.0304 11.04 81.7238 11.04C82.1824 11.04 82.6624 10.9867 83.1638 10.88C83.6651 10.7627 84.1238 10.5973 84.5398 10.384V6.912H81.9318V5.664H85.8838V11.232ZM90.7049 0.672H92.0489V5.472H98.0969V0.672H99.4409V12H98.0969V6.72H92.0489V12H90.7049V0.672ZM104.252 0.672H105.596V12H104.252V0.672ZM115.304 9.072C115.304 9.456 115.245 9.84 115.128 10.224C115.021 10.5973 114.84 10.9387 114.584 11.248C114.339 11.5573 114.008 11.808 113.592 12C113.187 12.192 112.68 12.288 112.072 12.288C111.272 12.288 110.605 12.0853 110.072 11.68C109.539 11.2747 109.197 10.6667 109.048 9.856L110.392 9.584C110.477 10.032 110.659 10.3893 110.936 10.656C111.224 10.912 111.608 11.04 112.088 11.04C112.472 11.04 112.787 10.9707 113.032 10.832C113.277 10.6933 113.464 10.512 113.592 10.288C113.731 10.064 113.827 9.808 113.88 9.52C113.933 9.22133 113.96 8.91733 113.96 8.608V0.672H115.304V9.072ZM120.127 0.672H121.471V5.568H121.663L126.815 0.672H128.751L123.151 5.84L129.023 12H127.055L121.663 6.24H121.471V12H120.127V0.672ZM132.205 0.672H133.549V10.752H138.733V12H132.205V0.672ZM142.205 0.672H144.205L148.045 9.552H148.077L151.949 0.672H153.901V12H152.557V2.496H152.525L148.461 12H147.645L143.581 2.496H143.549V12H142.205V0.672ZM158.721 0.672H160.417L166.977 10.08H167.009V0.672H168.353V12H166.657L160.097 2.592H160.065V12H158.721V0.672ZM178.438 12.288C177.574 12.288 176.779 12.1387 176.054 11.84C175.339 11.5413 174.715 11.1307 174.182 10.608C173.659 10.0747 173.248 9.44533 172.95 8.72C172.662 7.984 172.518 7.18933 172.518 6.336C172.518 5.48267 172.662 4.69333 172.95 3.968C173.248 3.232 173.659 2.60267 174.182 2.08C174.715 1.54667 175.339 1.13067 176.054 0.832C176.779 0.533333 177.574 0.384 178.438 0.384C179.302 0.384 180.091 0.533333 180.806 0.832C181.531 1.13067 182.155 1.54667 182.678 2.08C183.211 2.60267 183.622 3.232 183.91 3.968C184.208 4.69333 184.358 5.48267 184.358 6.336C184.358 7.18933 184.208 7.984 183.91 8.72C183.622 9.44533 183.211 10.0747 182.678 10.608C182.155 11.1307 181.531 11.5413 180.806 11.84C180.091 12.1387 179.302 12.288 178.438 12.288ZM178.438 11.04C179.099 11.04 179.702 10.9173 180.246 10.672C180.8 10.4267 181.275 10.0907 181.67 9.664C182.064 9.23733 182.368 8.74133 182.582 8.176C182.806 7.6 182.918 6.98667 182.918 6.336C182.918 5.68533 182.806 5.07733 182.582 4.512C182.368 3.936 182.064 3.43467 181.67 3.008C181.275 2.58133 180.8 2.24533 180.246 2C179.702 1.75467 179.099 1.632 178.438 1.632C177.776 1.632 177.168 1.75467 176.614 2C176.07 2.24533 175.6 2.58133 175.206 3.008C174.811 3.43467 174.502 3.936 174.278 4.512C174.064 5.07733 173.958 5.68533 173.958 6.336C173.958 6.98667 174.064 7.6 174.278 8.176C174.502 8.74133 174.811 9.23733 175.206 9.664C175.6 10.0907 176.07 10.4267 176.614 10.672C177.168 10.9173 177.776 11.04 178.438 11.04ZM188.517 0.672H191.877C192.4 0.672 192.896 0.725333 193.365 0.832C193.845 0.928 194.267 1.09867 194.629 1.344C195.003 1.57867 195.296 1.89867 195.509 2.304C195.733 2.69867 195.845 3.18933 195.845 3.776C195.845 4.39467 195.728 4.90667 195.493 5.312C195.259 5.71733 194.955 6.03733 194.581 6.272C194.219 6.50667 193.819 6.672 193.381 6.768C192.944 6.864 192.528 6.912 192.133 6.912H189.861V12H188.517V0.672ZM189.861 5.664H192.133C192.805 5.664 193.349 5.51467 193.765 5.216C194.192 4.90667 194.405 4.432 194.405 3.792C194.405 3.152 194.192 2.68267 193.765 2.384C193.349 2.07467 192.805 1.92 192.133 1.92H189.861V5.664ZM211.746 12H205.17C204.338 12 203.564 11.8507 202.85 11.552C202.146 11.2533 201.532 10.848 201.01 10.336C200.498 9.81333 200.092 9.2 199.794 8.496C199.495 7.78133 199.346 7.01333 199.346 6.192C199.346 5.37067 199.495 4.608 199.794 3.904C200.092 3.18933 200.498 2.576 201.01 2.064C201.532 1.54133 202.146 1.13067 202.85 0.832C203.564 0.533333 204.338 0.384 205.17 0.384C206.002 0.384 206.77 0.533333 207.474 0.832C208.188 1.13067 208.802 1.54133 209.314 2.064C209.836 2.576 210.247 3.18933 210.546 3.904C210.844 4.608 210.994 5.37067 210.994 6.192C210.994 6.672 210.93 7.152 210.802 7.632C210.674 8.10133 210.487 8.544 210.242 8.96C210.007 9.36533 209.719 9.73333 209.378 10.064C209.047 10.384 208.668 10.6347 208.242 10.816V10.848H211.746V12ZM200.786 6.192C200.786 6.832 200.898 7.42933 201.122 7.984C201.346 8.53867 201.65 9.024 202.034 9.44C202.428 9.84533 202.892 10.1653 203.426 10.4C203.959 10.6347 204.54 10.752 205.17 10.752C205.788 10.752 206.364 10.6347 206.898 10.4C207.442 10.1653 207.906 9.84533 208.29 9.44C208.684 9.024 208.994 8.53867 209.218 7.984C209.442 7.42933 209.554 6.832 209.554 6.192C209.554 5.56267 209.442 4.97067 209.218 4.416C209.004 3.86133 208.7 3.38133 208.306 2.976C207.922 2.56 207.463 2.23467 206.93 2C206.396 1.75467 205.81 1.632 205.17 1.632C204.53 1.632 203.943 1.75467 203.41 2C202.876 2.23467 202.412 2.56 202.018 2.976C201.634 3.38133 201.33 3.86133 201.106 4.416C200.892 4.97067 200.786 5.56267 200.786 6.192ZM215.346 0.672H218.242C218.786 0.672 219.324 0.704 219.858 0.768C220.402 0.831999 220.887 0.970666 221.314 1.184C221.74 1.39733 222.087 1.712 222.354 2.128C222.62 2.53333 222.753 3.088 222.753 3.792C222.753 4.624 222.503 5.296 222.002 5.808C221.5 6.32 220.807 6.64533 219.922 6.784L223.138 12H221.49L218.418 6.912H216.69V12H215.346V0.672ZM216.69 5.664H217.89C218.263 5.664 218.647 5.65333 219.042 5.632C219.447 5.61067 219.815 5.54133 220.146 5.424C220.487 5.30667 220.764 5.12533 220.978 4.88C221.202 4.624 221.314 4.26133 221.314 3.792C221.314 3.38667 221.234 3.06133 221.074 2.816C220.914 2.57067 220.7 2.384 220.434 2.256C220.178 2.11733 219.884 2.02667 219.554 1.984C219.234 1.94133 218.908 1.92 218.578 1.92H216.69V5.664ZM232.503 2.672C232.279 2.30933 231.98 2.048 231.607 1.888C231.233 1.71733 230.844 1.632 230.439 1.632C230.14 1.632 229.847 1.66933 229.559 1.744C229.271 1.81867 229.009 1.93067 228.775 2.08C228.551 2.22933 228.369 2.42667 228.231 2.672C228.092 2.91733 228.023 3.20533 228.023 3.536C228.023 3.792 228.06 4.02133 228.135 4.224C228.22 4.416 228.353 4.592 228.535 4.752C228.716 4.912 228.961 5.06133 229.271 5.2C229.58 5.33867 229.959 5.47733 230.407 5.616C230.844 5.75467 231.265 5.904 231.671 6.064C232.087 6.224 232.449 6.42667 232.759 6.672C233.079 6.91733 233.329 7.22667 233.511 7.6C233.703 7.96267 233.799 8.42133 233.799 8.976C233.799 9.54133 233.687 10.032 233.463 10.448C233.239 10.864 232.94 11.2107 232.567 11.488C232.204 11.7547 231.783 11.952 231.303 12.08C230.823 12.2187 230.327 12.288 229.815 12.288C229.484 12.288 229.153 12.256 228.823 12.192C228.492 12.1387 228.172 12.0533 227.863 11.936C227.564 11.808 227.281 11.648 227.015 11.456C226.748 11.2533 226.519 11.008 226.327 10.72L227.479 9.776C227.724 10.192 228.065 10.5067 228.503 10.72C228.94 10.9333 229.404 11.04 229.895 11.04C230.183 11.04 230.471 10.9973 230.759 10.912C231.057 10.8267 231.324 10.704 231.559 10.544C231.793 10.3733 231.985 10.1653 232.135 9.92C232.284 9.67467 232.359 9.392 232.359 9.072C232.359 8.72 232.3 8.43733 232.183 8.224C232.065 8 231.884 7.808 231.639 7.648C231.393 7.488 231.084 7.344 230.711 7.216C230.337 7.088 229.9 6.93867 229.399 6.768C228.993 6.64 228.62 6.496 228.279 6.336C227.937 6.16533 227.639 5.96267 227.383 5.728C227.137 5.48267 226.94 5.19467 226.791 4.864C226.652 4.52267 226.583 4.11733 226.583 3.648C226.583 3.104 226.689 2.62933 226.903 2.224C227.116 1.81867 227.404 1.48267 227.767 1.216C228.129 0.938666 228.54 0.730666 228.999 0.591999C229.457 0.453333 229.937 0.384 230.439 0.384C231.079 0.384 231.66 0.485333 232.183 0.688C232.716 0.88 233.191 1.22133 233.607 1.712L232.503 2.672ZM245.617 1.92H241.873V12H240.529V1.92H236.785V0.672H245.617V1.92ZM257.701 7.68C257.701 8.29867 257.621 8.88533 257.461 9.44C257.312 9.99467 257.066 10.4853 256.725 10.912C256.394 11.328 255.957 11.664 255.413 11.92C254.869 12.1653 254.208 12.288 253.429 12.288C252.65 12.288 251.989 12.1653 251.445 11.92C250.901 11.664 250.458 11.328 250.117 10.912C249.786 10.4853 249.541 9.99467 249.381 9.44C249.232 8.88533 249.157 8.29867 249.157 7.68V0.672H250.501V7.488C250.501 7.94667 250.549 8.38933 250.645 8.816C250.741 9.24267 250.901 9.62133 251.125 9.952C251.349 10.2827 251.648 10.5493 252.021 10.752C252.394 10.944 252.864 11.04 253.429 11.04C253.994 11.04 254.464 10.944 254.837 10.752C255.21 10.5493 255.509 10.2827 255.733 9.952C255.957 9.62133 256.117 9.24267 256.213 8.816C256.309 8.38933 256.357 7.94667 256.357 7.488V0.672H257.701V7.68ZM260.918 0.672H262.439L265.927 9.984H265.959L269.559 0.672H270.983L266.551 12H265.255L260.918 0.672ZM272.94 0.672H274.428L277.004 10.08H277.036L279.82 0.672H281.324L284.092 10.08H284.124L286.748 0.672H288.156L284.828 12H283.372L280.572 2.4H280.54L277.724 12H276.252L272.94 0.672ZM294.33 6.032L290.522 0.672H292.25L295.306 5.104L298.33 0.672H300.01L296.202 6.032L300.378 12H298.602L295.242 6.976L291.866 12H290.202L294.33 6.032ZM306.408 7.12L302.184 0.672H303.896L307.08 5.792L310.36 0.672H311.976L307.752 7.12V12H306.408V7.12ZM314.292 10.8L320.836 1.92H314.388V0.672H322.468V1.824L315.924 10.752H322.548V12H314.292V10.8ZM1.088 29.472C1.472 29.0773 1.92533 28.7893 2.448 28.608C2.98133 28.416 3.52 28.32 4.064 28.32C5.17333 28.32 5.97333 28.5813 6.464 29.104C6.95467 29.6267 7.2 30.4213 7.2 31.488V34.704C7.2 34.9173 7.21067 35.1413 7.232 35.376C7.25333 35.6 7.28 35.808 7.312 36H6.112C6.06933 35.8293 6.04267 35.6427 6.032 35.44C6.032 35.2267 6.032 35.04 6.032 34.88H6C5.75467 35.264 5.424 35.5787 5.008 35.824C4.60267 36.0693 4.112 36.192 3.536 36.192C3.152 36.192 2.78933 36.144 2.448 36.048C2.11733 35.952 1.824 35.8133 1.568 35.632C1.32267 35.44 1.12533 35.2053 0.976 34.928C0.826667 34.6507 0.752 34.3307 0.752 33.968C0.752 33.3493 0.912 32.864 1.232 32.512C1.552 32.16 1.94667 31.8987 2.416 31.728C2.896 31.5573 3.408 31.4507 3.952 31.408C4.50667 31.3653 5.01333 31.344 5.472 31.344H5.952V31.12C5.952 30.576 5.78667 30.1653 5.456 29.888C5.136 29.6107 4.68267 29.472 4.096 29.472C3.69067 29.472 3.29067 29.5413 2.896 29.68C2.512 29.808 2.17067 30.0107 1.872 30.288L1.088 29.472ZM4.704 32.4C3.904 32.4 3.26933 32.512 2.8 32.736C2.33067 32.96 2.096 33.328 2.096 33.84C2.096 34.3093 2.25067 34.6453 2.56 34.848C2.88 35.04 3.27467 35.136 3.744 35.136C4.10667 35.136 4.42133 35.0773 4.688 34.96C4.96533 34.832 5.19467 34.6667 5.376 34.464C5.55733 34.2613 5.696 34.0267 5.792 33.76C5.888 33.4827 5.94133 33.1893 5.952 32.88V32.4H4.704ZM11.4169 23.904H12.6649V29.6H12.6969C13.0382 29.1947 13.4329 28.88 13.8809 28.656C14.3395 28.432 14.8409 28.32 15.3849 28.32C15.9715 28.32 16.5049 28.4213 16.9849 28.624C17.4755 28.816 17.8915 29.088 18.2329 29.44C18.5742 29.792 18.8409 30.208 19.0329 30.688C19.2249 31.168 19.3209 31.6907 19.3209 32.256C19.3209 32.8213 19.2249 33.344 19.0329 33.824C18.8409 34.304 18.5742 34.72 18.2329 35.072C17.9022 35.424 17.5075 35.7013 17.0489 35.904C16.5902 36.096 16.0995 36.192 15.5769 36.192C14.9049 36.192 14.3129 36.048 13.8009 35.76C13.2995 35.4613 12.9315 35.0987 12.6969 34.672H12.6649V36H11.4169V23.904ZM12.6649 32.256C12.6649 32.6507 12.7235 33.0187 12.8409 33.36C12.9689 33.6907 13.1502 33.984 13.3849 34.24C13.6195 34.4853 13.8969 34.6827 14.2169 34.832C14.5475 34.9707 14.9155 35.04 15.3209 35.04C15.7262 35.04 16.0889 34.9707 16.4089 34.832C16.7395 34.6827 17.0222 34.4853 17.2569 34.24C17.4915 33.984 17.6675 33.6907 17.7849 33.36C17.9129 33.0187 17.9769 32.6507 17.9769 32.256C17.9769 31.8613 17.9129 31.4987 17.7849 31.168C17.6675 30.8267 17.4915 30.5333 17.2569 30.288C17.0222 30.032 16.7395 29.8347 16.4089 29.696C16.0889 29.5467 15.7262 29.472 15.3209 29.472C14.9155 29.472 14.5475 29.5467 14.2169 29.696C13.8969 29.8347 13.6195 30.032 13.3849 30.288C13.1502 30.5333 12.9689 30.8267 12.8409 31.168C12.7235 31.4987 12.6649 31.8613 12.6649 32.256ZM28.5901 30.384C28.3235 30.064 28.0355 29.8347 27.7261 29.696C27.4168 29.5467 27.0755 29.472 26.7021 29.472C26.2861 29.472 25.9181 29.5467 25.5981 29.696C25.2781 29.8347 25.0115 30.032 24.7981 30.288C24.5955 30.544 24.4408 30.8427 24.3341 31.184C24.2275 31.5147 24.1741 31.872 24.1741 32.256C24.1741 32.64 24.2328 33.0027 24.3501 33.344C24.4781 33.6747 24.6488 33.968 24.8621 34.224C25.0861 34.48 25.3528 34.6827 25.6621 34.832C25.9715 34.9707 26.3181 35.04 26.7021 35.04C27.5235 35.04 28.1581 34.7307 28.6061 34.112L29.5341 34.992C29.1715 35.408 28.7448 35.712 28.2541 35.904C27.7635 36.096 27.2461 36.192 26.7021 36.192C26.1261 36.192 25.5981 36.096 25.1181 35.904C24.6381 35.712 24.2275 35.44 23.8861 35.088C23.5555 34.736 23.2941 34.32 23.1021 33.84C22.9208 33.36 22.8301 32.832 22.8301 32.256C22.8301 31.6907 22.9208 31.168 23.1021 30.688C23.2941 30.208 23.5608 29.792 23.9021 29.44C24.2435 29.088 24.6488 28.816 25.1181 28.624C25.5981 28.4213 26.1261 28.32 26.7021 28.32C27.2568 28.32 27.7795 28.416 28.2701 28.608C28.7715 28.8 29.2088 29.0987 29.5821 29.504L28.5901 30.384ZM39.2049 34.672H39.1729C38.9382 35.0987 38.5649 35.4613 38.0529 35.76C37.5515 36.048 36.9649 36.192 36.2929 36.192C35.7702 36.192 35.2795 36.096 34.8209 35.904C34.3622 35.7013 33.9622 35.424 33.6209 35.072C33.2902 34.72 33.0289 34.304 32.8369 33.824C32.6449 33.344 32.5489 32.8213 32.5489 32.256C32.5489 31.6907 32.6449 31.168 32.8369 30.688C33.0289 30.208 33.2955 29.792 33.6369 29.44C33.9782 29.088 34.3889 28.816 34.8689 28.624C35.3595 28.4213 35.8982 28.32 36.4849 28.32C37.0289 28.32 37.5249 28.432 37.9729 28.656C38.4315 28.88 38.8315 29.1947 39.1729 29.6H39.2049V23.904H40.4529V36H39.2049V34.672ZM39.2049 32.256C39.2049 31.8613 39.1409 31.4987 39.0129 31.168C38.8955 30.8267 38.7195 30.5333 38.4849 30.288C38.2502 30.032 37.9675 29.8347 37.6369 29.696C37.3169 29.5467 36.9542 29.472 36.5489 29.472C36.1435 29.472 35.7755 29.5467 35.4449 29.696C35.1249 29.8347 34.8475 30.032 34.6129 30.288C34.3782 30.5333 34.1969 30.8267 34.0689 31.168C33.9515 31.4987 33.8929 31.8613 33.8929 32.256C33.8929 32.6507 33.9515 33.0187 34.0689 33.36C34.1969 33.6907 34.3782 33.984 34.6129 34.24C34.8475 34.4853 35.1249 34.6827 35.4449 34.832C35.7755 34.9707 36.1435 35.04 36.5489 35.04C36.9542 35.04 37.3169 34.9707 37.6369 34.832C37.9675 34.6827 38.2502 34.4853 38.4849 34.24C38.7195 33.984 38.8955 33.6907 39.0129 33.36C39.1409 33.0187 39.2049 32.6507 39.2049 32.256ZM51.4501 34.64C51.0021 35.216 50.5115 35.6213 49.9781 35.856C49.4448 36.08 48.8261 36.192 48.1221 36.192C47.5355 36.192 47.0075 36.0907 46.5381 35.888C46.0688 35.6747 45.6688 35.392 45.3381 35.04C45.0181 34.688 44.7675 34.272 44.5861 33.792C44.4155 33.312 44.3301 32.8 44.3301 32.256C44.3301 31.68 44.4261 31.152 44.6181 30.672C44.8101 30.1813 45.0768 29.7653 45.4181 29.424C45.7595 29.072 46.1648 28.8 46.6341 28.608C47.1035 28.416 47.6155 28.32 48.1701 28.32C48.6928 28.32 49.1728 28.4107 49.6101 28.592C50.0475 28.7627 50.4208 29.0187 50.7301 29.36C51.0501 29.6907 51.2955 30.1013 51.4661 30.592C51.6368 31.072 51.7221 31.6213 51.7221 32.24V32.64H45.6741C45.6955 32.96 45.7701 33.2693 45.8981 33.568C46.0368 33.856 46.2128 34.112 46.4261 34.336C46.6395 34.5493 46.8901 34.72 47.1781 34.848C47.4661 34.976 47.7808 35.04 48.1221 35.04C48.6661 35.04 49.1248 34.944 49.4981 34.752C49.8715 34.56 50.2075 34.2773 50.5061 33.904L51.4501 34.64ZM50.3781 31.584C50.3568 30.944 50.1488 30.432 49.7541 30.048C49.3595 29.664 48.8155 29.472 48.1221 29.472C47.4288 29.472 46.8688 29.664 46.4421 30.048C46.0155 30.432 45.7595 30.944 45.6741 31.584H50.3781ZM56.2928 29.568H54.6608V28.512H56.2928V26.832C56.2928 26.3733 56.3354 25.9573 56.4208 25.584C56.5061 25.2 56.6501 24.8693 56.8528 24.592C57.0661 24.3147 57.3434 24.1013 57.6848 23.952C58.0261 23.792 58.4474 23.712 58.9488 23.712C59.1088 23.712 59.2794 23.728 59.4608 23.76C59.6421 23.792 59.7914 23.84 59.9088 23.904L59.7328 25.024C59.4341 24.9173 59.1514 24.864 58.8848 24.864C58.5648 24.864 58.3141 24.9227 58.1328 25.04C57.9514 25.1467 57.8128 25.3013 57.7168 25.504C57.6314 25.696 57.5781 25.9307 57.5568 26.208C57.5461 26.4853 57.5408 26.784 57.5408 27.104V28.512H59.3648V29.568H57.5408V36H56.2928V29.568ZM70.1716 35.664C70.1716 37.0293 69.8196 38.064 69.1156 38.768C68.4223 39.4827 67.4143 39.84 66.0916 39.84C65.3556 39.84 64.689 39.7333 64.0916 39.52C63.505 39.3067 62.945 38.9387 62.4116 38.416L63.3076 37.392C63.7023 37.8187 64.1183 38.1387 64.5556 38.352C65.0036 38.576 65.5156 38.688 66.0916 38.688C66.6463 38.688 67.105 38.6027 67.4676 38.432C67.841 38.272 68.1343 38.048 68.3476 37.76C68.561 37.4827 68.7103 37.1627 68.7956 36.8C68.881 36.4373 68.9236 36.0587 68.9236 35.664V34.704H68.8916C68.593 35.184 68.2036 35.536 67.7236 35.76C67.2436 35.984 66.753 36.096 66.2516 36.096C65.665 36.096 65.1263 36 64.6356 35.808C64.145 35.616 63.7236 35.3493 63.3716 35.008C63.0196 34.6667 62.7476 34.2613 62.5556 33.792C62.3636 33.3227 62.2676 32.8107 62.2676 32.256C62.2676 31.648 62.3636 31.0987 62.5556 30.608C62.7476 30.1173 63.0143 29.7067 63.3556 29.376C63.7076 29.0347 64.129 28.7733 64.6196 28.592C65.1103 28.4107 65.6543 28.32 66.2516 28.32C66.5076 28.32 66.7636 28.352 67.0196 28.416C67.2756 28.4693 67.521 28.56 67.7556 28.688C68.001 28.8053 68.2196 28.96 68.4116 29.152C68.6036 29.3333 68.7636 29.5467 68.8916 29.792H68.9236V28.512H70.1716V35.664ZM63.6116 32.256C63.6116 32.64 63.681 32.9973 63.8196 33.328C63.9583 33.648 64.145 33.9307 64.3796 34.176C64.625 34.4107 64.9076 34.5973 65.2276 34.736C65.5476 34.8747 65.889 34.944 66.2516 34.944C66.6783 34.944 67.057 34.8693 67.3876 34.72C67.7183 34.5707 67.9956 34.3733 68.2196 34.128C68.4543 33.872 68.6303 33.584 68.7476 33.264C68.865 32.9333 68.9236 32.5867 68.9236 32.224C68.9236 31.8187 68.8596 31.4507 68.7316 31.12C68.6036 30.7787 68.4223 30.4853 68.1876 30.24C67.953 29.9947 67.6703 29.808 67.3396 29.68C67.009 29.5413 66.6463 29.472 66.2516 29.472C65.857 29.472 65.4943 29.5467 65.1636 29.696C64.8436 29.8347 64.5663 30.032 64.3316 30.288C64.1076 30.5333 63.9316 30.8267 63.8036 31.168C63.6756 31.4987 63.6116 31.8613 63.6116 32.256ZM74.4809 23.904H75.7289V29.552H75.7609C75.8462 29.4027 75.9635 29.2587 76.1129 29.12C76.2622 28.9707 76.4382 28.8373 76.6409 28.72C76.8542 28.6027 77.0889 28.5067 77.3449 28.432C77.6009 28.3573 77.8729 28.32 78.1609 28.32C78.6515 28.32 79.0729 28.3947 79.4249 28.544C79.7875 28.6933 80.0862 28.9013 80.3209 29.168C80.5555 29.4347 80.7262 29.76 80.8329 30.144C80.9502 30.5173 81.0089 30.928 81.0089 31.376V36H79.7609V31.504C79.7609 30.8747 79.6222 30.3787 79.3449 30.016C79.0675 29.6533 78.6355 29.472 78.0489 29.472C77.6435 29.472 77.2915 29.5413 76.9929 29.68C76.7049 29.8187 76.4649 30.016 76.2729 30.272C76.0915 30.528 75.9529 30.832 75.8569 31.184C75.7715 31.536 75.7289 31.9253 75.7289 32.352V36H74.4809V23.904ZM85.4835 28.512H86.7315V36H85.4835V28.512ZM85.1955 25.584C85.1955 25.3387 85.2808 25.1253 85.4515 24.944C85.6328 24.7627 85.8515 24.672 86.1075 24.672C86.3635 24.672 86.5768 24.7627 86.7475 24.944C86.9288 25.1253 87.0195 25.3387 87.0195 25.584C87.0195 25.8507 86.9342 26.0693 86.7635 26.24C86.5928 26.4107 86.3742 26.496 86.1075 26.496C85.8408 26.496 85.6222 26.4107 85.4515 26.24C85.2808 26.0693 85.1955 25.8507 85.1955 25.584ZM92.5753 37.68C92.5753 37.872 92.5433 38.0907 92.4793 38.336C92.4259 38.592 92.3193 38.8267 92.1593 39.04C91.9993 39.264 91.7699 39.4507 91.4713 39.6C91.1833 39.76 90.8099 39.84 90.3513 39.84C90.2019 39.84 90.0579 39.8293 89.9192 39.808C89.7699 39.7867 89.6259 39.744 89.4872 39.68L89.6312 38.592C89.8339 38.656 90.0366 38.688 90.2393 38.688C90.4739 38.688 90.6606 38.6453 90.7993 38.56C90.9486 38.4747 91.0606 38.3573 91.1353 38.208C91.2099 38.0693 91.2579 37.904 91.2793 37.712C91.3113 37.52 91.3273 37.3173 91.3273 37.104V28.512H92.5753V37.68ZM91.0393 25.584C91.0393 25.3387 91.1246 25.1253 91.2953 24.944C91.4766 24.7627 91.6953 24.672 91.9513 24.672C92.2073 24.672 92.4206 24.7627 92.5913 24.944C92.7726 25.1253 92.8633 25.3387 92.8633 25.584C92.8633 25.8507 92.7779 26.0693 92.6073 26.24C92.4366 26.4107 92.2179 26.496 91.9513 26.496C91.6846 26.496 91.4659 26.4107 91.2953 26.24C91.1246 26.0693 91.0393 25.8507 91.0393 25.584ZM97.059 23.904H98.307V31.808L101.715 28.512H103.491L99.875 31.92L103.859 36H102.019L98.307 32.064V36H97.059V23.904ZM107.171 23.904H108.419V36H107.171V23.904ZM112.903 30.288C112.903 29.9467 112.892 29.6267 112.871 29.328C112.849 29.0293 112.839 28.7573 112.839 28.512H114.023C114.023 28.7147 114.028 28.9173 114.039 29.12C114.049 29.3227 114.055 29.5307 114.055 29.744H114.087C114.172 29.5627 114.289 29.3867 114.439 29.216C114.599 29.0453 114.785 28.896 114.999 28.768C115.212 28.6293 115.452 28.5227 115.719 28.448C115.985 28.3627 116.273 28.32 116.583 28.32C116.988 28.32 117.324 28.3733 117.591 28.48C117.868 28.576 118.097 28.6987 118.279 28.848C118.46 28.9867 118.599 29.1413 118.695 29.312C118.801 29.472 118.887 29.616 118.951 29.744C119.228 29.296 119.548 28.9493 119.911 28.704C120.273 28.448 120.743 28.32 121.319 28.32C121.852 28.32 122.3 28.3947 122.663 28.544C123.025 28.6827 123.319 28.8907 123.543 29.168C123.767 29.4347 123.927 29.7653 124.023 30.16C124.119 30.544 124.167 30.976 124.167 31.456V36H122.919V31.52C122.919 31.264 122.892 31.0133 122.839 30.768C122.785 30.5227 122.689 30.304 122.551 30.112C122.412 29.92 122.225 29.7653 121.991 29.648C121.756 29.5307 121.457 29.472 121.095 29.472C120.828 29.472 120.577 29.5253 120.343 29.632C120.108 29.7387 119.9 29.888 119.719 30.08C119.548 30.272 119.409 30.5067 119.303 30.784C119.207 31.0507 119.159 31.3493 119.159 31.68V36H117.911V31.76C117.911 30.928 117.799 30.3413 117.575 30C117.351 29.648 116.983 29.472 116.471 29.472C116.065 29.472 115.713 29.5413 115.415 29.68C115.127 29.8187 114.887 30.016 114.695 30.272C114.513 30.528 114.375 30.832 114.279 31.184C114.193 31.536 114.151 31.9253 114.151 32.352V36H112.903V30.288ZM128.528 30.288C128.528 29.9467 128.517 29.6267 128.496 29.328C128.474 29.0293 128.464 28.7573 128.464 28.512H129.648C129.648 28.7147 129.653 28.9173 129.664 29.12C129.674 29.3227 129.68 29.5307 129.68 29.744H129.712C129.797 29.5627 129.914 29.3867 130.064 29.216C130.224 29.0453 130.41 28.896 130.624 28.768C130.837 28.6293 131.077 28.5227 131.344 28.448C131.61 28.3627 131.898 28.32 132.208 28.32C132.698 28.32 133.12 28.3947 133.472 28.544C133.834 28.6933 134.133 28.9013 134.368 29.168C134.602 29.4347 134.773 29.76 134.88 30.144C134.997 30.5173 135.056 30.928 135.056 31.376V36H133.808V31.504C133.808 30.8747 133.669 30.3787 133.392 30.016C133.114 29.6533 132.682 29.472 132.096 29.472C131.69 29.472 131.338 29.5413 131.04 29.68C130.752 29.8187 130.512 30.016 130.32 30.272C130.138 30.528 130 30.832 129.904 31.184C129.818 31.536 129.776 31.9253 129.776 32.352V36H128.528V30.288ZM138.986 32.256C138.986 31.6693 139.088 31.136 139.29 30.656C139.493 30.176 139.77 29.7653 140.122 29.424C140.474 29.072 140.896 28.8 141.386 28.608C141.877 28.416 142.41 28.32 142.986 28.32C143.562 28.32 144.096 28.416 144.586 28.608C145.077 28.8 145.498 29.072 145.85 29.424C146.202 29.7653 146.48 30.176 146.682 30.656C146.885 31.136 146.986 31.6693 146.986 32.256C146.986 32.8427 146.885 33.376 146.682 33.856C146.48 34.336 146.202 34.752 145.85 35.104C145.498 35.4453 145.077 35.712 144.586 35.904C144.096 36.096 143.562 36.192 142.986 36.192C142.41 36.192 141.877 36.096 141.386 35.904C140.896 35.712 140.474 35.4453 140.122 35.104C139.77 34.752 139.493 34.336 139.29 33.856C139.088 33.376 138.986 32.8427 138.986 32.256ZM140.33 32.256C140.33 32.6507 140.389 33.0187 140.506 33.36C140.634 33.6907 140.816 33.984 141.05 34.24C141.285 34.4853 141.562 34.6827 141.882 34.832C142.213 34.9707 142.581 35.04 142.986 35.04C143.392 35.04 143.754 34.9707 144.074 34.832C144.405 34.6827 144.688 34.4853 144.922 34.24C145.157 33.984 145.333 33.6907 145.45 33.36C145.578 33.0187 145.642 32.6507 145.642 32.256C145.642 31.8613 145.578 31.4987 145.45 31.168C145.333 30.8267 145.157 30.5333 144.922 30.288C144.688 30.032 144.405 29.8347 144.074 29.696C143.754 29.5467 143.392 29.472 142.986 29.472C142.581 29.472 142.213 29.5467 141.882 29.696C141.562 29.8347 141.285 30.032 141.05 30.288C140.816 30.5333 140.634 30.8267 140.506 31.168C140.389 31.4987 140.33 31.8613 140.33 32.256ZM150.854 28.512H152.102V29.6H152.134C152.476 29.1947 152.87 28.88 153.318 28.656C153.777 28.432 154.278 28.32 154.822 28.32C155.409 28.32 155.942 28.4213 156.422 28.624C156.913 28.816 157.329 29.088 157.67 29.44C158.012 29.792 158.278 30.208 158.47 30.688C158.662 31.168 158.758 31.6907 158.758 32.256C158.758 32.8213 158.662 33.344 158.47 33.824C158.278 34.304 158.012 34.72 157.67 35.072C157.34 35.424 156.945 35.7013 156.486 35.904C156.028 36.096 155.537 36.192 155.014 36.192C154.342 36.192 153.75 36.048 153.238 35.76C152.737 35.4613 152.369 35.0987 152.134 34.672H152.102V39.648H150.854V28.512ZM152.102 32.256C152.102 32.6507 152.161 33.0187 152.278 33.36C152.406 33.6907 152.588 33.984 152.822 34.24C153.057 34.4853 153.334 34.6827 153.654 34.832C153.985 34.9707 154.353 35.04 154.758 35.04C155.164 35.04 155.526 34.9707 155.846 34.832C156.177 34.6827 156.46 34.4853 156.694 34.24C156.929 33.984 157.105 33.6907 157.222 33.36C157.35 33.0187 157.414 32.6507 157.414 32.256C157.414 31.8613 157.35 31.4987 157.222 31.168C157.105 30.8267 156.929 30.5333 156.694 30.288C156.46 30.032 156.177 29.8347 155.846 29.696C155.526 29.5467 155.164 29.472 154.758 29.472C154.353 29.472 153.985 29.5467 153.654 29.696C153.334 29.8347 153.057 30.032 152.822 30.288C152.588 30.5333 152.406 30.8267 152.278 31.168C152.161 31.4987 152.102 31.8613 152.102 32.256ZM170.172 39.648H168.924V34.912H168.892C168.55 35.3173 168.15 35.632 167.692 35.856C167.244 36.08 166.748 36.192 166.204 36.192C165.617 36.192 165.078 36.096 164.588 35.904C164.108 35.7013 163.697 35.424 163.356 35.072C163.014 34.72 162.748 34.304 162.556 33.824C162.364 33.344 162.268 32.8213 162.268 32.256C162.268 31.7013 162.364 31.184 162.556 30.704C162.748 30.224 163.009 29.808 163.34 29.456C163.681 29.104 164.081 28.8267 164.54 28.624C164.998 28.4213 165.489 28.32 166.012 28.32C166.684 28.32 167.27 28.4693 167.772 28.768C168.284 29.056 168.657 29.4133 168.892 29.84H168.924V28.512H170.172V39.648ZM168.924 32.256C168.924 31.8613 168.86 31.4987 168.732 31.168C168.614 30.8267 168.438 30.5333 168.204 30.288C167.969 30.032 167.686 29.8347 167.356 29.696C167.036 29.5467 166.673 29.472 166.268 29.472C165.862 29.472 165.494 29.5467 165.164 29.696C164.844 29.8347 164.566 30.032 164.332 30.288C164.097 30.5333 163.916 30.8267 163.788 31.168C163.67 31.4987 163.612 31.8613 163.612 32.256C163.612 32.6507 163.67 33.0187 163.788 33.36C163.916 33.6907 164.097 33.984 164.332 34.24C164.566 34.4853 164.844 34.6827 165.164 34.832C165.494 34.9707 165.862 35.04 166.268 35.04C166.673 35.04 167.036 34.9707 167.356 34.832C167.686 34.6827 167.969 34.4853 168.204 34.24C168.438 33.984 168.614 33.6907 168.732 33.36C168.86 33.0187 168.924 32.6507 168.924 32.256ZM174.481 30.288C174.481 29.9467 174.47 29.6267 174.449 29.328C174.428 29.0293 174.417 28.7573 174.417 28.512H175.601C175.601 28.7147 175.606 28.9173 175.617 29.12C175.628 29.3227 175.633 29.5307 175.633 29.744H175.665C175.75 29.5627 175.868 29.3867 176.017 29.216C176.177 29.0453 176.364 28.896 176.577 28.768C176.79 28.6293 177.03 28.5227 177.297 28.448C177.564 28.3627 177.852 28.32 178.161 28.32C178.246 28.32 178.332 28.3253 178.417 28.336C178.502 28.3467 178.588 28.368 178.673 28.4L178.593 29.664C178.38 29.6 178.156 29.568 177.921 29.568C177.153 29.568 176.593 29.8187 176.241 30.32C175.9 30.8107 175.729 31.488 175.729 32.352V36H174.481V30.288ZM182.266 34.032C182.511 34.3413 182.778 34.5867 183.066 34.768C183.365 34.9493 183.738 35.04 184.186 35.04C184.378 35.04 184.57 35.0187 184.762 34.976C184.965 34.9333 185.146 34.864 185.306 34.768C185.466 34.672 185.594 34.5547 185.69 34.416C185.786 34.2667 185.834 34.0907 185.834 33.888C185.834 33.6853 185.786 33.52 185.69 33.392C185.605 33.264 185.487 33.1573 185.338 33.072C185.189 32.976 185.018 32.9013 184.826 32.848C184.634 32.7947 184.437 32.7467 184.234 32.704C183.882 32.6293 183.546 32.544 183.226 32.448C182.906 32.352 182.623 32.2293 182.378 32.08C182.143 31.92 181.951 31.7173 181.802 31.472C181.663 31.2267 181.594 30.912 181.594 30.528C181.594 30.1653 181.674 29.8453 181.834 29.568C181.994 29.2907 182.207 29.0613 182.474 28.88C182.741 28.6987 183.039 28.56 183.37 28.464C183.701 28.368 184.042 28.32 184.394 28.32C184.927 28.32 185.418 28.4267 185.866 28.64C186.325 28.8533 186.682 29.2 186.938 29.68L185.898 30.368C185.738 30.1013 185.525 29.888 185.258 29.728C185.002 29.5573 184.687 29.472 184.314 29.472C184.143 29.472 183.967 29.4933 183.786 29.536C183.615 29.5787 183.461 29.6427 183.322 29.728C183.183 29.8133 183.066 29.9253 182.97 30.064C182.885 30.192 182.842 30.3413 182.842 30.512C182.842 30.672 182.89 30.8107 182.986 30.928C183.093 31.0347 183.231 31.1307 183.402 31.216C183.583 31.3013 183.786 31.376 184.01 31.44C184.245 31.504 184.485 31.5573 184.73 31.6C185.061 31.664 185.375 31.7493 185.674 31.856C185.973 31.952 186.234 32.0853 186.458 32.256C186.682 32.4267 186.858 32.64 186.986 32.896C187.114 33.152 187.178 33.4667 187.178 33.84C187.178 34.2667 187.093 34.6293 186.922 34.928C186.751 35.2267 186.522 35.472 186.234 35.664C185.957 35.8453 185.637 35.9787 185.274 36.064C184.922 36.1493 184.559 36.192 184.186 36.192C183.546 36.192 182.991 36.096 182.522 35.904C182.063 35.7013 181.647 35.3333 181.274 34.8L182.266 34.032ZM195.014 29.568H192.806V33.312C192.806 33.5573 192.812 33.7867 192.822 34C192.833 34.2027 192.876 34.384 192.95 34.544C193.025 34.6933 193.137 34.816 193.286 34.912C193.436 34.9973 193.649 35.04 193.926 35.04C194.108 35.04 194.294 35.0187 194.486 34.976C194.678 34.9333 194.86 34.8693 195.03 34.784L195.078 35.92C194.865 36.016 194.625 36.0853 194.358 36.128C194.102 36.1707 193.857 36.192 193.622 36.192C193.174 36.192 192.817 36.1333 192.55 36.016C192.284 35.8987 192.076 35.7333 191.926 35.52C191.777 35.3067 191.676 35.0453 191.622 34.736C191.58 34.416 191.558 34.064 191.558 33.68V29.568H189.926V28.512H191.558V26.384H192.806V28.512H195.014V29.568ZM205.071 34.224C205.071 34.5653 205.082 34.8853 205.103 35.184C205.125 35.4827 205.135 35.7547 205.135 36H203.951C203.951 35.7973 203.946 35.5947 203.935 35.392C203.925 35.1893 203.919 34.9813 203.919 34.768H203.887C203.802 34.9493 203.679 35.1253 203.519 35.296C203.37 35.4667 203.189 35.6213 202.975 35.76C202.762 35.888 202.522 35.9893 202.255 36.064C201.989 36.1493 201.701 36.192 201.391 36.192C200.901 36.192 200.474 36.1173 200.111 35.968C199.759 35.8187 199.466 35.6107 199.231 35.344C198.997 35.0773 198.821 34.7573 198.703 34.384C198.597 34 198.543 33.584 198.543 33.136V28.512H199.791V33.008C199.791 33.6373 199.93 34.1333 200.207 34.496C200.485 34.8587 200.917 35.04 201.503 35.04C201.909 35.04 202.255 34.9707 202.543 34.832C202.842 34.6933 203.082 34.496 203.263 34.24C203.455 33.984 203.594 33.68 203.679 33.328C203.775 32.976 203.823 32.5867 203.823 32.16V28.512H205.071V34.224ZM212.842 36H211.466L208.41 28.512H209.866L212.202 34.384H212.234L214.458 28.512H215.802L212.842 36ZM227.185 36H225.953L223.825 30.24H223.793L221.905 36H220.625L218.193 28.512H219.569L221.281 34.272H221.313L223.249 28.512H224.561L226.529 34.272H226.561L228.257 28.512H229.601L227.185 36ZM234.948 31.968L232.26 28.512H233.892L235.876 31.2L237.748 28.512H239.268L236.692 31.968L239.78 36H238.132L235.764 32.768L233.428 36H231.876L234.948 31.968ZM245.764 37.712C245.636 38.032 245.503 38.32 245.364 38.576C245.236 38.8427 245.076 39.0667 244.884 39.248C244.703 39.44 244.479 39.584 244.212 39.68C243.956 39.7867 243.641 39.84 243.268 39.84C243.087 39.84 242.895 39.8293 242.692 39.808C242.5 39.7867 242.319 39.7333 242.148 39.648L242.308 38.56C242.436 38.6133 242.569 38.6453 242.708 38.656C242.847 38.6773 243.007 38.688 243.188 38.688C243.593 38.688 243.892 38.576 244.084 38.352C244.276 38.128 244.441 37.8293 244.58 37.456L245.092 36.048L241.988 28.512H243.444L245.764 34.384H245.796L248.02 28.512H249.38L245.764 37.712ZM252.027 35.024L256.427 29.568H252.219V28.512H258.059V29.472L253.659 34.944H258.171V36H252.027V35.024ZM5.76 60H4.416V50.4H4.384L2.352 52.112L1.552 51.136L4.592 48.672H5.76V60ZM11.6906 58.464L15.9626 54.304C16.2293 54.048 16.464 53.8133 16.6666 53.6C16.8693 53.376 17.0346 53.1627 17.1626 52.96C17.3013 52.7467 17.4026 52.528 17.4666 52.304C17.5306 52.08 17.5626 51.8293 17.5626 51.552C17.5626 51.2533 17.5093 50.9867 17.4026 50.752C17.296 50.5173 17.1466 50.32 16.9546 50.16C16.7733 49.9893 16.5546 49.8613 16.2986 49.776C16.0533 49.68 15.7866 49.632 15.4986 49.632C14.9226 49.632 14.448 49.7973 14.0746 50.128C13.7013 50.4587 13.4613 50.896 13.3546 51.44L11.8986 51.312C11.9733 50.8533 12.112 50.448 12.3146 50.096C12.528 49.7333 12.7893 49.4347 13.0986 49.2C13.4186 48.9653 13.776 48.7893 14.1706 48.672C14.5653 48.544 14.992 48.48 15.4506 48.48C15.92 48.48 16.3626 48.5493 16.7786 48.688C17.1946 48.816 17.5573 49.008 17.8666 49.264C18.1866 49.52 18.4373 49.84 18.6186 50.224C18.8106 50.608 18.9066 51.0507 18.9066 51.552C18.9066 52 18.8426 52.4053 18.7146 52.768C18.5973 53.1307 18.432 53.4667 18.2186 53.776C18.016 54.0747 17.7813 54.3627 17.5146 54.64C17.2586 54.9067 16.9866 55.1733 16.6986 55.44L13.2106 58.72V58.752H18.9866V60H11.6906V58.464ZM25.0453 53.472H25.4613C25.7386 53.472 26.0266 53.4507 26.3253 53.408C26.6346 53.3653 26.9119 53.2747 27.1573 53.136C27.4133 52.9973 27.6213 52.8 27.7813 52.544C27.9519 52.2773 28.0373 51.9307 28.0373 51.504C28.0373 50.928 27.8559 50.4747 27.4933 50.144C27.1413 49.8027 26.6773 49.632 26.1013 49.632C25.6213 49.632 25.2053 49.7387 24.8533 49.952C24.5013 50.1653 24.2239 50.48 24.0213 50.896L22.7253 50.4C23.0026 49.76 23.4346 49.28 24.0213 48.96C24.6186 48.64 25.2799 48.48 26.0052 48.48C26.4533 48.48 26.8799 48.544 27.2853 48.672C27.7013 48.8 28.0639 48.9867 28.3733 49.232C28.6826 49.4773 28.9279 49.7867 29.1093 50.16C29.2906 50.5227 29.3813 50.9493 29.3813 51.44C29.3813 52.0373 29.1999 52.576 28.8373 53.056C28.4853 53.5253 28.0213 53.8507 27.4453 54.032V54.064C27.8079 54.128 28.1279 54.2453 28.4053 54.416C28.6933 54.5867 28.9386 54.8 29.1413 55.056C29.3439 55.3013 29.4986 55.584 29.6053 55.904C29.7119 56.224 29.7653 56.56 29.7653 56.912C29.7653 57.456 29.6639 57.9307 29.4613 58.336C29.2586 58.7413 28.9866 59.0827 28.6453 59.36C28.3039 59.6373 27.9039 59.8453 27.4453 59.984C26.9973 60.1227 26.5226 60.192 26.0213 60.192C25.1573 60.192 24.4053 60.0053 23.7653 59.632C23.1253 59.2587 22.6613 58.6507 22.3733 57.808L23.7333 57.36C23.9253 57.968 24.1973 58.4 24.5493 58.656C24.9013 58.912 25.3919 59.04 26.0213 59.04C26.3413 59.04 26.6399 58.9867 26.9173 58.88C27.1946 58.7733 27.4346 58.624 27.6373 58.432C27.8506 58.2293 28.0159 57.9947 28.1333 57.728C28.2613 57.4507 28.3253 57.1467 28.3253 56.816C28.3253 56.4 28.2399 56.0533 28.0693 55.776C27.9093 55.488 27.6906 55.264 27.4133 55.104C27.1466 54.9333 26.8426 54.8107 26.5013 54.736C26.1599 54.6613 25.8133 54.624 25.4613 54.624H25.0453V53.472ZM39.3759 56.16H41.0079V57.408H39.3759V60H38.0319V57.408H33.2319V55.92L37.7279 48.672H39.3759V56.16ZM38.0319 50.24H37.9999L34.3839 56.16H38.0319V50.24ZM51.1465 49.92H46.5225L46.4745 52.976C46.6878 52.8693 46.9225 52.8 47.1785 52.768C47.4452 52.7253 47.6958 52.704 47.9305 52.704C48.4745 52.704 48.9652 52.8 49.4025 52.992C49.8505 53.1733 50.2345 53.4347 50.5545 53.776C50.8745 54.1067 51.1198 54.5013 51.2905 54.96C51.4612 55.408 51.5465 55.8987 51.5465 56.432C51.5465 56.9973 51.4452 57.5147 51.2425 57.984C51.0505 58.4427 50.7785 58.8373 50.4265 59.168C50.0852 59.488 49.6745 59.7387 49.1945 59.92C48.7252 60.1013 48.2132 60.192 47.6585 60.192C46.7945 60.192 46.0958 60.0053 45.5625 59.632C45.0398 59.2587 44.6238 58.7573 44.3145 58.128L45.6585 57.616C45.8505 58.0427 46.1278 58.3893 46.4905 58.656C46.8638 58.912 47.2905 59.04 47.7705 59.04C48.1118 59.04 48.4265 58.9813 48.7145 58.864C49.0132 58.736 49.2692 58.56 49.4825 58.336C49.7065 58.1013 49.8825 57.824 50.0105 57.504C50.1385 57.184 50.2025 56.8267 50.2025 56.432C50.2025 56.016 50.1278 55.648 49.9785 55.328C49.8398 55.008 49.6425 54.7413 49.3865 54.528C49.1412 54.304 48.8478 54.1387 48.5065 54.032C48.1652 53.9147 47.7972 53.856 47.4025 53.856C47.0185 53.856 46.6238 53.9253 46.2185 54.064C45.8132 54.192 45.4398 54.3573 45.0985 54.56L45.2105 48.672H51.1465V49.92ZM57.7171 53.392L57.7491 53.424C57.9625 53.3067 58.2078 53.2213 58.4851 53.168C58.7731 53.1147 59.0345 53.088 59.2691 53.088C59.7598 53.088 60.2131 53.1733 60.6291 53.344C61.0558 53.5147 61.4185 53.76 61.7171 54.08C62.0265 54.3893 62.2665 54.7627 62.4371 55.2C62.6078 55.6373 62.6931 56.1173 62.6931 56.64C62.6931 57.1947 62.5971 57.6907 62.4051 58.128C62.2131 58.5653 61.9465 58.9387 61.6051 59.248C61.2638 59.5467 60.8585 59.7813 60.3891 59.952C59.9305 60.112 59.4345 60.192 58.9011 60.192C58.3678 60.192 57.8665 60.112 57.3971 59.952C56.9385 59.7813 56.5385 59.5467 56.1971 59.248C55.8558 58.9387 55.5891 58.5653 55.3971 58.128C55.2051 57.6907 55.1091 57.1947 55.1091 56.64C55.1091 55.9893 55.2105 55.4187 55.4131 54.928C55.6158 54.4373 55.8718 53.9467 56.1811 53.456L59.1891 48.672H60.7571L57.7171 53.392ZM58.9011 54.24C58.5598 54.24 58.2398 54.2987 57.9411 54.416C57.6425 54.5227 57.3811 54.6827 57.1571 54.896C56.9438 55.0987 56.7731 55.3493 56.6451 55.648C56.5171 55.9467 56.4531 56.2773 56.4531 56.64C56.4531 57.0133 56.5171 57.3493 56.6451 57.648C56.7731 57.936 56.9438 58.1867 57.1571 58.4C57.3811 58.6027 57.6425 58.7627 57.9411 58.88C58.2398 58.9867 58.5598 59.04 58.9011 59.04C59.2425 59.04 59.5625 58.9867 59.8611 58.88C60.1598 58.7627 60.4158 58.6027 60.6291 58.4C60.8531 58.1867 61.0291 57.936 61.1571 57.648C61.2851 57.3493 61.3491 57.0133 61.3491 56.64C61.3491 56.2773 61.2851 55.9467 61.1571 55.648C61.0291 55.3493 60.8531 55.0987 60.6291 54.896C60.4158 54.6827 60.1598 54.5227 59.8611 54.416C59.5625 54.2987 59.2425 54.24 58.9011 54.24ZM73.0238 49.92L68.4958 60H66.9758L71.5838 49.92H66.1118V48.672H73.0238V49.92ZM77.4504 51.44C77.4504 50.992 77.5304 50.5867 77.6904 50.224C77.861 49.8613 78.0904 49.552 78.3784 49.296C78.6664 49.04 79.0077 48.8427 79.4024 48.704C79.797 48.5547 80.2237 48.48 80.6824 48.48C81.141 48.48 81.5677 48.5547 81.9624 48.704C82.357 48.8427 82.6984 49.04 82.9864 49.296C83.2744 49.552 83.4984 49.8613 83.6584 50.224C83.829 50.5867 83.9144 50.992 83.9144 51.44C83.9144 51.7067 83.8717 51.9733 83.7864 52.24C83.701 52.5067 83.5784 52.752 83.4184 52.976C83.2584 53.2 83.061 53.3973 82.8264 53.568C82.6024 53.7387 82.3464 53.8613 82.0584 53.936V53.968C82.3997 54.0427 82.709 54.1707 82.9864 54.352C83.2637 54.5227 83.4984 54.736 83.6904 54.992C83.8824 55.248 84.0317 55.5413 84.1384 55.872C84.245 56.192 84.2984 56.528 84.2984 56.88C84.2984 57.392 84.2024 57.856 84.0104 58.272C83.829 58.6773 83.573 59.024 83.2424 59.312C82.9224 59.6 82.5384 59.8187 82.0904 59.968C81.653 60.1173 81.1837 60.192 80.6824 60.192C80.181 60.192 79.7064 60.1173 79.2584 59.968C78.821 59.8187 78.437 59.6 78.1064 59.312C77.7864 59.024 77.5304 58.6773 77.3384 58.272C77.157 57.856 77.0664 57.392 77.0664 56.88C77.0664 56.528 77.1197 56.192 77.2264 55.872C77.333 55.5413 77.4824 55.248 77.6744 54.992C77.8664 54.736 78.101 54.5227 78.3784 54.352C78.6557 54.1707 78.965 54.0427 79.3064 53.968V53.936C79.0184 53.8613 78.757 53.7387 78.5224 53.568C78.2984 53.3973 78.1064 53.2 77.9464 52.976C77.7864 52.752 77.6637 52.5067 77.5784 52.24C77.493 51.9733 77.4504 51.7067 77.4504 51.44ZM78.7944 51.504C78.7944 52.048 78.965 52.496 79.3064 52.848C79.6584 53.2 80.117 53.376 80.6824 53.376C81.2477 53.376 81.701 53.2 82.0424 52.848C82.3944 52.496 82.5704 52.048 82.5704 51.504C82.5704 50.96 82.3944 50.512 82.0424 50.16C81.701 49.808 81.2477 49.632 80.6824 49.632C80.117 49.632 79.6584 49.808 79.3064 50.16C78.965 50.512 78.7944 50.96 78.7944 51.504ZM78.4104 56.784C78.4104 57.1147 78.469 57.4187 78.5864 57.696C78.7037 57.9733 78.8637 58.2133 79.0664 58.416C79.2797 58.608 79.5197 58.7627 79.7864 58.88C80.0637 58.9867 80.3624 59.04 80.6824 59.04C81.0024 59.04 81.2957 58.9867 81.5624 58.88C81.8397 58.7627 82.0797 58.608 82.2824 58.416C82.4957 58.2133 82.661 57.9733 82.7784 57.696C82.8957 57.4187 82.9544 57.1147 82.9544 56.784C82.9544 56.4533 82.8957 56.1493 82.7784 55.872C82.661 55.5947 82.4957 55.36 82.2824 55.168C82.0797 54.9653 81.8397 54.8107 81.5624 54.704C81.2957 54.5867 81.0024 54.528 80.6824 54.528C80.3624 54.528 80.0637 54.5867 79.7864 54.704C79.5197 54.8107 79.2797 54.9653 79.0664 55.168C78.8637 55.36 78.7037 55.5947 78.5864 55.872C78.469 56.1493 78.4104 56.4533 78.4104 56.784ZM92.757 55.28L92.725 55.248C92.5117 55.3653 92.261 55.4507 91.973 55.504C91.6957 55.5573 91.4397 55.584 91.205 55.584C90.7143 55.584 90.2557 55.4987 89.829 55.328C89.413 55.1573 89.0503 54.9173 88.741 54.608C88.4423 54.288 88.2077 53.9147 88.037 53.488C87.8663 53.0507 87.781 52.5653 87.781 52.032C87.781 51.4773 87.877 50.9813 88.069 50.544C88.261 50.1067 88.5277 49.7387 88.869 49.44C89.2103 49.1307 89.6103 48.896 90.069 48.736C90.5383 48.5653 91.0397 48.48 91.573 48.48C92.1063 48.48 92.6023 48.5653 93.061 48.736C93.5303 48.896 93.9357 49.1307 94.277 49.44C94.6183 49.7387 94.885 50.1067 95.077 50.544C95.269 50.9813 95.365 51.4773 95.365 52.032C95.365 52.3627 95.3383 52.6667 95.285 52.944C95.2317 53.2213 95.157 53.488 95.061 53.744C94.965 54 94.8477 54.2507 94.709 54.496C94.581 54.7307 94.4423 54.9707 94.293 55.216L91.285 60H89.717L92.757 55.28ZM91.573 54.432C91.9143 54.432 92.2343 54.3787 92.533 54.272C92.8317 54.1547 93.0877 53.9947 93.301 53.792C93.525 53.5787 93.701 53.328 93.829 53.04C93.957 52.7413 94.021 52.4053 94.021 52.032C94.021 51.6693 93.957 51.3387 93.829 51.04C93.701 50.7413 93.525 50.4907 93.301 50.288C93.0877 50.0747 92.8317 49.9147 92.533 49.808C92.2343 49.6907 91.9143 49.632 91.573 49.632C91.2317 49.632 90.9117 49.6907 90.613 49.808C90.3143 49.9147 90.053 50.0747 89.829 50.288C89.6157 50.4907 89.445 50.7413 89.317 51.04C89.189 51.3387 89.125 51.6693 89.125 52.032C89.125 52.4053 89.189 52.7413 89.317 53.04C89.445 53.328 89.6157 53.5787 89.829 53.792C90.053 53.9947 90.3143 54.1547 90.613 54.272C90.9117 54.3787 91.2317 54.432 91.573 54.432ZM98.6236 54.336C98.6236 53.696 98.677 53.0293 98.7836 52.336C98.8903 51.6427 99.0876 51.0133 99.3756 50.448C99.6636 49.872 100.053 49.4027 100.544 49.04C101.045 48.6667 101.685 48.48 102.464 48.48C103.242 48.48 103.877 48.6667 104.368 49.04C104.869 49.4027 105.264 49.872 105.552 50.448C105.84 51.0133 106.037 51.6427 106.144 52.336C106.25 53.0293 106.304 53.696 106.304 54.336C106.304 54.976 106.25 55.6427 106.144 56.336C106.037 57.0293 105.84 57.664 105.552 58.24C105.264 58.8053 104.869 59.2747 104.368 59.648C103.877 60.0107 103.242 60.192 102.464 60.192C101.685 60.192 101.045 60.0107 100.544 59.648C100.053 59.2747 99.6636 58.8053 99.3756 58.24C99.0876 57.664 98.8903 57.0293 98.7836 56.336C98.677 55.6427 98.6236 54.976 98.6236 54.336ZM99.9676 54.336C99.9676 54.6133 99.9783 54.9227 99.9996 55.264C100.021 55.6053 100.058 55.952 100.112 56.304C100.176 56.6453 100.261 56.9813 100.368 57.312C100.485 57.6427 100.634 57.936 100.816 58.192C101.008 58.448 101.237 58.656 101.504 58.816C101.77 58.9653 102.09 59.04 102.464 59.04C102.837 59.04 103.157 58.9653 103.424 58.816C103.69 58.656 103.914 58.448 104.096 58.192C104.288 57.936 104.437 57.6427 104.544 57.312C104.661 56.9813 104.746 56.6453 104.8 56.304C104.864 55.952 104.906 55.6053 104.928 55.264C104.949 54.9227 104.96 54.6133 104.96 54.336C104.96 54.0587 104.949 53.7493 104.928 53.408C104.906 53.0667 104.864 52.7253 104.8 52.384C104.746 52.032 104.661 51.6907 104.544 51.36C104.437 51.0293 104.288 50.736 104.096 50.48C103.914 50.224 103.69 50.0213 103.424 49.872C103.157 49.712 102.837 49.632 102.464 49.632C102.09 49.632 101.77 49.712 101.504 49.872C101.237 50.0213 101.008 50.224 100.816 50.48C100.634 50.736 100.485 51.0293 100.368 51.36C100.261 51.6907 100.176 52.032 100.112 52.384C100.058 52.7253 100.021 53.0667 99.9996 53.408C99.9783 53.7493 99.9676 54.0587 99.9676 54.336Z" fill="#212B36"/>
</svg>
