<svg width="320" height="61" viewBox="0 0 320 61" fill="none" xmlns="http://www.w3.org/2000/svg">
<path d="M0.32 12L4.064 0.48H6.472L10.216 12H8.48L5.032 1.488H5.464L2.056 12H0.32ZM2.264 9.4V7.832H8.28V9.4H2.264ZM13.6513 12V0.48H18.1793C18.9099 0.48 19.5233 0.629333 20.0193 0.927999C20.5153 1.22667 20.8886 1.61333 21.1393 2.088C21.3899 2.55733 21.5153 3.05333 21.5153 3.576C21.5153 4.21067 21.3579 4.75467 21.0433 5.208C20.7339 5.66133 20.3153 5.97067 19.7873 6.136L19.7713 5.744C20.5073 5.92533 21.0726 6.28 21.4673 6.808C21.8619 7.33067 22.0593 7.94133 22.0593 8.64C22.0593 9.31733 21.9233 9.90667 21.6513 10.408C21.3846 10.9093 20.9926 11.3013 20.4753 11.584C19.9633 11.8613 19.3419 12 18.6113 12H13.6513ZM15.3473 10.408H18.3553C18.7339 10.408 19.0726 10.336 19.3713 10.192C19.6753 10.048 19.9126 9.84267 20.0833 9.576C20.2593 9.304 20.3473 8.98133 20.3473 8.608C20.3473 8.26133 20.2699 7.94933 20.1153 7.672C19.9659 7.38933 19.7473 7.168 19.4593 7.008C19.1766 6.84267 18.8433 6.76 18.4593 6.76H15.3473V10.408ZM15.3473 5.184H18.1553C18.4646 5.184 18.7419 5.12267 18.9873 5C19.2379 4.872 19.4353 4.69067 19.5793 4.456C19.7286 4.216 19.8033 3.928 19.8033 3.592C19.8033 3.144 19.6539 2.776 19.3553 2.488C19.0566 2.2 18.6566 2.056 18.1553 2.056H15.3473V5.184ZM30.4593 12.24C29.3073 12.24 28.3259 11.9893 27.5153 11.488C26.7046 10.9813 26.0833 10.2773 25.6513 9.376C25.2246 8.47467 25.0113 7.42933 25.0113 6.24C25.0113 5.05067 25.2246 4.00533 25.6513 3.104C26.0833 2.20267 26.7046 1.50133 27.5153 0.999999C28.3259 0.493333 29.3073 0.24 30.4593 0.24C31.7873 0.24 32.8859 0.576 33.7552 1.248C34.6299 1.92 35.2379 2.824 35.5793 3.96L33.8833 4.416C33.6593 3.61067 33.2593 2.97867 32.6833 2.52C32.1126 2.06133 31.3713 1.832 30.4593 1.832C29.6433 1.832 28.9633 2.016 28.4193 2.384C27.8753 2.752 27.4646 3.26667 27.1873 3.928C26.9153 4.58933 26.7793 5.36 26.7793 6.24C26.7739 7.12 26.9073 7.89067 27.1793 8.552C27.4566 9.21333 27.8673 9.728 28.4113 10.096C28.9606 10.464 29.6433 10.648 30.4593 10.648C31.3713 10.648 32.1126 10.4187 32.6833 9.96C33.2593 9.496 33.6593 8.864 33.8833 8.064L35.5793 8.52C35.2379 9.656 34.6299 10.56 33.7552 11.232C32.8859 11.904 31.7873 12.24 30.4593 12.24ZM39.3388 12V0.48H42.9468C43.0534 0.48 43.2508 0.482666 43.5388 0.488C43.8321 0.493333 44.1121 0.514666 44.3788 0.551999C45.2801 0.663999 46.0374 0.986666 46.6508 1.52C47.2694 2.05333 47.7361 2.73067 48.0508 3.552C48.3654 4.368 48.5228 5.264 48.5228 6.24C48.5228 7.22133 48.3654 8.12267 48.0508 8.944C47.7361 9.76 47.2694 10.4347 46.6508 10.968C46.0374 11.496 45.2801 11.816 44.3788 11.928C44.1121 11.9653 43.8321 11.9867 43.5388 11.992C43.2508 11.9973 43.0534 12 42.9468 12H39.3388ZM41.0508 10.408H42.9468C43.1281 10.408 43.3441 10.4027 43.5948 10.392C43.8454 10.3813 44.0668 10.36 44.2588 10.328C44.8454 10.216 45.3201 9.96267 45.6828 9.568C46.0508 9.168 46.3201 8.67733 46.4908 8.096C46.6614 7.51467 46.7468 6.896 46.7468 6.24C46.7468 5.56267 46.6588 4.936 46.4827 4.36C46.3067 3.77867 46.0348 3.29333 45.6668 2.904C45.3041 2.50933 44.8348 2.25867 44.2588 2.152C44.0668 2.11467 43.8428 2.09333 43.5868 2.088C43.3361 2.07733 43.1228 2.072 42.9468 2.072H41.0508V10.408ZM52.3856 12V0.48H59.7456V2.056H54.0576V5.288H58.7856V6.864H54.0576V10.424H59.7456V12H52.3856ZM63.6669 12V0.48H70.4909V2.152H65.3389V5.4H69.5309V7.08H65.3389V12H63.6669ZM78.6445 12.24C77.8712 12.24 77.1592 12.1067 76.5085 11.84C75.8578 11.568 75.2925 11.1733 74.8125 10.656C74.3325 10.1387 73.9592 9.50933 73.6925 8.768C73.4258 8.02667 73.2925 7.184 73.2925 6.24C73.2925 4.99733 73.5192 3.93067 73.9725 3.04C74.4258 2.144 75.0552 1.456 75.8605 0.976C76.6658 0.490666 77.5938 0.247999 78.6445 0.247999C79.9992 0.247999 81.0792 0.562666 81.8845 1.192C82.6952 1.82133 83.2472 2.69067 83.5405 3.8L81.8445 4.104C81.6098 3.416 81.2312 2.86667 80.7085 2.456C80.1858 2.04533 79.5298 1.83733 78.7405 1.832C77.9245 1.82667 77.2445 2.008 76.7005 2.376C76.1618 2.744 75.7565 3.26133 75.4845 3.928C75.2125 4.58933 75.0738 5.36 75.0685 6.24C75.0632 7.12 75.1965 7.89067 75.4685 8.552C75.7405 9.208 76.1485 9.72 76.6925 10.088C77.2418 10.456 77.9245 10.6427 78.7405 10.648C79.3965 10.6587 79.9592 10.5387 80.4285 10.288C80.9032 10.032 81.2792 9.65867 81.5565 9.168C81.8338 8.67733 82.0125 8.07467 82.0925 7.36H79.8525V6.016H83.8685C83.8792 6.112 83.8872 6.24 83.8925 6.4C83.8978 6.55467 83.9005 6.65333 83.9005 6.696C83.9005 7.76267 83.6952 8.71467 83.2845 9.552C82.8738 10.3893 82.2765 11.048 81.4925 11.528C80.7085 12.0027 79.7592 12.24 78.6445 12.24ZM87.495 12V0.48H89.167V5.448H94.927V0.48H96.607V12H94.927V7.024H89.167V12H87.495ZM101.014 12V0.48H102.686V12H101.014ZM109.281 12.232C108.438 12.232 107.729 12.008 107.153 11.56C106.582 11.112 106.187 10.5093 105.969 9.752L107.625 9.36C107.699 9.71733 107.889 10.024 108.193 10.28C108.502 10.5307 108.846 10.656 109.225 10.656C109.475 10.656 109.737 10.592 110.009 10.464C110.281 10.336 110.483 10.128 110.617 9.84C110.707 9.648 110.761 9.42933 110.777 9.184C110.793 8.93333 110.801 8.64267 110.801 8.312V0.48H112.497V8.312C112.497 8.65333 112.494 8.95733 112.489 9.224C112.489 9.49067 112.462 9.74133 112.409 9.976C112.361 10.2107 112.265 10.4533 112.121 10.704C111.817 11.232 111.417 11.6187 110.921 11.864C110.425 12.1093 109.878 12.232 109.281 12.232ZM116.901 12V0.48H118.573V5.856L123.397 0.48H125.477L120.381 6.104L125.853 12H123.709L118.573 6.496V12H116.901ZM129.139 12V0.48H130.811V10.424H136.027V12H129.139ZM139.386 12V0.48H140.898L145.074 9.144L149.226 0.48H150.754V11.992H149.17V4.112L145.45 12H144.69L140.962 4.112V12H139.386ZM154.995 12V0.48H156.691L162.363 9.04V0.48H164.059V12H162.363L156.691 3.432V12H154.995ZM173.1 12.24C171.948 12.24 170.967 11.9893 170.156 11.488C169.345 10.9813 168.724 10.2773 168.292 9.376C167.865 8.47467 167.652 7.42933 167.652 6.24C167.652 5.05067 167.865 4.00533 168.292 3.104C168.724 2.20267 169.345 1.50133 170.156 0.999999C170.967 0.493333 171.948 0.24 173.1 0.24C174.247 0.24 175.225 0.493333 176.036 0.999999C176.852 1.50133 177.473 2.20267 177.9 3.104C178.327 4.00533 178.54 5.05067 178.54 6.24C178.54 7.42933 178.327 8.47467 177.9 9.376C177.473 10.2773 176.852 10.9813 176.036 11.488C175.225 11.9893 174.247 12.24 173.1 12.24ZM173.1 10.648C173.916 10.6587 174.593 10.48 175.132 10.112C175.676 9.73867 176.084 9.22133 176.356 8.56C176.628 7.89333 176.764 7.12 176.764 6.24C176.764 5.36 176.628 4.592 176.356 3.936C176.084 3.27467 175.676 2.76 175.132 2.392C174.593 2.024 173.916 1.83733 173.1 1.832C172.284 1.82133 171.604 2 171.06 2.368C170.521 2.736 170.116 3.25333 169.844 3.92C169.572 4.58667 169.433 5.36 169.428 6.24C169.423 7.12 169.556 7.89067 169.828 8.552C170.1 9.208 170.508 9.72 171.052 10.088C171.601 10.456 172.284 10.6427 173.1 10.648ZM182.136 12V0.48H186.792C186.904 0.48 187.042 0.485333 187.208 0.495999C187.373 0.501333 187.53 0.517333 187.68 0.544C188.32 0.645333 188.853 0.863999 189.28 1.2C189.712 1.536 190.034 1.96 190.248 2.472C190.461 2.984 190.568 3.54933 190.568 4.168C190.568 4.792 190.461 5.36 190.248 5.872C190.034 6.384 189.712 6.808 189.28 7.144C188.853 7.48 188.32 7.69867 187.68 7.8C187.53 7.82133 187.37 7.83733 187.2 7.848C187.034 7.85867 186.898 7.864 186.792 7.864H183.808V12H182.136ZM183.808 6.28H186.728C186.834 6.28 186.952 6.27467 187.08 6.264C187.213 6.25333 187.338 6.23467 187.456 6.208C187.797 6.128 188.072 5.98133 188.28 5.768C188.488 5.54933 188.637 5.29867 188.728 5.016C188.818 4.73333 188.864 4.45067 188.864 4.168C188.864 3.88533 188.818 3.60533 188.728 3.328C188.637 3.04533 188.488 2.79733 188.28 2.584C188.072 2.36533 187.797 2.216 187.456 2.136C187.338 2.104 187.213 2.08267 187.08 2.072C186.952 2.06133 186.834 2.056 186.728 2.056H183.808V6.28ZM203.199 12.232L199.983 9.032L201.055 7.96L204.255 11.16L203.199 12.232ZM198.975 12.24C197.823 12.24 196.842 11.9893 196.031 11.488C195.22 10.9813 194.599 10.2773 194.167 9.376C193.74 8.47467 193.527 7.42933 193.527 6.24C193.527 5.05067 193.74 4.00533 194.167 3.104C194.599 2.20267 195.22 1.50133 196.031 0.999999C196.842 0.493333 197.823 0.24 198.975 0.24C200.122 0.24 201.1 0.493333 201.911 0.999999C202.727 1.50133 203.348 2.20267 203.775 3.104C204.202 4.00533 204.415 5.05067 204.415 6.24C204.415 7.42933 204.202 8.47467 203.775 9.376C203.348 10.2773 202.727 10.9813 201.911 11.488C201.1 11.9893 200.122 12.24 198.975 12.24ZM198.975 10.648C199.791 10.6587 200.468 10.48 201.007 10.112C201.551 9.73867 201.959 9.22133 202.231 8.56C202.503 7.89333 202.639 7.12 202.639 6.24C202.639 5.36 202.503 4.592 202.231 3.936C201.959 3.27467 201.551 2.76 201.007 2.392C200.468 2.024 199.791 1.83733 198.975 1.832C198.159 1.82133 197.479 2 196.935 2.368C196.396 2.736 195.991 3.25333 195.719 3.92C195.447 4.58667 195.308 5.36 195.303 6.24C195.298 7.12 195.431 7.89067 195.703 8.552C195.975 9.208 196.383 9.72 196.927 10.088C197.476 10.456 198.159 10.6427 198.975 10.648ZM208.011 12V0.48H212.667C212.779 0.48 212.917 0.485333 213.083 0.495999C213.248 0.501333 213.405 0.517333 213.555 0.544C214.195 0.645333 214.728 0.863999 215.155 1.2C215.587 1.536 215.909 1.96 216.123 2.472C216.336 2.984 216.443 3.54933 216.443 4.168C216.443 5.08533 216.208 5.87733 215.739 6.544C215.269 7.20533 214.565 7.61867 213.627 7.784L212.947 7.864H209.683V12H208.011ZM214.747 12L212.475 7.312L214.163 6.88L216.659 12H214.747ZM209.683 6.28H212.603C212.709 6.28 212.827 6.27467 212.955 6.264C213.088 6.25333 213.213 6.23467 213.331 6.208C213.672 6.128 213.947 5.98133 214.155 5.768C214.363 5.54933 214.512 5.29867 214.603 5.016C214.693 4.73333 214.739 4.45067 214.739 4.168C214.739 3.88533 214.693 3.60533 214.603 3.328C214.512 3.04533 214.363 2.79733 214.155 2.584C213.947 2.36533 213.672 2.216 213.331 2.136C213.213 2.104 213.088 2.08267 212.955 2.072C212.827 2.06133 212.709 2.056 212.603 2.056H209.683V6.28ZM224.593 12.24C223.766 12.24 223.02 12.0987 222.353 11.816C221.692 11.528 221.145 11.12 220.713 10.592C220.286 10.0587 220.009 9.42667 219.881 8.696L221.625 8.432C221.801 9.136 222.169 9.68533 222.729 10.08C223.289 10.4693 223.942 10.664 224.689 10.664C225.153 10.664 225.58 10.592 225.969 10.448C226.358 10.2987 226.67 10.088 226.905 9.816C227.145 9.53867 227.265 9.208 227.265 8.824C227.265 8.616 227.228 8.432 227.153 8.272C227.084 8.112 226.985 7.97333 226.857 7.856C226.734 7.73333 226.582 7.62933 226.401 7.544C226.225 7.45333 226.03 7.376 225.817 7.312L222.865 6.44C222.577 6.35467 222.284 6.24533 221.985 6.112C221.686 5.97333 221.412 5.79467 221.161 5.576C220.916 5.352 220.716 5.07733 220.561 4.752C220.406 4.42133 220.329 4.02133 220.329 3.552C220.329 2.84267 220.51 2.24267 220.873 1.752C221.241 1.256 221.737 0.882666 222.361 0.631999C222.985 0.375999 223.684 0.247999 224.457 0.247999C225.236 0.258666 225.932 0.397333 226.545 0.664C227.164 0.930666 227.676 1.31467 228.081 1.816C228.492 2.312 228.774 2.91467 228.929 3.624L227.137 3.928C227.057 3.496 226.886 3.12533 226.625 2.816C226.364 2.50133 226.044 2.26133 225.665 2.096C225.286 1.92533 224.876 1.83733 224.433 1.832C224.006 1.82133 223.614 1.88533 223.257 2.024C222.905 2.16267 222.622 2.35733 222.409 2.608C222.201 2.85867 222.097 3.14667 222.097 3.472C222.097 3.792 222.19 4.05067 222.377 4.248C222.564 4.44533 222.793 4.60267 223.065 4.72C223.342 4.832 223.617 4.92533 223.889 5L226.017 5.6C226.284 5.67467 226.585 5.776 226.921 5.904C227.262 6.02667 227.59 6.2 227.905 6.424C228.225 6.648 228.489 6.94667 228.697 7.32C228.905 7.688 229.009 8.152 229.009 8.712C229.009 9.29333 228.892 9.80533 228.657 10.248C228.422 10.6853 228.1 11.0533 227.689 11.352C227.284 11.6453 226.814 11.8667 226.281 12.016C225.748 12.1653 225.185 12.24 224.593 12.24ZM235.586 12V2.056H231.754V0.48H241.09V2.056H237.258V12H235.586ZM248.962 12.24C248.061 12.24 247.263 12.056 246.57 11.688C245.882 11.3147 245.343 10.7947 244.954 10.128C244.565 9.456 244.37 8.66667 244.37 7.76V0.488L246.066 0.48V7.672C246.066 8.16267 246.149 8.59467 246.314 8.968C246.479 9.34133 246.701 9.65333 246.978 9.904C247.255 10.1547 247.565 10.344 247.906 10.472C248.253 10.6 248.605 10.664 248.962 10.664C249.325 10.664 249.677 10.6 250.018 10.472C250.365 10.3387 250.677 10.1467 250.954 9.896C251.231 9.64533 251.45 9.33333 251.61 8.96C251.775 8.58667 251.858 8.15733 251.858 7.672V0.48H253.554V7.76C253.554 8.66133 253.359 9.448 252.97 10.12C252.581 10.792 252.039 11.3147 251.346 11.688C250.658 12.056 249.863 12.24 248.962 12.24ZM260.496 12L256.752 0.48H258.488L261.68 10.312L264.912 0.48H266.648L262.904 12H260.496ZM272.294 12L268.95 0.48H270.702L273.126 9.192L275.55 0.488L277.31 0.48L279.734 9.192L282.158 0.48H283.918L280.566 12H278.902L276.43 3.384L273.958 12H272.294ZM286.301 12L290.229 6.168L286.405 0.48H288.453L291.261 4.752L294.053 0.48H296.109L292.285 6.168L296.205 12H294.157L291.261 7.592L288.357 12H286.301ZM302.255 12V7.24L298.359 0.48H300.311L303.103 5.32L305.895 0.48H307.847L303.951 7.24V12H302.255ZM310.644 12V11.736L316.524 2.056H310.964V0.48H319.396V0.752L313.548 10.416H319.292V12H310.644ZM3.56 36.24C2.92 36.24 2.384 36.1227 1.952 35.888C1.52 35.648 1.192 35.3333 0.968 34.944C0.749333 34.5493 0.64 34.1173 0.64 33.648C0.64 33.2107 0.717333 32.8267 0.872 32.496C1.02667 32.1653 1.256 31.8853 1.56 31.656C1.864 31.4213 2.23733 31.232 2.68 31.088C3.064 30.976 3.49867 30.8773 3.984 30.792C4.46933 30.7067 4.97867 30.6267 5.512 30.552C6.05067 30.4773 6.584 30.4027 7.112 30.328L6.504 30.664C6.51467 29.9867 6.37067 29.4853 6.072 29.16C5.77867 28.8293 5.272 28.664 4.552 28.664C4.09867 28.664 3.68267 28.7707 3.304 28.984C2.92533 29.192 2.66133 29.5387 2.512 30.024L0.952 29.544C1.16533 28.8027 1.57067 28.2133 2.168 27.776C2.77067 27.3387 3.57067 27.12 4.568 27.12C5.34133 27.12 6.01333 27.2533 6.584 27.52C7.16 27.7813 7.58133 28.1973 7.848 28.768C7.98667 29.0507 8.072 29.3493 8.104 29.664C8.136 29.9787 8.152 30.3173 8.152 30.68V36H6.672V34.024L6.96 34.28C6.60267 34.9413 6.14667 35.4347 5.592 35.76C5.04267 36.08 4.36533 36.24 3.56 36.24ZM3.856 34.872C4.33067 34.872 4.73867 34.7893 5.08 34.624C5.42133 34.4533 5.696 34.2373 5.904 33.976C6.112 33.7147 6.248 33.4427 6.312 33.16C6.40267 32.904 6.45333 32.616 6.464 32.296C6.48 31.976 6.488 31.72 6.488 31.528L7.032 31.728C6.504 31.808 6.024 31.88 5.592 31.944C5.16 32.008 4.768 32.072 4.416 32.136C4.06933 32.1947 3.76 32.2667 3.488 32.352C3.25867 32.432 3.05333 32.528 2.872 32.64C2.696 32.752 2.55467 32.888 2.448 33.048C2.34667 33.208 2.296 33.4027 2.296 33.632C2.296 33.856 2.352 34.064 2.464 34.256C2.576 34.4427 2.74667 34.592 2.976 34.704C3.20533 34.816 3.49867 34.872 3.856 34.872ZM16.2854 36.24C15.4587 36.24 14.7654 36.04 14.2054 35.64C13.6454 35.2347 13.2214 34.688 12.9334 34C12.6454 33.312 12.5014 32.536 12.5014 31.672C12.5014 30.808 12.6427 30.032 12.9254 29.344C13.2134 28.656 13.6347 28.1147 14.1894 27.72C14.7494 27.32 15.4374 27.12 16.2534 27.12C17.064 27.12 17.7627 27.32 18.3494 27.72C18.9414 28.1147 19.3974 28.656 19.7174 29.344C20.0374 30.0267 20.1974 30.8027 20.1974 31.672C20.1974 32.536 20.0374 33.3147 19.7174 34.008C19.4027 34.696 18.952 35.24 18.3654 35.64C17.784 36.04 17.0907 36.24 16.2854 36.24ZM12.2214 36V24.48H13.9014V29.784H13.7094V36H12.2214ZM16.0534 34.728C16.5867 34.728 17.0267 34.592 17.3734 34.32C17.7254 34.048 17.9867 33.6827 18.1574 33.224C18.3334 32.76 18.4214 32.2427 18.4214 31.672C18.4214 31.1067 18.3334 30.5947 18.1574 30.136C17.9867 29.6773 17.7227 29.312 17.3654 29.04C17.008 28.768 16.552 28.632 15.9974 28.632C15.4747 28.632 15.0427 28.76 14.7014 29.016C14.3654 29.272 14.1147 29.6293 13.9494 30.088C13.7894 30.5467 13.7094 31.0747 13.7094 31.672C13.7094 32.2693 13.7894 32.7973 13.9494 33.256C14.1094 33.7147 14.3627 34.0747 14.7094 34.336C15.056 34.5973 15.504 34.728 16.0534 34.728ZM27.6598 36.24C26.7744 36.24 26.0224 36.0427 25.4038 35.648C24.7851 35.2533 24.3104 34.712 23.9798 34.024C23.6544 33.336 23.4891 32.5547 23.4838 31.68C23.4891 30.7893 23.6598 30.0027 23.9958 29.32C24.3318 28.632 24.8118 28.0933 25.4358 27.704C26.0598 27.3147 26.8091 27.12 27.6838 27.12C28.6278 27.12 29.4331 27.3547 30.0998 27.824C30.7718 28.2933 31.2144 28.936 31.4278 29.752L29.7638 30.232C29.5984 29.7467 29.3264 29.3707 28.9478 29.104C28.5744 28.832 28.1451 28.696 27.6598 28.696C27.1104 28.696 26.6598 28.8267 26.3078 29.088C25.9558 29.344 25.6944 29.696 25.5238 30.144C25.3531 30.592 25.2651 31.104 25.2598 31.68C25.2651 32.5707 25.4678 33.2907 25.8678 33.84C26.2731 34.3893 26.8704 34.664 27.6598 34.664C28.1984 34.664 28.6331 34.5413 28.9638 34.296C29.2998 34.0453 29.5558 33.688 29.7318 33.224L31.4278 33.624C31.1451 34.4667 30.6784 35.1147 30.0278 35.568C29.3771 36.016 28.5878 36.24 27.6598 36.24ZM38.2551 36.24C37.4498 36.24 36.7538 36.04 36.1671 35.64C35.5858 35.24 35.1351 34.696 34.8151 34.008C34.5005 33.3147 34.3431 32.536 34.3431 31.672C34.3431 30.8027 34.5031 30.0267 34.8231 29.344C35.1431 28.656 35.5965 28.1147 36.1831 27.72C36.7751 27.32 37.4765 27.12 38.2871 27.12C39.1031 27.12 39.7885 27.32 40.3431 27.72C40.9031 28.1147 41.3245 28.656 41.6071 29.344C41.8951 30.032 42.0391 30.808 42.0391 31.672C42.0391 32.536 41.8951 33.312 41.6071 34C41.3191 34.688 40.8951 35.2347 40.3351 35.64C39.7751 36.04 39.0818 36.24 38.2551 36.24ZM38.4871 34.728C39.0365 34.728 39.4845 34.5973 39.8311 34.336C40.1778 34.0747 40.4311 33.7147 40.5911 33.256C40.7511 32.7973 40.8311 32.2693 40.8311 31.672C40.8311 31.0747 40.7485 30.5467 40.5831 30.088C40.4231 29.6293 40.1725 29.272 39.8311 29.016C39.4951 28.76 39.0658 28.632 38.5431 28.632C37.9885 28.632 37.5325 28.768 37.1751 29.04C36.8178 29.312 36.5511 29.6773 36.3751 30.136C36.2045 30.5947 36.1191 31.1067 36.1191 31.672C36.1191 32.2427 36.2045 32.76 36.3751 33.224C36.5511 33.6827 36.8125 34.048 37.1591 34.32C37.5111 34.592 37.9538 34.728 38.4871 34.728ZM40.8311 36V29.784H40.6391V24.48H42.3191V36H40.8311ZM50.3895 36.24C49.5308 36.24 48.7762 36.0533 48.1255 35.68C47.4802 35.3013 46.9762 34.776 46.6135 34.104C46.2562 33.4267 46.0775 32.6427 46.0775 31.752C46.0775 30.808 46.2535 29.9893 46.6055 29.296C46.9628 28.6027 47.4588 28.0667 48.0935 27.688C48.7282 27.3093 49.4668 27.12 50.3095 27.12C51.1895 27.12 51.9388 27.3253 52.5575 27.736C53.1762 28.1413 53.6375 28.72 53.9415 29.472C54.2508 30.224 54.3735 31.1173 54.3095 32.152H52.6375V31.544C52.6268 30.5413 52.4348 29.8 52.0615 29.32C51.6935 28.84 51.1308 28.6 50.3735 28.6C49.5362 28.6 48.9068 28.864 48.4855 29.392C48.0642 29.92 47.8535 30.6827 47.8535 31.68C47.8535 32.6293 48.0642 33.3653 48.4855 33.888C48.9068 34.4053 49.5148 34.664 50.3095 34.664C50.8322 34.664 51.2828 34.5467 51.6615 34.312C52.0455 34.072 52.3442 33.7307 52.5575 33.288L54.1975 33.808C53.8615 34.5813 53.3522 35.1813 52.6695 35.608C51.9868 36.0293 51.2268 36.24 50.3895 36.24ZM47.3095 32.152V30.848H53.4775V32.152H47.3095ZM58.8964 36V27.056C58.8964 26.8373 58.9044 26.6053 58.9204 26.36C58.9364 26.1093 58.9817 25.864 59.0564 25.624C59.1364 25.3787 59.267 25.1547 59.4484 24.952C59.667 24.712 59.907 24.5413 60.1684 24.44C60.4297 24.3387 60.6884 24.28 60.9444 24.264C61.2057 24.248 61.4457 24.24 61.6644 24.24H62.7524V25.616H61.7444C61.3497 25.616 61.0537 25.7147 60.8564 25.912C60.6644 26.104 60.5684 26.3787 60.5684 26.736V36H58.8964ZM57.4644 28.704V27.36H62.7524V28.704H57.4644ZM69.5863 40.08C69.1223 40.08 68.6716 40.008 68.2343 39.864C67.8023 39.72 67.4076 39.5067 67.0503 39.224C66.6929 38.9467 66.3969 38.6027 66.1623 38.192L67.7063 37.408C67.8929 37.776 68.1596 38.0453 68.5063 38.216C68.8529 38.3867 69.2183 38.472 69.6023 38.472C70.0769 38.472 70.4823 38.3867 70.8183 38.216C71.1543 38.0507 71.4076 37.8 71.5783 37.464C71.7543 37.128 71.8396 36.712 71.8343 36.216V33.8H72.0343V27.36H73.5143V36.232C73.5143 36.4613 73.5063 36.68 73.4903 36.888C73.4743 37.096 73.4449 37.304 73.4023 37.512C73.2796 38.0933 73.0449 38.5733 72.6983 38.952C72.3569 39.3307 71.9196 39.6133 71.3863 39.8C70.8583 39.9867 70.2583 40.08 69.5863 40.08ZM69.4583 36.24C68.6529 36.24 67.9569 36.04 67.3703 35.64C66.7889 35.24 66.3383 34.696 66.0183 34.008C65.7036 33.3147 65.5463 32.536 65.5463 31.672C65.5463 30.8027 65.7063 30.0267 66.0263 29.344C66.3463 28.656 66.7996 28.1147 67.3863 27.72C67.9783 27.32 68.6796 27.12 69.4903 27.12C70.3063 27.12 70.9916 27.32 71.5463 27.72C72.1063 28.1147 72.5276 28.656 72.8103 29.344C73.0983 30.032 73.2423 30.808 73.2423 31.672C73.2423 32.536 73.0983 33.312 72.8103 34C72.5223 34.688 72.0983 35.2347 71.5383 35.64C70.9783 36.04 70.2849 36.24 69.4583 36.24ZM69.6903 34.728C70.2396 34.728 70.6876 34.5973 71.0343 34.336C71.3809 34.0747 71.6343 33.7147 71.7943 33.256C71.9543 32.7973 72.0343 32.2693 72.0343 31.672C72.0343 31.0747 71.9516 30.5467 71.7863 30.088C71.6263 29.6293 71.3756 29.272 71.0343 29.016C70.6983 28.76 70.2689 28.632 69.7463 28.632C69.1916 28.632 68.7356 28.768 68.3783 29.04C68.0209 29.312 67.7543 29.6773 67.5783 30.136C67.4076 30.5947 67.3223 31.1067 67.3223 31.672C67.3223 32.2427 67.4076 32.76 67.5783 33.224C67.7543 33.6827 68.0156 34.048 68.3623 34.32C68.7143 34.592 69.1569 34.728 69.6903 34.728ZM83.8246 36V31.752C83.8246 31.416 83.7953 31.072 83.7366 30.72C83.6833 30.3627 83.5766 30.032 83.4166 29.728C83.262 29.424 83.0406 29.1787 82.7526 28.992C82.47 28.8053 82.0993 28.712 81.6406 28.712C81.342 28.712 81.0593 28.7627 80.7926 28.864C80.526 28.96 80.2913 29.1173 80.0886 29.336C79.8913 29.5547 79.734 29.8427 79.6166 30.2C79.5046 30.5573 79.4486 30.992 79.4486 31.504L78.4086 31.112C78.4086 30.328 78.5553 29.6373 78.8486 29.04C79.142 28.4373 79.5633 27.968 80.1126 27.632C80.662 27.296 81.326 27.128 82.1046 27.128C82.702 27.128 83.2033 27.224 83.6086 27.416C84.014 27.608 84.342 27.8613 84.5926 28.176C84.8486 28.4853 85.0433 28.824 85.1766 29.192C85.31 29.56 85.4006 29.92 85.4486 30.272C85.4966 30.624 85.5206 30.9333 85.5206 31.2V36H83.8246ZM77.7526 36V24.48H79.2486V30.696H79.4486V36H77.7526ZM89.7644 25.944V24.32H91.4364V25.944H89.7644ZM89.7644 36V27.36H91.4364V36H89.7644ZM94.5587 39.84V38.256H94.9988C95.4414 38.256 95.7641 38.1493 95.9668 37.936C96.1748 37.7227 96.2788 37.3947 96.2788 36.952V27.36H97.9588V37.632C97.9588 38.336 97.7641 38.88 97.3748 39.264C96.9908 39.648 96.4388 39.84 95.7188 39.84H94.5587ZM96.2788 25.944V24.32H97.9588V25.944H96.2788ZM102.237 36L102.245 24.48H103.941V31.52L107.333 27.36H109.461L105.877 31.68L109.829 36H107.557L103.941 31.84V36H102.237ZM112.796 36V24.24H114.468V36H112.796ZM129.222 36L129.23 30.616C129.23 29.992 129.07 29.5067 128.75 29.16C128.43 28.808 128.009 28.632 127.486 28.632C127.166 28.632 126.873 28.7067 126.606 28.856C126.345 29 126.131 29.2187 125.966 29.512C125.806 29.8 125.726 30.1627 125.726 30.6L124.918 30.192C124.907 29.584 125.035 29.0507 125.302 28.592C125.574 28.1333 125.942 27.7787 126.406 27.528C126.87 27.272 127.39 27.144 127.966 27.144C128.899 27.144 129.622 27.424 130.134 27.984C130.646 28.544 130.902 29.288 130.902 30.216L130.894 36H129.222ZM118.862 36V27.36H120.35V29.856H120.542V36H118.862ZM124.046 36L124.054 30.648C124.054 30.0187 123.894 29.5253 123.574 29.168C123.259 28.8107 122.835 28.632 122.302 28.632C121.774 28.632 121.347 28.8133 121.022 29.176C120.702 29.5387 120.542 30.0133 120.542 30.6L119.742 30.088C119.742 29.5227 119.878 29.0187 120.15 28.576C120.422 28.1333 120.79 27.784 121.254 27.528C121.718 27.272 122.243 27.144 122.83 27.144C123.443 27.144 123.966 27.2747 124.398 27.536C124.83 27.792 125.158 28.152 125.382 28.616C125.611 29.08 125.726 29.6187 125.726 30.232L125.718 36H124.046ZM141.043 36V31.752C141.043 31.416 141.014 31.072 140.955 30.72C140.902 30.3627 140.795 30.032 140.635 29.728C140.481 29.424 140.259 29.1787 139.971 28.992C139.689 28.8053 139.318 28.712 138.859 28.712C138.561 28.712 138.278 28.7627 138.011 28.864C137.745 28.96 137.51 29.1173 137.307 29.336C137.11 29.5547 136.953 29.8427 136.835 30.2C136.723 30.5573 136.667 30.992 136.667 31.504L135.627 31.112C135.627 30.328 135.774 29.6373 136.067 29.04C136.361 28.4373 136.782 27.968 137.331 27.632C137.881 27.296 138.545 27.128 139.323 27.128C139.921 27.128 140.422 27.224 140.827 27.416C141.233 27.608 141.561 27.8613 141.811 28.176C142.067 28.4853 142.262 28.824 142.395 29.192C142.529 29.56 142.619 29.92 142.667 30.272C142.715 30.624 142.739 30.9333 142.739 31.2V36H141.043ZM134.971 36V27.36H136.467V29.856H136.667V36H134.971ZM150.466 36.24C149.602 36.24 148.852 36.0453 148.218 35.656C147.583 35.2667 147.092 34.7307 146.746 34.048C146.404 33.36 146.234 32.568 146.234 31.672C146.234 30.7707 146.41 29.9787 146.762 29.296C147.114 28.608 147.607 28.0747 148.242 27.696C148.876 27.312 149.618 27.12 150.466 27.12C151.33 27.12 152.079 27.3147 152.714 27.704C153.348 28.0933 153.839 28.6293 154.186 29.312C154.532 29.9947 154.706 30.7813 154.706 31.672C154.706 32.5733 154.53 33.368 154.178 34.056C153.831 34.7387 153.34 35.2747 152.706 35.664C152.071 36.048 151.324 36.24 150.466 36.24ZM150.466 34.664C151.292 34.664 151.908 34.3867 152.314 33.832C152.724 33.272 152.93 32.552 152.93 31.672C152.93 30.7707 152.722 30.0507 152.306 29.512C151.895 28.968 151.282 28.696 150.466 28.696C149.906 28.696 149.444 28.824 149.082 29.08C148.719 29.3307 148.45 29.68 148.274 30.128C148.098 30.5707 148.01 31.0853 148.01 31.672C148.01 32.5787 148.218 33.304 148.634 33.848C149.05 34.392 149.66 34.664 150.466 34.664ZM162.52 36.24C161.693 36.24 161 36.04 160.44 35.64C159.88 35.2347 159.456 34.688 159.168 34C158.88 33.312 158.736 32.536 158.736 31.672C158.736 30.808 158.877 30.032 159.16 29.344C159.448 28.656 159.869 28.1147 160.424 27.72C160.984 27.32 161.672 27.12 162.488 27.12C163.298 27.12 163.997 27.32 164.584 27.72C165.176 28.1147 165.632 28.656 165.952 29.344C166.272 30.0267 166.432 30.8027 166.432 31.672C166.432 32.536 166.272 33.3147 165.952 34.008C165.637 34.696 165.186 35.24 164.6 35.64C164.018 36.04 163.325 36.24 162.52 36.24ZM158.456 39.84V27.36H159.944V33.576H160.136V39.84H158.456ZM162.288 34.728C162.821 34.728 163.261 34.592 163.608 34.32C163.96 34.048 164.221 33.6827 164.392 33.224C164.568 32.76 164.656 32.2427 164.656 31.672C164.656 31.1067 164.568 30.5947 164.392 30.136C164.221 29.6773 163.957 29.312 163.6 29.04C163.242 28.768 162.786 28.632 162.232 28.632C161.709 28.632 161.277 28.76 160.936 29.016C160.6 29.272 160.349 29.6293 160.184 30.088C160.024 30.5467 159.944 31.0747 159.944 31.672C159.944 32.2693 160.024 32.7973 160.184 33.256C160.344 33.7147 160.597 34.0747 160.944 34.336C161.29 34.5973 161.738 34.728 162.288 34.728ZM173.63 36.24C172.825 36.24 172.129 36.04 171.542 35.64C170.961 35.24 170.51 34.696 170.19 34.008C169.875 33.3147 169.718 32.536 169.718 31.672C169.718 30.8027 169.878 30.0267 170.198 29.344C170.518 28.656 170.971 28.1147 171.558 27.72C172.15 27.32 172.851 27.12 173.662 27.12C174.478 27.12 175.163 27.32 175.718 27.72C176.278 28.1147 176.699 28.656 176.982 29.344C177.27 30.032 177.414 30.808 177.414 31.672C177.414 32.536 177.27 33.312 176.982 34C176.694 34.688 176.27 35.2347 175.71 35.64C175.15 36.04 174.457 36.24 173.63 36.24ZM173.862 34.728C174.411 34.728 174.859 34.5973 175.206 34.336C175.553 34.0747 175.806 33.7147 175.966 33.256C176.126 32.7973 176.206 32.2693 176.206 31.672C176.206 31.0747 176.123 30.5467 175.958 30.088C175.798 29.6293 175.547 29.272 175.206 29.016C174.87 28.76 174.441 28.632 173.918 28.632C173.363 28.632 172.907 28.768 172.55 29.04C172.193 29.312 171.926 29.6773 171.75 30.136C171.579 30.5947 171.494 31.1067 171.494 31.672C171.494 32.2427 171.579 32.76 171.75 33.224C171.926 33.6827 172.187 34.048 172.534 34.32C172.886 34.592 173.329 34.728 173.862 34.728ZM176.014 39.84V33.576H176.206V27.36H177.694V39.84H176.014ZM181.933 36V27.36H183.421V29.456L183.213 29.184C183.319 28.9067 183.458 28.6533 183.629 28.424C183.799 28.1893 183.997 27.9973 184.221 27.848C184.439 27.688 184.682 27.5653 184.949 27.48C185.221 27.3893 185.498 27.336 185.781 27.32C186.063 27.2987 186.335 27.312 186.597 27.36V28.928C186.314 28.8533 185.999 28.832 185.653 28.864C185.311 28.896 184.997 29.0053 184.709 29.192C184.437 29.368 184.221 29.5813 184.061 29.832C183.906 30.0827 183.794 30.3627 183.725 30.672C183.655 30.976 183.621 31.2987 183.621 31.64V36H181.933ZM193.112 36.232C192.061 36.232 191.205 36 190.544 35.536C189.882 35.072 189.477 34.4187 189.328 33.576L191.039 33.312C191.146 33.76 191.392 34.1147 191.776 34.376C192.165 34.632 192.648 34.76 193.224 34.76C193.746 34.76 194.154 34.6533 194.448 34.44C194.746 34.2267 194.896 33.9333 194.896 33.56C194.896 33.3413 194.842 33.1653 194.736 33.032C194.634 32.8933 194.418 32.7627 194.088 32.64C193.757 32.5173 193.253 32.3653 192.576 32.184C191.834 31.992 191.245 31.7867 190.808 31.568C190.376 31.344 190.066 31.0853 189.88 30.792C189.698 30.4933 189.608 30.1333 189.608 29.712C189.608 29.1893 189.746 28.7333 190.024 28.344C190.301 27.9547 190.69 27.6533 191.192 27.44C191.698 27.2267 192.29 27.12 192.968 27.12C193.629 27.12 194.218 27.224 194.736 27.432C195.253 27.64 195.672 27.936 195.992 28.32C196.312 28.6987 196.504 29.144 196.568 29.656L194.856 29.968C194.797 29.552 194.602 29.224 194.272 28.984C193.941 28.744 193.512 28.6133 192.984 28.592C192.477 28.5707 192.066 28.656 191.752 28.848C191.437 29.0347 191.28 29.2933 191.28 29.624C191.28 29.816 191.338 29.9787 191.456 30.112C191.578 30.2453 191.813 30.3733 192.16 30.496C192.506 30.6187 193.018 30.7653 193.696 30.936C194.421 31.1227 194.997 31.3307 195.424 31.56C195.85 31.784 196.154 32.0533 196.336 32.368C196.522 32.6773 196.616 33.0533 196.616 33.496C196.616 34.3493 196.304 35.0187 195.68 35.504C195.061 35.9893 194.205 36.232 193.112 36.232ZM205.33 36C204.786 36.1067 204.252 36.152 203.73 36.136C203.207 36.12 202.74 36.0187 202.33 35.832C201.919 35.6453 201.61 35.352 201.402 34.952C201.215 34.5947 201.114 34.232 201.098 33.864C201.087 33.4907 201.082 33.0693 201.082 32.6V24.96H202.762V32.52C202.762 32.8667 202.764 33.168 202.77 33.424C202.78 33.68 202.836 33.896 202.938 34.072C203.13 34.4027 203.434 34.592 203.85 34.64C204.271 34.6827 204.764 34.664 205.33 34.584V36ZM199.426 28.704V27.36H205.33V28.704H199.426ZM212.407 36.232C211.81 36.232 211.309 36.136 210.903 35.944C210.498 35.752 210.167 35.5013 209.911 35.192C209.661 34.8773 209.469 34.536 209.335 34.168C209.202 33.8 209.111 33.44 209.063 33.088C209.015 32.736 208.991 32.4267 208.991 32.16V27.36H210.687V31.608C210.687 31.944 210.714 32.2907 210.767 32.648C210.826 33 210.933 33.328 211.087 33.632C211.247 33.936 211.469 34.1813 211.751 34.368C212.039 34.5547 212.413 34.648 212.871 34.648C213.17 34.648 213.453 34.6 213.719 34.504C213.986 34.4027 214.218 34.2427 214.415 34.024C214.618 33.8053 214.775 33.5173 214.887 33.16C215.005 32.8027 215.063 32.368 215.063 31.856L216.103 32.248C216.103 33.032 215.957 33.7253 215.663 34.328C215.37 34.9253 214.949 35.392 214.399 35.728C213.85 36.064 213.186 36.232 212.407 36.232ZM215.263 36V33.504H215.063V27.36H216.751V36H215.263ZM223.331 36L220.195 27.36H221.883L224.179 33.904L226.475 27.36H228.163L225.027 36H223.331ZM233.444 36L230.804 27.352L232.46 27.36L234.268 33.288L236.092 27.36H237.532L239.356 33.288L241.164 27.36H242.812L240.172 36H238.828L236.812 29.744L234.788 36H233.444ZM245.285 36L248.517 31.632L245.357 27.36H247.341L249.493 30.328L251.621 27.36H253.605L250.445 31.632L253.685 36H251.693L249.493 32.936L247.277 36H245.285ZM258.132 39.84L259.804 35.288L259.828 36.632L256.06 27.36H257.804L260.62 34.52H260.108L262.796 27.36H264.492L259.724 39.84H258.132ZM266.945 36V35.736L271.849 28.856H267.393V27.36H274.505V27.632L269.609 34.504H274.265V36H266.945ZM3.128 60V50.32L0.96 51.64V49.776L3.128 48.48H4.832V60H3.128ZM9.55 59.992L9.558 58.504L14.574 54.008C14.9793 53.6507 15.254 53.3093 15.398 52.984C15.5473 52.6587 15.622 52.3333 15.622 52.008C15.622 51.5973 15.5313 51.2293 15.35 50.904C15.1687 50.5733 14.918 50.312 14.598 50.12C14.278 49.928 13.91 49.832 13.494 49.832C13.0673 49.832 12.686 49.9333 12.35 50.136C12.0193 50.3333 11.7607 50.5973 11.574 50.928C11.3873 51.2587 11.2967 51.616 11.302 52H9.59C9.59 51.2533 9.758 50.6 10.094 50.04C10.4353 49.4747 10.902 49.0347 11.494 48.72C12.086 48.4 12.7633 48.24 13.526 48.24C14.2513 48.24 14.902 48.4053 15.478 48.736C16.054 49.0613 16.5073 49.5093 16.838 50.08C17.174 50.6507 17.342 51.3013 17.342 52.032C17.342 52.56 17.2727 53.008 17.134 53.376C16.9953 53.744 16.7873 54.0853 16.51 54.4C16.2327 54.7147 15.886 55.056 15.47 55.424L11.598 58.88L11.414 58.4H17.342V59.992H9.55ZM24.4846 60.216C23.914 60.216 23.378 60.1093 22.8766 59.896C22.3753 59.6773 21.9406 59.368 21.5726 58.968C21.21 58.568 20.946 58.096 20.7806 57.552L22.3966 57.104C22.5513 57.6 22.8206 57.9813 23.2046 58.248C23.5886 58.5093 24.0153 58.6373 24.4846 58.632C24.906 58.6267 25.2766 58.528 25.5966 58.336C25.9166 58.144 26.1673 57.8853 26.3486 57.56C26.53 57.2293 26.6206 56.8507 26.6206 56.424C26.6206 55.784 26.4206 55.256 26.0206 54.84C25.626 54.424 25.1086 54.216 24.4686 54.216C24.2873 54.216 24.1006 54.2427 23.9086 54.296C23.722 54.3493 23.546 54.4187 23.3806 54.504L22.5966 53.184L26.6606 49.592L26.8366 50.072H21.2366V48.48H28.1646V50.072L24.7886 53.32L24.7726 52.776C25.498 52.776 26.1273 52.9387 26.6606 53.264C27.194 53.584 27.6046 54.0213 27.8926 54.576C28.186 55.1253 28.3326 55.7413 28.3326 56.424C28.3326 57.16 28.1593 57.8133 27.8126 58.384C27.4713 58.9547 27.01 59.4027 26.4286 59.728C25.8526 60.0533 25.2046 60.216 24.4846 60.216ZM37.2969 60V57.992H32.0969V56.408L35.8409 48.48H37.7529L34.0089 56.408H37.2969V53.288H38.9929V56.408H40.1369V57.992H38.9929V60H37.2969ZM47.4735 60.24C46.8815 60.24 46.3295 60.12 45.8175 59.88C45.3108 59.6347 44.8762 59.2987 44.5135 58.872C44.1508 58.44 43.8922 57.944 43.7375 57.384L45.3455 56.952C45.4362 57.2933 45.5908 57.5893 45.8095 57.84C46.0335 58.0907 46.2948 58.2853 46.5935 58.424C46.8922 58.5573 47.2015 58.624 47.5215 58.624C47.9428 58.624 48.3242 58.5227 48.6655 58.32C49.0122 58.1173 49.2842 57.8453 49.4815 57.504C49.6842 57.1627 49.7855 56.7867 49.7855 56.376C49.7855 55.9547 49.6815 55.5733 49.4735 55.232C49.2708 54.8907 48.9962 54.6213 48.6495 54.424C48.3082 54.2213 47.9322 54.12 47.5215 54.12C47.0522 54.12 46.6548 54.2133 46.3295 54.4C46.0042 54.5867 45.7508 54.8027 45.5695 55.048L44.1135 54.536L44.4655 48.48H50.6815V50.056H45.3215L46.0015 49.424L45.7215 53.96L45.3935 53.536C45.6975 53.232 46.0602 53 46.4815 52.84C46.9028 52.68 47.3215 52.6 47.7375 52.6C48.4522 52.6 49.0895 52.7653 49.6495 53.096C50.2148 53.4267 50.6602 53.8773 50.9855 54.448C51.3108 55.0133 51.4735 55.656 51.4735 56.376C51.4735 57.0907 51.2895 57.7413 50.9215 58.328C50.5535 58.9093 50.0655 59.3733 49.4575 59.72C48.8495 60.0667 48.1882 60.24 47.4735 60.24ZM59.3456 60.24C58.599 60.24 57.927 60.064 57.3296 59.712C56.7323 59.3547 56.2576 58.8667 55.9056 58.248C55.559 57.6293 55.3856 56.9253 55.3856 56.136V52.464C55.3856 51.6267 55.559 50.8907 55.9056 50.256C56.2576 49.6213 56.743 49.128 57.3616 48.776C57.9856 48.424 58.703 48.248 59.5136 48.248C60.1216 48.248 60.6923 48.3627 61.2256 48.592C61.759 48.8213 62.2203 49.1627 62.6096 49.616L61.3856 50.76C61.167 50.4773 60.8923 50.2533 60.5616 50.088C60.2363 49.9173 59.887 49.832 59.5136 49.832C59.0336 49.832 58.6123 49.9467 58.2496 50.176C57.887 50.4 57.6016 50.696 57.3936 51.064C57.191 51.432 57.0896 51.8267 57.0896 52.248V54.36L56.7616 53.992C57.0923 53.56 57.503 53.2187 57.9936 52.968C58.4843 52.7173 59.0096 52.592 59.5696 52.592C60.2843 52.592 60.9216 52.76 61.4816 53.096C62.047 53.4267 62.4896 53.8773 62.8096 54.448C63.135 55.0187 63.2976 55.6613 63.2976 56.376C63.2976 57.096 63.1163 57.7493 62.7536 58.336C62.3963 58.9173 61.9163 59.3813 61.3136 59.728C60.7163 60.0693 60.0603 60.24 59.3456 60.24ZM59.3456 58.632C59.7616 58.632 60.1403 58.5307 60.4816 58.328C60.823 58.1253 61.095 57.8533 61.2976 57.512C61.5003 57.1707 61.6016 56.792 61.6016 56.376C61.6016 55.96 61.5003 55.5813 61.2976 55.24C61.1003 54.8987 60.831 54.6267 60.4896 54.424C60.1483 54.2213 59.7696 54.12 59.3536 54.12C58.9376 54.12 58.5563 54.2213 58.2096 54.424C57.8683 54.6267 57.5963 54.8987 57.3936 55.24C57.191 55.5813 57.0896 55.96 57.0896 56.376C57.0896 56.7867 57.191 57.1627 57.3936 57.504C57.5963 57.8453 57.8683 58.12 58.2096 58.328C58.551 58.5307 58.9296 58.632 59.3456 58.632ZM67.9231 60L71.9711 50.072H66.8431V48.48H73.7711V50.072L69.7311 60H67.9231ZM81.3861 60.24C80.6341 60.24 79.9675 60.0907 79.3861 59.792C78.8101 59.488 78.3568 59.0667 78.0261 58.528C77.7008 57.9893 77.5381 57.3653 77.5381 56.656C77.5381 55.9947 77.6928 55.3893 78.0021 54.84C78.3115 54.2907 78.7728 53.8587 79.3861 53.544L79.3541 54.12C78.8635 53.816 78.4848 53.4373 78.2181 52.984C77.9568 52.5253 77.8261 52.0133 77.8261 51.448C77.8261 50.792 77.9781 50.224 78.2821 49.744C78.5861 49.264 79.0048 48.8933 79.5381 48.632C80.0768 48.3707 80.6928 48.24 81.3861 48.24C82.0795 48.24 82.6928 48.3707 83.2261 48.632C83.7595 48.8933 84.1781 49.264 84.4821 49.744C84.7861 50.224 84.9381 50.792 84.9381 51.448C84.9381 52.0133 84.8128 52.5227 84.5621 52.976C84.3115 53.4293 83.9275 53.8107 83.4101 54.12L83.3861 53.56C83.9941 53.8587 84.4555 54.2853 84.7701 54.84C85.0848 55.3893 85.2421 55.9947 85.2421 56.656C85.2421 57.3653 85.0768 57.9893 84.7461 58.528C84.4155 59.0667 83.9595 59.488 83.3781 59.792C82.7968 60.0907 82.1328 60.24 81.3861 60.24ZM81.3861 58.648C82.0048 58.648 82.5061 58.48 82.8901 58.144C83.2741 57.8027 83.4661 57.3067 83.4661 56.656C83.4661 56.0053 83.2741 55.5093 82.8901 55.168C82.5115 54.8213 82.0101 54.648 81.3861 54.648C80.7621 54.648 80.2581 54.8213 79.8741 55.168C79.4955 55.5093 79.3061 56.0053 79.3061 56.656C79.3061 57.3067 79.4981 57.8027 79.8821 58.144C80.2661 58.48 80.7675 58.648 81.3861 58.648ZM81.3861 53.048C81.9141 53.048 82.3408 52.9173 82.6661 52.656C82.9968 52.3893 83.1621 51.9867 83.1621 51.448C83.1621 50.9093 82.9968 50.5067 82.6661 50.24C82.3408 49.968 81.9141 49.832 81.3861 49.832C80.8581 49.832 80.4288 49.968 80.0981 50.24C79.7675 50.5067 79.6021 50.9093 79.6021 51.448C79.6021 51.9867 79.7675 52.3893 80.0981 52.656C80.4288 52.9173 80.8581 53.048 81.3861 53.048ZM93.0671 48.248C93.8085 48.248 94.4778 48.4267 95.0751 48.784C95.6725 49.136 96.1471 49.6213 96.4991 50.24C96.8511 50.8587 97.0271 51.5653 97.0271 52.36V56.024C97.0271 56.8667 96.8511 57.6053 96.4991 58.24C96.1525 58.8693 95.6671 59.36 95.0431 59.712C94.4245 60.064 93.7098 60.24 92.8991 60.24C92.2911 60.24 91.7205 60.1253 91.1871 59.896C90.6538 59.6667 90.1898 59.3253 89.7951 58.872L91.0271 57.728C91.2458 58.0107 91.5205 58.2373 91.8511 58.408C92.1818 58.5787 92.5311 58.664 92.8991 58.664C93.3738 58.664 93.7925 58.5493 94.1551 58.32C94.5231 58.0907 94.8085 57.792 95.0111 57.424C95.2138 57.056 95.3151 56.6613 95.3151 56.24V54.128L95.6511 54.496C95.3205 54.928 94.9098 55.2693 94.4191 55.52C93.9285 55.7707 93.4031 55.896 92.8431 55.896C92.1231 55.896 91.4831 55.7307 90.9231 55.4C90.3631 55.0693 89.9205 54.6187 89.5951 54.048C89.2698 53.4773 89.1071 52.832 89.1071 52.112C89.1071 51.392 89.2885 50.7413 89.6511 50.16C90.0138 49.5787 90.4938 49.1147 91.0911 48.768C91.6885 48.4213 92.3471 48.248 93.0671 48.248ZM93.0671 49.864C92.6511 49.864 92.2698 49.9653 91.9231 50.168C91.5818 50.3653 91.3098 50.6347 91.1071 50.976C90.9045 51.3173 90.8031 51.696 90.8031 52.112C90.8031 52.528 90.9045 52.9093 91.1071 53.256C91.3098 53.5973 91.5818 53.8693 91.9231 54.072C92.2645 54.2747 92.6431 54.376 93.0591 54.376C93.4751 54.376 93.8538 54.2747 94.1951 54.072C94.5365 53.8693 94.8085 53.5973 95.0111 53.256C95.2138 52.9093 95.3151 52.528 95.3151 52.112C95.3151 51.7013 95.2138 51.3253 95.0111 50.984C94.8138 50.6427 94.5445 50.3707 94.2031 50.168C93.8618 49.9653 93.4831 49.864 93.0671 49.864ZM105.277 60.24C104.493 60.24 103.799 60.0693 103.197 59.728C102.594 59.3813 102.119 58.9067 101.773 58.304C101.431 57.7013 101.261 57.008 101.261 56.224V52.256C101.261 51.472 101.431 50.7787 101.773 50.176C102.119 49.5733 102.594 49.1013 103.197 48.76C103.799 48.4133 104.493 48.24 105.277 48.24C106.061 48.24 106.754 48.4133 107.357 48.76C107.959 49.1013 108.431 49.5733 108.773 50.176C109.119 50.7787 109.293 51.472 109.293 52.256V56.224C109.293 57.008 109.119 57.7013 108.773 58.304C108.431 58.9067 107.959 59.3813 107.357 59.728C106.754 60.0693 106.061 60.24 105.277 60.24ZM105.277 58.64C105.703 58.64 106.09 58.5387 106.437 58.336C106.789 58.128 107.069 57.8507 107.277 57.504C107.485 57.152 107.589 56.76 107.589 56.328V52.136C107.589 51.7093 107.485 51.3227 107.277 50.976C107.069 50.624 106.789 50.3467 106.437 50.144C106.09 49.936 105.703 49.832 105.277 49.832C104.85 49.832 104.461 49.936 104.109 50.144C103.762 50.3467 103.485 50.624 103.277 50.976C103.069 51.3227 102.965 51.7093 102.965 52.136V56.328C102.965 56.76 103.069 57.152 103.277 57.504C103.485 57.8507 103.762 58.128 104.109 58.336C104.461 58.5387 104.85 58.64 105.277 58.64Z" fill="#212B36"/>
</svg>
