<svg width="531" height="110" viewBox="0 0 531 110" fill="none" xmlns="http://www.w3.org/2000/svg">
<path d="M25.44 16.36H31.76L55.84 73H48L42.24 59.08H13.92L8.08 73H0.48L25.44 16.36ZM28.48 25H28.32L16.56 52.84H39.68L28.48 25ZM61.7681 40.36C63.6881 38.3867 65.9548 36.9467 68.5681 36.04C71.2348 35.08 73.9281 34.6 76.6481 34.6C82.1948 34.6 86.1948 35.9067 88.6481 38.52C91.1015 41.1333 92.3281 45.1067 92.3281 50.44V66.52C92.3281 67.5867 92.3815 68.7067 92.4881 69.88C92.5948 71 92.7281 72.04 92.8881 73H86.8881C86.6748 72.1467 86.5415 71.2133 86.4881 70.2C86.4881 69.1333 86.4881 68.2 86.4881 67.4H86.3281C85.1015 69.32 83.4481 70.8933 81.3681 72.12C79.3415 73.3467 76.8881 73.96 74.0081 73.96C72.0881 73.96 70.2748 73.72 68.5681 73.24C66.9148 72.76 65.4481 72.0667 64.1681 71.16C62.9415 70.2 61.9548 69.0267 61.2081 67.64C60.4615 66.2533 60.0881 64.6533 60.0881 62.84C60.0881 59.7467 60.8881 57.32 62.4881 55.56C64.0881 53.8 66.0615 52.4933 68.4081 51.64C70.8081 50.7867 73.3681 50.2533 76.0881 50.04C78.8615 49.8267 81.3948 49.72 83.6881 49.72H86.0881V48.6C86.0881 45.88 85.2615 43.8267 83.6081 42.44C82.0081 41.0533 79.7415 40.36 76.8081 40.36C74.7815 40.36 72.7815 40.7067 70.8081 41.4C68.8881 42.04 67.1815 43.0533 65.6881 44.44L61.7681 40.36ZM79.8481 55C75.8481 55 72.6748 55.56 70.3281 56.68C67.9815 57.8 66.8081 59.64 66.8081 62.2C66.8081 64.5467 67.5815 66.2267 69.1281 67.24C70.7281 68.2 72.7015 68.68 75.0481 68.68C76.8615 68.68 78.4348 68.3867 79.7681 67.8C81.1548 67.16 82.3015 66.3333 83.2081 65.32C84.1148 64.3067 84.8081 63.1333 85.2881 61.8C85.7681 60.4133 86.0348 58.9467 86.0881 57.4V55H79.8481Z" fill="#212B36"/>
<path d="M49.0113 93.088H51.5453C52.0213 93.088 52.4926 93.116 52.9593 93.172C53.4353 93.228 53.86 93.3493 54.2333 93.536C54.6066 93.7227 54.91 93.998 55.1433 94.362C55.3766 94.7167 55.4933 95.202 55.4933 95.818C55.4933 96.546 55.274 97.134 54.8353 97.582C54.3966 98.03 53.79 98.3147 53.0153 98.436L55.8293 103H54.3873L51.6993 98.548H50.1873V103H49.0113V93.088ZM50.1873 97.456H51.2373C51.564 97.456 51.9 97.4467 52.2453 97.428C52.6 97.4093 52.922 97.3487 53.2113 97.246C53.51 97.1433 53.7526 96.9847 53.9393 96.77C54.1353 96.546 54.2333 96.2287 54.2333 95.818C54.2333 95.4633 54.1633 95.1787 54.0233 94.964C53.8833 94.7493 53.6966 94.586 53.4633 94.474C53.2393 94.3527 52.9826 94.2733 52.6933 94.236C52.4133 94.1987 52.1286 94.18 51.8393 94.18H50.1873V97.456ZM63.2259 101.81C62.8339 102.314 62.4046 102.669 61.9379 102.874C61.4712 103.07 60.9299 103.168 60.3139 103.168C59.8006 103.168 59.3386 103.079 58.9279 102.902C58.5172 102.715 58.1672 102.468 57.8779 102.16C57.5979 101.852 57.3786 101.488 57.2199 101.068C57.0706 100.648 56.9959 100.2 56.9959 99.724C56.9959 99.22 57.0799 98.758 57.2479 98.338C57.4159 97.9087 57.6492 97.5447 57.9479 97.246C58.2466 96.938 58.6012 96.7 59.0119 96.532C59.4226 96.364 59.8706 96.28 60.3559 96.28C60.8132 96.28 61.2332 96.3593 61.6159 96.518C61.9986 96.6673 62.3252 96.8913 62.5959 97.19C62.8759 97.4793 63.0906 97.8387 63.2399 98.268C63.3892 98.688 63.4639 99.1687 63.4639 99.71V100.06H58.1719C58.1906 100.34 58.2559 100.611 58.3679 100.872C58.4892 101.124 58.6432 101.348 58.8299 101.544C59.0166 101.731 59.2359 101.88 59.4879 101.992C59.7399 102.104 60.0152 102.16 60.3139 102.16C60.7899 102.16 61.1912 102.076 61.5179 101.908C61.8446 101.74 62.1386 101.493 62.3999 101.166L63.2259 101.81ZM62.2879 99.136C62.2692 98.576 62.0872 98.128 61.7419 97.792C61.3966 97.456 60.9206 97.288 60.3139 97.288C59.7072 97.288 59.2172 97.456 58.8439 97.792C58.4706 98.128 58.2466 98.576 58.1719 99.136H62.2879ZM71.6912 102.706C71.6912 103.901 71.3832 104.806 70.7672 105.422C70.1605 106.047 69.2785 106.36 68.1212 106.36C67.4772 106.36 66.8939 106.267 66.3712 106.08C65.8579 105.893 65.3679 105.571 64.9012 105.114L65.6852 104.218C66.0305 104.591 66.3945 104.871 66.7772 105.058C67.1692 105.254 67.6172 105.352 68.1212 105.352C68.6065 105.352 69.0079 105.277 69.3252 105.128C69.6519 104.988 69.9085 104.792 70.0952 104.54C70.2819 104.297 70.4125 104.017 70.4872 103.7C70.5619 103.383 70.5992 103.051 70.5992 102.706V101.866H70.5712C70.3099 102.286 69.9692 102.594 69.5492 102.79C69.1292 102.986 68.6999 103.084 68.2612 103.084C67.7479 103.084 67.2765 103 66.8472 102.832C66.4179 102.664 66.0492 102.431 65.7412 102.132C65.4332 101.833 65.1952 101.479 65.0272 101.068C64.8592 100.657 64.7752 100.209 64.7752 99.724C64.7752 99.192 64.8592 98.7113 65.0272 98.282C65.1952 97.8527 65.4285 97.4933 65.7272 97.204C66.0352 96.9053 66.4039 96.6767 66.8332 96.518C67.2625 96.3593 67.7385 96.28 68.2612 96.28C68.4852 96.28 68.7092 96.308 68.9332 96.364C69.1572 96.4107 69.3719 96.49 69.5772 96.602C69.7919 96.7047 69.9832 96.84 70.1512 97.008C70.3192 97.1667 70.4592 97.3533 70.5712 97.568H70.5992V96.448H71.6912V102.706ZM65.9512 99.724C65.9512 100.06 66.0119 100.373 66.1332 100.662C66.2545 100.942 66.4179 101.189 66.6232 101.404C66.8379 101.609 67.0852 101.773 67.3652 101.894C67.6452 102.015 67.9439 102.076 68.2612 102.076C68.6345 102.076 68.9659 102.011 69.2552 101.88C69.5445 101.749 69.7872 101.577 69.9832 101.362C70.1885 101.138 70.3425 100.886 70.4452 100.606C70.5479 100.317 70.5992 100.013 70.5992 99.696C70.5992 99.3413 70.5432 99.0193 70.4312 98.73C70.3192 98.4313 70.1605 98.1747 69.9552 97.96C69.7499 97.7453 69.5025 97.582 69.2132 97.47C68.9239 97.3487 68.6065 97.288 68.2612 97.288C67.9159 97.288 67.5985 97.3533 67.3092 97.484C67.0292 97.6053 66.7865 97.778 66.5812 98.002C66.3852 98.2167 66.2312 98.4733 66.1192 98.772C66.0072 99.0613 65.9512 99.3787 65.9512 99.724ZM79.4238 101.446C79.4238 101.745 79.4331 102.025 79.4518 102.286C79.4704 102.547 79.4798 102.785 79.4798 103H78.4438C78.4438 102.823 78.4391 102.645 78.4298 102.468C78.4204 102.291 78.4158 102.109 78.4158 101.922H78.3878C78.3131 102.081 78.2058 102.235 78.0658 102.384C77.9351 102.533 77.7764 102.669 77.5898 102.79C77.4031 102.902 77.1931 102.991 76.9598 103.056C76.7264 103.131 76.4744 103.168 76.2038 103.168C75.7744 103.168 75.4011 103.103 75.0838 102.972C74.7758 102.841 74.5191 102.659 74.3138 102.426C74.1084 102.193 73.9544 101.913 73.8518 101.586C73.7584 101.25 73.7118 100.886 73.7118 100.494V96.448H74.8038V100.382C74.8038 100.933 74.9251 101.367 75.1678 101.684C75.4104 102.001 75.7884 102.16 76.3018 102.16C76.6564 102.16 76.9598 102.099 77.2118 101.978C77.4731 101.857 77.6831 101.684 77.8418 101.46C78.0098 101.236 78.1311 100.97 78.2058 100.662C78.2898 100.354 78.3318 100.013 78.3318 99.64V96.448H79.4238V101.446ZM81.5891 92.416H82.6811V103H81.5891V92.416ZM84.7704 97.288C85.1064 96.9427 85.503 96.6907 85.9604 96.532C86.427 96.364 86.8984 96.28 87.3744 96.28C88.345 96.28 89.045 96.5087 89.4744 96.966C89.9037 97.4233 90.1184 98.1187 90.1184 99.052V101.866C90.1184 102.053 90.1277 102.249 90.1464 102.454C90.165 102.65 90.1884 102.832 90.2164 103H89.1664C89.129 102.851 89.1057 102.687 89.0964 102.51C89.0964 102.323 89.0964 102.16 89.0964 102.02H89.0684C88.8537 102.356 88.5644 102.631 88.2004 102.846C87.8457 103.061 87.4164 103.168 86.9124 103.168C86.5764 103.168 86.259 103.126 85.9604 103.042C85.671 102.958 85.4144 102.837 85.1904 102.678C84.9757 102.51 84.803 102.305 84.6724 102.062C84.5417 101.819 84.4764 101.539 84.4764 101.222C84.4764 100.681 84.6164 100.256 84.8964 99.948C85.1764 99.64 85.5217 99.4113 85.9324 99.262C86.3524 99.1127 86.8004 99.0193 87.2764 98.982C87.7617 98.9447 88.205 98.926 88.6064 98.926H89.0264V98.73C89.0264 98.254 88.8817 97.8947 88.5924 97.652C88.3124 97.4093 87.9157 97.288 87.4024 97.288C87.0477 97.288 86.6977 97.3487 86.3524 97.47C86.0164 97.582 85.7177 97.7593 85.4564 98.002L84.7704 97.288ZM87.9344 99.85C87.2344 99.85 86.679 99.948 86.2684 100.144C85.8577 100.34 85.6524 100.662 85.6524 101.11C85.6524 101.521 85.7877 101.815 86.0584 101.992C86.3384 102.16 86.6837 102.244 87.0944 102.244C87.4117 102.244 87.687 102.193 87.9204 102.09C88.163 101.978 88.3637 101.833 88.5224 101.656C88.681 101.479 88.8024 101.273 88.8864 101.04C88.9704 100.797 89.017 100.541 89.0264 100.27V99.85H87.9344ZM92.1141 98.002C92.1141 97.7033 92.1048 97.4233 92.0861 97.162C92.0675 96.9007 92.0581 96.6627 92.0581 96.448H93.0941C93.0941 96.6253 93.0988 96.8027 93.1081 96.98C93.1175 97.1573 93.1221 97.3393 93.1221 97.526H93.1501C93.2248 97.3673 93.3275 97.2133 93.4581 97.064C93.5981 96.9147 93.7615 96.784 93.9481 96.672C94.1348 96.5507 94.3448 96.4573 94.5781 96.392C94.8115 96.3173 95.0635 96.28 95.3341 96.28C95.4088 96.28 95.4835 96.2847 95.5581 96.294C95.6328 96.3033 95.7075 96.322 95.7821 96.35L95.7121 97.456C95.5255 97.4 95.3295 97.372 95.1241 97.372C94.4521 97.372 93.9621 97.5913 93.6541 98.03C93.3555 98.4593 93.2061 99.052 93.2061 99.808V103H92.1141V98.002Z" fill="#637381"/>
<path d="M168.04 16.36H175L199.24 73H190.28L184.6 59H157.64L152.04 73H143.08L168.04 16.36ZM181.8 52.28L171.24 26.28H171.08L160.36 52.28H181.8ZM204.928 39.72C206.955 37.8533 209.301 36.4667 211.968 35.56C214.635 34.6 217.301 34.12 219.968 34.12C222.741 34.12 225.115 34.4667 227.088 35.16C229.115 35.8533 230.768 36.7867 232.048 37.96C233.328 39.1333 234.261 40.4933 234.848 42.04C235.488 43.5333 235.808 45.1067 235.808 46.76V66.12C235.808 67.4533 235.835 68.68 235.888 69.8C235.941 70.92 236.021 71.9867 236.128 73H229.728C229.568 71.08 229.488 69.16 229.488 67.24H229.328C227.728 69.6933 225.835 71.4267 223.648 72.44C221.461 73.4533 218.928 73.96 216.048 73.96C214.288 73.96 212.608 73.72 211.008 73.24C209.408 72.76 207.995 72.04 206.768 71.08C205.595 70.12 204.661 68.9467 203.968 67.56C203.275 66.12 202.928 64.4667 202.928 62.6C202.928 60.1467 203.461 58.0933 204.528 56.44C205.648 54.7867 207.141 53.4533 209.008 52.44C210.928 51.3733 213.141 50.6267 215.648 50.2C218.208 49.72 220.928 49.48 223.808 49.48H229.088V47.88C229.088 46.92 228.901 45.96 228.528 45C228.155 44.04 227.595 43.1867 226.848 42.44C226.101 41.64 225.168 41.0267 224.048 40.6C222.928 40.12 221.595 39.88 220.048 39.88C218.661 39.88 217.435 40.0133 216.368 40.28C215.355 40.5467 214.421 40.8933 213.568 41.32C212.715 41.6933 211.941 42.1467 211.248 42.68C210.555 43.2133 209.888 43.72 209.248 44.2L204.928 39.72ZM225.248 54.76C223.541 54.76 221.781 54.8667 219.968 55.08C218.208 55.24 216.581 55.5867 215.088 56.12C213.648 56.6533 212.448 57.4 211.488 58.36C210.581 59.32 210.128 60.5467 210.128 62.04C210.128 64.2267 210.848 65.8 212.288 66.76C213.781 67.72 215.781 68.2 218.288 68.2C220.261 68.2 221.941 67.88 223.328 67.24C224.715 66.5467 225.835 65.6667 226.688 64.6C227.541 63.5333 228.155 62.36 228.528 61.08C228.901 59.7467 229.088 58.44 229.088 57.16V54.76H225.248Z" fill="#212B36"/>
<path d="M189.115 93.088H190.865L194.225 100.858H194.253L197.641 93.088H199.349V103H198.173V94.684H198.145L194.589 103H193.875L190.319 94.684H190.291V103H189.115V93.088ZM207.472 101.81C207.08 102.314 206.651 102.669 206.184 102.874C205.717 103.07 205.176 103.168 204.56 103.168C204.047 103.168 203.585 103.079 203.174 102.902C202.763 102.715 202.413 102.468 202.124 102.16C201.844 101.852 201.625 101.488 201.466 101.068C201.317 100.648 201.242 100.2 201.242 99.724C201.242 99.22 201.326 98.758 201.494 98.338C201.662 97.9087 201.895 97.5447 202.194 97.246C202.493 96.938 202.847 96.7 203.258 96.532C203.669 96.364 204.117 96.28 204.602 96.28C205.059 96.28 205.479 96.3593 205.862 96.518C206.245 96.6673 206.571 96.8913 206.842 97.19C207.122 97.4793 207.337 97.8387 207.486 98.268C207.635 98.688 207.71 99.1687 207.71 99.71V100.06H202.418C202.437 100.34 202.502 100.611 202.614 100.872C202.735 101.124 202.889 101.348 203.076 101.544C203.263 101.731 203.482 101.88 203.734 101.992C203.986 102.104 204.261 102.16 204.56 102.16C205.036 102.16 205.437 102.076 205.764 101.908C206.091 101.74 206.385 101.493 206.646 101.166L207.472 101.81ZM206.534 99.136C206.515 98.576 206.333 98.128 205.988 97.792C205.643 97.456 205.167 97.288 204.56 97.288C203.953 97.288 203.463 97.456 203.09 97.792C202.717 98.128 202.493 98.576 202.418 99.136H206.534ZM214.845 101.838H214.817C214.612 102.211 214.285 102.529 213.837 102.79C213.399 103.042 212.885 103.168 212.297 103.168C211.84 103.168 211.411 103.084 211.009 102.916C210.608 102.739 210.258 102.496 209.959 102.188C209.67 101.88 209.441 101.516 209.273 101.096C209.105 100.676 209.021 100.219 209.021 99.724C209.021 99.2293 209.105 98.772 209.273 98.352C209.441 97.932 209.675 97.568 209.973 97.26C210.272 96.952 210.631 96.714 211.051 96.546C211.481 96.3687 211.952 96.28 212.465 96.28C212.941 96.28 213.375 96.378 213.767 96.574C214.169 96.77 214.519 97.0453 214.817 97.4H214.845V92.416H215.937V103H214.845V101.838ZM214.845 99.724C214.845 99.3787 214.789 99.0613 214.677 98.772C214.575 98.4733 214.421 98.2167 214.215 98.002C214.01 97.778 213.763 97.6053 213.473 97.484C213.193 97.3533 212.876 97.288 212.521 97.288C212.167 97.288 211.845 97.3533 211.555 97.484C211.275 97.6053 211.033 97.778 210.827 98.002C210.622 98.2167 210.463 98.4733 210.351 98.772C210.249 99.0613 210.197 99.3787 210.197 99.724C210.197 100.069 210.249 100.391 210.351 100.69C210.463 100.979 210.622 101.236 210.827 101.46C211.033 101.675 211.275 101.847 211.555 101.978C211.845 102.099 212.167 102.16 212.521 102.16C212.876 102.16 213.193 102.099 213.473 101.978C213.763 101.847 214.01 101.675 214.215 101.46C214.421 101.236 214.575 100.979 214.677 100.69C214.789 100.391 214.845 100.069 214.845 99.724ZM218.07 96.448H219.162V103H218.07V96.448ZM217.818 93.886C217.818 93.6713 217.892 93.4847 218.042 93.326C218.2 93.1673 218.392 93.088 218.616 93.088C218.84 93.088 219.026 93.1673 219.176 93.326C219.334 93.4847 219.414 93.6713 219.414 93.886C219.414 94.1193 219.339 94.3107 219.19 94.46C219.04 94.6093 218.849 94.684 218.616 94.684C218.382 94.684 218.191 94.6093 218.042 94.46C217.892 94.3107 217.818 94.1193 217.818 93.886ZM227.047 101.446C227.047 101.745 227.056 102.025 227.075 102.286C227.093 102.547 227.103 102.785 227.103 103H226.067C226.067 102.823 226.062 102.645 226.053 102.468C226.043 102.291 226.039 102.109 226.039 101.922H226.011C225.936 102.081 225.829 102.235 225.689 102.384C225.558 102.533 225.399 102.669 225.213 102.79C225.026 102.902 224.816 102.991 224.583 103.056C224.349 103.131 224.097 103.168 223.827 103.168C223.397 103.168 223.024 103.103 222.707 102.972C222.399 102.841 222.142 102.659 221.937 102.426C221.731 102.193 221.577 101.913 221.475 101.586C221.381 101.25 221.335 100.886 221.335 100.494V96.448H222.427V100.382C222.427 100.933 222.548 101.367 222.791 101.684C223.033 102.001 223.411 102.16 223.925 102.16C224.279 102.16 224.583 102.099 224.835 101.978C225.096 101.857 225.306 101.684 225.465 101.46C225.633 101.236 225.754 100.97 225.829 100.662C225.913 100.354 225.955 100.013 225.955 99.64V96.448H227.047V101.446ZM229.114 98.002C229.114 97.7033 229.105 97.4233 229.086 97.162C229.067 96.9007 229.058 96.6627 229.058 96.448H230.094C230.094 96.6253 230.099 96.8027 230.108 96.98C230.117 97.1573 230.122 97.3393 230.122 97.526H230.15C230.225 97.3673 230.327 97.2133 230.458 97.064C230.598 96.9147 230.761 96.784 230.948 96.672C231.135 96.5507 231.345 96.4573 231.578 96.392C231.811 96.3173 232.063 96.28 232.334 96.28C232.689 96.28 232.983 96.3267 233.216 96.42C233.459 96.504 233.659 96.6113 233.818 96.742C233.977 96.8633 234.098 96.9987 234.182 97.148C234.275 97.288 234.35 97.414 234.406 97.526C234.649 97.134 234.929 96.8307 235.246 96.616C235.563 96.392 235.974 96.28 236.478 96.28C236.945 96.28 237.337 96.3453 237.654 96.476C237.971 96.5973 238.228 96.7793 238.424 97.022C238.62 97.2553 238.76 97.5447 238.844 97.89C238.928 98.226 238.97 98.604 238.97 99.024V103H237.878V99.08C237.878 98.856 237.855 98.6367 237.808 98.422C237.761 98.2073 237.677 98.016 237.556 97.848C237.435 97.68 237.271 97.5447 237.066 97.442C236.861 97.3393 236.599 97.288 236.282 97.288C236.049 97.288 235.829 97.3347 235.624 97.428C235.419 97.5213 235.237 97.652 235.078 97.82C234.929 97.988 234.807 98.1933 234.714 98.436C234.63 98.6693 234.588 98.9307 234.588 99.22V103H233.496V99.29C233.496 98.562 233.398 98.0487 233.202 97.75C233.006 97.442 232.684 97.288 232.236 97.288C231.881 97.288 231.573 97.3487 231.312 97.47C231.06 97.5913 230.85 97.764 230.682 97.988C230.523 98.212 230.402 98.478 230.318 98.786C230.243 99.094 230.206 99.4347 230.206 99.808V103H229.114V98.002Z" fill="#637381"/>
<path d="M310.04 16.36H317L341.24 73H332.28L326.6 59H299.64L294.04 73H285.08L310.04 16.36ZM323.8 52.28L313.24 26.28H313.08L302.36 52.28H323.8ZM346.928 39.72C348.955 37.8533 351.301 36.4667 353.968 35.56C356.635 34.6 359.301 34.12 361.968 34.12C364.741 34.12 367.115 34.4667 369.088 35.16C371.115 35.8533 372.768 36.7867 374.048 37.96C375.328 39.1333 376.261 40.4933 376.848 42.04C377.488 43.5333 377.808 45.1067 377.808 46.76V66.12C377.808 67.4533 377.835 68.68 377.888 69.8C377.941 70.92 378.021 71.9867 378.128 73H371.728C371.568 71.08 371.488 69.16 371.488 67.24H371.328C369.728 69.6933 367.835 71.4267 365.648 72.44C363.461 73.4533 360.928 73.96 358.048 73.96C356.288 73.96 354.608 73.72 353.008 73.24C351.408 72.76 349.995 72.04 348.768 71.08C347.595 70.12 346.661 68.9467 345.968 67.56C345.275 66.12 344.928 64.4667 344.928 62.6C344.928 60.1467 345.461 58.0933 346.528 56.44C347.648 54.7867 349.141 53.4533 351.008 52.44C352.928 51.3733 355.141 50.6267 357.648 50.2C360.208 49.72 362.928 49.48 365.808 49.48H371.088V47.88C371.088 46.92 370.901 45.96 370.528 45C370.155 44.04 369.595 43.1867 368.848 42.44C368.101 41.64 367.168 41.0267 366.048 40.6C364.928 40.12 363.595 39.88 362.048 39.88C360.661 39.88 359.435 40.0133 358.368 40.28C357.355 40.5467 356.421 40.8933 355.568 41.32C354.715 41.6933 353.941 42.1467 353.248 42.68C352.555 43.2133 351.888 43.72 351.248 44.2L346.928 39.72ZM367.248 54.76C365.541 54.76 363.781 54.8667 361.968 55.08C360.208 55.24 358.581 55.5867 357.088 56.12C355.648 56.6533 354.448 57.4 353.488 58.36C352.581 59.32 352.128 60.5467 352.128 62.04C352.128 64.2267 352.848 65.8 354.288 66.76C355.781 67.72 357.781 68.2 360.288 68.2C362.261 68.2 363.941 67.88 365.328 67.24C366.715 66.5467 367.835 65.6667 368.688 64.6C369.541 63.5333 370.155 62.36 370.528 61.08C370.901 59.7467 371.088 58.44 371.088 57.16V54.76H367.248Z" fill="#212B36"/>
<path d="M325.377 94.838C325.181 94.5207 324.92 94.292 324.593 94.152C324.267 94.0027 323.926 93.928 323.571 93.928C323.31 93.928 323.053 93.9607 322.801 94.026C322.549 94.0913 322.321 94.1893 322.115 94.32C321.919 94.4507 321.761 94.6233 321.639 94.838C321.518 95.0527 321.457 95.3047 321.457 95.594C321.457 95.818 321.49 96.0187 321.555 96.196C321.63 96.364 321.747 96.518 321.905 96.658C322.064 96.798 322.279 96.9287 322.549 97.05C322.82 97.1713 323.151 97.2927 323.543 97.414C323.926 97.5353 324.295 97.666 324.649 97.806C325.013 97.946 325.331 98.1233 325.601 98.338C325.881 98.5527 326.101 98.8233 326.259 99.15C326.427 99.4673 326.511 99.8687 326.511 100.354C326.511 100.849 326.413 101.278 326.217 101.642C326.021 102.006 325.76 102.309 325.433 102.552C325.116 102.785 324.747 102.958 324.327 103.07C323.907 103.191 323.473 103.252 323.025 103.252C322.736 103.252 322.447 103.224 322.157 103.168C321.868 103.121 321.588 103.047 321.317 102.944C321.056 102.832 320.809 102.692 320.575 102.524C320.342 102.347 320.141 102.132 319.973 101.88L320.981 101.054C321.196 101.418 321.495 101.693 321.877 101.88C322.26 102.067 322.666 102.16 323.095 102.16C323.347 102.16 323.599 102.123 323.851 102.048C324.113 101.973 324.346 101.866 324.551 101.726C324.757 101.577 324.925 101.395 325.055 101.18C325.186 100.965 325.251 100.718 325.251 100.438C325.251 100.13 325.2 99.8827 325.097 99.696C324.995 99.5 324.836 99.332 324.621 99.192C324.407 99.052 324.136 98.926 323.809 98.814C323.483 98.702 323.1 98.5713 322.661 98.422C322.307 98.31 321.98 98.184 321.681 98.044C321.383 97.8947 321.121 97.7173 320.897 97.512C320.683 97.2973 320.51 97.0453 320.379 96.756C320.258 96.4573 320.197 96.1027 320.197 95.692C320.197 95.216 320.291 94.8007 320.477 94.446C320.664 94.0913 320.916 93.7973 321.233 93.564C321.551 93.3213 321.91 93.1393 322.311 93.018C322.713 92.8967 323.133 92.836 323.571 92.836C324.131 92.836 324.64 92.9247 325.097 93.102C325.564 93.27 325.979 93.5687 326.343 93.998L325.377 94.838ZM334.109 101.81C333.717 102.314 333.287 102.669 332.821 102.874C332.354 103.07 331.813 103.168 331.197 103.168C330.683 103.168 330.221 103.079 329.811 102.902C329.4 102.715 329.05 102.468 328.761 102.16C328.481 101.852 328.261 101.488 328.103 101.068C327.953 100.648 327.879 100.2 327.879 99.724C327.879 99.22 327.963 98.758 328.131 98.338C328.299 97.9087 328.532 97.5447 328.831 97.246C329.129 96.938 329.484 96.7 329.895 96.532C330.305 96.364 330.753 96.28 331.239 96.28C331.696 96.28 332.116 96.3593 332.499 96.518C332.881 96.6673 333.208 96.8913 333.479 97.19C333.759 97.4793 333.973 97.8387 334.123 98.268C334.272 98.688 334.347 99.1687 334.347 99.71V100.06H329.055C329.073 100.34 329.139 100.611 329.251 100.872C329.372 101.124 329.526 101.348 329.713 101.544C329.899 101.731 330.119 101.88 330.371 101.992C330.623 102.104 330.898 102.16 331.197 102.16C331.673 102.16 332.074 102.076 332.401 101.908C332.727 101.74 333.021 101.493 333.283 101.166L334.109 101.81ZM333.171 99.136C333.152 98.576 332.97 98.128 332.625 97.792C332.279 97.456 331.803 97.288 331.197 97.288C330.59 97.288 330.1 97.456 329.727 97.792C329.353 98.128 329.129 98.576 329.055 99.136H333.171ZM336.036 98.002C336.036 97.7033 336.027 97.4233 336.008 97.162C335.989 96.9007 335.98 96.6627 335.98 96.448H337.016C337.016 96.6253 337.021 96.8027 337.03 96.98C337.039 97.1573 337.044 97.3393 337.044 97.526H337.072C337.147 97.3673 337.249 97.2133 337.38 97.064C337.52 96.9147 337.683 96.784 337.87 96.672C338.057 96.5507 338.267 96.4573 338.5 96.392C338.733 96.3173 338.985 96.28 339.256 96.28C339.611 96.28 339.905 96.3267 340.138 96.42C340.381 96.504 340.581 96.6113 340.74 96.742C340.899 96.8633 341.02 96.9987 341.104 97.148C341.197 97.288 341.272 97.414 341.328 97.526C341.571 97.134 341.851 96.8307 342.168 96.616C342.485 96.392 342.896 96.28 343.4 96.28C343.867 96.28 344.259 96.3453 344.576 96.476C344.893 96.5973 345.15 96.7793 345.346 97.022C345.542 97.2553 345.682 97.5447 345.766 97.89C345.85 98.226 345.892 98.604 345.892 99.024V103H344.8V99.08C344.8 98.856 344.777 98.6367 344.73 98.422C344.683 98.2073 344.599 98.016 344.478 97.848C344.357 97.68 344.193 97.5447 343.988 97.442C343.783 97.3393 343.521 97.288 343.204 97.288C342.971 97.288 342.751 97.3347 342.546 97.428C342.341 97.5213 342.159 97.652 342 97.82C341.851 97.988 341.729 98.1933 341.636 98.436C341.552 98.6693 341.51 98.9307 341.51 99.22V103H340.418V99.29C340.418 98.562 340.32 98.0487 340.124 97.75C339.928 97.442 339.606 97.288 339.158 97.288C338.803 97.288 338.495 97.3487 338.234 97.47C337.982 97.5913 337.772 97.764 337.604 97.988C337.445 98.212 337.324 98.478 337.24 98.786C337.165 99.094 337.128 99.4347 337.128 99.808V103H336.036V98.002ZM348.056 96.448H349.148V103H348.056V96.448ZM347.804 93.886C347.804 93.6713 347.879 93.4847 348.028 93.326C348.187 93.1673 348.378 93.088 348.602 93.088C348.826 93.088 349.013 93.1673 349.162 93.326C349.321 93.4847 349.4 93.6713 349.4 93.886C349.4 94.1193 349.325 94.3107 349.176 94.46C349.027 94.6093 348.835 94.684 348.602 94.684C348.369 94.684 348.177 94.6093 348.028 94.46C347.879 94.3107 347.804 94.1193 347.804 93.886ZM350.901 99.136H354.331V100.144H350.901V99.136ZM356.179 93.088H359.203C359.614 93.088 360.015 93.13 360.407 93.214C360.799 93.298 361.149 93.438 361.457 93.634C361.765 93.8207 362.013 94.068 362.199 94.376C362.395 94.684 362.493 95.0667 362.493 95.524C362.493 96.1027 362.335 96.5833 362.017 96.966C361.709 97.3393 361.289 97.6053 360.757 97.764V97.792C361.075 97.82 361.369 97.904 361.639 98.044C361.919 98.1747 362.157 98.3473 362.353 98.562C362.559 98.7767 362.717 99.0287 362.829 99.318C362.941 99.598 362.997 99.9013 362.997 100.228C362.997 100.779 362.881 101.231 362.647 101.586C362.423 101.941 362.125 102.225 361.751 102.44C361.387 102.645 360.972 102.79 360.505 102.874C360.048 102.958 359.591 103 359.133 103H356.179V93.088ZM357.355 97.288H358.979C359.259 97.288 359.53 97.2693 359.791 97.232C360.062 97.1947 360.305 97.12 360.519 97.008C360.734 96.8867 360.907 96.7233 361.037 96.518C361.168 96.3033 361.233 96.0233 361.233 95.678C361.233 95.37 361.173 95.1227 361.051 94.936C360.93 94.74 360.767 94.586 360.561 94.474C360.365 94.362 360.137 94.2873 359.875 94.25C359.623 94.2033 359.367 94.18 359.105 94.18H357.355V97.288ZM357.355 101.908H359.343C359.633 101.908 359.917 101.88 360.197 101.824C360.487 101.759 360.743 101.661 360.967 101.53C361.201 101.39 361.387 101.213 361.527 100.998C361.667 100.774 361.737 100.503 361.737 100.186C361.737 99.8407 361.667 99.5513 361.527 99.318C361.397 99.0847 361.219 98.898 360.995 98.758C360.781 98.618 360.529 98.52 360.239 98.464C359.959 98.408 359.67 98.38 359.371 98.38H357.355V101.908ZM364.424 99.724C364.424 99.2107 364.512 98.744 364.69 98.324C364.867 97.904 365.11 97.5447 365.418 97.246C365.726 96.938 366.094 96.7 366.524 96.532C366.953 96.364 367.42 96.28 367.924 96.28C368.428 96.28 368.894 96.364 369.324 96.532C369.753 96.7 370.122 96.938 370.43 97.246C370.738 97.5447 370.98 97.904 371.158 98.324C371.335 98.744 371.424 99.2107 371.424 99.724C371.424 100.237 371.335 100.704 371.158 101.124C370.98 101.544 370.738 101.908 370.43 102.216C370.122 102.515 369.753 102.748 369.324 102.916C368.894 103.084 368.428 103.168 367.924 103.168C367.42 103.168 366.953 103.084 366.524 102.916C366.094 102.748 365.726 102.515 365.418 102.216C365.11 101.908 364.867 101.544 364.69 101.124C364.512 100.704 364.424 100.237 364.424 99.724ZM365.6 99.724C365.6 100.069 365.651 100.391 365.754 100.69C365.866 100.979 366.024 101.236 366.23 101.46C366.435 101.675 366.678 101.847 366.958 101.978C367.247 102.099 367.569 102.16 367.924 102.16C368.278 102.16 368.596 102.099 368.876 101.978C369.165 101.847 369.412 101.675 369.618 101.46C369.823 101.236 369.977 100.979 370.08 100.69C370.192 100.391 370.248 100.069 370.248 99.724C370.248 99.3787 370.192 99.0613 370.08 98.772C369.977 98.4733 369.823 98.2167 369.618 98.002C369.412 97.778 369.165 97.6053 368.876 97.484C368.596 97.3533 368.278 97.288 367.924 97.288C367.569 97.288 367.247 97.3533 366.958 97.484C366.678 97.6053 366.435 97.778 366.23 98.002C366.024 98.2167 365.866 98.4733 365.754 98.772C365.651 99.0613 365.6 99.3787 365.6 99.724ZM373.212 92.416H374.304V103H373.212V92.416ZM381.923 101.838H381.895C381.69 102.211 381.363 102.529 380.915 102.79C380.477 103.042 379.963 103.168 379.375 103.168C378.918 103.168 378.489 103.084 378.087 102.916C377.686 102.739 377.336 102.496 377.037 102.188C376.748 101.88 376.519 101.516 376.351 101.096C376.183 100.676 376.099 100.219 376.099 99.724C376.099 99.2293 376.183 98.772 376.351 98.352C376.519 97.932 376.753 97.568 377.051 97.26C377.35 96.952 377.709 96.714 378.129 96.546C378.559 96.3687 379.03 96.28 379.543 96.28C380.019 96.28 380.453 96.378 380.845 96.574C381.247 96.77 381.597 97.0453 381.895 97.4H381.923V92.416H383.015V103H381.923V101.838ZM381.923 99.724C381.923 99.3787 381.867 99.0613 381.755 98.772C381.653 98.4733 381.499 98.2167 381.293 98.002C381.088 97.778 380.841 97.6053 380.551 97.484C380.271 97.3533 379.954 97.288 379.599 97.288C379.245 97.288 378.923 97.3533 378.633 97.484C378.353 97.6053 378.111 97.778 377.905 98.002C377.7 98.2167 377.541 98.4733 377.429 98.772C377.327 99.0613 377.275 99.3787 377.275 99.724C377.275 100.069 377.327 100.391 377.429 100.69C377.541 100.979 377.7 101.236 377.905 101.46C378.111 101.675 378.353 101.847 378.633 101.978C378.923 102.099 379.245 102.16 379.599 102.16C379.954 102.16 380.271 102.099 380.551 101.978C380.841 101.847 381.088 101.675 381.293 101.46C381.499 101.236 381.653 100.979 381.755 100.69C381.867 100.391 381.923 100.069 381.923 99.724Z" fill="#637381"/>
<path d="M452.4 16.36H462.72L487.36 73H473.28L468.4 61H446.4L441.68 73H427.92L452.4 16.36ZM457.2 32.84L450.32 50.44H464.16L457.2 32.84ZM515.937 68.12H515.777C514.444 70.2 512.657 71.6933 510.417 72.6C508.23 73.5067 505.91 73.96 503.457 73.96C501.644 73.96 499.884 73.6933 498.177 73.16C496.524 72.68 495.057 71.9333 493.777 70.92C492.497 69.9067 491.484 68.6533 490.737 67.16C489.99 65.6667 489.617 63.9333 489.617 61.96C489.617 59.72 490.017 57.8267 490.817 56.28C491.67 54.7333 492.79 53.4533 494.177 52.44C495.617 51.4267 497.244 50.6533 499.057 50.12C500.87 49.5333 502.737 49.1067 504.657 48.84C506.63 48.5733 508.577 48.4133 510.497 48.36C512.47 48.3067 514.284 48.28 515.937 48.28C515.937 46.1467 515.164 44.4667 513.617 43.24C512.124 41.96 510.337 41.32 508.257 41.32C506.284 41.32 504.47 41.7467 502.817 42.6C501.217 43.4 499.777 44.52 498.497 45.96L492.097 39.4C494.337 37.32 496.95 35.7733 499.937 34.76C502.924 33.6933 506.017 33.16 509.217 33.16C512.737 33.16 515.617 33.6133 517.857 34.52C520.15 35.3733 521.964 36.6533 523.297 38.36C524.684 40.0667 525.644 42.1733 526.177 44.68C526.71 47.1333 526.977 49.9867 526.977 53.24V73H515.937V68.12ZM512.977 55.96C512.07 55.96 510.924 56.0133 509.537 56.12C508.204 56.1733 506.897 56.3867 505.617 56.76C504.39 57.1333 503.324 57.6933 502.417 58.44C501.564 59.1867 501.137 60.2267 501.137 61.56C501.137 63 501.75 64.0667 502.977 64.76C504.204 65.4533 505.484 65.8 506.817 65.8C507.99 65.8 509.11 65.64 510.177 65.32C511.297 65 512.284 64.5467 513.137 63.96C513.99 63.3733 514.657 62.6267 515.137 61.72C515.67 60.8133 515.937 59.7467 515.937 58.52V55.96H512.977Z" fill="#212B36"/>
<path d="M500.179 93.088H503.203C503.614 93.088 504.015 93.13 504.407 93.214C504.799 93.298 505.149 93.438 505.457 93.634C505.765 93.8207 506.013 94.068 506.199 94.376C506.395 94.684 506.493 95.0667 506.493 95.524C506.493 96.1027 506.335 96.5833 506.017 96.966C505.709 97.3393 505.289 97.6053 504.757 97.764V97.792C505.075 97.82 505.369 97.904 505.639 98.044C505.919 98.1747 506.157 98.3473 506.353 98.562C506.559 98.7767 506.717 99.0287 506.829 99.318C506.941 99.598 506.997 99.9013 506.997 100.228C506.997 100.779 506.881 101.231 506.647 101.586C506.423 101.941 506.125 102.225 505.751 102.44C505.387 102.645 504.972 102.79 504.505 102.874C504.048 102.958 503.591 103 503.133 103H500.179V93.088ZM501.355 97.288H502.979C503.259 97.288 503.53 97.2693 503.791 97.232C504.062 97.1947 504.305 97.12 504.519 97.008C504.734 96.8867 504.907 96.7233 505.037 96.518C505.168 96.3033 505.233 96.0233 505.233 95.678C505.233 95.37 505.173 95.1227 505.051 94.936C504.93 94.74 504.767 94.586 504.561 94.474C504.365 94.362 504.137 94.2873 503.875 94.25C503.623 94.2033 503.367 94.18 503.105 94.18H501.355V97.288ZM501.355 101.908H503.343C503.633 101.908 503.917 101.88 504.197 101.824C504.487 101.759 504.743 101.661 504.967 101.53C505.201 101.39 505.387 101.213 505.527 100.998C505.667 100.774 505.737 100.503 505.737 100.186C505.737 99.8407 505.667 99.5513 505.527 99.318C505.397 99.0847 505.219 98.898 504.995 98.758C504.781 98.618 504.529 98.52 504.239 98.464C503.959 98.408 503.67 98.38 503.371 98.38H501.355V101.908ZM508.424 99.724C508.424 99.2107 508.512 98.744 508.69 98.324C508.867 97.904 509.11 97.5447 509.418 97.246C509.726 96.938 510.094 96.7 510.524 96.532C510.953 96.364 511.42 96.28 511.924 96.28C512.428 96.28 512.894 96.364 513.324 96.532C513.753 96.7 514.122 96.938 514.43 97.246C514.738 97.5447 514.98 97.904 515.158 98.324C515.335 98.744 515.424 99.2107 515.424 99.724C515.424 100.237 515.335 100.704 515.158 101.124C514.98 101.544 514.738 101.908 514.43 102.216C514.122 102.515 513.753 102.748 513.324 102.916C512.894 103.084 512.428 103.168 511.924 103.168C511.42 103.168 510.953 103.084 510.524 102.916C510.094 102.748 509.726 102.515 509.418 102.216C509.11 101.908 508.867 101.544 508.69 101.124C508.512 100.704 508.424 100.237 508.424 99.724ZM509.6 99.724C509.6 100.069 509.651 100.391 509.754 100.69C509.866 100.979 510.024 101.236 510.23 101.46C510.435 101.675 510.678 101.847 510.958 101.978C511.247 102.099 511.569 102.16 511.924 102.16C512.278 102.16 512.596 102.099 512.876 101.978C513.165 101.847 513.412 101.675 513.618 101.46C513.823 101.236 513.977 100.979 514.08 100.69C514.192 100.391 514.248 100.069 514.248 99.724C514.248 99.3787 514.192 99.0613 514.08 98.772C513.977 98.4733 513.823 98.2167 513.618 98.002C513.412 97.778 513.165 97.6053 512.876 97.484C512.596 97.3533 512.278 97.288 511.924 97.288C511.569 97.288 511.247 97.3533 510.958 97.484C510.678 97.6053 510.435 97.778 510.23 98.002C510.024 98.2167 509.866 98.4733 509.754 98.772C509.651 99.0613 509.6 99.3787 509.6 99.724ZM517.212 92.416H518.304V103H517.212V92.416ZM525.923 101.838H525.895C525.69 102.211 525.363 102.529 524.915 102.79C524.477 103.042 523.963 103.168 523.375 103.168C522.918 103.168 522.489 103.084 522.087 102.916C521.686 102.739 521.336 102.496 521.037 102.188C520.748 101.88 520.519 101.516 520.351 101.096C520.183 100.676 520.099 100.219 520.099 99.724C520.099 99.2293 520.183 98.772 520.351 98.352C520.519 97.932 520.753 97.568 521.051 97.26C521.35 96.952 521.709 96.714 522.129 96.546C522.559 96.3687 523.03 96.28 523.543 96.28C524.019 96.28 524.453 96.378 524.845 96.574C525.247 96.77 525.597 97.0453 525.895 97.4H525.923V92.416H527.015V103H525.923V101.838ZM525.923 99.724C525.923 99.3787 525.867 99.0613 525.755 98.772C525.653 98.4733 525.499 98.2167 525.293 98.002C525.088 97.778 524.841 97.6053 524.551 97.484C524.271 97.3533 523.954 97.288 523.599 97.288C523.245 97.288 522.923 97.3533 522.633 97.484C522.353 97.6053 522.111 97.778 521.905 98.002C521.7 98.2167 521.541 98.4733 521.429 98.772C521.327 99.0613 521.275 99.3787 521.275 99.724C521.275 100.069 521.327 100.391 521.429 100.69C521.541 100.979 521.7 101.236 521.905 101.46C522.111 101.675 522.353 101.847 522.633 101.978C522.923 102.099 523.245 102.16 523.599 102.16C523.954 102.16 524.271 102.099 524.551 101.978C524.841 101.847 525.088 101.675 525.293 101.46C525.499 101.236 525.653 100.979 525.755 100.69C525.867 100.391 525.923 100.069 525.923 99.724Z" fill="#637381"/>
</svg>
