<svg xmlns="http://www.w3.org/2000/svg" xmlns:xlink="http://www.w3.org/1999/xlink" width="4" height="351" fill="none" xmlns:v="https://vecta.io/nano"><g opacity=".45"><path d="M1.944 348.047a1.26 1.26 0 0 1 0 2.518 1.26 1.26 0 0 1 0-2.518zm0-12.871a1.26 1.26 0 1 1-1.26 1.259 1.26 1.26 0 0 1 1.26-1.259zm0-12.871a1.26 1.26 0 1 1-1.26 1.259 1.26 1.26 0 0 1 1.26-1.259zm0-12.87a1.26 1.26 0 0 1 0 2.518 1.26 1.26 0 0 1 0-2.518zm0-12.871a1.26 1.26 0 0 1 0 2.519 1.26 1.26 0 0 1 0-2.519zm0-12.864a1.26 1.26 0 1 1-1.26 1.259 1.26 1.26 0 0 1 1.26-1.259zm0-12.871a1.26 1.26 0 1 1-1.26 1.259 1.26 1.26 0 0 1 1.26-1.259zm0-12.871a1.26 1.26 0 0 1 0 2.519 1.26 1.26 0 0 1 0-2.519zm0-12.87a1.26 1.26 0 1 1-1.26 1.259 1.26 1.26 0 0 1 1.26-1.259zm0-12.871a1.26 1.26 0 0 1 0 2.519 1.26 1.26 0 0 1 0-2.519zm0-12.871a1.26 1.26 0 0 1 0 2.519 1.26 1.26 0 0 1 0-2.519zm0-12.87a1.26 1.26 0 0 1 0 2.518 1.26 1.26 0 0 1 0-2.518zm0-12.864a1.26 1.26 0 0 1 0 2.518 1.26 1.26 0 0 1 0-2.518zm0-12.871a1.26 1.26 0 0 1 0 2.519 1.26 1.26 0 0 1 0-2.519zm0-12.871a1.26 1.26 0 0 1 0 2.519 1.26 1.26 0 0 1 0-2.519zm0-12.87a1.26 1.26 0 0 1 0 2.518 1.26 1.26 0 0 1 0-2.518zm0-12.871a1.26 1.26 0 1 1-1.26 1.259 1.26 1.26 0 0 1 1.26-1.259zm0-12.87a1.26 1.26 0 0 1 0 2.518 1.26 1.26 0 0 1 0-2.518zm0-12.865a1.26 1.26 0 0 1 0 2.519 1.26 1.26 0 0 1 0-2.519zm0-12.87a1.26 1.26 0 0 1 0 2.518 1.26 1.26 0 0 1 0-2.518zm0-12.871a1.26 1.26 0 0 1 0 2.518 1.26 1.26 0 0 1 0-2.518zm0-12.871a1.26 1.26 0 0 1 0 2.519 1.26 1.26 0 0 1 0-2.519zm0-12.87a1.26 1.26 0 0 1 0 2.518 1.26 1.26 0 0 1 0-2.518zm0-12.871a1.26 1.26 0 0 1 0 2.518 1.26 1.26 0 0 1 0-2.518zm0-12.864a1.26 1.26 0 0 1 0 2.518 1.26 1.26 0 0 1 0-2.518zm0-12.871a1.26 1.26 0 0 1 0 2.519 1.26 1.26 0 0 1 0-2.519zm0-12.871a1.26 1.26 0 0 1 0 2.519 1.26 1.26 0 0 1 0-2.519zm0-12.87a1.26 1.26 0 0 1 0 2.518 1.26 1.26 0 0 1 0-2.518z" fill="#a6a6a6"/><use xlink:href="#Y" fill="url(#A)"/><use xlink:href="#Z" fill="url(#A)"/><use xlink:href="#Z" y="-12.871" fill="url(#B)"/><use xlink:href="#Y" y="-38.612" fill="url(#C)"/><use xlink:href="#a" fill="url(#A)"/><use xlink:href="#Z" y="-51.476" fill="url(#D)"/><use xlink:href="#Z" y="-64.347" fill="url(#E)"/><use xlink:href="#a" y="-38.606" fill="url(#F)"/><use xlink:href="#Z" y="-90.088" fill="url(#G)"/><use xlink:href="#a" y="-64.347" fill="url(#E)"/><use xlink:href="#a" y="-77.218" fill="url(#H)"/><use xlink:href="#Y" y="-141.571" fill="url(#I)"/><use xlink:href="#Y" y="-154.435" fill="url(#J)"/><use xlink:href="#a" y="-115.823" fill="url(#K)"/><use xlink:href="#a" y="-128.694" fill="url(#L)"/><use xlink:href="#Y" y="-193.047" fill="url(#M)"/><use xlink:href="#Z" y="-193.047" fill="url(#M)"/><use xlink:href="#Y" y="-218.788" fill="url(#N)"/><use xlink:href="#a" y="-180.17" fill="url(#O)"/><use xlink:href="#Y" y="-244.523" fill="url(#P)"/><use xlink:href="#Y" y="-257.394" fill="url(#Q)"/><use xlink:href="#a" y="-218.782" fill="url(#R)"/><use xlink:href="#Y" y="-283.135" fill="url(#S)"/><use xlink:href="#Y" y="-296.006" fill="url(#T)"/><use xlink:href="#Y" y="-308.87" fill="url(#U)"/><use xlink:href="#a" y="-270.258" fill="url(#V)"/><use xlink:href="#a" y="-283.129" fill="url(#W)"/><use xlink:href="#Y" y="-347.482" fill="url(#X)"/></g><defs><linearGradient id="A" x1="1.95" y1="350.565" x2="1.95" y2=".565" xlink:href="#b"><stop stop-color="#47c7ff"/><stop offset=".3" stop-color="#1d8ffb"/><stop offset="1" stop-color="#c323df"/></linearGradient><linearGradient id="B" x1="1.95" y1="363.436" x2="1.95" y2="13.435" xlink:href="#b"><stop stop-color="#47c7ff"/><stop offset=".3" stop-color="#1d8ffb"/><stop offset="1" stop-color="#c323df"/></linearGradient><linearGradient id="C" x1="1.95" y1="389.177" x2="1.95" y2="39.177" xlink:href="#b"><stop stop-color="#47c7ff"/><stop offset=".3" stop-color="#1d8ffb"/><stop offset="1" stop-color="#c323df"/></linearGradient><linearGradient id="D" x1="1.95" y1="402.041" x2="1.95" y2="52.041" xlink:href="#b"><stop stop-color="#47c7ff"/><stop offset=".3" stop-color="#1d8ffb"/><stop offset="1" stop-color="#c323df"/></linearGradient><linearGradient id="E" x1="1.95" y1="414.912" x2="1.95" y2="64.912" xlink:href="#b"><stop stop-color="#47c7ff"/><stop offset=".3" stop-color="#1d8ffb"/><stop offset="1" stop-color="#c323df"/></linearGradient><linearGradient id="F" x1="1.95" y1="389.171" x2="1.95" y2="39.171" xlink:href="#b"><stop stop-color="#47c7ff"/><stop offset=".3" stop-color="#1d8ffb"/><stop offset="1" stop-color="#c323df"/></linearGradient><linearGradient id="G" x1="1.95" y1="440.653" x2="1.95" y2="90.653" xlink:href="#b"><stop stop-color="#47c7ff"/><stop offset=".3" stop-color="#1d8ffb"/><stop offset="1" stop-color="#c323df"/></linearGradient><linearGradient id="H" x1="1.95" y1="427.782" x2="1.95" y2="77.783" xlink:href="#b"><stop stop-color="#47c7ff"/><stop offset=".3" stop-color="#1d8ffb"/><stop offset="1" stop-color="#c323df"/></linearGradient><linearGradient id="I" x1="1.95" y1="492.135" x2="1.95" y2="142.136" xlink:href="#b"><stop stop-color="#47c7ff"/><stop offset=".3" stop-color="#1d8ffb"/><stop offset="1" stop-color="#c323df"/></linearGradient><linearGradient id="J" x1="1.95" y1="504.999" x2="1.95" y2="155.001" xlink:href="#b"><stop stop-color="#47c7ff"/><stop offset=".3" stop-color="#1d8ffb"/><stop offset="1" stop-color="#c323df"/></linearGradient><linearGradient id="K" x1="1.95" y1="466.388" x2="1.95" y2="116.388" xlink:href="#b"><stop stop-color="#47c7ff"/><stop offset=".3" stop-color="#1d8ffb"/><stop offset="1" stop-color="#c323df"/></linearGradient><linearGradient id="L" x1="1.95" y1="479.259" x2="1.95" y2="129.259" xlink:href="#b"><stop stop-color="#47c7ff"/><stop offset=".3" stop-color="#1d8ffb"/><stop offset="1" stop-color="#c323df"/></linearGradient><linearGradient id="M" x1="1.95" y1="543.612" x2="1.95" y2="193.612" xlink:href="#b"><stop stop-color="#47c7ff"/><stop offset=".3" stop-color="#1d8ffb"/><stop offset="1" stop-color="#c323df"/></linearGradient><linearGradient id="N" x1="1.95" y1="569.353" x2="1.95" y2="219.353" xlink:href="#b"><stop stop-color="#47c7ff"/><stop offset=".3" stop-color="#1d8ffb"/><stop offset="1" stop-color="#c323df"/></linearGradient><linearGradient id="O" x1="1.95" y1="530.733" x2="1.95" y2="180.736" xlink:href="#b"><stop stop-color="#47c7ff"/><stop offset=".3" stop-color="#1d8ffb"/><stop offset="1" stop-color="#c323df"/></linearGradient><linearGradient id="P" x1="1.95" y1="595.088" x2="1.95" y2="245.088" xlink:href="#b"><stop stop-color="#47c7ff"/><stop offset=".3" stop-color="#1d8ffb"/><stop offset="1" stop-color="#c323df"/></linearGradient><linearGradient id="Q" x1="1.95" y1="607.959" x2="1.95" y2="257.959" xlink:href="#b"><stop stop-color="#47c7ff"/><stop offset=".3" stop-color="#1d8ffb"/><stop offset="1" stop-color="#c323df"/></linearGradient><linearGradient id="R" x1="1.95" y1="569.347" x2="1.95" y2="219.347" xlink:href="#b"><stop stop-color="#47c7ff"/><stop offset=".3" stop-color="#1d8ffb"/><stop offset="1" stop-color="#c323df"/></linearGradient><linearGradient id="S" x1="1.95" y1="633.7" x2="1.95" y2="283.7" xlink:href="#b"><stop stop-color="#47c7ff"/><stop offset=".3" stop-color="#1d8ffb"/><stop offset="1" stop-color="#c323df"/></linearGradient><linearGradient id="T" x1="1.95" y1="646.571" x2="1.95" y2="296.571" xlink:href="#b"><stop stop-color="#47c7ff"/><stop offset=".3" stop-color="#1d8ffb"/><stop offset="1" stop-color="#c323df"/></linearGradient><linearGradient id="U" x1="1.95" y1="659.433" x2="1.95" y2="309.435" xlink:href="#b"><stop stop-color="#47c7ff"/><stop offset=".3" stop-color="#1d8ffb"/><stop offset="1" stop-color="#c323df"/></linearGradient><linearGradient id="V" x1="1.95" y1="620.823" x2="1.95" y2="270.823" xlink:href="#b"><stop stop-color="#47c7ff"/><stop offset=".3" stop-color="#1d8ffb"/><stop offset="1" stop-color="#c323df"/></linearGradient><linearGradient id="W" x1="1.95" y1="633.694" x2="1.95" y2="283.694" xlink:href="#b"><stop stop-color="#47c7ff"/><stop offset=".3" stop-color="#1d8ffb"/><stop offset="1" stop-color="#c323df"/></linearGradient><linearGradient id="X" x1="1.95" y1="698.047" x2="1.95" y2="348.047" xlink:href="#b"><stop stop-color="#47c7ff"/><stop offset=".3" stop-color="#1d8ffb"/><stop offset="1" stop-color="#c323df"/></linearGradient><path id="Y" d="M1.944 348.047a1.26 1.26 0 0 1 0 2.518 1.26 1.26 0 0 1 0-2.518z"/><path id="Z" d="M1.944 335.176a1.26 1.26 0 1 1-1.26 1.259 1.26 1.26 0 0 1 1.26-1.259z"/><path id="a" d="M1.944 296.564a1.26 1.26 0 0 1 0 2.519 1.26 1.26 0 0 1 0-2.519z"/><linearGradient id="b" gradientUnits="userSpaceOnUse"/></defs></svg>