<svg xmlns="http://www.w3.org/2000/svg" xmlns:xlink="http://www.w3.org/1999/xlink" width="87" height="88" fill="none" xmlns:v="https://vecta.io/nano"><g opacity=".25"><use xlink:href="#R" fill="url(#A)"/><use xlink:href="#S" fill="url(#B)"/><use xlink:href="#T" fill="url(#C)"/><use xlink:href="#U" fill="url(#D)"/><use xlink:href="#V" fill="url(#E)"/><use xlink:href="#W" fill="url(#F)"/><use xlink:href="#X" fill="url(#G)"/><use xlink:href="#Y" fill="url(#H)"/><use xlink:href="#Z" fill="url(#I)"/><use xlink:href="#a" fill="url(#J)"/><use xlink:href="#b" fill="url(#K)"/><use xlink:href="#c" fill="url(#L)"/><use xlink:href="#d" fill="url(#M)"/><use xlink:href="#e" fill="url(#N)"/><use xlink:href="#f" fill="url(#O)"/><use xlink:href="#g" fill="url(#P)"/><use xlink:href="#h" fill="url(#Q)"/><use xlink:href="#R" fill="url(#A)"/><use xlink:href="#S" fill="url(#B)"/><use xlink:href="#T" fill="url(#C)"/><use xlink:href="#U" fill="url(#D)"/><use xlink:href="#V" fill="url(#E)"/><use xlink:href="#W" fill="url(#F)"/><use xlink:href="#X" fill="url(#G)"/><use xlink:href="#Y" fill="url(#H)"/><use xlink:href="#Z" fill="url(#I)"/><use xlink:href="#a" fill="url(#J)"/><use xlink:href="#b" fill="url(#K)"/><use xlink:href="#c" fill="url(#L)"/><use xlink:href="#d" fill="url(#M)"/><use xlink:href="#e" fill="url(#N)"/><use xlink:href="#f" fill="url(#O)"/><use xlink:href="#g" fill="url(#P)"/><use xlink:href="#h" fill="url(#Q)"/></g><defs><linearGradient id="A" x1="59.223" y1="20.713" x2="35.353" y2="-12.004" xlink:href="#i"><stop stop-color="#886bca"/><stop offset=".7" stop-color="#392469"/><stop offset="1" stop-color="#b63362"/></linearGradient><linearGradient id="B" x1="79.879" y1="67.519" x2="6.392" y2="19.942" xlink:href="#i"><stop stop-color="#886bca"/><stop offset=".7" stop-color="#392469"/><stop offset="1" stop-color="#b63362"/></linearGradient><linearGradient id="C" x1="70.769" y1="31.437" x2="33.392" y2="-13.017" xlink:href="#i"><stop stop-color="#886bca"/><stop offset=".7" stop-color="#392469"/><stop offset="1" stop-color="#b63362"/></linearGradient><linearGradient id="D" x1="90.509" y1="79.736" x2="12.258" y2="34.595" xlink:href="#i"><stop stop-color="#886bca"/><stop offset=".7" stop-color="#392469"/><stop offset="1" stop-color="#b63362"/></linearGradient><linearGradient id="E" x1="85.374" y1="74.736" x2="8.43" y2="28.666" xlink:href="#i"><stop stop-color="#886bca"/><stop offset=".7" stop-color="#392469"/><stop offset="1" stop-color="#b63362"/></linearGradient><linearGradient id="F" x1="95.374" y1="83.524" x2="17.085" y2="38.907" xlink:href="#i"><stop stop-color="#886bca"/><stop offset=".7" stop-color="#392469"/><stop offset="1" stop-color="#b63362"/></linearGradient><linearGradient id="G" x1="99.779" y1="86.397" x2="22.646" y2="42.126" xlink:href="#i"><stop stop-color="#886bca"/><stop offset=".7" stop-color="#392469"/><stop offset="1" stop-color="#b63362"/></linearGradient><linearGradient id="H" x1="44.92" y1="13.206" x2="30.761" y2="-6.803" xlink:href="#i"><stop stop-color="#886bca"/><stop offset=".7" stop-color="#392469"/><stop offset="1" stop-color="#b63362"/></linearGradient><linearGradient id="I" x1="101.631" y1="87.837" x2="58.13" y2="58.419" xlink:href="#i"><stop stop-color="#886bca"/><stop offset=".7" stop-color="#392469"/><stop offset="1" stop-color="#b63362"/></linearGradient><linearGradient id="J" x1="106.948" y1="89.988" x2="42.039" y2="48.749" xlink:href="#i"><stop stop-color="#886bca"/><stop offset=".7" stop-color="#392469"/><stop offset="1" stop-color="#b63362"/></linearGradient><linearGradient id="K" x1="106.372" y1="89.782" x2="48.029" y2="51.511" xlink:href="#i"><stop stop-color="#886bca"/><stop offset=".7" stop-color="#392469"/><stop offset="1" stop-color="#b63362"/></linearGradient><linearGradient id="L" x1="105.969" y1="89.569" x2="35.494" y2="46.522" xlink:href="#i"><stop stop-color="#886bca"/><stop offset=".7" stop-color="#392469"/><stop offset="1" stop-color="#b63362"/></linearGradient><linearGradient id="M" x1="103.459" y1="88.387" x2="28.871" y2="44.496" xlink:href="#i"><stop stop-color="#886bca"/><stop offset=".7" stop-color="#392469"/><stop offset="1" stop-color="#b63362"/></linearGradient><linearGradient id="N" x1="104.46" y1="89.079" x2="53.319" y2="54.87" xlink:href="#i"><stop stop-color="#886bca"/><stop offset=".7" stop-color="#392469"/><stop offset="1" stop-color="#b63362"/></linearGradient><linearGradient id="O" x1="97.802" y1="86.044" x2="62.461" y2="62.168" xlink:href="#i"><stop stop-color="#886bca"/><stop offset=".7" stop-color="#392469"/><stop offset="1" stop-color="#b63362"/></linearGradient><linearGradient id="P" x1="92.738" y1="83.466" x2="66.676" y2="65.884" xlink:href="#i"><stop stop-color="#886bca"/><stop offset=".7" stop-color="#392469"/><stop offset="1" stop-color="#b63362"/></linearGradient><linearGradient id="Q" x1="84.162" y1="78.708" x2="71.771" y2="70.229" xlink:href="#i"><stop stop-color="#886bca"/><stop offset=".7" stop-color="#392469"/><stop offset="1" stop-color="#b63362"/></linearGradient><path id="R" d="M16.828 12.374l-6.093 2.067a43.93 43.93 0 0 0-4.141 5.387c3.608-1.678 7.49-2.953 11.3-4.199l4.026-1.34C28.763 11.942 38.183 7.951 43.016 0c-1.44.007-2.881.086-4.307.238-2.65 3.342-7.606 7.289-17.891 10.811l-3.983 1.325h-.007z"/><path id="S" d="M51.413 3.306c-1.894 3.817-6.05 9.442-20.145 14.275l-3.983 1.325c-7.202 2.355-14.642 4.79-20.44 9.925C-1.618 36.329-.343 45.332.896 54.039l.252 1.779a43.94 43.94 0 0 0 3.616 8.859c.115-3.738-.411-7.44-.922-11.048-1.232-8.65-2.29-16.126 4.977-22.565 5.337-4.725 12.482-7.065 19.396-9.327l4.019-1.332c7.246-2.485 17.394-6.821 21.845-15.766.483-.965.871-1.952 1.203-2.953-.958-.274-1.916-.511-2.888-.72-.274.792-.591 1.577-.972 2.348l-.007-.007z"/><path id="T" d="M46.119.094c-1.887 3.796-6.021 9.399-20.08 14.217l-3.983 1.325c-6.036 1.973-12.23 4.012-17.502 7.642-1.181 2.218-2.146 4.502-2.91 6.821.598-.72 1.275-1.426 2.06-2.117 5.315-4.71 12.453-7.044 19.353-9.305l4.026-1.34c7.267-2.492 17.444-6.842 21.902-15.824.18-.36.339-.72.497-1.08C48.366.274 47.25.158 46.126.086l-.007.007z"/><path id="U" d="M62.007 9.723c-1.916 3.846-6.093 9.529-20.275 14.39l-3.983 1.325c-7.174 2.348-14.599 4.775-20.354 9.882-8.376 7.418-7.101 16.364-5.877 25.007.641 4.516 1.304 9.19.619 13.692-.022.166-.058.324-.086.483.691.706 1.412 1.39 2.161 2.046.158-.692.303-1.404.411-2.154.742-4.869.05-9.723-.619-14.426-1.239-8.715-2.305-16.241 5.049-22.767 5.366-4.761 12.539-7.101 19.468-9.37l4.019-1.34c7.21-2.47 17.307-6.785 21.715-15.651.728-1.462 1.26-2.975 1.657-4.509-.749-.454-1.505-.886-2.276-1.289-.367 1.606-.886 3.169-1.635 4.674l.007.007z"/><path id="V" d="M56.708 6.518c-1.901 3.832-6.072 9.486-20.21 14.333l-3.983 1.325c-7.188 2.355-14.621 4.782-20.397 9.903-8.42 7.462-7.145 16.429-5.913 25.107.526 3.716 1.066 7.534.864 11.272.749 1.095 1.548 2.168 2.406 3.198.022-.137.05-.266.072-.403.742-4.883.05-9.752-.619-14.455-1.232-8.686-2.298-16.184 5.013-22.666 5.351-4.739 12.511-7.087 19.432-9.349l4.019-1.34c7.231-2.478 17.35-6.806 21.78-15.708.663-1.332 1.16-2.708 1.549-4.098a48.84 48.84 0 0 0-2.564-1.03c-.353 1.34-.814 2.643-1.44 3.904l-.007.007z"/><path id="W" d="M67.302 12.935c-1.923 3.868-6.122 9.572-20.339 14.448l-3.983 1.325c-7.166 2.348-14.577 4.768-20.318 9.86-8.326 7.382-7.065 16.292-5.841 24.906.641 4.53 1.311 9.205.619 13.721-.086.591-.202 1.16-.317 1.707.655.49 1.332.958 2.024 1.412.223-.879.418-1.801.569-2.78.735-4.847.05-9.702-.619-14.39-1.188-8.383-2.312-16.306 5.092-22.867 5.387-4.775 12.568-7.123 19.511-9.392l4.019-1.332c7.188-2.463 17.257-6.763 21.65-15.593.663-1.332 1.159-2.708 1.541-4.105-.641-.519-1.297-1.03-1.974-1.52-.367 1.577-.886 3.119-1.628 4.602h-.007z"/><path id="X" d="M72.597 16.148c-1.93 3.882-6.144 9.615-20.404 14.505l-3.99 1.325c-7.152 2.341-14.549 4.761-20.275 9.838-8.283 7.339-7.022 16.22-5.805 24.805.641 4.537 1.311 9.226.619 13.757-.101.655-.223 1.282-.36 1.894a47.22 47.22 0 0 0 1.901.972c.202-.814.374-1.664.511-2.557.735-4.833.043-9.673-.619-14.354-1.196-8.412-2.326-16.364 5.128-22.968 5.402-4.79 12.597-7.145 19.547-9.421l4.019-1.333c7.174-2.456 17.214-6.749 21.586-15.543.454-.915.821-1.844 1.138-2.787a45.24 45.24 0 0 0-1.635-1.7c-.346 1.217-.785 2.406-1.361 3.565z"/><path id="Y" d="M16.754 11.236C22.393 9.306 29.768 6.252 34.911.8 26.556 2.42 18.677 6.461 12.418 12.676c.101-.036.209-.065.31-.101l4.026-1.34z"/><path id="Z" d="M79.591 51.576c-7.087 2.319-14.419 4.718-20.037 9.702-8.009 7.102-6.835 15.406-5.582 24.207l.101.699c.238-.058.468-.122.699-.187l-.086-.612c-1.224-8.6-2.377-16.724 5.344-23.566 5.51-4.883 12.77-7.26 19.785-9.557l4.005-1.332 2.751-.994.108-.828c-.98.382-2.01.763-3.097 1.138l-3.997 1.332h.007z"/><path id="a" d="M63.894 41.774c-7.123 2.334-14.484 4.739-20.159 9.766-8.146 7.217-6.9 16.011-5.69 24.51.526 3.709 1.066 7.526.879 11.293l1.39.115c.209-3.904-.346-7.8-.886-11.596-1.21-8.506-2.348-16.544 5.236-23.264 5.459-4.833 12.683-7.202 19.67-9.485l4.012-1.332c5.294-1.815 12.165-4.631 17.113-9.536a36.03 36.03 0 0 0-.439-1.505c-2.975 3.126-8.023 6.597-17.12 9.723l-3.997 1.325-.007-.014z"/><path id="b" d="M69.13 45.043c-7.109 2.326-14.462 4.732-20.116 9.745-8.103 7.181-6.914 15.55-5.654 24.409.389 2.744.785 5.546.886 8.34a32.58 32.58 0 0 0 1.174-.043c-.108-2.845-.504-5.683-.9-8.463-1.21-8.542-2.355-16.601 5.272-23.364 5.474-4.847 12.712-7.217 19.706-9.507l4.012-1.332c3.997-1.368 8.902-3.313 13.18-6.295-.05-.439-.115-.871-.18-1.311-3.061 2.19-7.325 4.422-13.382 6.504l-3.997 1.325v-.007z"/><path id="c" d="M62.654 37.186l-3.99 1.325c-7.13 2.334-14.513 4.746-20.203 9.788-8.189 7.26-6.943 16.076-5.726 24.61.634 4.451 1.282 9.061.663 13.533.526.123 1.059.231 1.592.331.677-4.732.007-9.493-.648-14.095-1.203-8.477-2.341-16.486 5.2-23.163 5.438-4.818 12.655-7.181 19.626-9.464l4.012-1.332c6.41-2.197 15.118-5.863 19.965-12.907-.259-.569-.526-1.138-.807-1.7-2.312 3.803-7.13 8.773-19.684 13.072z"/><path id="d" d="M77.895 19.36c-1.937 3.904-6.172 9.658-20.469 14.556l-3.99 1.325c-7.145 2.341-14.527 4.753-20.239 9.817-8.24 7.303-6.979 16.148-5.769 24.704.648 4.545 1.311 9.241.619 13.785l-.209 1.21c.583.216 1.167.425 1.757.619.101-.504.202-1.016.281-1.548.727-4.818.043-9.651-.619-14.325-1.203-8.448-2.334-16.421 5.164-23.069 5.423-4.804 12.626-7.159 19.59-9.442l4.012-1.333c7.152-2.456 17.17-6.727 21.521-15.485.086-.166.158-.338.231-.511a37.48 37.48 0 0 0-1.239-1.779 19.01 19.01 0 0 1-.648 1.469l.007.007z"/><path id="e" d="M74.36 48.306c-7.102 2.326-14.441 4.725-20.08 9.723-8.059 7.138-6.871 15.478-5.618 24.308l.619 4.79.936-.144c-.173-1.606-.396-3.198-.619-4.775-1.217-8.571-2.37-16.666 5.308-23.465 5.495-4.869 12.741-7.238 19.749-9.529l4.005-1.332c2.542-.872 5.459-1.981 8.34-3.436v-1.088c-2.384 1.239-5.229 2.456-8.65 3.63l-3.99 1.325v-.007z"/><path id="f" d="M58.747 84.7l.475-.18c-.828-7.13-.619-13.828 5.92-19.626 5.524-4.898 12.799-7.274 19.828-9.579l.54-.18.151-.569-.843.281c-7.08 2.319-14.398 4.71-20.001 9.673-6.77 5.999-6.936 12.871-6.072 20.181z"/><path id="g" d="M63.691 82.474l.274-.144c.029-5.157 1.39-10.011 6.302-14.361 3.846-3.407 8.528-5.596 13.389-7.39.043-.115.094-.223.137-.338-4.963 1.815-9.766 4.033-13.706 7.526-5.042 4.465-6.396 9.435-6.396 14.707z"/><path id="h" d="M71.012 76.475c-.295.576-.555 1.159-.785 1.764.022-.014.043-.036.072-.05.223-.576.468-1.138.756-1.692 1.03-1.995 2.449-3.774 4.343-5.452 1.376-1.217 2.859-2.283 4.415-3.227.022-.029.043-.058.058-.094-1.592.958-3.104 2.038-4.509 3.284-1.894 1.678-3.32 3.464-4.35 5.467z"/><linearGradient id="i" gradientUnits="userSpaceOnUse"/></defs></svg>