<svg xmlns="http://www.w3.org/2000/svg" xmlns:xlink="http://www.w3.org/1999/xlink" width="63" height="62" fill="none" xmlns:v="https://vecta.io/nano"><g opacity=".15"><use xlink:href="#W" fill="url(#A)"/><use xlink:href="#X" fill="url(#B)"/><use xlink:href="#Y" fill="url(#C)"/><use xlink:href="#Z" fill="url(#D)"/><use xlink:href="#a" fill="url(#E)"/><use xlink:href="#b" fill="url(#F)"/><use xlink:href="#c" fill="url(#G)"/><use xlink:href="#d" fill="url(#H)"/><use xlink:href="#e" fill="url(#I)"/><use xlink:href="#f" fill="url(#J)"/><use xlink:href="#g" fill="url(#K)"/><use xlink:href="#h" fill="url(#L)"/><use xlink:href="#i" fill="url(#M)"/><use xlink:href="#j" fill="url(#N)"/><use xlink:href="#k" fill="url(#O)"/><use xlink:href="#l" fill="url(#P)"/><use xlink:href="#m" fill="url(#Q)"/><use xlink:href="#W" fill="url(#A)"/><use xlink:href="#X" fill="url(#B)"/><use xlink:href="#Y" fill="url(#C)"/><use xlink:href="#Z" fill="url(#R)"/><use xlink:href="#a" fill="url(#E)"/><use xlink:href="#b" fill="url(#F)"/><use xlink:href="#c" fill="url(#S)"/><use xlink:href="#d" fill="url(#H)"/><use xlink:href="#e" fill="url(#T)"/><use xlink:href="#f" fill="url(#J)"/><use xlink:href="#g" fill="url(#K)"/><use xlink:href="#h" fill="url(#L)"/><use xlink:href="#i" fill="url(#U)"/><use xlink:href="#j" fill="url(#N)"/><use xlink:href="#k" fill="url(#O)"/><use xlink:href="#l" fill="url(#V)"/><use xlink:href="#m" fill="url(#Q)"/></g><defs><linearGradient id="A" x1="46.36" y1="19.431" x2="69.127" y2="34.308" xlink:href="#n"><stop stop-color="#886bca"/><stop offset=".7" stop-color="#392469"/><stop offset="1" stop-color="#b63362"/></linearGradient><linearGradient id="B" x1="14.254" y1="7.195" x2="48.701" y2="54.834" xlink:href="#n"><stop stop-color="#886bca"/><stop offset=".7" stop-color="#392469"/><stop offset="1" stop-color="#b63362"/></linearGradient><linearGradient id="C" x1="38.769" y1="12.058" x2="69.874" y2="35.587" xlink:href="#n"><stop stop-color="#886bca"/><stop offset=".7" stop-color="#392469"/><stop offset="1" stop-color="#b63362"/></linearGradient><linearGradient id="D" x1="5.693" y1=".489" x2="38.671" y2="51.406" xlink:href="#n"><stop stop-color="#886bca"/><stop offset=".7" stop-color="#392469"/><stop offset="1" stop-color="#b63362"/></linearGradient><linearGradient id="E" x1="9.223" y1="3.76" x2="42.78" y2="53.769" xlink:href="#n"><stop stop-color="#886bca"/><stop offset=".7" stop-color="#392469"/><stop offset="1" stop-color="#b63362"/></linearGradient><linearGradient id="F" x1="2.984" y1="-2.642" x2="35.613" y2="48.319" xlink:href="#n"><stop stop-color="#886bca"/><stop offset=".7" stop-color="#392469"/><stop offset="1" stop-color="#b63362"/></linearGradient><linearGradient id="G" x1=".907" y1="-5.496" x2="33.264" y2="44.701" xlink:href="#n"><stop stop-color="#886bca"/><stop offset=".7" stop-color="#392469"/><stop offset="1" stop-color="#b63362"/></linearGradient><linearGradient id="H" x1="51.888" y1="28.762" x2="65.796" y2="37.566" xlink:href="#n"><stop stop-color="#886bca"/><stop offset=".7" stop-color="#392469"/><stop offset="1" stop-color="#b63362"/></linearGradient><linearGradient id="I" x1="-.122" y1="-6.688" x2="21.111" y2="21.468" xlink:href="#n"><stop stop-color="#886bca"/><stop offset=".7" stop-color="#392469"/><stop offset="1" stop-color="#b63362"/></linearGradient><linearGradient id="J" x1="-1.748" y1="-10.181" x2="28.152" y2="31.923" xlink:href="#n"><stop stop-color="#886bca"/><stop offset=".7" stop-color="#392469"/><stop offset="1" stop-color="#b63362"/></linearGradient><linearGradient id="K" x1="-1.591" y1="-9.802" x2="26.092" y2="28.002" xlink:href="#n"><stop stop-color="#886bca"/><stop offset=".7" stop-color="#392469"/><stop offset="1" stop-color="#b63362"/></linearGradient><linearGradient id="L" x1="-1.436" y1="-9.54" x2="29.869" y2="36.234" xlink:href="#n"><stop stop-color="#886bca"/><stop offset=".7" stop-color="#392469"/><stop offset="1" stop-color="#b63362"/></linearGradient><linearGradient id="M" x1="-.554" y1="-7.898" x2="31.459" y2="40.607" xlink:href="#n"><stop stop-color="#886bca"/><stop offset=".7" stop-color="#392469"/><stop offset="1" stop-color="#b63362"/></linearGradient><linearGradient id="N" x1="-1.052" y1="-8.544" x2="23.658" y2="24.57" xlink:href="#n"><stop stop-color="#886bca"/><stop offset=".7" stop-color="#392469"/><stop offset="1" stop-color="#b63362"/></linearGradient><linearGradient id="O" x1="1.214" y1="-4.183" x2="18.447" y2="18.693" xlink:href="#n"><stop stop-color="#886bca"/><stop offset=".7" stop-color="#392469"/><stop offset="1" stop-color="#b63362"/></linearGradient><linearGradient id="P" x1="3.115" y1="-.878" x2="15.807" y2="15.992" xlink:href="#n"><stop stop-color="#886bca"/><stop offset=".7" stop-color="#392469"/><stop offset="1" stop-color="#b63362"/></linearGradient><linearGradient id="Q" x1="6.605" y1="4.711" x2="12.72" y2="12.728" xlink:href="#n"><stop stop-color="#886bca"/><stop offset=".7" stop-color="#392469"/><stop offset="1" stop-color="#b63362"/></linearGradient><linearGradient id="R" x1="5.693" y1="0.489" x2="38.671" y2="51.406" xlink:href="#n"><stop stop-color="#886bca"/><stop offset=".7" stop-color="#392469"/><stop offset="1" stop-color="#b63362"/></linearGradient><linearGradient id="S" x1="0.907" y1="-5.496" x2="33.264" y2="44.701" xlink:href="#n"><stop stop-color="#886bca"/><stop offset=".7" stop-color="#392469"/><stop offset="1" stop-color="#b63362"/></linearGradient><linearGradient id="T" x1="-0.122" y1="-6.688" x2="21.111" y2="21.468" xlink:href="#n"><stop stop-color="#886bca"/><stop offset=".7" stop-color="#392469"/><stop offset="1" stop-color="#b63362"/></linearGradient><linearGradient id="U" x1="-0.554" y1="-7.898" x2="31.459" y2="40.607" xlink:href="#n"><stop stop-color="#886bca"/><stop offset=".7" stop-color="#392469"/><stop offset="1" stop-color="#b63362"/></linearGradient><linearGradient id="V" x1="3.115" y1="-0.878" x2="15.807" y2="15.992" xlink:href="#n"><stop stop-color="#886bca"/><stop offset=".7" stop-color="#392469"/><stop offset="1" stop-color="#b63362"/></linearGradient><path id="W" d="M53.418 47.574l-1.176 4.158a29.5 29.5 0 0 1-3.47 2.964c1.001-2.478 1.721-5.125 2.425-7.724l.759-2.746c1.338-4.67 3.688-11.126 8.854-14.641a28.79 28.79 0 0 1-.011 2.897c-2.15 1.893-4.625 5.353-6.632 12.372l-.751 2.717v.005z"/><path id="X" d="M58.301 24.066c-2.495 1.402-6.123 4.384-8.877 14.003l-.751 2.717c-1.331 4.912-2.706 9.985-5.949 14.051-4.736 5.935-10.817 5.391-16.7 4.861l-1.202-.107a29.51 29.51 0 0 1-6.066-2.119c2.503-.206 5.004.018 7.441.236 5.844.527 10.894.979 14.961-4.118 2.984-3.742 4.307-8.615 5.584-13.33l.755-2.741c1.416-4.945 3.973-11.901 9.818-15.195.631-.357 1.279-.652 1.939-.909a29.89 29.89 0 0 1 .583 1.912 13.4 13.4 0 0 0-1.541.733l.005.005z"/><path id="Y" d="M60.641 27.505c-2.48 1.397-6.095 4.363-8.84 13.958l-.751 2.717c-1.115 4.116-2.268 8.34-4.52 12.001-1.447.869-2.945 1.595-4.474 2.187.462-.426.912-.904 1.349-1.455 2.975-3.727 4.293-8.595 5.571-13.3l.759-2.746c1.42-4.96 3.986-11.935 9.855-15.236.235-.133.471-.252.707-.371.145.743.261 1.488.348 2.239l-.005.005z"/><path id="Z" d="M53.631 17.183c-2.513 1.418-6.18 4.416-8.95 14.094l-.751 2.717c-1.327 4.892-2.698 9.956-5.923 13.992-4.686 5.874-10.729 5.328-16.567 4.806-3.051-.274-6.208-.556-9.204.058-.11.02-.215.05-.321.075-.497-.439-.981-.899-1.447-1.378.458-.13.931-.252 1.43-.35 3.239-.666 6.519-.37 9.696-.083 5.887.529 10.972.984 15.094-4.173 3.007-3.763 4.329-8.655 5.611-13.38l.76-2.742c1.407-4.92 3.952-11.841 9.745-15.104.955-.538 1.951-.948 2.966-1.267a28.09 28.09 0 0 1 .943 1.482 13.99 13.99 0 0 0-3.078 1.258l-.005-.005z"/><path id="a" d="M55.964 20.627c-2.504 1.408-6.151 4.4-8.913 14.049l-.751 2.717c-1.331 4.902-2.702 9.971-5.936 14.021-4.713 5.904-10.771 5.36-16.633 4.834-2.511-.224-5.089-.455-7.589-.19-.76-.465-1.507-.963-2.228-1.503.091-.019.177-.043.268-.062 3.249-.666 6.538-.371 9.716-.084 5.868.526 10.933.981 15.027-4.145 2.993-3.753 4.32-8.635 5.598-13.355l.76-2.742c1.412-4.935 3.965-11.871 9.781-15.149.871-.49 1.776-.871 2.695-1.18a32.75 32.75 0 0 1 .779 1.684c-.886.283-1.745.637-2.568 1.101l-.005.005z"/><path id="b" d="M51.294 13.743c-2.527 1.423-6.208 4.437-8.986 14.14l-.751 2.717c-1.327 4.887-2.694 9.941-5.91 13.967-4.663 5.839-10.682 5.302-16.501 4.778-3.06-.273-6.218-.561-9.223.059a18.65 18.65 0 0 0-1.134.272c-.351-.423-.688-.86-1.017-1.308a19.86 19.86 0 0 1 1.845-.478c3.225-.66 6.504-.369 9.672-.082 5.663.507 11.015.987 15.16-4.206 3.016-3.778 4.343-8.675 5.624-13.409l.755-2.741c1.403-4.906 3.939-11.807 9.709-15.058a15.09 15.09 0 0 1 2.7-1.176c.37.412.736.834 1.087 1.271-1.045.301-2.061.702-3.03 1.251v.005z"/><path id="c" d="M48.959 10.305c-2.537 1.429-6.236 4.452-9.022 14.185l-.751 2.722c-1.323 4.877-2.69 9.921-5.897 13.937-4.636 5.808-10.635 5.27-16.434 4.751-3.065-.273-6.233-.56-9.247.06-.436.09-.852.194-1.258.307-.249-.409-.488-.822-.718-1.242a19.22 19.22 0 0 1 1.697-.431c3.216-.66 6.485-.363 9.648-.081 5.683.511 11.055.994 15.226-4.233 3.025-3.788 4.356-8.695 5.642-13.435l.755-2.741c1.399-4.896 3.931-11.777 9.677-15.013a14.76 14.76 0 0 1 1.83-.86 30.38 30.38 0 0 1 1.196 1.038c-.804.274-1.586.61-2.344 1.036z"/><path id="d" d="M54.183 47.583c1.099-3.849 2.892-8.9 6.371-12.538-.798 5.659-3.235 11.083-7.187 15.495.021-.069.036-.142.057-.211l.759-2.746z"/><path id="e" d="M24.958 6.839c-1.31 4.833-2.665 9.833-5.813 13.773-4.486 5.617-10.095 5.116-16.041 4.58l-.472-.043c.03-.161.066-.318.101-.475l.414.037c5.81.524 11.298 1.016 15.619-4.399 3.084-3.864 4.427-8.815 5.726-13.599l.755-2.732.571-1.879.552-.101a55.45 55.45 0 0 0-.656 2.116l-.755 2.727v-.005z"/><path id="f" d="M32.075 17.025c-1.319 4.858-2.677 9.877-5.853 13.857-4.558 5.712-10.499 5.181-16.24 4.663-2.506-.224-5.084-.455-7.604-.199l-.125-.928c2.611-.275 5.243-.038 7.807.193 5.746.517 11.176 1.003 15.42-4.316 3.052-3.828 4.392-8.755 5.681-13.519l.755-2.736c1.034-3.613 2.685-8.318 5.803-11.806.343.074.686.154 1.025.243-1.993 2.103-4.147 5.609-5.929 11.817l-.75 2.726.01.004z"/><path id="g" d="M29.7 13.627c-1.314 4.848-2.673 9.863-5.84 13.828-4.535 5.682-10.189 5.174-16.174 4.635-1.854-.166-3.746-.335-5.624-.306-.009-.261-.012-.522-.012-.789 1.912-.026 3.828.142 5.707.311 5.77.516 11.215 1.006 15.487-4.343 3.061-3.838 4.4-8.775 5.695-13.544l.755-2.737c.78-2.728 1.914-6.085 3.766-9.057.296.019.589.047.885.075-1.363 2.129-2.712 5.065-3.899 9.199l-.751 2.726h.005z"/><path id="h" d="M35.192 17.697l-.751 2.722c-1.318 4.863-2.681 9.897-5.866 13.887-4.586 5.743-10.541 5.212-16.307 4.691-3.007-.271-6.121-.546-9.099.024a26.21 26.21 0 0 1-.277-1.056c3.15-.618 6.366-.333 9.475-.053 5.727.514 11.137 1 15.354-4.288 3.043-3.813 4.378-8.735 5.668-13.489l.755-2.736c1.252-4.375 3.409-10.341 7.965-13.835.391.154.781.313 1.168.482-2.47 1.682-5.637 5.085-8.086 13.653z"/><path id="i" d="M46.621 6.86c-2.551 1.434-6.264 4.473-9.054 14.23l-.751 2.722c-1.323 4.872-2.686 9.907-5.884 13.912-4.613 5.778-10.588 5.239-16.368 4.723-3.07-.278-6.242-.56-9.266.061-.273.058-.541.12-.804.182a34.14 34.14 0 0 1-.476-1.157 21.11 21.11 0 0 1 1.029-.242c3.206-.654 6.471-.363 9.628-.08 5.707.514 11.093.997 15.292-4.261 3.034-3.803 4.365-8.715 5.655-13.464l.755-2.736c1.4-4.881 3.918-11.748 9.641-14.968.108-.064.221-.118.335-.172.42.245.83.5 1.236.769-.327.148-.648.309-.963.486l-.005-.005z"/><path id="j" d="M27.333 10.233c-1.315 4.843-2.669 9.848-5.826 13.803-4.508 5.652-10.142 5.143-16.107 4.608l-3.233-.25.064-.633c1.083.06 2.158.155 3.224.25 5.79.52 11.259 1.013 15.553-4.371 3.075-3.854 4.414-8.795 5.708-13.574l.755-2.732c.497-1.735 1.14-3.73 2.016-5.712l.729-.038c-.748 1.642-1.466 3.592-2.135 5.926l-.751 2.722h.005z"/><path id="k" d="M3.466 21.963l.104-.325c4.81.309 9.295-.063 12.957-4.649 3.093-3.874 4.436-8.835 5.738-13.628l.102-.368.376-.121-.159.575c-1.311 4.828-2.661 9.818-5.795 13.748C13 21.941 8.398 22.29 3.466 21.963z"/><path id="l" d="M4.785 18.568l.087-.188c3.457-.198 6.666-1.278 9.413-4.723 2.152-2.697 3.458-5.912 4.493-9.235.076-.033.147-.071.222-.103-1.046 3.391-2.367 6.689-4.574 9.452-2.82 3.535-6.106 4.615-9.642 4.798z"/><path id="m" d="M8.557 13.453c-.376.218-.758.412-1.156.588.009-.015.023-.03.031-.05.379-.17.747-.353 1.109-.566 1.302-.76 2.446-1.773 3.506-3.101.769-.965 1.432-1.996 2.011-3.072.019-.015.037-.031.061-.042-.587 1.101-1.26 2.152-2.047 3.137-1.06 1.328-2.209 2.347-3.516 3.106z"/><linearGradient id="n" gradientUnits="userSpaceOnUse"/></defs></svg>