<svg width="291" height="278" viewBox="0 0 291 278" fill="none" xmlns="http://www.w3.org/2000/svg">
<rect x="0.5" y="0.5" width="290" height="277" rx="4.5" fill="white" stroke="#E0E0E0"/>
<path d="M90.804 103.024V106H89.7326V98.0446H92.0809C92.5842 98.0446 93.0209 98.1038 93.3911 98.2222C93.7649 98.3369 94.0739 98.5016 94.3182 98.7163C94.5624 98.931 94.7438 99.19 94.8622 99.4935C94.9844 99.797 95.0454 100.136 95.0454 100.509C95.0454 100.88 94.9807 101.218 94.8511 101.525C94.7216 101.833 94.531 102.097 94.2793 102.319C94.0313 102.541 93.7223 102.715 93.3522 102.841C92.9821 102.963 92.5583 103.024 92.0809 103.024H90.804ZM90.804 102.169H92.0809C92.3881 102.169 92.6582 102.129 92.8914 102.047C93.1283 101.966 93.3263 101.853 93.4854 101.709C93.6446 101.561 93.7649 101.385 93.8463 101.181C93.9277 100.978 93.9684 100.754 93.9684 100.509C93.9684 100.002 93.8111 99.6064 93.4965 99.3214C93.1856 99.0364 92.7138 98.8939 92.0809 98.8939H90.804V102.169ZM98.3673 100.287C98.7781 100.287 99.1482 100.356 99.4776 100.493C99.8107 100.63 100.092 100.824 100.321 101.076C100.555 101.327 100.732 101.633 100.854 101.992C100.98 102.347 101.043 102.745 101.043 103.185C101.043 103.629 100.98 104.029 100.854 104.384C100.732 104.74 100.555 105.043 100.321 105.295C100.092 105.547 99.8107 105.741 99.4776 105.878C99.1482 106.011 98.7781 106.078 98.3673 106.078C97.9565 106.078 97.5845 106.011 97.2514 105.878C96.922 105.741 96.6407 105.547 96.4076 105.295C96.1744 105.043 95.9949 104.74 95.8691 104.384C95.7432 104.029 95.6803 103.629 95.6803 103.185C95.6803 102.745 95.7432 102.347 95.8691 101.992C95.9949 101.633 96.1744 101.327 96.4076 101.076C96.6407 100.824 96.922 100.63 97.2514 100.493C97.5845 100.356 97.9565 100.287 98.3673 100.287ZM98.3673 105.306C98.9224 105.306 99.337 105.121 99.6108 104.751C99.8847 104.377 100.022 103.857 100.022 103.191C100.022 102.521 99.8847 101.999 99.6108 101.625C99.337 101.252 98.9224 101.065 98.3673 101.065C98.086 101.065 97.8417 101.113 97.6345 101.209C97.4272 101.305 97.2533 101.444 97.1126 101.625C96.9757 101.807 96.8721 102.031 96.8017 102.297C96.7351 102.56 96.7018 102.858 96.7018 103.191C96.7018 103.524 96.7351 103.822 96.8017 104.085C96.8721 104.347 96.9757 104.57 97.1126 104.751C97.2533 104.929 97.4272 105.065 97.6345 105.162C97.8417 105.258 98.086 105.306 98.3673 105.306ZM102.261 106V100.376H102.827C102.934 100.376 103.008 100.397 103.049 100.437C103.09 100.478 103.118 100.548 103.132 100.648L103.199 101.525C103.391 101.133 103.628 100.828 103.91 100.609C104.195 100.387 104.528 100.276 104.909 100.276C105.064 100.276 105.205 100.295 105.331 100.332C105.457 100.365 105.573 100.413 105.681 100.476L105.553 101.215C105.527 101.307 105.47 101.353 105.381 101.353C105.329 101.353 105.249 101.337 105.142 101.303C105.035 101.266 104.885 101.248 104.692 101.248C104.348 101.248 104.06 101.348 103.826 101.548C103.597 101.747 103.404 102.038 103.249 102.419V106H102.261ZM108.443 106.089C107.999 106.089 107.657 105.965 107.416 105.717C107.179 105.469 107.061 105.112 107.061 104.645V101.203H106.384C106.324 101.203 106.274 101.187 106.234 101.153C106.193 101.116 106.173 101.061 106.173 100.987V100.593L107.094 100.476L107.322 98.7385C107.329 98.683 107.353 98.6386 107.394 98.6053C107.435 98.5683 107.487 98.5498 107.549 98.5498H108.049V100.487H109.659V101.203H108.049V104.579C108.049 104.816 108.106 104.991 108.221 105.106C108.336 105.221 108.484 105.278 108.665 105.278C108.769 105.278 108.858 105.265 108.932 105.239C109.01 105.21 109.076 105.178 109.132 105.145C109.187 105.112 109.233 105.082 109.27 105.056C109.311 105.027 109.346 105.012 109.376 105.012C109.428 105.012 109.474 105.043 109.515 105.106L109.803 105.578C109.633 105.737 109.428 105.863 109.187 105.956C108.947 106.044 108.699 106.089 108.443 106.089ZM111.103 106V101.22L110.481 101.148C110.404 101.129 110.339 101.102 110.287 101.065C110.239 101.024 110.215 100.967 110.215 100.893V100.487H111.103V99.9432C111.103 99.6212 111.147 99.3362 111.236 99.0883C111.329 98.8366 111.458 98.6256 111.625 98.4554C111.795 98.2814 111.999 98.15 112.236 98.0612C112.472 97.9724 112.739 97.928 113.035 97.928C113.287 97.928 113.52 97.965 113.734 98.039L113.712 98.5331C113.709 98.6071 113.677 98.6515 113.618 98.6663C113.559 98.6811 113.475 98.6885 113.368 98.6885H113.196C113.026 98.6885 112.87 98.7107 112.73 98.7552C112.593 98.7996 112.474 98.8717 112.374 98.9717C112.274 99.0716 112.197 99.203 112.141 99.3658C112.089 99.5287 112.063 99.7304 112.063 99.971V100.487H113.69V101.203H112.097V106H111.103ZM116.898 100.287C117.309 100.287 117.679 100.356 118.008 100.493C118.341 100.63 118.623 100.824 118.852 101.076C119.085 101.327 119.263 101.633 119.385 101.992C119.511 102.347 119.574 102.745 119.574 103.185C119.574 103.629 119.511 104.029 119.385 104.384C119.263 104.74 119.085 105.043 118.852 105.295C118.623 105.547 118.341 105.741 118.008 105.878C117.679 106.011 117.309 106.078 116.898 106.078C116.487 106.078 116.115 106.011 115.782 105.878C115.453 105.741 115.171 105.547 114.938 105.295C114.705 105.043 114.526 104.74 114.4 104.384C114.274 104.029 114.211 103.629 114.211 103.185C114.211 102.745 114.274 102.347 114.4 101.992C114.526 101.633 114.705 101.327 114.938 101.076C115.171 100.824 115.453 100.63 115.782 100.493C116.115 100.356 116.487 100.287 116.898 100.287ZM116.898 105.306C117.453 105.306 117.868 105.121 118.141 104.751C118.415 104.377 118.552 103.857 118.552 103.191C118.552 102.521 118.415 101.999 118.141 101.625C117.868 101.252 117.453 101.065 116.898 101.065C116.617 101.065 116.372 101.113 116.165 101.209C115.958 101.305 115.784 101.444 115.643 101.625C115.506 101.807 115.403 102.031 115.332 102.297C115.266 102.56 115.232 102.858 115.232 103.191C115.232 103.524 115.266 103.822 115.332 104.085C115.403 104.347 115.506 104.57 115.643 104.751C115.784 104.929 115.958 105.065 116.165 105.162C116.372 105.258 116.617 105.306 116.898 105.306ZM121.891 97.8225V106H120.902V97.8225H121.891ZM124.731 100.376V106H123.743V100.376H124.731ZM124.954 98.6108C124.954 98.707 124.933 98.7977 124.892 98.8828C124.855 98.9643 124.804 99.0383 124.737 99.1049C124.674 99.1678 124.6 99.2178 124.515 99.2548C124.43 99.2918 124.339 99.3103 124.243 99.3103C124.147 99.3103 124.056 99.2918 123.971 99.2548C123.89 99.2178 123.815 99.1678 123.749 99.1049C123.686 99.0383 123.636 98.9643 123.599 98.8828C123.562 98.7977 123.543 98.707 123.543 98.6108C123.543 98.5146 123.562 98.4239 123.599 98.3388C123.636 98.25 123.686 98.1741 123.749 98.1112C123.815 98.0446 123.89 97.9927 123.971 97.9557C124.056 97.9187 124.147 97.9002 124.243 97.9002C124.339 97.9002 124.43 97.9187 124.515 97.9557C124.6 97.9927 124.674 98.0446 124.737 98.1112C124.804 98.1741 124.855 98.25 124.892 98.3388C124.933 98.4239 124.954 98.5146 124.954 98.6108ZM128.749 100.287C129.16 100.287 129.53 100.356 129.86 100.493C130.193 100.63 130.474 100.824 130.703 101.076C130.937 101.327 131.114 101.633 131.236 101.992C131.362 102.347 131.425 102.745 131.425 103.185C131.425 103.629 131.362 104.029 131.236 104.384C131.114 104.74 130.937 105.043 130.703 105.295C130.474 105.547 130.193 105.741 129.86 105.878C129.53 106.011 129.16 106.078 128.749 106.078C128.338 106.078 127.967 106.011 127.633 105.878C127.304 105.741 127.023 105.547 126.79 105.295C126.556 105.043 126.377 104.74 126.251 104.384C126.125 104.029 126.062 103.629 126.062 103.185C126.062 102.745 126.125 102.347 126.251 101.992C126.377 101.633 126.556 101.327 126.79 101.076C127.023 100.824 127.304 100.63 127.633 100.493C127.967 100.356 128.338 100.287 128.749 100.287ZM128.749 105.306C129.304 105.306 129.719 105.121 129.993 104.751C130.267 104.377 130.404 103.857 130.404 103.191C130.404 102.521 130.267 101.999 129.993 101.625C129.719 101.252 129.304 101.065 128.749 101.065C128.468 101.065 128.224 101.113 128.016 101.209C127.809 101.305 127.635 101.444 127.495 101.625C127.358 101.807 127.254 102.031 127.184 102.297C127.117 102.56 127.084 102.858 127.084 103.191C127.084 103.524 127.117 103.822 127.184 104.085C127.254 104.347 127.358 104.57 127.495 104.751C127.635 104.929 127.809 105.065 128.016 105.162C128.224 105.258 128.468 105.306 128.749 105.306ZM134.534 102.253H137.277V103.091H134.534V102.253ZM145.405 98.4776C145.405 98.6182 145.36 98.7348 145.272 98.8273C145.183 98.9162 145.033 98.9606 144.822 98.9606H142.324L141.957 101.048C142.372 100.959 142.755 100.915 143.106 100.915C143.521 100.915 143.886 100.976 144.2 101.098C144.518 101.22 144.785 101.388 145 101.603C145.214 101.818 145.375 102.071 145.483 102.364C145.594 102.656 145.649 102.974 145.649 103.319C145.649 103.74 145.575 104.122 145.427 104.462C145.279 104.803 145.075 105.095 144.816 105.339C144.561 105.58 144.259 105.765 143.911 105.895C143.564 106.024 143.188 106.089 142.784 106.089C142.551 106.089 142.327 106.065 142.113 106.017C141.898 105.972 141.698 105.911 141.513 105.833C141.328 105.756 141.156 105.667 140.997 105.567C140.838 105.467 140.697 105.362 140.575 105.251L140.875 104.829C140.941 104.732 141.03 104.684 141.141 104.684C141.211 104.684 141.293 104.714 141.385 104.773C141.482 104.829 141.596 104.892 141.73 104.962C141.863 105.032 142.018 105.097 142.196 105.156C142.377 105.212 142.592 105.239 142.84 105.239C143.118 105.239 143.367 105.195 143.589 105.106C143.811 105.017 144 104.892 144.156 104.729C144.315 104.562 144.437 104.364 144.522 104.135C144.607 103.905 144.65 103.648 144.65 103.363C144.65 103.115 144.613 102.891 144.539 102.691C144.468 102.491 144.359 102.321 144.211 102.18C144.067 102.04 143.886 101.931 143.667 101.853C143.449 101.775 143.193 101.736 142.901 101.736C142.701 101.736 142.494 101.753 142.279 101.786C142.065 101.82 141.843 101.873 141.613 101.947L140.991 101.764L141.635 98.0446H145.405V98.4776ZM151.846 98.4776C151.846 98.6182 151.801 98.7348 151.712 98.8273C151.623 98.9162 151.474 98.9606 151.263 98.9606H148.764L148.398 101.048C148.812 100.959 149.196 100.915 149.547 100.915C149.962 100.915 150.326 100.976 150.641 101.098C150.959 101.22 151.226 101.388 151.44 101.603C151.655 101.818 151.816 102.071 151.923 102.364C152.034 102.656 152.09 102.974 152.09 103.319C152.09 103.74 152.016 104.122 151.868 104.462C151.72 104.803 151.516 105.095 151.257 105.339C151.002 105.58 150.7 105.765 150.352 105.895C150.004 106.024 149.629 106.089 149.225 106.089C148.992 106.089 148.768 106.065 148.553 106.017C148.339 105.972 148.139 105.911 147.954 105.833C147.769 105.756 147.597 105.667 147.438 105.567C147.278 105.467 147.138 105.362 147.016 105.251L147.315 104.829C147.382 104.732 147.471 104.684 147.582 104.684C147.652 104.684 147.734 104.714 147.826 104.773C147.922 104.829 148.037 104.892 148.17 104.962C148.304 105.032 148.459 105.097 148.637 105.156C148.818 105.212 149.033 105.239 149.281 105.239C149.558 105.239 149.808 105.195 150.03 105.106C150.252 105.017 150.441 104.892 150.596 104.729C150.756 104.562 150.878 104.364 150.963 104.135C151.048 103.905 151.09 103.648 151.09 103.363C151.09 103.115 151.053 102.891 150.979 102.691C150.909 102.491 150.8 102.321 150.652 102.18C150.508 102.04 150.326 101.931 150.108 101.853C149.889 101.775 149.634 101.736 149.342 101.736C149.142 101.736 148.935 101.753 148.72 101.786C148.505 101.82 148.283 101.873 148.054 101.947L147.432 101.764L148.076 98.0446H151.846V98.4776Z" fill="#7B7B7B"/>
<path d="M81.304 79V71.0446H83.841C84.3296 71.0446 84.7496 71.0927 85.1012 71.1889C85.4566 71.2851 85.7471 71.4221 85.9729 71.5997C86.2023 71.7774 86.3707 71.9957 86.478 72.2548C86.5891 72.5102 86.6446 72.7989 86.6446 73.1209C86.6446 73.317 86.6131 73.5058 86.5502 73.6871C86.491 73.8685 86.3985 74.0369 86.2726 74.1923C86.1505 74.3478 85.9951 74.4865 85.8063 74.6087C85.6212 74.7308 85.4029 74.8307 85.1512 74.9085C85.7323 75.0232 86.1709 75.2323 86.4669 75.5358C86.763 75.8393 86.9111 76.239 86.9111 76.7349C86.9111 77.0717 86.8482 77.3789 86.7223 77.6565C86.6002 77.9341 86.4188 78.1728 86.1783 78.3727C85.9414 78.5725 85.649 78.728 85.3011 78.839C84.9569 78.9463 84.5627 79 84.1186 79H81.304ZM82.381 75.3748V78.1451H84.102C84.4091 78.1451 84.6719 78.1099 84.8903 78.0396C85.1124 77.9693 85.2937 77.8712 85.4343 77.7453C85.5787 77.6158 85.6842 77.4641 85.7508 77.2901C85.8174 77.1125 85.8507 76.9181 85.8507 76.7072C85.8507 76.2964 85.7045 75.9725 85.4121 75.7357C85.1235 75.4951 84.6849 75.3748 84.0964 75.3748H82.381ZM82.381 74.6087H83.8022C84.1057 74.6087 84.3684 74.5754 84.5905 74.5088C84.8126 74.4421 84.9958 74.3496 85.1401 74.2312C85.2882 74.1127 85.3973 73.9702 85.4677 73.8037C85.538 73.6335 85.5731 73.4484 85.5731 73.2485C85.5731 72.7822 85.4325 72.4399 85.1512 72.2215C84.8699 72.0031 84.4332 71.8939 83.841 71.8939H82.381V74.6087ZM88.3374 79V73.3762H88.9037C89.011 73.3762 89.085 73.3966 89.1257 73.4373C89.1664 73.478 89.1942 73.5483 89.209 73.6483L89.2756 74.5254C89.4681 74.1331 89.7049 73.8278 89.9862 73.6094C90.2712 73.3873 90.6043 73.2763 90.9855 73.2763C91.141 73.2763 91.2816 73.2948 91.4074 73.3318C91.5333 73.3651 91.6499 73.4132 91.7572 73.4762L91.6295 74.2145C91.6036 74.307 91.5462 74.3533 91.4574 74.3533C91.4056 74.3533 91.326 74.3367 91.2187 74.3033C91.1113 74.2663 90.9615 74.2478 90.769 74.2478C90.4248 74.2478 90.1361 74.3478 89.9029 74.5476C89.6735 74.7475 89.481 75.038 89.3256 75.4192V79H88.3374ZM96.7399 79H96.3013C96.2051 79 96.1274 78.9852 96.0682 78.9556C96.009 78.926 95.9701 78.8631 95.9516 78.7668L95.8406 78.245C95.6925 78.3782 95.5482 78.4985 95.4075 78.6058C95.2669 78.7095 95.1189 78.7983 94.9634 78.8723C94.808 78.9426 94.6414 78.9963 94.4638 79.0333C94.2898 79.0703 94.0955 79.0888 93.8808 79.0888C93.6625 79.0888 93.4571 79.0592 93.2646 79C93.0759 78.9371 92.9112 78.8446 92.7705 78.7224C92.6299 78.6003 92.517 78.4467 92.4319 78.2616C92.3505 78.0729 92.3097 77.8508 92.3097 77.5954C92.3097 77.3734 92.3708 77.1606 92.4929 76.957C92.6151 76.7498 92.8112 76.5665 93.0814 76.4074C93.3553 76.2483 93.7124 76.1187 94.1529 76.0188C94.5933 75.9152 95.1318 75.8559 95.7684 75.8411V75.4026C95.7684 74.9658 95.674 74.6364 95.4853 74.4144C95.3002 74.1886 95.0245 74.0757 94.6581 74.0757C94.4175 74.0757 94.2139 74.1072 94.0474 74.1701C93.8845 74.2293 93.7421 74.2978 93.6199 74.3755C93.5015 74.4495 93.3979 74.518 93.309 74.5809C93.2239 74.6401 93.1388 74.6698 93.0537 74.6698C92.987 74.6698 92.9278 74.6531 92.876 74.6198C92.8279 74.5828 92.789 74.5384 92.7594 74.4865L92.5818 74.1701C92.8927 73.8703 93.2276 73.6464 93.5866 73.4984C93.9456 73.3503 94.3435 73.2763 94.7802 73.2763C95.0948 73.2763 95.3742 73.3281 95.6185 73.4317C95.8628 73.5354 96.0682 73.6797 96.2347 73.8648C96.4013 74.0498 96.5271 74.2737 96.6122 74.5365C96.6974 74.7993 96.7399 75.088 96.7399 75.4026V79ZM94.1751 78.3949C94.349 78.3949 94.5082 78.3782 94.6525 78.3449C94.7969 78.3079 94.9319 78.2579 95.0578 78.195C95.1873 78.1284 95.3095 78.0488 95.4242 77.9563C95.5426 77.8638 95.6574 77.7583 95.7684 77.6399V76.4685C95.3132 76.4833 94.9264 76.5203 94.6081 76.5795C94.2898 76.635 94.0307 76.709 93.8309 76.8016C93.631 76.8941 93.4848 77.0033 93.3923 77.1291C93.3035 77.2549 93.2591 77.3956 93.2591 77.551C93.2591 77.6991 93.2831 77.8268 93.3312 77.9341C93.3794 78.0414 93.4441 78.1302 93.5255 78.2006C93.607 78.2672 93.7032 78.3172 93.8142 78.3505C93.9253 78.3801 94.0455 78.3949 94.1751 78.3949ZM98.237 79V73.3762H98.8255C98.9661 73.3762 99.055 73.4447 99.092 73.5816L99.1697 74.1923C99.414 73.9221 99.686 73.7038 99.9858 73.5372C100.289 73.3707 100.639 73.2874 101.035 73.2874C101.342 73.2874 101.612 73.3392 101.846 73.4428C102.082 73.5428 102.279 73.6871 102.434 73.8759C102.593 74.0609 102.713 74.2848 102.795 74.5476C102.876 74.8104 102.917 75.1009 102.917 75.4192V79H101.929V75.4192C101.929 74.9936 101.831 74.6642 101.635 74.431C101.442 74.1942 101.146 74.0757 100.746 74.0757C100.454 74.0757 100.18 74.146 99.9247 74.2867C99.673 74.4273 99.4399 74.6179 99.2252 74.8585V79H98.237ZM108.365 79C108.224 79 108.136 78.9315 108.098 78.7946L108.01 78.1117C107.769 78.4041 107.493 78.6391 107.182 78.8168C106.875 78.9907 106.522 79.0777 106.122 79.0777C105.8 79.0777 105.508 79.0167 105.245 78.8945C104.982 78.7687 104.758 78.5855 104.573 78.3449C104.388 78.1043 104.246 77.8046 104.146 77.4456C104.046 77.0865 103.996 76.6739 103.996 76.2075C103.996 75.793 104.051 75.4081 104.162 75.0528C104.273 74.6938 104.433 74.3829 104.64 74.1201C104.851 73.8574 105.106 73.652 105.406 73.5039C105.706 73.3522 106.046 73.2763 106.427 73.2763C106.772 73.2763 107.066 73.3355 107.31 73.4539C107.554 73.5687 107.773 73.7315 107.965 73.9425V70.8225H108.953V79H108.365ZM106.45 78.2783C106.772 78.2783 107.053 78.2043 107.294 78.0562C107.538 77.9082 107.762 77.6991 107.965 77.4289V74.7086C107.784 74.4643 107.584 74.2941 107.366 74.1979C107.151 74.0979 106.912 74.048 106.65 74.048C106.124 74.048 105.721 74.2349 105.439 74.6087C105.158 74.9825 105.017 75.5154 105.017 76.2075C105.017 76.574 105.049 76.8885 105.112 77.1513C105.175 77.4104 105.267 77.6251 105.389 77.7953C105.511 77.9619 105.661 78.084 105.839 78.1617C106.017 78.2394 106.22 78.2783 106.45 78.2783ZM114.094 75.6801V79H113.022V71.0446H115.271C115.774 71.0446 116.209 71.0964 116.575 71.2C116.942 71.2999 117.243 71.4461 117.48 71.6386C117.721 71.831 117.898 72.0642 118.013 72.3381C118.128 72.6083 118.185 72.9117 118.185 73.2485C118.185 73.5298 118.141 73.7926 118.052 74.0369C117.963 74.2811 117.834 74.5014 117.663 74.6975C117.497 74.89 117.291 75.0547 117.047 75.1916C116.807 75.3285 116.533 75.4322 116.226 75.5025C116.359 75.5802 116.477 75.6931 116.581 75.8411L118.901 79H117.947C117.75 79 117.606 78.9241 117.513 78.7724L115.448 75.93C115.385 75.8411 115.317 75.7782 115.243 75.7412C115.169 75.7005 115.058 75.6801 114.91 75.6801H114.094ZM114.094 74.8974H115.221C115.535 74.8974 115.811 74.8604 116.048 74.7863C116.288 74.7086 116.488 74.6013 116.647 74.4643C116.81 74.3237 116.932 74.1572 117.014 73.9647C117.095 73.7722 117.136 73.5594 117.136 73.3263C117.136 72.8525 116.979 72.4954 116.664 72.2548C116.353 72.0142 115.889 71.8939 115.271 71.8939H114.094V74.8974ZM121.001 73.3762V79H120.012V73.3762H121.001ZM121.223 71.6108C121.223 71.707 121.202 71.7977 121.162 71.8828C121.124 71.9643 121.073 72.0383 121.006 72.1049C120.943 72.1678 120.869 72.2178 120.784 72.2548C120.699 72.2918 120.608 72.3103 120.512 72.3103C120.416 72.3103 120.325 72.2918 120.24 72.2548C120.159 72.2178 120.084 72.1678 120.018 72.1049C119.955 72.0383 119.905 71.9643 119.868 71.8828C119.831 71.7977 119.812 71.707 119.812 71.6108C119.812 71.5146 119.831 71.4239 119.868 71.3388C119.905 71.25 119.955 71.1741 120.018 71.1112C120.084 71.0446 120.159 70.9927 120.24 70.9557C120.325 70.9187 120.416 70.9002 120.512 70.9002C120.608 70.9002 120.699 70.9187 120.784 70.9557C120.869 70.9927 120.943 71.0446 121.006 71.1112C121.073 71.1741 121.124 71.25 121.162 71.3388C121.202 71.4239 121.223 71.5146 121.223 71.6108ZM125.962 74.3033C125.918 74.3848 125.849 74.4255 125.757 74.4255C125.701 74.4255 125.638 74.4051 125.568 74.3644C125.498 74.3237 125.411 74.2793 125.307 74.2312C125.207 74.1794 125.087 74.1331 124.946 74.0924C124.805 74.048 124.639 74.0258 124.446 74.0258C124.28 74.0258 124.13 74.048 123.997 74.0924C123.864 74.1331 123.749 74.1905 123.653 74.2645C123.56 74.3385 123.488 74.4255 123.436 74.5254C123.388 74.6216 123.364 74.7271 123.364 74.8419C123.364 74.9862 123.405 75.1065 123.486 75.2027C123.571 75.2989 123.682 75.3822 123.819 75.4525C123.956 75.5228 124.112 75.5858 124.285 75.6413C124.459 75.6931 124.637 75.7505 124.818 75.8134C125.003 75.8726 125.183 75.9392 125.357 76.0132C125.531 76.0873 125.686 76.1798 125.823 76.2908C125.96 76.4019 126.069 76.5388 126.151 76.7016C126.236 76.8608 126.279 77.0532 126.279 77.279C126.279 77.5381 126.232 77.7786 126.14 78.0007C126.047 78.2191 125.91 78.4097 125.729 78.5725C125.548 78.7317 125.325 78.8575 125.063 78.95C124.8 79.0426 124.496 79.0888 124.152 79.0888C123.76 79.0888 123.405 79.0259 123.086 78.9001C122.768 78.7705 122.498 78.6058 122.276 78.406L122.509 78.0285C122.539 77.9804 122.574 77.9433 122.614 77.9174C122.655 77.8915 122.709 77.8786 122.775 77.8786C122.842 77.8786 122.912 77.9045 122.986 77.9563C123.06 78.0081 123.149 78.0655 123.253 78.1284C123.36 78.1913 123.488 78.2487 123.636 78.3005C123.788 78.3523 123.976 78.3782 124.202 78.3782C124.395 78.3782 124.563 78.3542 124.707 78.306C124.852 78.2542 124.972 78.1858 125.068 78.1006C125.164 78.0155 125.235 77.9174 125.279 77.8064C125.327 77.6954 125.351 77.5769 125.351 77.4511C125.351 77.2957 125.309 77.168 125.224 77.068C125.142 76.9644 125.033 76.8774 124.896 76.8071C124.759 76.7331 124.602 76.6702 124.424 76.6184C124.25 76.5628 124.071 76.5055 123.886 76.4463C123.704 76.387 123.525 76.3204 123.347 76.2464C123.173 76.1687 123.018 76.0725 122.881 75.9577C122.744 75.843 122.633 75.7023 122.548 75.5358C122.466 75.3656 122.426 75.1601 122.426 74.9196C122.426 74.7049 122.47 74.4995 122.559 74.3033C122.648 74.1035 122.777 73.9295 122.948 73.7815C123.118 73.6298 123.327 73.5095 123.575 73.4206C123.823 73.3318 124.106 73.2874 124.424 73.2874C124.794 73.2874 125.126 73.3466 125.418 73.4651C125.714 73.5798 125.969 73.7389 126.184 73.9425L125.962 74.3033ZM128.583 70.8225V75.6357H128.839C128.913 75.6357 128.974 75.6265 129.022 75.608C129.07 75.5858 129.124 75.5432 129.183 75.4803L130.96 73.5761C131.015 73.5169 131.071 73.4688 131.126 73.4317C131.182 73.3947 131.256 73.3762 131.348 73.3762H132.248L130.177 75.5802C130.125 75.6431 130.073 75.6986 130.021 75.7468C129.973 75.7949 129.918 75.8374 129.855 75.8744C129.921 75.9189 129.981 75.9707 130.032 76.0299C130.088 76.0854 130.14 76.1502 130.188 76.2242L132.386 79H131.498C131.417 79 131.346 78.9852 131.287 78.9556C131.232 78.9223 131.178 78.8723 131.126 78.8057L129.277 76.5018C129.222 76.4241 129.166 76.3741 129.111 76.3519C129.055 76.326 128.972 76.313 128.861 76.313H128.583V79H127.59V70.8225H128.583ZM135.271 75.2527H138.013V76.091H135.271V75.2527ZM144.32 74.1257C144.638 74.1257 144.94 74.1794 145.225 74.2867C145.51 74.3903 145.76 74.5439 145.975 74.7475C146.189 74.9473 146.359 75.1953 146.485 75.4914C146.611 75.7838 146.674 76.1187 146.674 76.4962C146.674 76.8626 146.607 77.2031 146.474 77.5177C146.341 77.8323 146.154 78.1062 145.913 78.3394C145.677 78.5725 145.39 78.7557 145.053 78.889C144.716 79.0222 144.346 79.0888 143.943 79.0888C143.543 79.0888 143.18 79.0259 142.855 78.9001C142.533 78.7705 142.257 78.5892 142.027 78.356C141.798 78.1191 141.62 77.8342 141.494 77.5011C141.372 77.1643 141.311 76.7886 141.311 76.3741C141.311 76.0262 141.389 75.6561 141.544 75.2638C141.7 74.8715 141.946 74.4495 142.283 73.998L144.298 71.2833C144.35 71.2167 144.422 71.1611 144.514 71.1167C144.607 71.0686 144.712 71.0446 144.831 71.0446H145.708L142.949 74.5365C143.138 74.407 143.347 74.307 143.576 74.2367C143.806 74.1627 144.054 74.1257 144.32 74.1257ZM142.266 76.5462C142.266 76.8016 142.303 77.0347 142.377 77.2457C142.451 77.4567 142.558 77.638 142.699 77.7898C142.843 77.9415 143.017 78.0599 143.221 78.1451C143.428 78.2265 143.663 78.2672 143.926 78.2672C144.192 78.2672 144.433 78.2246 144.648 78.1395C144.862 78.0544 145.046 77.9359 145.197 77.7842C145.353 77.6325 145.471 77.453 145.553 77.2457C145.638 77.0384 145.68 76.8127 145.68 76.5684C145.68 76.3093 145.64 76.0762 145.558 75.8689C145.477 75.6579 145.362 75.4803 145.214 75.3359C145.066 75.1879 144.888 75.075 144.681 74.9973C144.474 74.9196 144.246 74.8807 143.998 74.8807C143.732 74.8807 143.491 74.927 143.276 75.0195C143.062 75.1083 142.879 75.2305 142.727 75.3859C142.579 75.5377 142.464 75.7153 142.383 75.9189C142.305 76.1187 142.266 76.3278 142.266 76.5462ZM153.17 71.0446V71.4887C153.17 71.6145 153.155 71.7181 153.126 71.7996C153.1 71.881 153.072 71.9495 153.043 72.005L149.751 78.6502C149.702 78.7465 149.636 78.8298 149.551 78.9001C149.466 78.9667 149.351 79 149.206 79H148.501L151.843 72.438C151.892 72.3455 151.94 72.2604 151.988 72.1826C152.04 72.1049 152.097 72.0309 152.16 71.9606H148.007C147.944 71.9606 147.887 71.9365 147.835 71.8884C147.787 71.8366 147.763 71.7792 147.763 71.7163V71.0446H153.17Z" fill="#7B7B7B"/>
<path d="M80.1194 49.6801V53H79.048V45.0446H81.2964C81.7997 45.0446 82.2346 45.0964 82.601 45.2C82.9674 45.2999 83.269 45.4461 83.5059 45.6386C83.7465 45.831 83.9241 46.0642 84.0389 46.3381C84.1536 46.6083 84.211 46.9117 84.211 47.2485C84.211 47.5298 84.1666 47.7926 84.0777 48.0369C83.9889 48.2811 83.8594 48.5014 83.6891 48.6975C83.5226 48.89 83.3172 49.0547 83.0729 49.1916C82.8323 49.3285 82.5584 49.4322 82.2513 49.5025C82.3845 49.5802 82.5029 49.6931 82.6066 49.8411L84.9271 53H83.9723C83.7761 53 83.6318 52.9241 83.5392 52.7724L81.474 49.93C81.4111 49.8411 81.3426 49.7782 81.2686 49.7412C81.1946 49.7005 81.0836 49.6801 80.9355 49.6801H80.1194ZM80.1194 48.8974H81.2464C81.561 48.8974 81.8367 48.8604 82.0736 48.7863C82.3142 48.7086 82.514 48.6013 82.6732 48.4643C82.836 48.3237 82.9582 48.1572 83.0396 47.9647C83.121 47.7722 83.1617 47.5594 83.1617 47.3263C83.1617 46.8525 83.0044 46.4954 82.6898 46.2548C82.3789 46.0142 81.9145 45.8939 81.2964 45.8939H80.1194V48.8974ZM88.1532 47.2874C88.49 47.2874 88.8009 47.3448 89.0859 47.4595C89.3709 47.5705 89.617 47.7334 89.8242 47.948C90.0315 48.159 90.1925 48.4218 90.3072 48.7364C90.4257 49.0473 90.4849 49.4026 90.4849 49.8023C90.4849 49.9577 90.4682 50.0614 90.4349 50.1132C90.4016 50.165 90.3387 50.1909 90.2462 50.1909H86.5044C86.5118 50.5462 86.5599 50.8552 86.6487 51.118C86.7376 51.3808 86.8597 51.601 87.0151 51.7786C87.1706 51.9526 87.3556 52.084 87.5703 52.1728C87.785 52.2579 88.0255 52.3005 88.292 52.3005C88.54 52.3005 88.7528 52.2727 88.9304 52.2172C89.1118 52.158 89.2672 52.0951 89.3968 52.0285C89.5263 51.9619 89.6336 51.9008 89.7188 51.8453C89.8076 51.786 89.8835 51.7564 89.9464 51.7564C90.0278 51.7564 90.0907 51.7879 90.1351 51.8508L90.4127 52.2117C90.2906 52.3597 90.1444 52.4893 89.9741 52.6003C89.8039 52.7076 89.6207 52.7964 89.4245 52.8668C89.2321 52.9371 89.0322 52.9889 88.825 53.0222C88.6177 53.0592 88.4123 53.0777 88.2087 53.0777C87.8201 53.0777 87.4611 53.013 87.1317 52.8834C86.806 52.7502 86.5229 52.5577 86.2823 52.306C86.0455 52.0507 85.8604 51.7361 85.7272 51.3623C85.5939 50.9885 85.5273 50.5591 85.5273 50.0743C85.5273 49.682 85.5865 49.3156 85.705 48.9751C85.8271 48.6346 86.001 48.3404 86.2268 48.0924C86.4526 47.8407 86.7283 47.6446 87.054 47.5039C87.3797 47.3596 87.7461 47.2874 88.1532 47.2874ZM88.1754 48.0147C87.698 48.0147 87.3223 48.1535 87.0484 48.431C86.7746 48.7049 86.6043 49.0861 86.5377 49.5747H89.5966C89.5966 49.3452 89.5652 49.1361 89.5023 48.9473C89.4393 48.7549 89.3468 48.5902 89.2247 48.4532C89.1025 48.3126 88.9526 48.2053 88.775 48.1312C88.601 48.0535 88.4012 48.0147 88.1754 48.0147ZM91.7497 54.9042V47.3762H92.3382C92.4788 47.3762 92.5676 47.4447 92.6046 47.5816L92.6879 48.2478C92.9285 47.9554 93.2024 47.7204 93.5096 47.5428C93.8204 47.3651 94.1776 47.2763 94.581 47.2763C94.903 47.2763 95.1954 47.3392 95.4582 47.4651C95.7209 47.5872 95.9449 47.7704 96.1299 48.0147C96.315 48.2552 96.4575 48.555 96.5574 48.914C96.6573 49.273 96.7073 49.6857 96.7073 50.152C96.7073 50.5665 96.6518 50.9533 96.5407 51.3123C96.4297 51.6676 96.2706 51.9767 96.0633 52.2394C95.856 52.4985 95.6007 52.7039 95.2972 52.8557C94.9974 53.0037 94.6587 53.0777 94.2812 53.0777C93.9333 53.0777 93.6354 53.0204 93.3874 52.9056C93.1431 52.7909 92.9266 52.628 92.7379 52.4171V54.9042H91.7497ZM94.2535 48.0757C93.9315 48.0757 93.6483 48.1498 93.4041 48.2978C93.1635 48.4458 92.9414 48.6549 92.7379 48.9251V51.6454C92.9192 51.8897 93.1172 52.0618 93.3319 52.1617C93.5503 52.2616 93.7927 52.3116 94.0592 52.3116C94.581 52.3116 94.9826 52.1247 95.2639 51.7509C95.5451 51.3771 95.6858 50.8441 95.6858 50.152C95.6858 49.7856 95.6525 49.471 95.5859 49.2083C95.5229 48.9455 95.4304 48.7308 95.3083 48.5643C95.1861 48.394 95.0362 48.27 94.8586 48.1923C94.6809 48.1146 94.4792 48.0757 94.2535 48.0757ZM98.7309 47.3762V50.9626C98.7309 51.3882 98.829 51.7176 99.0252 51.9507C99.2213 52.1839 99.5174 52.3005 99.9134 52.3005C100.202 52.3005 100.474 52.232 100.73 52.0951C100.985 51.9581 101.22 51.7675 101.435 51.5233V47.3762H102.423V53H101.834C101.694 53 101.605 52.9315 101.568 52.7946L101.49 52.1895C101.246 52.4596 100.972 52.678 100.668 52.8446C100.365 53.0074 100.017 53.0888 99.6247 53.0888C99.3175 53.0888 99.0455 53.0389 98.8086 52.9389C98.5755 52.8353 98.3793 52.691 98.2202 52.5059C98.061 52.3209 97.9407 52.0969 97.8593 51.8342C97.7816 51.5714 97.7427 51.2809 97.7427 50.9626V47.3762H98.7309ZM105.75 53.0888C105.306 53.0888 104.963 52.9648 104.723 52.7169C104.486 52.4689 104.368 52.1117 104.368 51.6454V48.2034H103.69C103.631 48.2034 103.581 48.1868 103.54 48.1535C103.5 48.1164 103.479 48.0609 103.479 47.9869V47.5927L104.401 47.4762L104.629 45.7385C104.636 45.683 104.66 45.6386 104.701 45.6053C104.741 45.5683 104.793 45.5498 104.856 45.5498H105.356V47.4873H106.966V48.2034H105.356V51.5788C105.356 51.8157 105.413 51.9915 105.528 52.1062C105.643 52.2209 105.791 52.2783 105.972 52.2783C106.076 52.2783 106.164 52.2653 106.239 52.2394C106.316 52.2098 106.383 52.1784 106.438 52.1451C106.494 52.1117 106.54 52.0821 106.577 52.0562C106.618 52.0266 106.653 52.0118 106.683 52.0118C106.734 52.0118 106.781 52.0433 106.821 52.1062L107.11 52.5781C106.94 52.7372 106.734 52.8631 106.494 52.9556C106.253 53.0444 106.005 53.0888 105.75 53.0888ZM112.318 53H111.879C111.783 53 111.706 52.9852 111.646 52.9556C111.587 52.926 111.548 52.8631 111.53 52.7668L111.419 52.245C111.271 52.3782 111.126 52.4985 110.986 52.6058C110.845 52.7095 110.697 52.7983 110.542 52.8723C110.386 52.9426 110.22 52.9963 110.042 53.0333C109.868 53.0703 109.674 53.0888 109.459 53.0888C109.241 53.0888 109.035 53.0592 108.843 53C108.654 52.9371 108.489 52.8446 108.349 52.7224C108.208 52.6003 108.095 52.4467 108.01 52.2616C107.929 52.0729 107.888 51.8508 107.888 51.5954C107.888 51.3734 107.949 51.1606 108.071 50.957C108.193 50.7498 108.389 50.5665 108.66 50.4074C108.933 50.2483 109.291 50.1187 109.731 50.0188C110.171 49.9152 110.71 49.8559 111.347 49.8411V49.4026C111.347 48.9658 111.252 48.6364 111.063 48.4144C110.878 48.1886 110.603 48.0757 110.236 48.0757C109.996 48.0757 109.792 48.1072 109.626 48.1701C109.463 48.2293 109.32 48.2978 109.198 48.3755C109.08 48.4495 108.976 48.518 108.887 48.5809C108.802 48.6401 108.717 48.6698 108.632 48.6698C108.565 48.6698 108.506 48.6531 108.454 48.6198C108.406 48.5828 108.367 48.5384 108.338 48.4865L108.16 48.1701C108.471 47.8703 108.806 47.6464 109.165 47.4984C109.524 47.3503 109.922 47.2763 110.358 47.2763C110.673 47.2763 110.952 47.3281 111.197 47.4317C111.441 47.5354 111.646 47.6797 111.813 47.8648C111.979 48.0498 112.105 48.2737 112.19 48.5365C112.275 48.7993 112.318 49.088 112.318 49.4026V53ZM109.753 52.3949C109.927 52.3949 110.086 52.3782 110.231 52.3449C110.375 52.3079 110.51 52.2579 110.636 52.195C110.765 52.1284 110.888 52.0488 111.002 51.9563C111.121 51.8638 111.235 51.7583 111.347 51.6399V50.4685C110.891 50.4833 110.505 50.5203 110.186 50.5795C109.868 50.635 109.609 50.709 109.409 50.8016C109.209 50.8941 109.063 51.0033 108.97 51.1291C108.882 51.2549 108.837 51.3956 108.837 51.551C108.837 51.6991 108.861 51.8268 108.909 51.9341C108.957 52.0414 109.022 52.1302 109.104 52.2006C109.185 52.2672 109.281 52.3172 109.392 52.3505C109.503 52.3801 109.624 52.3949 109.753 52.3949ZM115.519 53.0888C115.075 53.0888 114.733 52.9648 114.492 52.7169C114.256 52.4689 114.137 52.1117 114.137 51.6454V48.2034H113.46C113.401 48.2034 113.351 48.1868 113.31 48.1535C113.269 48.1164 113.249 48.0609 113.249 47.9869V47.5927L114.17 47.4762L114.398 45.7385C114.405 45.683 114.43 45.6386 114.47 45.6053C114.511 45.5683 114.563 45.5498 114.626 45.5498H115.125V47.4873H116.735V48.2034H115.125V51.5788C115.125 51.8157 115.183 51.9915 115.297 52.1062C115.412 52.2209 115.56 52.2783 115.742 52.2783C115.845 52.2783 115.934 52.2653 116.008 52.2394C116.086 52.2098 116.152 52.1784 116.208 52.1451C116.263 52.1117 116.31 52.0821 116.347 52.0562C116.387 52.0266 116.423 52.0118 116.452 52.0118C116.504 52.0118 116.55 52.0433 116.591 52.1062L116.88 52.5781C116.709 52.7372 116.504 52.8631 116.263 52.9556C116.023 53.0444 115.775 53.0888 115.519 53.0888ZM119.056 47.3762V53H118.068V47.3762H119.056ZM119.278 45.6108C119.278 45.707 119.258 45.7977 119.217 45.8828C119.18 45.9643 119.129 46.0383 119.062 46.1049C118.999 46.1678 118.925 46.2178 118.84 46.2548C118.755 46.2918 118.664 46.3103 118.568 46.3103C118.472 46.3103 118.381 46.2918 118.296 46.2548C118.214 46.2178 118.14 46.1678 118.074 46.1049C118.011 46.0383 117.961 45.9643 117.924 45.8828C117.887 45.7977 117.868 45.707 117.868 45.6108C117.868 45.5146 117.887 45.4239 117.924 45.3388C117.961 45.25 118.011 45.1741 118.074 45.1112C118.14 45.0446 118.214 44.9927 118.296 44.9557C118.381 44.9187 118.472 44.9002 118.568 44.9002C118.664 44.9002 118.755 44.9187 118.84 44.9557C118.925 44.9927 118.999 45.0446 119.062 45.1112C119.129 45.1741 119.18 45.25 119.217 45.3388C119.258 45.4239 119.278 45.5146 119.278 45.6108ZM123.074 47.2874C123.485 47.2874 123.855 47.3559 124.184 47.4928C124.518 47.6298 124.799 47.8241 125.028 48.0757C125.262 48.3274 125.439 48.6327 125.561 48.9917C125.687 49.347 125.75 49.7449 125.75 50.1853C125.75 50.6295 125.687 51.0292 125.561 51.3845C125.439 51.7398 125.262 52.0433 125.028 52.2949C124.799 52.5466 124.518 52.7409 124.184 52.8779C123.855 53.0111 123.485 53.0777 123.074 53.0777C122.663 53.0777 122.291 53.0111 121.958 52.8779C121.629 52.7409 121.348 52.5466 121.114 52.2949C120.881 52.0433 120.702 51.7398 120.576 51.3845C120.45 51.0292 120.387 50.6295 120.387 50.1853C120.387 49.7449 120.45 49.347 120.576 48.9917C120.702 48.6327 120.881 48.3274 121.114 48.0757C121.348 47.8241 121.629 47.6298 121.958 47.4928C122.291 47.3559 122.663 47.2874 123.074 47.2874ZM123.074 52.306C123.629 52.306 124.044 52.121 124.318 51.7509C124.592 51.3771 124.729 50.8571 124.729 50.1909C124.729 49.521 124.592 48.9991 124.318 48.6253C124.044 48.2515 123.629 48.0646 123.074 48.0646C122.793 48.0646 122.549 48.1127 122.341 48.209C122.134 48.3052 121.96 48.444 121.82 48.6253C121.683 48.8067 121.579 49.0306 121.509 49.2971C121.442 49.5599 121.409 49.8578 121.409 50.1909C121.409 50.524 121.442 50.8219 121.509 51.0847C121.579 51.3475 121.683 51.5695 121.82 51.7509C121.96 51.9285 122.134 52.0655 122.341 52.1617C122.549 52.2579 122.793 52.306 123.074 52.306ZM126.968 53V47.3762H127.556C127.697 47.3762 127.786 47.4447 127.823 47.5816L127.9 48.1923C128.145 47.9221 128.417 47.7038 128.716 47.5372C129.02 47.3707 129.37 47.2874 129.766 47.2874C130.073 47.2874 130.343 47.3392 130.576 47.4428C130.813 47.5428 131.009 47.6871 131.165 47.8759C131.324 48.0609 131.444 48.2848 131.526 48.5476C131.607 48.8104 131.648 49.1009 131.648 49.4192V53H130.659V49.4192C130.659 48.9936 130.561 48.6642 130.365 48.431C130.173 48.1942 129.877 48.0757 129.477 48.0757C129.185 48.0757 128.911 48.146 128.655 48.2867C128.404 48.4273 128.171 48.6179 127.956 48.8585V53H126.968ZM135.029 49.2527H137.771V50.091H135.029V49.2527ZM143.684 53.0888C143.288 53.0888 142.926 53.037 142.596 52.9334C142.267 52.826 141.984 52.6743 141.747 52.4781C141.51 52.282 141.327 52.0451 141.197 51.7675C141.068 51.4863 141.003 51.1717 141.003 50.8238C141.003 50.313 141.136 49.893 141.403 49.5636C141.669 49.2305 142.05 48.9936 142.546 48.853C142.128 48.6975 141.811 48.4662 141.597 48.159C141.386 47.8481 141.28 47.478 141.28 47.0487C141.28 46.7563 141.338 46.4824 141.452 46.227C141.567 45.9717 141.73 45.7496 141.941 45.5609C142.152 45.3721 142.404 45.2241 142.696 45.1167C142.992 45.0094 143.322 44.9557 143.684 44.9557C144.043 44.9557 144.371 45.0094 144.667 45.1167C144.963 45.2241 145.216 45.3721 145.427 45.5609C145.638 45.7496 145.801 45.9717 145.916 46.227C146.031 46.4824 146.088 46.7563 146.088 47.0487C146.088 47.478 145.981 47.8481 145.766 48.159C145.551 48.4662 145.237 48.6975 144.822 48.853C145.318 48.9936 145.699 49.2305 145.966 49.5636C146.232 49.893 146.366 50.313 146.366 50.8238C146.366 51.1717 146.299 51.4863 146.166 51.7675C146.036 52.0451 145.853 52.282 145.616 52.4781C145.383 52.6743 145.102 52.826 144.772 52.9334C144.443 53.037 144.08 53.0888 143.684 53.0888ZM143.684 52.3005C143.943 52.3005 144.175 52.2653 144.378 52.195C144.585 52.121 144.759 52.0192 144.9 51.8897C145.044 51.7564 145.154 51.5991 145.228 51.4178C145.305 51.2327 145.344 51.0292 145.344 50.8071C145.344 50.5332 145.298 50.3001 145.205 50.1076C145.117 49.9115 144.994 49.7523 144.839 49.6302C144.687 49.508 144.511 49.4192 144.312 49.3637C144.112 49.3045 143.903 49.2749 143.684 49.2749C143.466 49.2749 143.257 49.3045 143.057 49.3637C142.857 49.4192 142.679 49.508 142.524 49.6302C142.372 49.7523 142.25 49.9115 142.158 50.1076C142.069 50.3001 142.024 50.5332 142.024 50.8071C142.024 51.0292 142.061 51.2327 142.135 51.4178C142.213 51.5991 142.322 51.7564 142.463 51.8897C142.607 52.0192 142.781 52.121 142.985 52.195C143.192 52.2653 143.425 52.3005 143.684 52.3005ZM143.684 48.481C143.943 48.481 144.164 48.4421 144.345 48.3644C144.53 48.283 144.68 48.1775 144.795 48.048C144.909 47.9147 144.993 47.763 145.044 47.5927C145.096 47.4225 145.122 47.2467 145.122 47.0653C145.122 46.8803 145.091 46.7063 145.028 46.5435C144.969 46.3806 144.878 46.2381 144.756 46.116C144.637 45.9939 144.487 45.8977 144.306 45.8273C144.128 45.757 143.921 45.7218 143.684 45.7218C143.447 45.7218 143.238 45.757 143.057 45.8273C142.879 45.8977 142.729 45.9939 142.607 46.116C142.489 46.2381 142.398 46.3806 142.335 46.5435C142.276 46.7063 142.246 46.8803 142.246 47.0653C142.246 47.2467 142.272 47.4225 142.324 47.5927C142.376 47.763 142.459 47.9147 142.574 48.048C142.689 48.1775 142.837 48.283 143.018 48.3644C143.203 48.4421 143.425 48.481 143.684 48.481ZM151.924 50.1298H153.128V50.6961C153.128 50.7553 153.11 50.8053 153.073 50.846C153.04 50.8867 152.986 50.907 152.912 50.907H151.924V53H151.052V50.907H147.527C147.453 50.907 147.388 50.8867 147.333 50.846C147.281 50.8016 147.247 50.7479 147.233 50.685L147.133 50.1798L151.002 45.0446H151.924V50.1298ZM151.052 46.8488C151.052 46.7526 151.054 46.649 151.058 46.5379C151.065 46.4269 151.078 46.3122 151.096 46.1937L148.204 50.1298H151.052V46.8488Z" fill="#7B7B7B"/>
<path d="M117.952 148.235C115.217 148.235 112.977 150.456 113.224 153.18C114.06 162.384 117.22 171.25 122.438 178.916C128.585 187.948 137.302 194.892 147.44 198.835C157.578 202.777 168.663 203.533 179.236 201.003C189.809 198.473 199.374 192.776 206.673 184.661C213.971 176.546 218.661 166.394 220.125 155.541C221.589 144.688 219.759 133.643 214.874 123.858C209.99 114.074 202.281 106.01 192.762 100.726C184.703 96.2533 175.666 93.9514 166.52 94.0007C163.767 94.0156 161.762 96.4792 162.029 99.2196C162.297 101.966 164.747 103.944 167.506 103.988C174.649 104.102 181.683 105.973 187.985 109.471C195.752 113.781 202.042 120.362 206.027 128.345C210.013 136.328 211.506 145.341 210.312 154.196C209.117 163.052 205.291 171.335 199.335 177.957C193.38 184.578 185.576 189.227 176.949 191.291C168.322 193.355 159.277 192.738 151.005 189.521C142.732 186.304 135.62 180.638 130.604 173.269C126.518 167.266 123.979 160.361 123.178 153.177C122.875 150.459 120.687 148.235 117.952 148.235Z" fill="#F5F4F4"/>
<path d="M166.808 197.479C166.808 200.235 169.047 202.494 171.792 202.237C177.365 201.714 182.833 200.317 187.997 198.088C194.693 195.196 200.737 190.964 205.762 185.649C210.787 180.334 214.689 174.045 217.232 167.164C219.774 160.284 220.904 152.954 220.553 145.621C220.202 138.287 218.377 131.101 215.189 124.499C212.001 117.897 207.516 112.017 202.006 107.214C196.497 102.411 190.077 98.7853 183.136 96.5573C177.781 94.8383 172.201 93.9788 166.601 94.0004C163.848 94.011 161.839 96.4717 162.102 99.2125C162.366 101.959 164.813 103.941 167.572 103.989C171.827 104.064 176.058 104.762 180.13 106.069C185.794 107.887 191.032 110.845 195.528 114.764C200.024 118.683 203.683 123.481 206.284 128.868C208.885 134.255 210.374 140.118 210.661 146.102C210.947 152.086 210.025 158.066 207.951 163.68C205.876 169.294 202.692 174.426 198.592 178.763C194.492 183.1 189.56 186.553 184.097 188.912C180.166 190.609 176.019 191.715 171.788 192.202C169.05 192.517 166.808 194.722 166.808 197.479Z" fill="#97CCE8"/>
<path d="M94.4156 148.149C91.4246 148.149 88.9806 150.577 89.1865 153.561C90.1442 167.435 94.7707 180.837 102.632 192.359C111.512 205.374 124.102 215.38 138.746 221.061C153.391 226.742 169.403 227.831 184.675 224.186C199.946 220.54 213.763 212.331 224.305 200.638C234.847 188.945 241.622 174.316 243.736 158.678C245.851 143.039 243.207 127.123 236.152 113.024C229.097 98.9256 217.962 87.3052 204.212 79.6924C192.055 72.9611 178.357 69.642 164.549 70.0305C161.545 70.115 159.358 72.7974 159.65 75.7881C159.943 78.7833 162.612 80.9496 165.621 80.8998C177.244 80.7073 188.75 83.5642 198.988 89.2324C210.821 95.7843 220.405 105.785 226.476 117.919C232.548 130.053 234.824 143.751 233.004 157.21C231.184 170.67 225.354 183.26 216.281 193.323C207.207 203.387 195.316 210.452 182.173 213.59C169.029 216.727 155.249 215.789 142.645 210.9C130.042 206.011 119.206 197.399 111.564 186.198C104.94 176.49 100.985 165.232 100.048 153.559C99.8086 150.578 97.4065 148.149 94.4156 148.149Z" fill="#F5F4F4"/>
<path d="M237.158 165.285C239.976 165.971 242.834 164.239 243.323 161.38C245.118 150.872 244.759 140.087 242.246 129.69C239.32 117.588 233.56 106.365 225.446 96.9546C217.332 87.5446 207.098 80.2209 195.598 75.5937C185.731 71.6233 175.176 69.737 164.589 70.0294C161.681 70.1097 159.558 72.6995 159.833 75.5949C160.108 78.4946 162.685 80.5992 165.597 80.5502C174.514 80.4001 183.391 82.0352 191.703 85.38C201.652 89.383 210.505 95.719 217.525 103.86C224.545 112.001 229.528 121.71 232.059 132.18C234.18 140.952 234.528 150.044 233.103 158.922C232.645 161.776 234.349 164.602 237.158 165.285Z" fill="#CB3476"/>
<path d="M162.325 51.1095C162.258 48.3037 164.479 45.9614 167.285 46.0345C185.621 46.5122 203.52 51.9453 219.064 61.8011C236.041 72.5658 249.444 88.1228 257.579 106.505C265.714 124.887 268.216 145.269 264.767 165.073C261.319 184.877 252.075 203.213 238.205 217.764C224.336 232.314 206.463 242.425 186.847 246.818C167.23 251.21 146.752 249.688 128.002 242.442C109.251 235.196 93.0702 222.553 81.5052 206.111C70.9165 191.057 64.6327 173.438 63.2777 155.146C63.0704 152.347 65.3037 150.016 68.1095 149.949C70.9154 149.882 73.2297 152.104 73.4526 154.902C74.7496 171.183 80.3863 186.854 89.8183 200.263C100.227 215.061 114.79 226.44 131.665 232.961C148.541 239.482 166.971 240.853 184.626 236.9C202.28 232.946 218.366 223.847 230.849 210.751C243.331 197.656 251.651 181.153 254.754 163.329C257.858 145.506 255.607 127.162 248.285 110.618C240.963 94.0743 228.9 80.0729 213.621 70.3847C199.776 61.6055 183.853 56.7254 167.528 56.2094C164.723 56.1207 162.392 53.9154 162.325 51.1095Z" fill="#F5F4F4"/>
<path d="M162.325 51.1095C162.258 48.3037 164.48 45.9614 167.285 46.0344C190.204 46.6312 212.306 54.966 229.949 69.7626C248.893 85.6502 261.395 107.898 265.116 132.34C268.837 156.783 263.521 181.743 250.164 202.548C237.723 221.925 219.103 236.459 197.4 243.849C194.743 244.753 191.925 243.178 191.154 240.48C190.383 237.781 191.952 234.982 194.604 234.062C213.931 227.362 230.507 214.353 241.611 197.057C253.633 178.333 258.417 155.868 255.068 133.87C251.719 111.872 240.467 91.8489 223.418 77.55C207.67 64.3425 187.974 56.8554 167.529 56.2093C164.723 56.1207 162.392 53.9154 162.325 51.1095Z" fill="#0303F5"/>
</svg>
