<svg width="417" height="278" viewBox="0 0 417 278" fill="none" xmlns="http://www.w3.org/2000/svg">
<rect x="0.5" y="0.5" width="416" height="277" rx="4.5" fill="white" stroke="#E0E0E0"/>
<path d="M166.569 34.0357C185.07 34.5406 203.029 40.3851 218.284 50.8649C233.538 61.3446 245.436 76.0123 252.544 93.1003C259.652 110.188 261.666 128.967 258.344 147.174C255.022 165.381 246.506 182.238 233.821 195.715L204.932 168.523C212.372 160.619 217.367 150.732 219.315 140.053C221.264 129.374 220.082 118.36 215.913 108.337C211.744 98.3148 204.766 89.7118 195.819 83.5652C186.871 77.4186 176.338 73.9907 165.487 73.6945L166.569 34.0357Z" fill="#0303F5"/>
<path d="M83.3846 182.063C91.1553 194.077 101.514 204.201 113.704 211.694C125.893 219.187 139.603 223.859 153.831 225.368C168.059 226.877 182.445 225.185 195.935 220.415C209.424 215.646 221.677 207.92 231.795 197.804L203.492 169.498C197.595 175.394 190.454 179.897 182.592 182.677C174.73 185.456 166.346 186.442 158.053 185.563C149.761 184.683 141.77 181.96 134.665 177.593C127.561 173.226 121.524 167.326 116.995 160.324L83.3846 182.063Z" fill="#CB3476"/>
<path d="M72.7445 100.153C68.3959 113.463 67.0131 127.563 68.6932 141.464C70.3733 155.366 75.0757 168.731 82.4701 180.622L116.288 159.592C111.962 152.636 109.212 144.818 108.229 136.686C107.246 128.554 108.055 120.306 110.599 112.52L72.7445 100.153Z" fill="#97CCE8"/>
<rect x="51" y="131" width="33" height="16" rx="3" fill="#808080"/>
<path d="M63.5082 136.948L62.2496 137.981L61.6203 137.235L63.6071 135.635H64.587V142H63.5082V136.948ZM66.9456 135.635H71.2697V136.624L68.7256 142H67.458L70.137 136.606H66.9456V135.635Z" fill="white"/>
<path d="M163.951 34C144.062 34 124.664 40.1806 108.441 51.687C92.2185 63.1933 79.972 79.4566 73.3961 98.2273L110.617 111.267C114.49 100.211 121.703 90.6326 131.257 83.8557C140.812 77.0787 152.237 73.4385 163.951 73.4385V34Z" fill="#DBECF8"/>
<path d="M324.857 33.2191H326.242V39.7691H329.55V41H324.857V33.2191ZM333.679 40.3296H333.646C333.515 40.5641 333.302 40.7582 333.009 40.9121C332.716 41.0586 332.383 41.1319 332.009 41.1319C331.796 41.1319 331.573 41.1026 331.339 41.044C331.111 40.9927 330.899 40.9048 330.701 40.7802C330.511 40.6483 330.349 40.4798 330.218 40.2747C330.093 40.0622 330.031 39.8021 330.031 39.4944C330.031 39.0987 330.141 38.7837 330.36 38.5492C330.588 38.3148 330.877 38.1353 331.229 38.0107C331.58 37.8862 331.969 37.8056 332.394 37.7689C332.826 37.725 333.247 37.703 333.657 37.703V37.5711C333.657 37.2414 333.537 36.9996 333.295 36.8458C333.06 36.6846 332.778 36.604 332.448 36.604C332.17 36.604 331.903 36.6626 331.646 36.7798C331.39 36.8971 331.177 37.0399 331.009 37.2084L330.327 36.4062C330.628 36.1278 330.972 35.9189 331.36 35.7797C331.756 35.6405 332.155 35.5709 332.558 35.5709C333.027 35.5709 333.412 35.6369 333.712 35.7687C334.02 35.9006 334.262 36.0728 334.438 36.2853C334.614 36.4978 334.734 36.7359 334.8 36.9996C334.874 37.2634 334.91 37.5272 334.91 37.7909V41H333.679V40.3296ZM333.657 38.5932H333.361C333.148 38.5932 332.925 38.6042 332.69 38.6262C332.456 38.6408 332.24 38.6811 332.042 38.747C331.844 38.8057 331.679 38.8936 331.547 39.0108C331.415 39.1207 331.349 39.2746 331.349 39.4724C331.349 39.5969 331.375 39.7032 331.426 39.7911C331.485 39.8717 331.558 39.9376 331.646 39.9889C331.734 40.0402 331.833 40.0768 331.943 40.0988C332.053 40.1208 332.163 40.1318 332.273 40.1318C332.727 40.1318 333.071 40.0109 333.306 39.7691C333.54 39.5273 333.657 39.1976 333.657 38.78V38.5932ZM337.788 32.6915V36.3952H337.82C337.886 36.3073 337.971 36.2157 338.073 36.1204C338.176 36.0252 338.297 35.9373 338.436 35.8567C338.582 35.7761 338.751 35.7101 338.941 35.6588C339.132 35.6002 339.348 35.5709 339.59 35.5709C339.964 35.5709 340.308 35.6442 340.623 35.7907C340.938 35.9299 341.209 36.1241 341.436 36.3732C341.663 36.6223 341.839 36.9154 341.964 37.2524C342.088 37.5894 342.151 37.9521 342.151 38.3404C342.151 38.7287 342.088 39.0951 341.964 39.4394C341.846 39.7764 341.674 40.0732 341.447 40.3296C341.227 40.5787 340.956 40.7802 340.634 40.9341C340.319 41.0806 339.96 41.1539 339.557 41.1539C339.183 41.1539 338.832 41.0733 338.502 40.9121C338.179 40.7509 337.927 40.5164 337.744 40.2087H337.722V41H336.469V32.6915H337.788ZM340.81 38.3404C340.81 38.1353 340.777 37.9338 340.711 37.736C340.652 37.5308 340.561 37.3476 340.436 37.1865C340.312 37.0253 340.154 36.8971 339.964 36.8018C339.773 36.6992 339.55 36.6479 339.293 36.6479C339.051 36.6479 338.835 36.6992 338.645 36.8018C338.454 36.9044 338.289 37.0363 338.15 37.1975C338.018 37.3586 337.916 37.5418 337.842 37.747C337.777 37.9521 337.744 38.1572 337.744 38.3624C337.744 38.5675 337.777 38.7727 337.842 38.9778C337.916 39.1757 338.018 39.3552 338.15 39.5163C338.289 39.6775 338.454 39.8094 338.645 39.912C338.835 40.0072 339.051 40.0549 339.293 40.0549C339.55 40.0549 339.773 40.0036 339.964 39.901C340.154 39.7984 340.312 39.6665 340.436 39.5054C340.561 39.3442 340.652 39.161 340.711 38.9559C340.777 38.7507 340.81 38.5456 340.81 38.3404ZM347.137 37.8349C347.137 37.6664 347.112 37.5052 347.061 37.3513C347.017 37.1975 346.943 37.0619 346.841 36.9447C346.738 36.8275 346.606 36.7359 346.445 36.6699C346.291 36.5967 346.108 36.56 345.896 36.56C345.5 36.56 345.163 36.6809 344.884 36.9227C344.613 37.1572 344.463 37.4612 344.434 37.8349H347.137ZM348.456 38.4283C348.456 38.4869 348.456 38.5456 348.456 38.6042C348.456 38.6628 348.453 38.7214 348.445 38.78H344.434C344.449 38.9705 344.496 39.1463 344.577 39.3075C344.665 39.4614 344.778 39.5969 344.917 39.7142C345.057 39.8241 345.214 39.912 345.39 39.9779C345.566 40.0439 345.749 40.0768 345.94 40.0768C346.269 40.0768 346.548 40.0182 346.775 39.901C347.002 39.7764 347.189 39.6079 347.335 39.3955L348.214 40.0988C347.694 40.8022 346.94 41.1539 345.951 41.1539C345.54 41.1539 345.163 41.0916 344.819 40.967C344.474 40.8351 344.174 40.652 343.917 40.4175C343.668 40.1831 343.47 39.8973 343.324 39.5603C343.185 39.216 343.115 38.8276 343.115 38.3954C343.115 37.9704 343.185 37.5858 343.324 37.2414C343.47 36.8897 343.668 36.593 343.917 36.3512C344.166 36.1021 344.46 35.9116 344.797 35.7797C345.141 35.6405 345.511 35.5709 345.907 35.5709C346.273 35.5709 346.61 35.6332 346.918 35.7578C347.233 35.875 347.504 36.0545 347.731 36.2963C347.958 36.5307 348.134 36.8275 348.258 37.1865C348.39 37.5381 348.456 37.9521 348.456 38.4283ZM349.755 32.6915H351.074V41H349.755V32.6915ZM357.697 34.8236L356.158 36.0875L355.389 35.1753L357.818 33.2191H359.015V41H357.697V34.8236Z" fill="#33373D"/>
<path d="M324.857 90.2191H326.242V96.7691H329.55V98H324.857V90.2191ZM333.679 97.3296H333.646C333.515 97.5641 333.302 97.7582 333.009 97.9121C332.716 98.0586 332.383 98.1319 332.009 98.1319C331.796 98.1319 331.573 98.1026 331.339 98.044C331.111 97.9927 330.899 97.9048 330.701 97.7802C330.511 97.6483 330.349 97.4798 330.218 97.2747C330.093 97.0622 330.031 96.8021 330.031 96.4944C330.031 96.0987 330.141 95.7837 330.36 95.5492C330.588 95.3148 330.877 95.1353 331.229 95.0107C331.58 94.8862 331.969 94.8056 332.394 94.7689C332.826 94.725 333.247 94.703 333.657 94.703V94.5711C333.657 94.2414 333.537 93.9996 333.295 93.8458C333.06 93.6846 332.778 93.604 332.448 93.604C332.17 93.604 331.903 93.6626 331.646 93.7798C331.39 93.8971 331.177 94.0399 331.009 94.2084L330.327 93.4062C330.628 93.1278 330.972 92.9189 331.36 92.7797C331.756 92.6405 332.155 92.5709 332.558 92.5709C333.027 92.5709 333.412 92.6369 333.712 92.7687C334.02 92.9006 334.262 93.0728 334.438 93.2853C334.614 93.4978 334.734 93.7359 334.8 93.9996C334.874 94.2634 334.91 94.5272 334.91 94.7909V98H333.679V97.3296ZM333.657 95.5932H333.361C333.148 95.5932 332.925 95.6042 332.69 95.6262C332.456 95.6408 332.24 95.6811 332.042 95.747C331.844 95.8057 331.679 95.8936 331.547 96.0108C331.415 96.1207 331.349 96.2746 331.349 96.4724C331.349 96.5969 331.375 96.7032 331.426 96.7911C331.485 96.8717 331.558 96.9376 331.646 96.9889C331.734 97.0402 331.833 97.0768 331.943 97.0988C332.053 97.1208 332.163 97.1318 332.273 97.1318C332.727 97.1318 333.071 97.0109 333.306 96.7691C333.54 96.5273 333.657 96.1976 333.657 95.78V95.5932ZM337.788 89.6915V93.3952H337.82C337.886 93.3073 337.971 93.2157 338.073 93.1204C338.176 93.0252 338.297 92.9373 338.436 92.8567C338.582 92.7761 338.751 92.7101 338.941 92.6588C339.132 92.6002 339.348 92.5709 339.59 92.5709C339.964 92.5709 340.308 92.6442 340.623 92.7907C340.938 92.9299 341.209 93.1241 341.436 93.3732C341.663 93.6223 341.839 93.9154 341.964 94.2524C342.088 94.5894 342.151 94.9521 342.151 95.3404C342.151 95.7287 342.088 96.0951 341.964 96.4394C341.846 96.7764 341.674 97.0732 341.447 97.3296C341.227 97.5787 340.956 97.7802 340.634 97.9341C340.319 98.0806 339.96 98.1539 339.557 98.1539C339.183 98.1539 338.832 98.0733 338.502 97.9121C338.179 97.7509 337.927 97.5164 337.744 97.2087H337.722V98H336.469V89.6915H337.788ZM340.81 95.3404C340.81 95.1353 340.777 94.9338 340.711 94.736C340.652 94.5308 340.561 94.3476 340.436 94.1865C340.312 94.0253 340.154 93.8971 339.964 93.8018C339.773 93.6992 339.55 93.6479 339.293 93.6479C339.051 93.6479 338.835 93.6992 338.645 93.8018C338.454 93.9044 338.289 94.0363 338.15 94.1975C338.018 94.3586 337.916 94.5418 337.842 94.747C337.777 94.9521 337.744 95.1572 337.744 95.3624C337.744 95.5675 337.777 95.7727 337.842 95.9778C337.916 96.1757 338.018 96.3552 338.15 96.5163C338.289 96.6775 338.454 96.8094 338.645 96.912C338.835 97.0072 339.051 97.0549 339.293 97.0549C339.55 97.0549 339.773 97.0036 339.964 96.901C340.154 96.7984 340.312 96.6665 340.436 96.5054C340.561 96.3442 340.652 96.161 340.711 95.9559C340.777 95.7507 340.81 95.5456 340.81 95.3404ZM347.137 94.8349C347.137 94.6664 347.112 94.5052 347.061 94.3513C347.017 94.1975 346.943 94.0619 346.841 93.9447C346.738 93.8275 346.606 93.7359 346.445 93.6699C346.291 93.5967 346.108 93.56 345.896 93.56C345.5 93.56 345.163 93.6809 344.884 93.9227C344.613 94.1572 344.463 94.4612 344.434 94.8349H347.137ZM348.456 95.4283C348.456 95.4869 348.456 95.5456 348.456 95.6042C348.456 95.6628 348.453 95.7214 348.445 95.78H344.434C344.449 95.9705 344.496 96.1463 344.577 96.3075C344.665 96.4614 344.778 96.5969 344.917 96.7142C345.057 96.8241 345.214 96.912 345.39 96.9779C345.566 97.0439 345.749 97.0768 345.94 97.0768C346.269 97.0768 346.548 97.0182 346.775 96.901C347.002 96.7764 347.189 96.6079 347.335 96.3955L348.214 97.0988C347.694 97.8022 346.94 98.1539 345.951 98.1539C345.54 98.1539 345.163 98.0916 344.819 97.967C344.474 97.8351 344.174 97.652 343.917 97.4175C343.668 97.1831 343.47 96.8973 343.324 96.5603C343.185 96.216 343.115 95.8276 343.115 95.3954C343.115 94.9704 343.185 94.5858 343.324 94.2414C343.47 93.8897 343.668 93.593 343.917 93.3512C344.166 93.1021 344.46 92.9116 344.797 92.7797C345.141 92.6405 345.511 92.5709 345.907 92.5709C346.273 92.5709 346.61 92.6332 346.918 92.7578C347.233 92.875 347.504 93.0545 347.731 93.2963C347.958 93.5307 348.134 93.8275 348.258 94.1865C348.39 94.5381 348.456 94.9521 348.456 95.4283ZM349.755 89.6915H351.074V98H349.755V89.6915ZM355.389 96.7911L358.389 93.8458C358.631 93.6113 358.821 93.3769 358.96 93.1424C359.107 92.9006 359.18 92.6259 359.18 92.3182C359.18 91.9518 359.059 91.6624 358.818 91.4499C358.583 91.2301 358.29 91.1202 357.938 91.1202C357.565 91.1202 357.264 91.2485 357.037 91.5049C356.81 91.754 356.671 92.069 356.62 92.45L355.334 92.2522C355.37 91.9298 355.462 91.6331 355.609 91.362C355.755 91.0909 355.942 90.8565 356.169 90.6587C356.396 90.4608 356.66 90.307 356.96 90.1971C357.268 90.0799 357.601 90.0212 357.96 90.0212C358.297 90.0212 358.62 90.0689 358.928 90.1641C359.243 90.2594 359.521 90.4059 359.763 90.6037C360.005 90.7942 360.195 91.0323 360.334 91.3181C360.481 91.5965 360.554 91.9225 360.554 92.2962C360.554 92.5453 360.521 92.7797 360.455 92.9995C360.389 93.212 360.298 93.4135 360.18 93.604C360.07 93.7945 359.939 93.9777 359.785 94.1535C359.638 94.322 359.477 94.4869 359.301 94.648L357.059 96.7911H360.565V98H355.389V96.7911Z" fill="#33373D"/>
<path d="M324.857 150.219H326.242V156.769H329.55V158H324.857V150.219ZM333.679 157.33H333.646C333.515 157.564 333.302 157.758 333.009 157.912C332.716 158.059 332.383 158.132 332.009 158.132C331.796 158.132 331.573 158.103 331.339 158.044C331.111 157.993 330.899 157.905 330.701 157.78C330.511 157.648 330.349 157.48 330.218 157.275C330.093 157.062 330.031 156.802 330.031 156.494C330.031 156.099 330.141 155.784 330.36 155.549C330.588 155.315 330.877 155.135 331.229 155.011C331.58 154.886 331.969 154.806 332.394 154.769C332.826 154.725 333.247 154.703 333.657 154.703V154.571C333.657 154.241 333.537 154 333.295 153.846C333.06 153.685 332.778 153.604 332.448 153.604C332.17 153.604 331.903 153.663 331.646 153.78C331.39 153.897 331.177 154.04 331.009 154.208L330.327 153.406C330.628 153.128 330.972 152.919 331.36 152.78C331.756 152.641 332.155 152.571 332.558 152.571C333.027 152.571 333.412 152.637 333.712 152.769C334.02 152.901 334.262 153.073 334.438 153.285C334.614 153.498 334.734 153.736 334.8 154C334.874 154.263 334.91 154.527 334.91 154.791V158H333.679V157.33ZM333.657 155.593H333.361C333.148 155.593 332.925 155.604 332.69 155.626C332.456 155.641 332.24 155.681 332.042 155.747C331.844 155.806 331.679 155.894 331.547 156.011C331.415 156.121 331.349 156.275 331.349 156.472C331.349 156.597 331.375 156.703 331.426 156.791C331.485 156.872 331.558 156.938 331.646 156.989C331.734 157.04 331.833 157.077 331.943 157.099C332.053 157.121 332.163 157.132 332.273 157.132C332.727 157.132 333.071 157.011 333.306 156.769C333.54 156.527 333.657 156.198 333.657 155.78V155.593ZM337.788 149.692V153.395H337.82C337.886 153.307 337.971 153.216 338.073 153.12C338.176 153.025 338.297 152.937 338.436 152.857C338.582 152.776 338.751 152.71 338.941 152.659C339.132 152.6 339.348 152.571 339.59 152.571C339.964 152.571 340.308 152.644 340.623 152.791C340.938 152.93 341.209 153.124 341.436 153.373C341.663 153.622 341.839 153.915 341.964 154.252C342.088 154.589 342.151 154.952 342.151 155.34C342.151 155.729 342.088 156.095 341.964 156.439C341.846 156.776 341.674 157.073 341.447 157.33C341.227 157.579 340.956 157.78 340.634 157.934C340.319 158.081 339.96 158.154 339.557 158.154C339.183 158.154 338.832 158.073 338.502 157.912C338.179 157.751 337.927 157.516 337.744 157.209H337.722V158H336.469V149.692H337.788ZM340.81 155.34C340.81 155.135 340.777 154.934 340.711 154.736C340.652 154.531 340.561 154.348 340.436 154.186C340.312 154.025 340.154 153.897 339.964 153.802C339.773 153.699 339.55 153.648 339.293 153.648C339.051 153.648 338.835 153.699 338.645 153.802C338.454 153.904 338.289 154.036 338.15 154.197C338.018 154.359 337.916 154.542 337.842 154.747C337.777 154.952 337.744 155.157 337.744 155.362C337.744 155.568 337.777 155.773 337.842 155.978C337.916 156.176 338.018 156.355 338.15 156.516C338.289 156.678 338.454 156.809 338.645 156.912C338.835 157.007 339.051 157.055 339.293 157.055C339.55 157.055 339.773 157.004 339.964 156.901C340.154 156.798 340.312 156.667 340.436 156.505C340.561 156.344 340.652 156.161 340.711 155.956C340.777 155.751 340.81 155.546 340.81 155.34ZM347.137 154.835C347.137 154.666 347.112 154.505 347.061 154.351C347.017 154.197 346.943 154.062 346.841 153.945C346.738 153.827 346.606 153.736 346.445 153.67C346.291 153.597 346.108 153.56 345.896 153.56C345.5 153.56 345.163 153.681 344.884 153.923C344.613 154.157 344.463 154.461 344.434 154.835H347.137ZM348.456 155.428C348.456 155.487 348.456 155.546 348.456 155.604C348.456 155.663 348.453 155.721 348.445 155.78H344.434C344.449 155.971 344.496 156.146 344.577 156.308C344.665 156.461 344.778 156.597 344.917 156.714C345.057 156.824 345.214 156.912 345.39 156.978C345.566 157.044 345.749 157.077 345.94 157.077C346.269 157.077 346.548 157.018 346.775 156.901C347.002 156.776 347.189 156.608 347.335 156.395L348.214 157.099C347.694 157.802 346.94 158.154 345.951 158.154C345.54 158.154 345.163 158.092 344.819 157.967C344.474 157.835 344.174 157.652 343.917 157.418C343.668 157.183 343.47 156.897 343.324 156.56C343.185 156.216 343.115 155.828 343.115 155.395C343.115 154.97 343.185 154.586 343.324 154.241C343.47 153.89 343.668 153.593 343.917 153.351C344.166 153.102 344.46 152.912 344.797 152.78C345.141 152.641 345.511 152.571 345.907 152.571C346.273 152.571 346.61 152.633 346.918 152.758C347.233 152.875 347.504 153.054 347.731 153.296C347.958 153.531 348.134 153.827 348.258 154.186C348.39 154.538 348.456 154.952 348.456 155.428ZM349.755 149.692H351.074V158H349.755V149.692ZM356.96 153.417H357.312C357.51 153.417 357.704 153.403 357.894 153.373C358.092 153.337 358.272 153.274 358.433 153.186C358.594 153.098 358.722 152.981 358.818 152.835C358.92 152.681 358.971 152.483 358.971 152.241C358.971 152.065 358.938 151.908 358.873 151.769C358.807 151.629 358.715 151.512 358.598 151.417C358.488 151.322 358.356 151.248 358.202 151.197C358.056 151.146 357.902 151.12 357.741 151.12C357.418 151.12 357.151 151.212 356.938 151.395C356.726 151.578 356.579 151.82 356.499 152.12L355.257 151.802C355.323 151.538 355.433 151.3 355.587 151.087C355.748 150.867 355.938 150.681 356.158 150.527C356.385 150.366 356.638 150.241 356.916 150.153C357.195 150.065 357.488 150.021 357.796 150.021C358.133 150.021 358.451 150.069 358.752 150.164C359.059 150.252 359.327 150.388 359.554 150.571C359.788 150.747 359.972 150.966 360.103 151.23C360.235 151.494 360.301 151.802 360.301 152.153C360.301 152.571 360.173 152.945 359.917 153.274C359.667 153.597 359.33 153.809 358.906 153.912V153.934C359.382 154.029 359.766 154.245 360.059 154.582C360.36 154.912 360.51 155.318 360.51 155.802C360.51 156.205 360.429 156.557 360.268 156.857C360.114 157.157 359.906 157.407 359.642 157.604C359.385 157.802 359.096 157.949 358.774 158.044C358.451 158.147 358.125 158.198 357.796 158.198C357.466 158.198 357.154 158.161 356.861 158.088C356.568 158.022 356.297 157.916 356.048 157.769C355.806 157.623 355.59 157.432 355.4 157.198C355.217 156.963 355.074 156.685 354.971 156.362L356.202 155.978C356.297 156.286 356.473 156.546 356.729 156.758C356.993 156.971 357.334 157.077 357.752 157.077C357.92 157.077 358.089 157.055 358.257 157.011C358.433 156.96 358.587 156.883 358.719 156.78C358.858 156.678 358.968 156.546 359.048 156.384C359.136 156.223 359.18 156.025 359.18 155.791C359.18 155.542 359.118 155.333 358.993 155.165C358.876 154.989 358.726 154.853 358.543 154.758C358.36 154.655 358.155 154.582 357.927 154.538C357.708 154.494 357.495 154.472 357.29 154.472H356.96V153.417Z" fill="#33373D"/>
<path d="M324.857 208.219H326.242V214.769H329.55V216H324.857V208.219ZM333.679 215.33H333.646C333.515 215.564 333.302 215.758 333.009 215.912C332.716 216.059 332.383 216.132 332.009 216.132C331.796 216.132 331.573 216.103 331.339 216.044C331.111 215.993 330.899 215.905 330.701 215.78C330.511 215.648 330.349 215.48 330.218 215.275C330.093 215.062 330.031 214.802 330.031 214.494C330.031 214.099 330.141 213.784 330.36 213.549C330.588 213.315 330.877 213.135 331.229 213.011C331.58 212.886 331.969 212.806 332.394 212.769C332.826 212.725 333.247 212.703 333.657 212.703V212.571C333.657 212.241 333.537 212 333.295 211.846C333.06 211.685 332.778 211.604 332.448 211.604C332.17 211.604 331.903 211.663 331.646 211.78C331.39 211.897 331.177 212.04 331.009 212.208L330.327 211.406C330.628 211.128 330.972 210.919 331.36 210.78C331.756 210.641 332.155 210.571 332.558 210.571C333.027 210.571 333.412 210.637 333.712 210.769C334.02 210.901 334.262 211.073 334.438 211.285C334.614 211.498 334.734 211.736 334.8 212C334.874 212.263 334.91 212.527 334.91 212.791V216H333.679V215.33ZM333.657 213.593H333.361C333.148 213.593 332.925 213.604 332.69 213.626C332.456 213.641 332.24 213.681 332.042 213.747C331.844 213.806 331.679 213.894 331.547 214.011C331.415 214.121 331.349 214.275 331.349 214.472C331.349 214.597 331.375 214.703 331.426 214.791C331.485 214.872 331.558 214.938 331.646 214.989C331.734 215.04 331.833 215.077 331.943 215.099C332.053 215.121 332.163 215.132 332.273 215.132C332.727 215.132 333.071 215.011 333.306 214.769C333.54 214.527 333.657 214.198 333.657 213.78V213.593ZM337.788 207.692V211.395H337.82C337.886 211.307 337.971 211.216 338.073 211.12C338.176 211.025 338.297 210.937 338.436 210.857C338.582 210.776 338.751 210.71 338.941 210.659C339.132 210.6 339.348 210.571 339.59 210.571C339.964 210.571 340.308 210.644 340.623 210.791C340.938 210.93 341.209 211.124 341.436 211.373C341.663 211.622 341.839 211.915 341.964 212.252C342.088 212.589 342.151 212.952 342.151 213.34C342.151 213.729 342.088 214.095 341.964 214.439C341.846 214.776 341.674 215.073 341.447 215.33C341.227 215.579 340.956 215.78 340.634 215.934C340.319 216.081 339.96 216.154 339.557 216.154C339.183 216.154 338.832 216.073 338.502 215.912C338.179 215.751 337.927 215.516 337.744 215.209H337.722V216H336.469V207.692H337.788ZM340.81 213.34C340.81 213.135 340.777 212.934 340.711 212.736C340.652 212.531 340.561 212.348 340.436 212.186C340.312 212.025 340.154 211.897 339.964 211.802C339.773 211.699 339.55 211.648 339.293 211.648C339.051 211.648 338.835 211.699 338.645 211.802C338.454 211.904 338.289 212.036 338.15 212.197C338.018 212.359 337.916 212.542 337.842 212.747C337.777 212.952 337.744 213.157 337.744 213.362C337.744 213.568 337.777 213.773 337.842 213.978C337.916 214.176 338.018 214.355 338.15 214.516C338.289 214.678 338.454 214.809 338.645 214.912C338.835 215.007 339.051 215.055 339.293 215.055C339.55 215.055 339.773 215.004 339.964 214.901C340.154 214.798 340.312 214.667 340.436 214.505C340.561 214.344 340.652 214.161 340.711 213.956C340.777 213.751 340.81 213.546 340.81 213.34ZM347.137 212.835C347.137 212.666 347.112 212.505 347.061 212.351C347.017 212.197 346.943 212.062 346.841 211.945C346.738 211.827 346.606 211.736 346.445 211.67C346.291 211.597 346.108 211.56 345.896 211.56C345.5 211.56 345.163 211.681 344.884 211.923C344.613 212.157 344.463 212.461 344.434 212.835H347.137ZM348.456 213.428C348.456 213.487 348.456 213.546 348.456 213.604C348.456 213.663 348.453 213.721 348.445 213.78H344.434C344.449 213.971 344.496 214.146 344.577 214.308C344.665 214.461 344.778 214.597 344.917 214.714C345.057 214.824 345.214 214.912 345.39 214.978C345.566 215.044 345.749 215.077 345.94 215.077C346.269 215.077 346.548 215.018 346.775 214.901C347.002 214.776 347.189 214.608 347.335 214.395L348.214 215.099C347.694 215.802 346.94 216.154 345.951 216.154C345.54 216.154 345.163 216.092 344.819 215.967C344.474 215.835 344.174 215.652 343.917 215.418C343.668 215.183 343.47 214.897 343.324 214.56C343.185 214.216 343.115 213.828 343.115 213.395C343.115 212.97 343.185 212.586 343.324 212.241C343.47 211.89 343.668 211.593 343.917 211.351C344.166 211.102 344.46 210.912 344.797 210.78C345.141 210.641 345.511 210.571 345.907 210.571C346.273 210.571 346.61 210.633 346.918 210.758C347.233 210.875 347.504 211.054 347.731 211.296C347.958 211.531 348.134 211.827 348.258 212.186C348.39 212.538 348.456 212.952 348.456 213.428ZM349.755 207.692H351.074V216H349.755V207.692ZM358.455 214.384H354.861V213.22L358.169 208.219H359.752V213.252H360.84V214.384H359.752V216H358.455V214.384ZM358.455 209.769H358.433L356.224 213.252H358.455V209.769Z" fill="#33373D"/>
<path d="M326.496 59H328.017V50.329H326.691L324.195 52.851L325.079 53.774L326.496 52.305V59ZM329.25 57.752C329.835 58.532 330.979 59.156 332.526 59.156C334.528 59.156 335.789 58.103 335.789 56.634C335.789 55.295 334.619 54.606 333.774 54.528C334.671 54.372 335.659 53.696 335.659 52.539C335.659 51.083 334.398 50.199 332.526 50.199C331.083 50.199 330.03 50.784 329.367 51.564L330.147 52.513C330.771 51.889 331.499 51.551 332.383 51.551C333.358 51.551 334.138 51.967 334.138 52.773C334.138 53.566 333.371 53.917 332.357 53.917C332.019 53.917 331.512 53.917 331.356 53.904V55.269C331.486 55.256 331.993 55.256 332.357 55.256C333.592 55.256 334.281 55.62 334.281 56.478C334.281 57.284 333.618 57.804 332.474 57.804C331.551 57.804 330.628 57.401 330.069 56.751L329.25 57.752ZM337.079 53.54C337.079 54.034 337.495 54.45 337.989 54.45C338.483 54.45 338.899 54.034 338.899 53.54C338.899 53.046 338.483 52.63 337.989 52.63C337.495 52.63 337.079 53.046 337.079 53.54ZM337.079 58.233C337.079 58.727 337.495 59.143 337.989 59.143C338.483 59.143 338.899 58.727 338.899 58.233C338.899 57.739 338.483 57.323 337.989 57.323C337.495 57.323 337.079 57.739 337.079 58.233ZM340.24 59H346.519V57.661H342.671C344.998 55.906 346.467 54.476 346.467 52.877C346.467 51.148 344.998 50.199 343.321 50.199C342.112 50.199 340.89 50.667 340.123 51.59L341.007 52.591C341.553 51.967 342.333 51.551 343.347 51.551C344.14 51.551 344.92 51.967 344.92 52.877C344.92 54.125 343.607 55.256 340.24 57.804V59ZM347.971 59H354.25V57.661H350.402C352.729 55.906 354.198 54.476 354.198 52.877C354.198 51.148 352.729 50.199 351.052 50.199C349.843 50.199 348.621 50.667 347.854 51.59L348.738 52.591C349.284 51.967 350.064 51.551 351.078 51.551C351.871 51.551 352.651 51.967 352.651 52.877C352.651 54.125 351.338 55.256 347.971 57.804V59ZM355.729 53.54C355.729 54.034 356.145 54.45 356.639 54.45C357.133 54.45 357.549 54.034 357.549 53.54C357.549 53.046 357.133 52.63 356.639 52.63C356.145 52.63 355.729 53.046 355.729 53.54ZM355.729 58.233C355.729 58.727 356.145 59.143 356.639 59.143C357.133 59.143 357.549 58.727 357.549 58.233C357.549 57.739 357.133 57.323 356.639 57.323C356.145 57.323 355.729 57.739 355.729 58.233ZM362.737 59H364.258V57.037H365.415V55.698H364.258V50.329H362.165L358.603 55.815V57.037H362.737V59ZM362.737 51.694V55.698H360.098L362.737 51.694ZM366.508 57.817C367.21 58.649 368.237 59.156 369.732 59.156C371.669 59.156 373.034 58.025 373.034 56.218C373.034 54.45 371.721 53.423 370.265 53.423C369.433 53.423 368.718 53.761 368.302 54.177V51.668H372.462V50.329H366.781V55.178L367.86 55.49C368.406 54.97 369.017 54.736 369.758 54.736C370.824 54.736 371.5 55.347 371.5 56.283C371.5 57.128 370.811 57.804 369.719 57.804C368.744 57.804 367.964 57.44 367.379 56.777L366.508 57.817Z" fill="#818894"/>
<path d="M326.496 114H328.017V105.329H326.691L324.195 107.851L325.079 108.774L326.496 107.305V114ZM329.471 109.671C329.471 111.855 330.511 114.156 332.942 114.156C335.373 114.156 336.413 111.855 336.413 109.671C336.413 107.487 335.373 105.199 332.942 105.199C330.511 105.199 329.471 107.487 329.471 109.671ZM334.866 109.671C334.866 111.322 334.359 112.804 332.942 112.804C331.525 112.804 331.018 111.322 331.018 109.671C331.018 108.02 331.525 106.551 332.942 106.551C334.359 106.551 334.866 108.02 334.866 109.671ZM337.482 109.671C337.482 111.855 338.522 114.156 340.953 114.156C343.384 114.156 344.424 111.855 344.424 109.671C344.424 107.487 343.384 105.199 340.953 105.199C338.522 105.199 337.482 107.487 337.482 109.671ZM342.877 109.671C342.877 111.322 342.37 112.804 340.953 112.804C339.536 112.804 339.029 111.322 339.029 109.671C339.029 108.02 339.536 106.551 340.953 106.551C342.37 106.551 342.877 108.02 342.877 109.671Z" fill="#818894"/>
<path d="M326.496 174H328.017V165.329H326.691L324.195 167.851L325.079 168.774L326.496 167.305V174ZM330.511 174H332.175L335.542 166.382V165.329H329.289V166.668H333.787L330.511 174Z" fill="#818894"/>
<path d="M326.496 232H328.017V223.329H326.691L324.195 225.851L325.079 226.774L326.496 225.305V232ZM330.511 232H332.175L335.542 224.382V223.329H329.289V224.668H333.787L330.511 232Z" fill="#818894"/>
<rect x="313" y="31" width="2.53616" height="16.9077" rx="0.845387" fill="#0303F5"/>
<rect x="313" y="88" width="2.53616" height="16.9077" rx="0.845387" fill="#CB3476"/>
<rect x="313" y="148" width="2.53616" height="16.9077" rx="0.845387" fill="#97CCE8"/>
<rect x="313" y="206" width="2.53616" height="16.9077" rx="0.845387" fill="#DBECF8"/>
<g opacity="0.5" filter="url(#filter0_f_648_9747)">
<ellipse cx="161.817" cy="243.804" rx="74.8167" ry="3.80424" fill="#C4C4C4"/>
</g>
<defs>
<filter id="filter0_f_648_9747" x="76.8554" y="229.855" width="169.923" height="27.8977" filterUnits="userSpaceOnUse" color-interpolation-filters="sRGB">
<feFlood flood-opacity="0" result="BackgroundImageFix"/>
<feBlend mode="normal" in="SourceGraphic" in2="BackgroundImageFix" result="shape"/>
<feGaussianBlur stdDeviation="5.07232" result="effect1_foregroundBlur_648_9747"/>
</filter>
</defs>
</svg>
