<svg width="391" height="278" viewBox="0 0 391 278" fill="none" xmlns="http://www.w3.org/2000/svg">
<rect x="0.5" y="0.5" width="390" height="277" rx="4.5" fill="white" stroke="#E0E0E0"/>
<path d="M18.2009 81.8489V86H17.5725V82.4773H17.5482L16.555 83.1259V82.5259L17.5908 81.8489H18.2009ZM19.3238 86V85.546L20.7284 84.0907C20.8784 83.9326 21.002 83.7941 21.0993 83.6752C21.198 83.5549 21.2716 83.4407 21.3203 83.3326C21.3689 83.2245 21.3932 83.1096 21.3932 82.988C21.3932 82.8502 21.3608 82.7313 21.2959 82.6313C21.2311 82.53 21.1426 82.4523 21.0304 82.3982C20.9183 82.3428 20.7919 82.3151 20.6514 82.3151C20.5027 82.3151 20.373 82.3455 20.2622 82.4063C20.1514 82.4671 20.0663 82.5529 20.0068 82.6637C19.9474 82.7745 19.9176 82.9043 19.9176 83.0529H19.3197C19.3197 82.8002 19.3778 82.5793 19.494 82.3901C19.6102 82.2009 19.7697 82.0543 19.9724 81.9503C20.1751 81.8449 20.4055 81.7922 20.6635 81.7922C20.9243 81.7922 21.1541 81.8442 21.3527 81.9482C21.5527 82.0509 21.7087 82.1915 21.8209 82.3698C21.9331 82.5468 21.9891 82.7468 21.9891 82.9698C21.9891 83.1238 21.9601 83.2745 21.902 83.4218C21.8452 83.5691 21.7459 83.7333 21.604 83.9143C21.4621 84.094 21.2649 84.3123 21.0122 84.569L20.1872 85.4325V85.4629H22.056V86H19.3238ZM24.2694 86.0689C23.9491 86.0676 23.6755 85.9831 23.4485 85.8156C23.2215 85.648 23.0479 85.4041 22.9276 85.0838C22.8073 84.7636 22.7472 84.3778 22.7472 83.9265C22.7472 83.4765 22.8073 83.0921 22.9276 82.7732C23.0492 82.4543 23.2235 82.2111 23.4505 82.0435C23.6789 81.8759 23.9518 81.7922 24.2694 81.7922C24.5869 81.7922 24.8592 81.8766 25.0862 82.0455C25.3132 82.2131 25.4869 82.4563 25.6071 82.7752C25.7288 83.0928 25.7896 83.4765 25.7896 83.9265C25.7896 84.3792 25.7294 84.7656 25.6092 85.0859C25.4889 85.4048 25.3153 85.6487 25.0883 85.8176C24.8612 85.9851 24.5883 86.0689 24.2694 86.0689ZM24.2694 85.5277C24.5505 85.5277 24.77 85.3906 24.9281 85.1163C25.0876 84.842 25.1673 84.4454 25.1673 83.9265C25.1673 83.5819 25.1308 83.2907 25.0579 83.0529C24.9862 82.8137 24.8829 82.6327 24.7477 82.5097C24.614 82.3854 24.4545 82.3232 24.2694 82.3232C23.9897 82.3232 23.7701 82.461 23.6107 82.7367C23.4512 83.0124 23.3708 83.409 23.3695 83.9265C23.3695 84.2724 23.4053 84.565 23.4769 84.8041C23.5498 85.042 23.6532 85.2223 23.787 85.3453C23.9208 85.4669 24.0816 85.5277 24.2694 85.5277ZM27.9538 86.0689C27.6335 86.0676 27.3599 85.9831 27.1329 85.8156C26.9059 85.648 26.7322 85.4041 26.612 85.0838C26.4917 84.7636 26.4316 84.3778 26.4316 83.9265C26.4316 83.4765 26.4917 83.0921 26.612 82.7732C26.7336 82.4543 26.9079 82.2111 27.1349 82.0435C27.3633 81.8759 27.6362 81.7922 27.9538 81.7922C28.2713 81.7922 28.5436 81.8766 28.7706 82.0455C28.9976 82.2131 29.1713 82.4563 29.2915 82.7752C29.4131 83.0928 29.474 83.4765 29.474 83.9265C29.474 84.3792 29.4138 84.7656 29.2936 85.0859C29.1733 85.4048 28.9997 85.6487 28.7726 85.8176C28.5456 85.9851 28.2727 86.0689 27.9538 86.0689ZM27.9538 85.5277C28.2348 85.5277 28.4544 85.3906 28.6125 85.1163C28.772 84.842 28.8517 84.4454 28.8517 83.9265C28.8517 83.5819 28.8152 83.2907 28.7422 83.0529C28.6706 82.8137 28.5673 82.6327 28.4321 82.5097C28.2984 82.3854 28.1389 82.3232 27.9538 82.3232C27.6741 82.3232 27.4545 82.461 27.295 82.7367C27.1356 83.0124 27.0552 83.409 27.0538 83.9265C27.0538 84.2724 27.0896 84.565 27.1613 84.8041C27.2342 85.042 27.3376 85.2223 27.4714 85.3453C27.6052 85.4669 27.766 85.5277 27.9538 85.5277Z" fill="#9CA3AF"/>
<path d="M18.0169 107.849V112H17.3886V108.477H17.3643L16.3711 109.126V108.526L17.4068 107.849H18.0169ZM20.585 112.069C20.2648 112.068 19.9911 111.983 19.7641 111.816C19.5371 111.648 19.3635 111.404 19.2432 111.084C19.1229 110.764 19.0628 110.378 19.0628 109.926C19.0628 109.477 19.1229 109.092 19.2432 108.773C19.3648 108.454 19.5391 108.211 19.7661 108.044C19.9945 107.876 20.2675 107.792 20.585 107.792C20.9026 107.792 21.1748 107.877 21.4018 108.046C21.6289 108.213 21.8025 108.456 21.9228 108.775C22.0444 109.093 22.1052 109.477 22.1052 109.926C22.1052 110.379 22.045 110.766 21.9248 111.086C21.8045 111.405 21.6309 111.649 21.4039 111.818C21.1769 111.985 20.9039 112.069 20.585 112.069ZM20.585 111.528C20.8661 111.528 21.0856 111.391 21.2437 111.116C21.4032 110.842 21.4829 110.445 21.4829 109.926C21.4829 109.582 21.4464 109.291 21.3735 109.053C21.3019 108.814 21.1985 108.633 21.0634 108.51C20.9296 108.385 20.7701 108.323 20.585 108.323C20.3053 108.323 20.0857 108.461 19.9263 108.737C19.7668 109.012 19.6864 109.409 19.6851 109.926C19.6851 110.272 19.7209 110.565 19.7925 110.804C19.8655 111.042 19.9688 111.222 20.1026 111.345C20.2364 111.467 20.3972 111.528 20.585 111.528ZM24.2694 112.069C23.9491 112.068 23.6755 111.983 23.4485 111.816C23.2215 111.648 23.0479 111.404 22.9276 111.084C22.8073 110.764 22.7472 110.378 22.7472 109.926C22.7472 109.477 22.8073 109.092 22.9276 108.773C23.0492 108.454 23.2235 108.211 23.4505 108.044C23.6789 107.876 23.9518 107.792 24.2694 107.792C24.5869 107.792 24.8592 107.877 25.0862 108.046C25.3132 108.213 25.4869 108.456 25.6071 108.775C25.7288 109.093 25.7896 109.477 25.7896 109.926C25.7896 110.379 25.7294 110.766 25.6092 111.086C25.4889 111.405 25.3153 111.649 25.0883 111.818C24.8612 111.985 24.5883 112.069 24.2694 112.069ZM24.2694 111.528C24.5505 111.528 24.77 111.391 24.9281 111.116C25.0876 110.842 25.1673 110.445 25.1673 109.926C25.1673 109.582 25.1308 109.291 25.0579 109.053C24.9862 108.814 24.8829 108.633 24.7477 108.51C24.614 108.385 24.4545 108.323 24.2694 108.323C23.9897 108.323 23.7701 108.461 23.6107 108.737C23.4512 109.012 23.3708 109.409 23.3695 109.926C23.3695 110.272 23.4053 110.565 23.4769 110.804C23.5498 111.042 23.6532 111.222 23.787 111.345C23.9208 111.467 24.0816 111.528 24.2694 111.528ZM27.9538 112.069C27.6335 112.068 27.3599 111.983 27.1329 111.816C26.9059 111.648 26.7322 111.404 26.612 111.084C26.4917 110.764 26.4316 110.378 26.4316 109.926C26.4316 109.477 26.4917 109.092 26.612 108.773C26.7336 108.454 26.9079 108.211 27.1349 108.044C27.3633 107.876 27.6362 107.792 27.9538 107.792C28.2713 107.792 28.5436 107.877 28.7706 108.046C28.9976 108.213 29.1713 108.456 29.2915 108.775C29.4131 109.093 29.474 109.477 29.474 109.926C29.474 110.379 29.4138 110.766 29.2936 111.086C29.1733 111.405 28.9997 111.649 28.7726 111.818C28.5456 111.985 28.2727 112.069 27.9538 112.069ZM27.9538 111.528C28.2348 111.528 28.4544 111.391 28.6125 111.116C28.772 110.842 28.8517 110.445 28.8517 109.926C28.8517 109.582 28.8152 109.291 28.7422 109.053C28.6706 108.814 28.5673 108.633 28.4321 108.51C28.2984 108.385 28.1389 108.323 27.9538 108.323C27.6741 108.323 27.4545 108.461 27.295 108.737C27.1356 109.012 27.0552 109.409 27.0538 109.926C27.0538 110.272 27.0896 110.565 27.1613 110.804C27.2342 111.042 27.3376 111.222 27.4714 111.345C27.6052 111.467 27.766 111.528 27.9538 111.528Z" fill="#9CA3AF"/>
<path d="M20.6448 139.057C20.4597 139.054 20.2773 139.02 20.0975 138.955C19.9192 138.891 19.757 138.782 19.6111 138.631C19.4651 138.48 19.3483 138.276 19.2604 138.021C19.1739 137.766 19.1307 137.447 19.1307 137.064C19.1307 136.702 19.1665 136.381 19.2381 136.1C19.3111 135.818 19.4158 135.581 19.5523 135.388C19.6888 135.193 19.8536 135.046 20.0469 134.944C20.2401 134.843 20.457 134.792 20.6975 134.792C20.9448 134.792 21.1644 134.841 21.3562 134.938C21.5481 135.035 21.7035 135.17 21.8224 135.341C21.9427 135.513 22.019 135.708 22.0515 135.927H21.4333C21.3914 135.754 21.3083 135.613 21.184 135.504C21.0596 135.394 20.8975 135.339 20.6975 135.339C20.3935 135.339 20.1563 135.472 19.9861 135.737C19.8171 136.002 19.732 136.37 19.7307 136.841H19.7611C19.8327 136.724 19.9205 136.624 20.0246 136.541C20.13 136.458 20.2475 136.393 20.3772 136.349C20.5083 136.303 20.6461 136.28 20.7907 136.28C21.0313 136.28 21.2488 136.339 21.4434 136.456C21.6393 136.572 21.7954 136.733 21.9116 136.939C22.0278 137.144 22.0859 137.379 22.0859 137.644C22.0859 137.909 22.0258 138.149 21.9055 138.364C21.7866 138.578 21.6191 138.749 21.4029 138.874C21.1867 138.999 20.934 139.059 20.6448 139.057ZM20.6428 138.53C20.8022 138.53 20.9448 138.491 21.0704 138.412C21.1961 138.334 21.2954 138.228 21.3684 138.096C21.4414 137.964 21.4779 137.816 21.4779 137.652C21.4779 137.493 21.442 137.347 21.3704 137.216C21.3002 137.085 21.2029 136.981 21.0786 136.904C20.9556 136.827 20.8151 136.789 20.657 136.789C20.5367 136.789 20.4252 136.812 20.3225 136.858C20.2212 136.904 20.132 136.967 20.055 137.048C19.978 137.129 19.9171 137.222 19.8726 137.328C19.8293 137.432 19.8077 137.542 19.8077 137.658C19.8077 137.814 19.8435 137.958 19.9151 138.09C19.9881 138.222 20.0874 138.329 20.2131 138.41C20.3401 138.49 20.4833 138.53 20.6428 138.53ZM24.2694 139.069C23.9491 139.068 23.6755 138.983 23.4485 138.816C23.2215 138.648 23.0479 138.404 22.9276 138.084C22.8073 137.764 22.7472 137.378 22.7472 136.926C22.7472 136.477 22.8073 136.092 22.9276 135.773C23.0492 135.454 23.2235 135.211 23.4505 135.044C23.6789 134.876 23.9518 134.792 24.2694 134.792C24.5869 134.792 24.8592 134.877 25.0862 135.046C25.3132 135.213 25.4869 135.456 25.6071 135.775C25.7288 136.093 25.7896 136.477 25.7896 136.926C25.7896 137.379 25.7294 137.766 25.6092 138.086C25.4889 138.405 25.3153 138.649 25.0883 138.818C24.8612 138.985 24.5883 139.069 24.2694 139.069ZM24.2694 138.528C24.5505 138.528 24.77 138.391 24.9281 138.116C25.0876 137.842 25.1673 137.445 25.1673 136.926C25.1673 136.582 25.1308 136.291 25.0579 136.053C24.9862 135.814 24.8829 135.633 24.7477 135.51C24.614 135.385 24.4545 135.323 24.2694 135.323C23.9897 135.323 23.7701 135.461 23.6107 135.737C23.4512 136.012 23.3708 136.409 23.3695 136.926C23.3695 137.272 23.4053 137.565 23.4769 137.804C23.5498 138.042 23.6532 138.222 23.787 138.345C23.9208 138.467 24.0816 138.528 24.2694 138.528ZM27.9538 139.069C27.6335 139.068 27.3599 138.983 27.1329 138.816C26.9059 138.648 26.7322 138.404 26.612 138.084C26.4917 137.764 26.4316 137.378 26.4316 136.926C26.4316 136.477 26.4917 136.092 26.612 135.773C26.7336 135.454 26.9079 135.211 27.1349 135.044C27.3633 134.876 27.6362 134.792 27.9538 134.792C28.2713 134.792 28.5436 134.877 28.7706 135.046C28.9976 135.213 29.1713 135.456 29.2915 135.775C29.4131 136.093 29.474 136.477 29.474 136.926C29.474 137.379 29.4138 137.766 29.2936 138.086C29.1733 138.405 28.9997 138.649 28.7726 138.818C28.5456 138.985 28.2727 139.069 27.9538 139.069ZM27.9538 138.528C28.2348 138.528 28.4544 138.391 28.6125 138.116C28.772 137.842 28.8517 137.445 28.8517 136.926C28.8517 136.582 28.8152 136.291 28.7422 136.053C28.6706 135.814 28.5673 135.633 28.4321 135.51C28.2984 135.385 28.1389 135.323 27.9538 135.323C27.6741 135.323 27.4545 135.461 27.295 135.737C27.1356 136.012 27.0552 136.409 27.0538 136.926C27.0538 137.272 27.0896 137.565 27.1613 137.804C27.2342 138.042 27.3376 138.222 27.4714 138.345C27.6052 138.467 27.766 138.528 27.9538 138.528Z" fill="#9CA3AF"/>
<path d="M19.0025 163.189V162.683L20.7963 159.849H21.1956V160.595H20.9422L19.6592 162.626V162.658H22.1178V163.189H19.0025ZM20.9706 164V163.035L20.9747 162.804V159.849H21.5686V164H20.9706ZM24.2694 164.069C23.9491 164.068 23.6755 163.983 23.4485 163.816C23.2215 163.648 23.0479 163.404 22.9276 163.084C22.8073 162.764 22.7472 162.378 22.7472 161.926C22.7472 161.477 22.8073 161.092 22.9276 160.773C23.0492 160.454 23.2235 160.211 23.4505 160.044C23.6789 159.876 23.9518 159.792 24.2694 159.792C24.5869 159.792 24.8592 159.877 25.0862 160.046C25.3132 160.213 25.4869 160.456 25.6071 160.775C25.7288 161.093 25.7896 161.477 25.7896 161.926C25.7896 162.379 25.7294 162.766 25.6092 163.086C25.4889 163.405 25.3153 163.649 25.0883 163.818C24.8612 163.985 24.5883 164.069 24.2694 164.069ZM24.2694 163.528C24.5505 163.528 24.77 163.391 24.9281 163.116C25.0876 162.842 25.1673 162.445 25.1673 161.926C25.1673 161.582 25.1308 161.291 25.0579 161.053C24.9862 160.814 24.8829 160.633 24.7477 160.51C24.614 160.385 24.4545 160.323 24.2694 160.323C23.9897 160.323 23.7701 160.461 23.6107 160.737C23.4512 161.012 23.3708 161.409 23.3695 161.926C23.3695 162.272 23.4053 162.565 23.4769 162.804C23.5498 163.042 23.6532 163.222 23.787 163.345C23.9208 163.467 24.0816 163.528 24.2694 163.528ZM27.9538 164.069C27.6335 164.068 27.3599 163.983 27.1329 163.816C26.9059 163.648 26.7322 163.404 26.612 163.084C26.4917 162.764 26.4316 162.378 26.4316 161.926C26.4316 161.477 26.4917 161.092 26.612 160.773C26.7336 160.454 26.9079 160.211 27.1349 160.044C27.3633 159.876 27.6362 159.792 27.9538 159.792C28.2713 159.792 28.5436 159.877 28.7706 160.046C28.9976 160.213 29.1713 160.456 29.2915 160.775C29.4131 161.093 29.474 161.477 29.474 161.926C29.474 162.379 29.4138 162.766 29.2936 163.086C29.1733 163.405 28.9997 163.649 28.7726 163.818C28.5456 163.985 28.2727 164.069 27.9538 164.069ZM27.9538 163.528C28.2348 163.528 28.4544 163.391 28.6125 163.116C28.772 162.842 28.8517 162.445 28.8517 161.926C28.8517 161.582 28.8152 161.291 28.7422 161.053C28.6706 160.814 28.5673 160.633 28.4321 160.51C28.2984 160.385 28.1389 160.323 27.9538 160.323C27.6741 160.323 27.4545 160.461 27.295 160.737C27.1356 161.012 27.0552 161.409 27.0538 161.926C27.0538 162.272 27.0896 162.565 27.1613 162.804C27.2342 163.042 27.3376 163.222 27.4714 163.345C27.6052 163.467 27.766 163.528 27.9538 163.528Z" fill="#9CA3AF"/>
<path d="M19.3238 189V188.546L20.7284 187.091C20.8784 186.933 21.002 186.794 21.0993 186.675C21.198 186.555 21.2716 186.441 21.3203 186.333C21.3689 186.225 21.3932 186.11 21.3932 185.988C21.3932 185.85 21.3608 185.731 21.2959 185.631C21.2311 185.53 21.1426 185.452 21.0304 185.398C20.9183 185.343 20.7919 185.315 20.6514 185.315C20.5027 185.315 20.373 185.346 20.2622 185.406C20.1514 185.467 20.0663 185.553 20.0068 185.664C19.9474 185.775 19.9177 185.904 19.9177 186.053H19.3197C19.3197 185.8 19.3778 185.579 19.494 185.39C19.6102 185.201 19.7697 185.054 19.9724 184.95C20.1751 184.845 20.4055 184.792 20.6635 184.792C20.9243 184.792 21.1541 184.844 21.3527 184.948C21.5527 185.051 21.7088 185.191 21.8209 185.37C21.9331 185.547 21.9891 185.747 21.9891 185.97C21.9891 186.124 21.9601 186.275 21.902 186.422C21.8452 186.569 21.7459 186.733 21.604 186.914C21.4621 187.094 21.2649 187.312 21.0122 187.569L20.1872 188.432V188.463H22.056V189H19.3238ZM24.2694 189.069C23.9491 189.068 23.6755 188.983 23.4485 188.816C23.2215 188.648 23.0479 188.404 22.9276 188.084C22.8073 187.764 22.7472 187.378 22.7472 186.926C22.7472 186.477 22.8073 186.092 22.9276 185.773C23.0492 185.454 23.2235 185.211 23.4505 185.044C23.6789 184.876 23.9518 184.792 24.2694 184.792C24.5869 184.792 24.8592 184.877 25.0862 185.046C25.3132 185.213 25.4869 185.456 25.6071 185.775C25.7288 186.093 25.7896 186.477 25.7896 186.926C25.7896 187.379 25.7294 187.766 25.6092 188.086C25.4889 188.405 25.3153 188.649 25.0883 188.818C24.8612 188.985 24.5883 189.069 24.2694 189.069ZM24.2694 188.528C24.5505 188.528 24.77 188.391 24.9281 188.116C25.0876 187.842 25.1673 187.445 25.1673 186.926C25.1673 186.582 25.1308 186.291 25.0579 186.053C24.9862 185.814 24.8829 185.633 24.7477 185.51C24.614 185.385 24.4545 185.323 24.2694 185.323C23.9897 185.323 23.7701 185.461 23.6107 185.737C23.4512 186.012 23.3708 186.409 23.3695 186.926C23.3695 187.272 23.4053 187.565 23.4769 187.804C23.5498 188.042 23.6532 188.222 23.787 188.345C23.9208 188.467 24.0816 188.528 24.2694 188.528ZM27.9538 189.069C27.6335 189.068 27.3599 188.983 27.1329 188.816C26.9059 188.648 26.7322 188.404 26.612 188.084C26.4917 187.764 26.4316 187.378 26.4316 186.926C26.4316 186.477 26.4917 186.092 26.612 185.773C26.7336 185.454 26.9079 185.211 27.1349 185.044C27.3633 184.876 27.6362 184.792 27.9538 184.792C28.2713 184.792 28.5436 184.877 28.7706 185.046C28.9976 185.213 29.1713 185.456 29.2915 185.775C29.4131 186.093 29.474 186.477 29.474 186.926C29.474 187.379 29.4138 187.766 29.2936 188.086C29.1733 188.405 28.9997 188.649 28.7726 188.818C28.5456 188.985 28.2727 189.069 27.9538 189.069ZM27.9538 188.528C28.2348 188.528 28.4544 188.391 28.6125 188.116C28.772 187.842 28.8517 187.445 28.8517 186.926C28.8517 186.582 28.8152 186.291 28.7422 186.053C28.6706 185.814 28.5673 185.633 28.4321 185.51C28.2984 185.385 28.1389 185.323 27.9538 185.323C27.6741 185.323 27.4545 185.461 27.295 185.737C27.1356 186.012 27.0552 186.409 27.0538 186.926C27.0538 187.272 27.0896 187.565 27.1613 187.804C27.2342 188.042 27.3376 188.222 27.4714 188.345C27.6052 188.467 27.766 188.528 27.9538 188.528Z" fill="#9CA3AF"/>
<path d="M27.9538 213.069C27.6335 213.068 27.3599 212.983 27.1329 212.816C26.9059 212.648 26.7322 212.404 26.612 212.084C26.4917 211.764 26.4316 211.378 26.4316 210.926C26.4316 210.477 26.4917 210.092 26.612 209.773C26.7336 209.454 26.9079 209.211 27.1349 209.044C27.3633 208.876 27.6362 208.792 27.9538 208.792C28.2713 208.792 28.5436 208.877 28.7706 209.046C28.9976 209.213 29.1713 209.456 29.2915 209.775C29.4131 210.093 29.474 210.477 29.474 210.926C29.474 211.379 29.4138 211.766 29.2936 212.086C29.1733 212.405 28.9997 212.649 28.7726 212.818C28.5456 212.985 28.2727 213.069 27.9538 213.069ZM27.9538 212.528C28.2348 212.528 28.4544 212.391 28.6125 212.116C28.772 211.842 28.8517 211.445 28.8517 210.926C28.8517 210.582 28.8152 210.291 28.7422 210.053C28.6706 209.814 28.5673 209.633 28.4321 209.51C28.2984 209.385 28.1389 209.323 27.9538 209.323C27.6741 209.323 27.4545 209.461 27.295 209.737C27.1356 210.012 27.0552 210.409 27.0538 210.926C27.0538 211.272 27.0896 211.565 27.1613 211.804C27.2342 212.042 27.3376 212.222 27.4714 212.345C27.6052 212.467 27.766 212.528 27.9538 212.528Z" fill="#9CA3AF"/>
<line x1="37.2378" y1="83.7622" x2="374.946" y2="83.7622" stroke="#E5E7EB" stroke-width="0.475645" stroke-linecap="square" stroke-dasharray="0.48 1.9"/>
<line x1="37.2378" y1="109.762" x2="374.946" y2="109.762" stroke="#E5E7EB" stroke-width="0.475645" stroke-linecap="square" stroke-dasharray="0.48 1.9"/>
<line x1="37.2378" y1="135.762" x2="374.946" y2="135.762" stroke="#E5E7EB" stroke-width="0.475645" stroke-linecap="square" stroke-dasharray="0.48 1.9"/>
<line x1="37.2378" y1="162.762" x2="374.946" y2="162.762" stroke="#E5E7EB" stroke-width="0.475645" stroke-linecap="square" stroke-dasharray="0.48 1.9"/>
<line x1="37.2378" y1="188.762" x2="374.946" y2="188.762" stroke="#E5E7EB" stroke-width="0.475645" stroke-linecap="square" stroke-dasharray="0.48 1.9"/>
<line x1="37.2378" y1="214.762" x2="374.946" y2="214.762" stroke="#E5E7EB" stroke-width="0.475645" stroke-linecap="square" stroke-dasharray="0.48 1.9"/>
<rect x="353" y="102" width="12" height="113" fill="url(#paint0_linear_648_9784)"/>
<rect x="315" y="136" width="12" height="79" fill="url(#paint1_linear_648_9784)"/>
<rect x="276" y="86" width="12" height="129" fill="url(#paint2_linear_648_9784)"/>
<rect x="237" y="139" width="12" height="76" fill="url(#paint3_linear_648_9784)"/>
<rect x="198" y="110" width="12" height="105" fill="url(#paint4_linear_648_9784)"/>
<rect x="158" y="82" width="12" height="133" fill="url(#paint5_linear_648_9784)"/>
<rect x="119" y="110" width="12" height="105" fill="url(#paint6_linear_648_9784)"/>
<rect x="81" y="145" width="12" height="70" fill="url(#paint7_linear_648_9784)"/>
<rect x="41" y="125" width="12" height="90" fill="url(#paint8_linear_648_9784)"/>
<path d="M44.1099 224.849H44.7342V227.792C44.7342 228.058 44.6815 228.286 44.5761 228.475C44.4721 228.664 44.3255 228.809 44.1363 228.909C43.9471 229.007 43.7255 229.057 43.4715 229.057C43.2377 229.057 43.0276 229.014 42.8411 228.929C42.656 228.844 42.5094 228.72 42.4013 228.558C42.2945 228.395 42.2411 228.196 42.2411 227.962H42.8634C42.8634 228.077 42.8897 228.176 42.9424 228.26C42.9965 228.344 43.0701 228.409 43.1634 228.457C43.258 228.503 43.3661 228.526 43.4877 228.526C43.6201 228.526 43.7323 228.498 43.8241 228.443C43.9174 228.386 43.9883 228.303 44.037 228.193C44.0856 228.084 44.1099 227.95 44.1099 227.792V224.849ZM46.5032 229.069C46.3059 229.069 46.1275 229.032 45.9681 228.959C45.8086 228.885 45.6823 228.778 45.5891 228.637C45.4972 228.497 45.4512 228.324 45.4512 228.12C45.4512 227.945 45.485 227.8 45.5526 227.687C45.6201 227.573 45.7113 227.483 45.8262 227.417C45.9411 227.351 46.0694 227.301 46.2113 227.267C46.3532 227.233 46.4978 227.208 46.6451 227.19C46.8315 227.168 46.9829 227.151 47.0991 227.137C47.2153 227.122 47.2998 227.099 47.3525 227.066C47.4052 227.034 47.4315 226.981 47.4315 226.908V226.894C47.4315 226.717 47.3815 226.58 47.2815 226.483C47.1829 226.385 47.0356 226.337 46.8397 226.337C46.6356 226.337 46.4748 226.382 46.3573 226.472C46.241 226.562 46.1606 226.661 46.1161 226.77L45.5465 226.641C45.6141 226.452 45.7127 226.299 45.8424 226.183C45.9735 226.065 46.1242 225.98 46.2944 225.927C46.4647 225.873 46.6437 225.846 46.8315 225.846C46.9559 225.846 47.0876 225.861 47.2268 225.891C47.3673 225.919 47.4984 225.972 47.62 226.049C47.743 226.126 47.8436 226.236 47.922 226.379C48.0004 226.521 48.0396 226.706 48.0396 226.933V229H47.4477V228.574H47.4234C47.3842 228.653 47.3254 228.73 47.2471 228.805C47.1687 228.881 47.068 228.944 46.9451 228.994C46.8221 229.044 46.6748 229.069 46.5032 229.069ZM46.6349 228.582C46.8025 228.582 46.9457 228.549 47.0646 228.483C47.1849 228.417 47.2761 228.33 47.3383 228.224C47.4018 228.116 47.4335 228 47.4335 227.877V227.476C47.4119 227.497 47.37 227.518 47.3079 227.537C47.2471 227.554 47.1775 227.57 47.0991 227.583C47.0207 227.595 46.9444 227.607 46.8701 227.618C46.7957 227.627 46.7336 227.635 46.6836 227.642C46.566 227.657 46.4586 227.682 46.3613 227.717C46.2654 227.752 46.1883 227.803 46.1302 227.869C46.0735 227.934 46.0451 228.02 46.0451 228.128C46.0451 228.278 46.1005 228.392 46.2113 228.469C46.3221 228.545 46.4633 228.582 46.6349 228.582ZM49.4528 227.151V229H48.8468V225.887H49.4285V226.393H49.467C49.5386 226.229 49.6508 226.096 49.8035 225.996C49.9575 225.896 50.1514 225.846 50.3852 225.846C50.5973 225.846 50.7831 225.891 50.9426 225.98C51.102 226.068 51.2257 226.199 51.3135 226.373C51.4013 226.547 51.4453 226.763 51.4453 227.02V229H50.8392V227.093C50.8392 226.867 50.7804 226.691 50.6629 226.564C50.5453 226.435 50.3838 226.371 50.1785 226.371C50.0379 226.371 49.9129 226.402 49.8035 226.462C49.6954 226.523 49.6096 226.612 49.5461 226.73C49.4839 226.846 49.4528 226.987 49.4528 227.151Z" fill="#9CA3AF"/>
<path d="M81.1444 229V224.849H83.7186V225.388H81.7707V226.653H83.5341V227.19H81.7707V229H81.1444ZM85.5534 229.063C85.2467 229.063 84.9825 228.997 84.7609 228.866C84.5407 228.734 84.3704 228.548 84.2501 228.309C84.1312 228.068 84.0718 227.787 84.0718 227.464C84.0718 227.145 84.1312 226.864 84.2501 226.62C84.3704 226.377 84.538 226.187 84.7528 226.051C84.969 225.914 85.2217 225.846 85.5109 225.846C85.6865 225.846 85.8568 225.875 86.0217 225.933C86.1865 225.991 86.3345 226.083 86.4655 226.207C86.5966 226.331 86.7 226.493 86.7757 226.691C86.8513 226.889 86.8892 227.129 86.8892 227.411V227.626H84.4143V227.172H86.2953C86.2953 227.012 86.2629 226.871 86.198 226.748C86.1331 226.624 86.0419 226.526 85.9244 226.454C85.8082 226.383 85.6717 226.347 85.5149 226.347C85.3447 226.347 85.196 226.389 85.069 226.472C84.9433 226.555 84.8461 226.663 84.7771 226.797C84.7096 226.929 84.6758 227.073 84.6758 227.228V227.583C84.6758 227.791 84.7123 227.968 84.7852 228.114C84.8596 228.26 84.9629 228.372 85.0954 228.449C85.2278 228.524 85.3825 228.562 85.5595 228.562C85.6744 228.562 85.7791 228.546 85.8737 228.514C85.9683 228.48 86.05 228.43 86.1189 228.364C86.1879 228.297 86.2406 228.216 86.277 228.118L86.8507 228.222C86.8047 228.391 86.7223 228.539 86.6034 228.666C86.4858 228.791 86.3378 228.889 86.1595 228.959C85.9825 229.028 85.7805 229.063 85.5534 229.063ZM87.6102 229V224.849H88.2163V226.391H88.2528C88.2879 226.327 88.3386 226.252 88.4048 226.166C88.471 226.081 88.5629 226.007 88.6804 225.943C88.798 225.879 88.9534 225.846 89.1466 225.846C89.398 225.846 89.6223 225.91 89.8195 226.037C90.0168 226.164 90.1716 226.347 90.2837 226.586C90.3972 226.825 90.454 227.113 90.454 227.449C90.454 227.786 90.3979 228.074 90.2857 228.315C90.1736 228.554 90.0195 228.739 89.8236 228.868C89.6277 228.997 89.404 229.061 89.1527 229.061C88.9635 229.061 88.8088 229.029 88.6885 228.966C88.5696 228.902 88.4764 228.828 88.4088 228.743C88.3413 228.657 88.2892 228.582 88.2528 228.516H88.2021V229H87.6102ZM88.2041 227.443C88.2041 227.662 88.2359 227.854 88.2994 228.019C88.3629 228.184 88.4548 228.313 88.575 228.406C88.6953 228.498 88.8426 228.544 89.0169 228.544C89.198 228.544 89.3493 228.496 89.4709 228.4C89.5925 228.303 89.6844 228.171 89.7466 228.005C89.8101 227.839 89.8418 227.651 89.8418 227.443C89.8418 227.238 89.8108 227.054 89.7486 226.89C89.6878 226.726 89.5959 226.597 89.4729 226.503C89.3513 226.408 89.1993 226.361 89.0169 226.361C88.8412 226.361 88.6926 226.406 88.571 226.497C88.4507 226.587 88.3595 226.714 88.2973 226.876C88.2352 227.038 88.2041 227.227 88.2041 227.443Z" fill="#9CA3AF"/>
<path d="M120.12 224.849H120.88L122.202 228.076H122.251L123.572 224.849H124.332V229H123.736V225.996H123.698L122.474 228.994H121.979L120.755 225.994H120.716V229H120.12V224.849ZM126.1 229.069C125.903 229.069 125.724 229.032 125.565 228.959C125.406 228.885 125.279 228.778 125.186 228.637C125.094 228.497 125.048 228.324 125.048 228.12C125.048 227.945 125.082 227.8 125.15 227.687C125.217 227.573 125.308 227.483 125.423 227.417C125.538 227.351 125.666 227.301 125.808 227.267C125.95 227.233 126.095 227.208 126.242 227.19C126.428 227.168 126.58 227.151 126.696 227.137C126.812 227.122 126.897 227.099 126.949 227.066C127.002 227.034 127.028 226.981 127.028 226.908V226.894C127.028 226.717 126.978 226.58 126.878 226.483C126.78 226.385 126.633 226.337 126.437 226.337C126.233 226.337 126.072 226.382 125.954 226.472C125.838 226.562 125.758 226.661 125.713 226.77L125.143 226.641C125.211 226.452 125.31 226.299 125.439 226.183C125.57 226.065 125.721 225.98 125.891 225.927C126.062 225.873 126.241 225.846 126.428 225.846C126.553 225.846 126.685 225.861 126.824 225.891C126.964 225.919 127.095 225.972 127.217 226.049C127.34 226.126 127.441 226.236 127.519 226.379C127.597 226.521 127.637 226.706 127.637 226.933V229H127.045V228.574H127.02C126.981 228.653 126.922 228.73 126.844 228.805C126.766 228.881 126.665 228.944 126.542 228.994C126.419 229.044 126.272 229.069 126.1 229.069ZM126.232 228.582C126.399 228.582 126.543 228.549 126.662 228.483C126.782 228.417 126.873 228.33 126.935 228.224C126.999 228.116 127.03 228 127.03 227.877V227.476C127.009 227.497 126.967 227.518 126.905 227.537C126.844 227.554 126.774 227.57 126.696 227.583C126.618 227.595 126.541 227.607 126.467 227.618C126.393 227.627 126.331 227.635 126.281 227.642C126.163 227.657 126.056 227.682 125.958 227.717C125.862 227.752 125.785 227.803 125.727 227.869C125.67 227.934 125.642 228.02 125.642 228.128C125.642 228.278 125.697 228.392 125.808 228.469C125.919 228.545 126.06 228.582 126.232 228.582ZM128.444 229V225.887H129.029V226.381H129.062C129.119 226.214 129.219 226.082 129.362 225.986C129.506 225.889 129.67 225.84 129.852 225.84C129.89 225.84 129.935 225.841 129.986 225.844C130.039 225.847 130.08 225.85 130.11 225.854V226.434C130.086 226.427 130.042 226.42 129.98 226.412C129.918 226.402 129.856 226.397 129.794 226.397C129.65 226.397 129.523 226.428 129.411 226.489C129.3 226.548 129.212 226.631 129.147 226.738C129.082 226.843 129.05 226.964 129.05 227.099V229H128.444Z" fill="#9CA3AF"/>
<path d="M159.897 229H159.233L160.726 224.849H161.45L162.944 229H162.279L161.105 225.603H161.073L159.897 229ZM160.009 227.374H162.165V227.901H160.009V227.374ZM163.495 230.167V225.887H164.086V226.391H164.137C164.172 226.327 164.223 226.252 164.289 226.166C164.355 226.081 164.447 226.007 164.565 225.943C164.682 225.879 164.838 225.846 165.031 225.846C165.282 225.846 165.507 225.91 165.704 226.037C165.901 226.164 166.056 226.347 166.168 226.586C166.282 226.825 166.338 227.113 166.338 227.449C166.338 227.786 166.282 228.074 166.17 228.315C166.058 228.554 165.904 228.739 165.708 228.868C165.512 228.997 165.288 229.061 165.037 229.061C164.848 229.061 164.693 229.029 164.573 228.966C164.454 228.902 164.361 228.828 164.293 228.743C164.226 228.657 164.174 228.582 164.137 228.516H164.101V230.167H163.495ZM164.088 227.443C164.088 227.662 164.12 227.854 164.184 228.019C164.247 228.184 164.339 228.313 164.459 228.406C164.58 228.498 164.727 228.544 164.901 228.544C165.082 228.544 165.234 228.496 165.355 228.4C165.477 228.303 165.569 228.171 165.631 228.005C165.694 227.839 165.726 227.651 165.726 227.443C165.726 227.238 165.695 227.054 165.633 226.89C165.572 226.726 165.48 226.597 165.357 226.503C165.236 226.408 165.084 226.361 164.901 226.361C164.726 226.361 164.577 226.406 164.455 226.497C164.335 226.587 164.244 226.714 164.182 226.876C164.12 227.038 164.088 227.227 164.088 227.443ZM167.017 229V225.887H167.603V226.381H167.636C167.692 226.214 167.792 226.082 167.936 225.986C168.08 225.889 168.244 225.84 168.426 225.84C168.464 225.84 168.508 225.841 168.56 225.844C168.612 225.847 168.654 225.85 168.683 225.854V226.434C168.659 226.427 168.616 226.42 168.554 226.412C168.492 226.402 168.429 226.397 168.367 226.397C168.224 226.397 168.096 226.428 167.984 226.489C167.873 226.548 167.786 226.631 167.721 226.738C167.656 226.843 167.623 226.964 167.623 227.099V229H167.017Z" fill="#9CA3AF"/>
<path d="M198.131 224.849H198.891L200.212 228.076H200.261L201.582 224.849H202.342V229H201.746V225.996H201.708L200.484 228.994H199.989L198.765 225.994H198.726V229H198.131V224.849ZM204.11 229.069C203.913 229.069 203.735 229.032 203.575 228.959C203.416 228.885 203.289 228.778 203.196 228.637C203.104 228.497 203.058 228.324 203.058 228.12C203.058 227.945 203.092 227.8 203.16 227.687C203.227 227.573 203.319 227.483 203.433 227.417C203.548 227.351 203.677 227.301 203.818 227.267C203.96 227.233 204.105 227.208 204.252 227.19C204.439 227.168 204.59 227.151 204.706 227.137C204.822 227.122 204.907 227.099 204.96 227.066C205.012 227.034 205.039 226.981 205.039 226.908V226.894C205.039 226.717 204.989 226.58 204.889 226.483C204.79 226.385 204.643 226.337 204.447 226.337C204.243 226.337 204.082 226.382 203.964 226.472C203.848 226.562 203.768 226.661 203.723 226.77L203.154 226.641C203.221 226.452 203.32 226.299 203.45 226.183C203.581 226.065 203.731 225.98 203.902 225.927C204.072 225.873 204.251 225.846 204.439 225.846C204.563 225.846 204.695 225.861 204.834 225.891C204.974 225.919 205.106 225.972 205.227 226.049C205.35 226.126 205.451 226.236 205.529 226.379C205.608 226.521 205.647 226.706 205.647 226.933V229H205.055V228.574H205.031C204.991 228.653 204.933 228.73 204.854 228.805C204.776 228.881 204.675 228.944 204.552 228.994C204.429 229.044 204.282 229.069 204.11 229.069ZM204.242 228.582C204.41 228.582 204.553 228.549 204.672 228.483C204.792 228.417 204.883 228.33 204.945 228.224C205.009 228.116 205.041 228 205.041 227.877V227.476C205.019 227.497 204.977 227.518 204.915 227.537C204.854 227.554 204.785 227.57 204.706 227.583C204.628 227.595 204.552 227.607 204.477 227.618C204.403 227.627 204.341 227.635 204.291 227.642C204.173 227.657 204.066 227.682 203.968 227.717C203.873 227.752 203.796 227.803 203.737 227.869C203.681 227.934 203.652 228.02 203.652 228.128C203.652 228.278 203.708 228.392 203.818 228.469C203.929 228.545 204.07 228.582 204.242 228.582ZM206.726 230.167C206.635 230.167 206.553 230.16 206.478 230.145C206.404 230.132 206.349 230.117 206.312 230.101L206.458 229.604C206.569 229.634 206.667 229.647 206.754 229.643C206.84 229.638 206.917 229.606 206.983 229.545C207.051 229.484 207.11 229.385 207.161 229.247L207.236 229.041L206.097 225.887H206.746L207.534 228.303H207.567L208.355 225.887H209.006L207.723 229.416C207.663 229.578 207.588 229.715 207.496 229.827C207.404 229.94 207.294 230.026 207.167 230.082C207.04 230.139 206.893 230.167 206.726 230.167Z" fill="#9CA3AF"/>
<path d="M240.037 224.849H240.662V227.792C240.662 228.058 240.609 228.286 240.504 228.475C240.4 228.664 240.253 228.809 240.064 228.909C239.875 229.007 239.653 229.057 239.399 229.057C239.165 229.057 238.955 229.014 238.769 228.929C238.584 228.844 238.437 228.72 238.329 228.558C238.222 228.395 238.169 228.196 238.169 227.962H238.791C238.791 228.077 238.817 228.176 238.87 228.26C238.924 228.344 238.998 228.409 239.091 228.457C239.185 228.503 239.294 228.526 239.415 228.526C239.548 228.526 239.66 228.498 239.752 228.443C239.845 228.386 239.916 228.303 239.965 228.193C240.013 228.084 240.037 227.95 240.037 227.792V224.849ZM243.497 227.709V225.887H244.105V229H243.509V228.461H243.477C243.405 228.627 243.29 228.766 243.132 228.876C242.975 228.986 242.78 229.041 242.546 229.041C242.346 229.041 242.169 228.997 242.015 228.909C241.863 228.82 241.742 228.688 241.654 228.514C241.568 228.339 241.525 228.124 241.525 227.867V225.887H242.131V227.794C242.131 228.006 242.19 228.175 242.307 228.301C242.425 228.426 242.577 228.489 242.765 228.489C242.879 228.489 242.992 228.461 243.104 228.404C243.217 228.347 243.311 228.262 243.385 228.147C243.461 228.032 243.498 227.886 243.497 227.709ZM245.525 227.151V229H244.919V225.887H245.501V226.393H245.539C245.611 226.229 245.723 226.096 245.876 225.996C246.03 225.896 246.224 225.846 246.458 225.846C246.67 225.846 246.856 225.891 247.015 225.98C247.175 226.068 247.298 226.199 247.386 226.373C247.474 226.547 247.518 226.763 247.518 227.02V229H246.912V227.093C246.912 226.867 246.853 226.691 246.735 226.564C246.618 226.435 246.456 226.371 246.251 226.371C246.11 226.371 245.985 226.402 245.876 226.462C245.768 226.523 245.682 226.612 245.619 226.73C245.556 226.846 245.525 226.987 245.525 227.151Z" fill="#9CA3AF"/>
<path d="M280.032 224.849H280.657V227.792C280.657 228.058 280.604 228.286 280.499 228.475C280.395 228.664 280.248 228.809 280.059 228.909C279.87 229.007 279.648 229.057 279.394 229.057C279.16 229.057 278.95 229.014 278.764 228.929C278.578 228.844 278.432 228.72 278.324 228.558C278.217 228.395 278.164 228.196 278.164 227.962H278.786C278.786 228.077 278.812 228.176 278.865 228.26C278.919 228.344 278.993 228.409 279.086 228.457C279.18 228.503 279.289 228.526 279.41 228.526C279.543 228.526 279.655 228.498 279.747 228.443C279.84 228.386 279.911 228.303 279.959 228.193C280.008 228.084 280.032 227.95 280.032 227.792V224.849ZM283.492 227.709V225.887H284.1V229H283.504V228.461H283.472C283.4 228.627 283.285 228.766 283.127 228.876C282.97 228.986 282.775 229.041 282.541 229.041C282.341 229.041 282.164 228.997 282.01 228.909C281.857 228.82 281.737 228.688 281.649 228.514C281.563 228.339 281.52 228.124 281.52 227.867V225.887H282.126V227.794C282.126 228.006 282.184 228.175 282.302 228.301C282.42 228.426 282.572 228.489 282.76 228.489C282.874 228.489 282.986 228.461 283.099 228.404C283.212 228.347 283.306 228.262 283.38 228.147C283.456 228.032 283.493 227.886 283.492 227.709ZM285.52 224.849V229H284.914V224.849H285.52Z" fill="#9CA3AF"/>
<path d="M316.058 229H315.393L316.887 224.849H317.61L319.104 229H318.439L317.266 225.603H317.233L316.058 229ZM316.169 227.374H318.326V227.901H316.169V227.374ZM321.627 227.709V225.887H322.235V229H321.639V228.461H321.607C321.535 228.627 321.42 228.766 321.262 228.876C321.105 228.986 320.91 229.041 320.676 229.041C320.476 229.041 320.299 228.997 320.145 228.909C319.993 228.82 319.872 228.688 319.784 228.514C319.698 228.339 319.655 228.124 319.655 227.867V225.887H320.261V227.794C320.261 228.006 320.32 228.175 320.437 228.301C320.555 228.426 320.707 228.489 320.895 228.489C321.009 228.489 321.122 228.461 321.234 228.404C321.347 228.347 321.441 228.262 321.515 228.147C321.591 228.032 321.628 227.886 321.627 227.709ZM324.355 230.232C324.107 230.232 323.895 230.2 323.716 230.135C323.539 230.07 323.395 229.984 323.282 229.878C323.17 229.771 323.086 229.654 323.031 229.527L323.552 229.312C323.588 229.372 323.637 229.434 323.698 229.501C323.76 229.568 323.844 229.626 323.949 229.673C324.056 229.72 324.193 229.744 324.361 229.744C324.59 229.744 324.78 229.688 324.93 229.576C325.08 229.465 325.155 229.288 325.155 229.045V228.432H325.117C325.08 228.499 325.028 228.572 324.959 228.653C324.891 228.734 324.798 228.805 324.679 228.864C324.56 228.924 324.405 228.953 324.215 228.953C323.969 228.953 323.747 228.896 323.55 228.781C323.354 228.665 323.199 228.494 323.084 228.268C322.97 228.041 322.914 227.762 322.914 227.431C322.914 227.1 322.97 226.816 323.082 226.58C323.195 226.343 323.351 226.162 323.548 226.037C323.745 225.91 323.969 225.846 324.219 225.846C324.412 225.846 324.568 225.879 324.687 225.943C324.806 226.007 324.899 226.081 324.965 226.166C325.032 226.252 325.084 226.327 325.121 226.391H325.165V225.887H325.759V229.069C325.759 229.336 325.697 229.556 325.573 229.728C325.448 229.899 325.28 230.026 325.068 230.109C324.857 230.191 324.619 230.232 324.355 230.232ZM324.349 228.451C324.523 228.451 324.67 228.41 324.79 228.329C324.912 228.247 325.004 228.129 325.066 227.976C325.13 227.822 325.161 227.638 325.161 227.423C325.161 227.214 325.13 227.029 325.068 226.87C325.006 226.71 324.915 226.586 324.794 226.497C324.674 226.406 324.526 226.361 324.349 226.361C324.166 226.361 324.014 226.408 323.892 226.503C323.771 226.596 323.679 226.723 323.617 226.884C323.556 227.045 323.526 227.224 323.526 227.423C323.526 227.627 323.557 227.806 323.619 227.96C323.681 228.114 323.773 228.235 323.895 228.321C324.017 228.407 324.169 228.451 324.349 228.451Z" fill="#9CA3AF"/>
<path d="M356.393 225.939C356.371 225.748 356.282 225.599 356.125 225.493C355.968 225.387 355.771 225.333 355.533 225.333C355.363 225.333 355.216 225.36 355.091 225.414C354.967 225.467 354.87 225.54 354.802 225.633C354.734 225.725 354.7 225.83 354.7 225.947C354.7 226.046 354.723 226.131 354.769 226.203C354.816 226.275 354.878 226.335 354.954 226.383C355.031 226.431 355.113 226.47 355.201 226.503C355.289 226.534 355.373 226.56 355.454 226.58L355.86 226.685C355.992 226.718 356.128 226.762 356.267 226.817C356.406 226.872 356.535 226.945 356.654 227.036C356.773 227.126 356.869 227.239 356.942 227.372C357.016 227.506 357.053 227.666 357.053 227.853C357.053 228.088 356.993 228.297 356.871 228.479C356.751 228.662 356.576 228.805 356.346 228.911C356.118 229.016 355.841 229.069 355.517 229.069C355.206 229.069 354.937 229.02 354.71 228.921C354.483 228.822 354.306 228.682 354.177 228.501C354.049 228.319 353.978 228.103 353.964 227.853H354.593C354.605 228.003 354.654 228.128 354.739 228.228C354.825 228.326 354.935 228.4 355.069 228.449C355.204 228.496 355.352 228.52 355.513 228.52C355.69 228.52 355.847 228.492 355.985 228.437C356.124 228.38 356.234 228.301 356.314 228.201C356.393 228.1 356.433 227.982 356.433 227.847C356.433 227.724 356.398 227.623 356.328 227.545C356.259 227.466 356.165 227.401 356.046 227.35C355.929 227.299 355.795 227.253 355.647 227.214L355.156 227.081C354.824 226.99 354.56 226.857 354.366 226.681C354.173 226.506 354.076 226.273 354.076 225.984C354.076 225.745 354.141 225.536 354.271 225.358C354.4 225.179 354.576 225.041 354.798 224.942C355.019 224.842 355.269 224.792 355.547 224.792C355.829 224.792 356.076 224.841 356.291 224.94C356.508 225.039 356.678 225.175 356.802 225.348C356.926 225.519 356.991 225.716 356.997 225.939H356.393ZM359.095 229.063C358.788 229.063 358.524 228.997 358.303 228.866C358.082 228.734 357.912 228.548 357.792 228.309C357.673 228.068 357.613 227.787 357.613 227.464C357.613 227.145 357.673 226.864 357.792 226.62C357.912 226.377 358.08 226.187 358.294 226.051C358.511 225.914 358.763 225.846 359.052 225.846C359.228 225.846 359.398 225.875 359.563 225.933C359.728 225.991 359.876 226.083 360.007 226.207C360.138 226.331 360.242 226.493 360.317 226.691C360.393 226.889 360.431 227.129 360.431 227.411V227.626H357.956V227.172H359.837C359.837 227.012 359.804 226.871 359.74 226.748C359.675 226.624 359.584 226.526 359.466 226.454C359.35 226.383 359.213 226.347 359.057 226.347C358.886 226.347 358.738 226.389 358.611 226.472C358.485 226.555 358.388 226.663 358.319 226.797C358.251 226.929 358.217 227.073 358.217 227.228V227.583C358.217 227.791 358.254 227.968 358.327 228.114C358.401 228.26 358.505 228.372 358.637 228.449C358.769 228.524 358.924 228.562 359.101 228.562C359.216 228.562 359.321 228.546 359.415 228.514C359.51 228.48 359.592 228.43 359.661 228.364C359.729 228.297 359.782 228.216 359.819 228.118L360.392 228.222C360.346 228.391 360.264 228.539 360.145 228.666C360.027 228.791 359.879 228.889 359.701 228.959C359.524 229.028 359.322 229.063 359.095 229.063ZM361.103 230.167V225.887H361.695V226.391H361.746C361.781 226.327 361.832 226.252 361.898 226.166C361.964 226.081 362.056 226.007 362.173 225.943C362.291 225.879 362.446 225.846 362.64 225.846C362.891 225.846 363.115 225.91 363.313 226.037C363.51 226.164 363.665 226.347 363.777 226.586C363.89 226.825 363.947 227.113 363.947 227.449C363.947 227.786 363.891 228.074 363.779 228.315C363.667 228.554 363.512 228.739 363.317 228.868C363.121 228.997 362.897 229.061 362.646 229.061C362.456 229.061 362.302 229.029 362.181 228.966C362.063 228.902 361.969 228.828 361.902 228.743C361.834 228.657 361.782 228.582 361.746 228.516H361.709V230.167H361.103ZM361.697 227.443C361.697 227.662 361.729 227.854 361.792 228.019C361.856 228.184 361.948 228.313 362.068 228.406C362.188 228.498 362.336 228.544 362.51 228.544C362.691 228.544 362.842 228.496 362.964 228.4C363.085 228.303 363.177 228.171 363.24 228.005C363.303 227.839 363.335 227.651 363.335 227.443C363.335 227.238 363.304 227.054 363.242 226.89C363.181 226.726 363.089 226.597 362.966 226.503C362.844 226.408 362.692 226.361 362.51 226.361C362.334 226.361 362.186 226.406 362.064 226.497C361.944 226.587 361.852 226.714 361.79 226.876C361.728 227.038 361.697 227.227 361.697 227.443Z" fill="#9CA3AF"/>
<rect x="93" y="117" width="33" height="16" rx="3" fill="#808080"/>
<path d="M101.458 121.635H105.783V122.624L103.239 128H101.971L104.65 122.606H101.458V121.635ZM111.477 124.818C111.477 125.333 111.426 125.797 111.324 126.211C111.228 126.625 111.084 126.975 110.892 127.263C110.706 127.55 110.473 127.772 110.191 127.928C109.915 128.084 109.598 128.162 109.238 128.162C108.878 128.162 108.558 128.084 108.276 127.928C107.994 127.772 107.758 127.55 107.566 127.263C107.374 126.975 107.227 126.625 107.125 126.211C107.029 125.797 106.982 125.333 106.982 124.818C106.982 124.302 107.029 123.838 107.125 123.424C107.227 123.011 107.374 122.66 107.566 122.372C107.758 122.085 107.994 121.863 108.276 121.707C108.558 121.551 108.878 121.473 109.238 121.473C109.598 121.473 109.915 121.551 110.191 121.707C110.473 121.863 110.706 122.085 110.892 122.372C111.084 122.66 111.228 123.011 111.324 123.424C111.426 123.838 111.477 124.302 111.477 124.818ZM110.371 124.818C110.371 124.596 110.356 124.344 110.326 124.062C110.302 123.781 110.248 123.514 110.164 123.262C110.086 123.011 109.972 122.801 109.822 122.633C109.673 122.459 109.478 122.372 109.238 122.372C108.992 122.372 108.794 122.459 108.645 122.633C108.495 122.801 108.378 123.011 108.294 123.262C108.216 123.514 108.162 123.781 108.132 124.062C108.102 124.344 108.087 124.596 108.087 124.818C108.087 125.039 108.102 125.291 108.132 125.573C108.162 125.854 108.216 126.118 108.294 126.364C108.378 126.61 108.495 126.819 108.645 126.993C108.794 127.161 108.992 127.245 109.238 127.245C109.478 127.245 109.673 127.161 109.822 126.993C109.972 126.819 110.086 126.61 110.164 126.364C110.248 126.118 110.302 125.854 110.326 125.573C110.356 125.291 110.371 125.039 110.371 124.818ZM116.964 124.818C116.964 125.333 116.913 125.797 116.811 126.211C116.715 126.625 116.571 126.975 116.379 127.263C116.193 127.55 115.96 127.772 115.678 127.928C115.402 128.084 115.085 128.162 114.725 128.162C114.365 128.162 114.045 128.084 113.763 127.928C113.481 127.772 113.245 127.55 113.053 127.263C112.861 126.975 112.714 126.625 112.612 126.211C112.517 125.797 112.469 125.333 112.469 124.818C112.469 124.302 112.517 123.838 112.612 123.424C112.714 123.011 112.861 122.66 113.053 122.372C113.245 122.085 113.481 121.863 113.763 121.707C114.045 121.551 114.365 121.473 114.725 121.473C115.085 121.473 115.402 121.551 115.678 121.707C115.96 121.863 116.193 122.085 116.379 122.372C116.571 122.66 116.715 123.011 116.811 123.424C116.913 123.838 116.964 124.302 116.964 124.818ZM115.858 124.818C115.858 124.596 115.843 124.344 115.813 124.062C115.789 123.781 115.735 123.514 115.651 123.262C115.573 123.011 115.459 122.801 115.309 122.633C115.16 122.459 114.965 122.372 114.725 122.372C114.479 122.372 114.282 122.459 114.132 122.633C113.982 122.801 113.865 123.011 113.781 123.262C113.703 123.514 113.649 123.781 113.619 124.062C113.589 124.344 113.574 124.596 113.574 124.818C113.574 125.039 113.589 125.291 113.619 125.573C113.649 125.854 113.703 126.118 113.781 126.364C113.865 126.61 113.982 126.819 114.132 126.993C114.282 127.161 114.479 127.245 114.725 127.245C114.965 127.245 115.16 127.161 115.309 126.993C115.459 126.819 115.573 126.61 115.651 126.364C115.735 126.118 115.789 125.854 115.813 125.573C115.843 125.291 115.858 125.039 115.858 124.818Z" fill="white"/>
<defs>
<linearGradient id="paint0_linear_648_9784" x1="359" y1="102" x2="359" y2="215" gradientUnits="userSpaceOnUse">
<stop stop-color="#A2D1EB"/>
<stop offset="1" stop-color="#6890BA"/>
</linearGradient>
<linearGradient id="paint1_linear_648_9784" x1="321" y1="136" x2="321" y2="215" gradientUnits="userSpaceOnUse">
<stop stop-color="#A2D1EB"/>
<stop offset="1" stop-color="#6890BA"/>
</linearGradient>
<linearGradient id="paint2_linear_648_9784" x1="282" y1="86" x2="282" y2="215" gradientUnits="userSpaceOnUse">
<stop stop-color="#A2D1EB"/>
<stop offset="1" stop-color="#6890BA"/>
</linearGradient>
<linearGradient id="paint3_linear_648_9784" x1="243" y1="139" x2="243" y2="215" gradientUnits="userSpaceOnUse">
<stop stop-color="#A2D1EB"/>
<stop offset="1" stop-color="#6890BA"/>
</linearGradient>
<linearGradient id="paint4_linear_648_9784" x1="204" y1="110" x2="204" y2="215" gradientUnits="userSpaceOnUse">
<stop stop-color="#A2D1EB"/>
<stop offset="1" stop-color="#6890BA"/>
</linearGradient>
<linearGradient id="paint5_linear_648_9784" x1="164" y1="82" x2="164" y2="215" gradientUnits="userSpaceOnUse">
<stop stop-color="#A2D1EB"/>
<stop offset="1" stop-color="#6890BA"/>
</linearGradient>
<linearGradient id="paint6_linear_648_9784" x1="125" y1="110" x2="125" y2="215" gradientUnits="userSpaceOnUse">
<stop stop-color="#A2D1EB"/>
<stop offset="1" stop-color="#6890BA"/>
</linearGradient>
<linearGradient id="paint7_linear_648_9784" x1="87" y1="145" x2="87" y2="215" gradientUnits="userSpaceOnUse">
<stop stop-color="#A2D1EB"/>
<stop offset="1" stop-color="#6890BA"/>
</linearGradient>
<linearGradient id="paint8_linear_648_9784" x1="47" y1="125" x2="47" y2="215" gradientUnits="userSpaceOnUse">
<stop stop-color="#A2D1EB"/>
<stop offset="1" stop-color="#6890BA"/>
</linearGradient>
</defs>
</svg>
