<svg width="16" height="16" viewBox="0 0 16 16" fill="none" xmlns="http://www.w3.org/2000/svg">
<path d="M8 0C6.41775 0 4.87103 0.469192 3.55544 1.34824C2.23985 2.22729 1.21447 3.47672 0.608967 4.93853C0.00346627 6.40034 -0.15496 8.00887 0.153721 9.56072C0.462403 11.1126 1.22433 12.538 2.34315 13.6569C3.46197 14.7757 4.88743 15.5376 6.43928 15.8463C7.99113 16.155 9.59966 15.9965 11.0615 15.391C12.5233 14.7855 13.7727 13.7602 14.6518 12.4446C15.5308 11.129 16 9.58225 16 8C16 6.94942 15.7931 5.90914 15.391 4.93853C14.989 3.96793 14.3997 3.08601 13.6569 2.34315C12.914 1.60028 12.0321 1.011 11.0615 0.608964C10.0909 0.206926 9.05058 0 8 0ZM8 1.6C9.64378 1.59934 11.2238 2.23594 12.408 3.376C11.1856 4.09296 9.8903 4.6776 8.544 5.12C7.87399 3.96546 7.10582 2.87075 6.248 1.848C6.81757 1.684 7.40729 1.60052 8 1.6ZM4.712 2.52C5.55015 3.4788 6.30238 4.50944 6.96 5.6C5.38968 5.98992 3.77801 6.18869 2.16 6.192H1.872C2.32576 4.65571 3.33915 3.34544 4.712 2.52ZM3.2 12.248C2.15901 11.079 1.58887 9.56528 1.6 8V7.768H2.144C4.0379 7.75107 5.92112 7.48204 7.744 6.968C8 7.456 8.24 7.96 8.472 8.48C7.2252 8.91953 6.06401 9.57186 5.04 10.408L4.8 10.6C4.2297 11.1122 3.69511 11.6628 3.2 12.248ZM8 14.4C6.72487 14.4028 5.47856 14.0208 4.424 13.304C4.81348 12.8573 5.23027 12.4351 5.672 12.04L5.928 11.824C6.87453 11.0279 7.95918 10.4124 9.128 10.008C9.60907 11.3088 9.98364 12.6465 10.248 14.008C9.52784 14.2709 8.76665 14.4037 8 14.4ZM11.704 13.208C11.4423 11.9972 11.1002 10.8053 10.68 9.64H10.952C10.9835 9.6322 11.0165 9.6322 11.048 9.64H11.6C12.4419 9.64241 13.2774 9.78572 14.072 10.064C13.6355 11.3363 12.8063 12.4372 11.704 13.208ZM11.6 8H11.104C11.0004 7.98695 10.8956 7.98695 10.792 8C10.5746 8.01335 10.3582 8.04007 10.144 8.08H10.064C9.832 7.544 9.592 7.024 9.328 6.48C10.7605 5.98804 12.1363 5.34439 13.432 4.56C14.0748 5.59149 14.4105 6.78468 14.4 8V8.408C13.4933 8.12817 12.5488 7.99054 11.6 8Z" fill="#4719B2"/>
</svg>
