<svg width="415" height="310" viewBox="0 0 415 310" fill="none" xmlns="http://www.w3.org/2000/svg">
    <g clip-path="url(#x40pskeuda)">
        <path d="M415 272.429H40.448v.208H415v-.208zM373.417 285.814h-27.489v.208h27.489v-.208zM274.913 288.077H267.7v.208h7.213v-.208zM345.098 278.094H329.17v.208h15.928v-.208zM79.39 279.492H43.542v.208H79.39v-.208zM92.04 279.492h-5.255v.208h5.254v-.208zM186.875 283.003H109.12v.208h77.755v-.208zM196.718 235.322H36.445a4.748 4.748 0 0 1-4.739-4.75V4.751C31.706 2.13 33.831 0 36.446 0h160.272c2.615 0 4.74 2.13 4.74 4.75v225.822a4.748 4.748 0 0 1-4.74 4.75zM36.445.208c-2.498 0-4.531 2.038-4.531 4.543v225.821a4.543 4.543 0 0 0 4.531 4.542h160.273a4.542 4.542 0 0 0 4.532-4.542V4.751a4.543 4.543 0 0 0-4.532-4.543H36.445zM376.248 235.322H215.975a4.748 4.748 0 0 1-4.74-4.75V4.751c0-2.621 2.125-4.751 4.74-4.751h160.273a4.749 4.749 0 0 1 4.739 4.75v225.822a4.748 4.748 0 0 1-4.739 4.75zM215.975.208a4.543 4.543 0 0 0-4.532 4.543v225.821a4.542 4.542 0 0 0 4.532 4.542h160.273c2.498 0 4.531-2.038 4.531-4.542V4.751c0-2.505-2.033-4.543-4.531-4.543H215.975z" fill="#1A194A"/>
        <path d="M369.698 51.765H168.605v194.298h201.093V51.765z" fill="#010026" fill-opacity=".18"/>
        <path d="M369.698 55.292H171.834V242.67h197.864V55.292z" fill="#00000C" fill-opacity=".04"/>
        <path d="M173.295 197.293v-56.357h5.835v-7.446l13.147-6.165v-7.613h2.191v21.224h2.191v56.357h2.922v-29.277h6.573V152.65h2.192v44.643h5.104v-16.83h3.652v-4.393h8.035v-15.375h4.382v-10.242h5.113v-15.374h2.191v15.374h5.113v10.242h4.374v15.375h8.034v4.393h3.652v16.83h4.383V176.07h8.034v-46.848h2.191v-5.125h17.522v5.125h3.652v33.669h14.608v3.661h5.104v2.196h-5.104v13.179h15.33v-43.92h2.921v-8.785h7.304v-33.67h2.191v33.67h5.113v8.785h28.453v104.67H171.834v-45.384h1.461z" fill="#0E0E29" fill-opacity=".37"/>
        <path d="M354.492 140.303h-2.066v2.072h2.066v-2.072zM354.492 143.781h-2.066v2.071h2.066v-2.071zM354.492 157.683h-2.066v2.072h2.066v-2.072zM354.492 161.161h-2.066v2.072h2.066v-2.072zM354.492 164.639h-2.066v2.071h2.066v-2.071zM354.492 175.071h-2.066v2.072h2.066v-2.072zM354.492 178.549h-2.066v2.071h2.066v-2.071zM351.205 154.206h-2.066v2.071h2.066v-2.071zM351.205 157.683h-2.066v2.072h2.066v-2.072zM351.205 161.161h-2.066v2.072h2.066v-2.072zM351.205 164.639h-2.066v2.071h2.066v-2.071zM351.205 168.116h-2.066v2.072h2.066v-2.072zM351.205 175.071h-2.066v2.072h2.066v-2.072zM351.205 178.549h-2.066v2.071h2.066v-2.071zM347.919 140.303h-2.066v2.072h2.066v-2.072zM347.919 143.781h-2.066v2.071h2.066v-2.071zM347.919 147.258h-2.066v2.072h2.066v-2.072zM347.919 150.736h-2.066v2.072h2.066v-2.072zM347.919 154.206h-2.066v2.071h2.066v-2.071zM347.919 157.683h-2.066v2.072h2.066v-2.072zM347.919 161.161h-2.066v2.072h2.066v-2.072zM347.919 164.639h-2.066v2.071h2.066v-2.071zM347.919 168.116h-2.066v2.072h2.066v-2.072zM347.919 171.594h-2.066v2.071h2.066v-2.071zM347.919 178.549h-2.066v2.071h2.066v-2.071zM344.632 140.303h-2.067v2.072h2.067v-2.072zM344.632 143.781h-2.067v2.071h2.067v-2.071zM344.632 147.258h-2.067v2.072h2.067v-2.072zM344.632 150.736h-2.067v2.072h2.067v-2.072zM344.632 154.206h-2.067v2.071h2.067v-2.071zM344.632 157.683h-2.067v2.072h2.067v-2.072zM344.632 161.161h-2.067v2.072h2.067v-2.072zM344.632 192.451h-2.067v2.072h2.067v-2.072zM341.345 140.303h-2.067v2.072h2.067v-2.072zM341.345 143.781h-2.067v2.071h2.067v-2.071zM341.345 147.258h-2.067v2.072h2.067v-2.072zM341.345 150.736h-2.067v2.072h2.067v-2.072zM341.345 154.206h-2.067v2.071h2.067v-2.071zM341.345 157.683h-2.067v2.072h2.067v-2.072zM341.345 161.161h-2.067v2.072h2.067v-2.072zM341.345 164.639h-2.067v2.071h2.067v-2.071zM341.345 185.504h-2.067v2.072h2.067v-2.072zM341.345 188.974h-2.067v2.071h2.067v-2.071zM341.345 192.451h-2.067v2.072h2.067v-2.072zM341.345 195.929h-2.067V198h2.067v-2.071zM341.345 209.839h-2.067v2.071h2.067v-2.071zM338.059 140.303h-2.067v2.072h2.067v-2.072zM338.059 143.781h-2.067v2.071h2.067v-2.071zM338.059 147.258h-2.067v2.072h2.067v-2.072zM338.059 150.736h-2.067v2.072h2.067v-2.072zM338.059 154.206h-2.067v2.071h2.067v-2.071zM338.059 157.683h-2.067v2.072h2.067v-2.072zM338.059 161.161h-2.067v2.072h2.067v-2.072zM338.059 164.639h-2.067v2.071h2.067v-2.071zM338.059 168.116h-2.067v2.072h2.067v-2.072zM338.059 171.594h-2.067v2.071h2.067v-2.071zM338.059 182.026h-2.067v2.072h2.067v-2.072zM338.059 185.504h-2.067v2.072h2.067v-2.072zM338.059 188.974h-2.067v2.071h2.067v-2.071zM338.059 192.451h-2.067v2.072h2.067v-2.072zM338.059 195.929h-2.067V198h2.067v-2.071zM338.059 209.839h-2.067v2.071h2.067v-2.071zM334.772 140.303h-2.067v2.072h2.067v-2.072zM334.772 143.781h-2.067v2.071h2.067v-2.071zM334.772 147.258h-2.067v2.072h2.067v-2.072zM334.772 150.736h-2.067v2.072h2.067v-2.072zM334.772 154.206h-2.067v2.071h2.067v-2.071zM334.772 157.683h-2.067v2.072h2.067v-2.072zM334.772 161.161h-2.067v2.072h2.067v-2.072zM334.772 164.639h-2.067v2.071h2.067v-2.071zM334.772 168.116h-2.067v2.072h2.067v-2.072zM334.772 171.594h-2.067v2.071h2.067v-2.071zM334.772 175.071h-2.067v2.072h2.067v-2.072zM334.772 178.549h-2.067v2.071h2.067v-2.071zM334.772 182.026h-2.067v2.072h2.067v-2.072zM334.772 185.504h-2.067v2.072h2.067v-2.072zM334.772 188.974h-2.067v2.071h2.067v-2.071zM334.772 192.451h-2.067v2.072h2.067v-2.072zM334.772 195.929h-2.067V198h2.067v-2.071zM334.772 199.406h-2.067v2.072h2.067v-2.072zM331.485 140.303h-2.067v2.072h2.067v-2.072zM331.485 143.781h-2.067v2.071h2.067v-2.071zM331.485 147.258h-2.067v2.072h2.067v-2.072zM331.485 150.736h-2.067v2.072h2.067v-2.072zM331.485 154.206h-2.067v2.071h2.067v-2.071zM331.485 157.683h-2.067v2.072h2.067v-2.072zM331.485 161.161h-2.067v2.072h2.067v-2.072zM331.485 164.639h-2.067v2.071h2.067v-2.071zM331.485 168.116h-2.067v2.072h2.067v-2.072zM331.485 171.594h-2.067v2.071h2.067v-2.071zM331.485 182.026h-2.067v2.072h2.067v-2.072zM331.485 185.504h-2.067v2.072h2.067v-2.072zM331.485 188.974h-2.067v2.071h2.067v-2.071zM331.485 192.451h-2.067v2.072h2.067v-2.072zM328.206 140.303h-2.066v2.072h2.066v-2.072zM328.206 143.781h-2.066v2.071h2.066v-2.071zM328.206 147.258h-2.066v2.072h2.066v-2.072zM328.206 150.736h-2.066v2.072h2.066v-2.072zM328.206 154.206h-2.066v2.071h2.066v-2.071zM328.206 157.683h-2.066v2.072h2.066v-2.072zM328.206 161.161h-2.066v2.072h2.066v-2.072zM328.206 164.639h-2.066v2.071h2.066v-2.071zM328.206 168.116h-2.066v2.072h2.066v-2.072zM328.206 171.594h-2.066v2.071h2.066v-2.071zM328.206 182.026h-2.066v2.072h2.066v-2.072zM328.206 185.504h-2.066v2.072h2.066v-2.072zM328.206 188.974h-2.066v2.071h2.066v-2.071zM291.205 131.276h-2.066v2.072h2.066v-2.072zM291.205 134.754h-2.066v2.072h2.066v-2.072zM291.205 138.231h-2.066v2.072h2.066v-2.072zM291.205 141.701h-2.066v2.072h2.066v-2.072zM291.205 145.179h-2.066v2.071h2.066v-2.071zM291.205 148.656h-2.066v2.072h2.066v-2.072zM291.205 152.134h-2.066v2.071h2.066v-2.071zM291.205 155.611h-2.066v2.072h2.066v-2.072zM291.205 166.044h-2.066v2.072h2.066v-2.072zM291.205 169.522h-2.066v2.072h2.066v-2.072zM287.918 131.276h-2.066v2.072h2.066v-2.072zM287.918 134.754h-2.066v2.072h2.066v-2.072zM287.918 138.231h-2.066v2.072h2.066v-2.072zM287.918 141.701h-2.066v2.072h2.066v-2.072zM287.918 145.179h-2.066v2.071h2.066v-2.071zM287.918 148.656h-2.066v2.072h2.066v-2.072zM287.918 152.134h-2.066v2.071h2.066v-2.071zM287.918 155.611h-2.066v2.072h2.066v-2.072zM287.918 169.522h-2.066v2.072h2.066v-2.072zM284.631 131.276h-2.067v2.072h2.067v-2.072zM284.631 134.754h-2.067v2.072h2.067v-2.072zM284.631 138.231h-2.067v2.072h2.067v-2.072zM284.631 141.701h-2.067v2.072h2.067v-2.072zM284.631 145.179h-2.067v2.071h2.067v-2.071zM284.631 148.656h-2.067v2.072h2.067v-2.072zM284.631 152.134h-2.067v2.071h2.067v-2.071zM284.631 155.611h-2.067v2.072h2.067v-2.072zM281.344 131.276h-2.067v2.072h2.067v-2.072zM281.344 134.754h-2.067v2.072h2.067v-2.072zM281.344 138.231h-2.067v2.072h2.067v-2.072zM281.344 141.701h-2.067v2.072h2.067v-2.072zM281.344 145.179h-2.067v2.071h2.067v-2.071zM281.344 148.656h-2.067v2.072h2.067v-2.072zM281.344 155.611h-2.067v2.072h2.067v-2.072zM281.344 159.089h-2.067v2.071h2.067v-2.071zM281.344 169.522h-2.067v2.072h2.067v-2.072zM281.344 173h-2.067v2.072h2.067V173zM281.344 176.469h-2.067v2.071h2.067v-2.071zM281.344 179.946h-2.067v2.072h2.067v-2.072zM281.344 183.424h-2.067v2.071h2.067v-2.071zM281.344 186.901h-2.067v2.072h2.067v-2.072zM281.344 190.38h-2.067v2.071h2.067v-2.071zM278.058 131.276h-2.067v2.072h2.067v-2.072zM278.058 134.754h-2.067v2.072h2.067v-2.072zM278.058 138.231h-2.067v2.072h2.067v-2.072zM278.058 141.701h-2.067v2.072h2.067v-2.072zM278.058 145.179h-2.067v2.071h2.067v-2.071zM278.058 148.656h-2.067v2.072h2.067v-2.072zM278.058 159.089h-2.067v2.071h2.067v-2.071zM278.058 162.566h-2.067v2.072h2.067v-2.072zM278.058 166.044h-2.067v2.072h2.067v-2.072zM278.058 169.522h-2.067v2.072h2.067v-2.072zM278.058 173h-2.067v2.072h2.067V173zM278.058 176.469h-2.067v2.071h2.067v-2.071zM278.058 179.946h-2.067v2.072h2.067v-2.072zM278.058 183.424h-2.067v2.071h2.067v-2.071zM278.058 186.901h-2.067v2.072h2.067v-2.072zM278.058 190.38h-2.067v2.071h2.067v-2.071zM278.058 193.857h-2.067v2.072h2.067v-2.072zM278.058 200.812h-2.067v2.072h2.067v-2.072zM274.771 131.276h-2.067v2.072h2.067v-2.072zM274.771 134.754h-2.067v2.072h2.067v-2.072zM274.771 138.231h-2.067v2.072h2.067v-2.072zM274.771 141.701h-2.067v2.072h2.067v-2.072zM274.771 145.179h-2.067v2.071h2.067v-2.071zM274.771 148.656h-2.067v2.072h2.067v-2.072zM274.771 159.089h-2.067v2.071h2.067v-2.071zM274.771 162.566h-2.067v2.072h2.067v-2.072zM274.771 166.044h-2.067v2.072h2.067v-2.072zM274.771 169.522h-2.067v2.072h2.067v-2.072zM274.771 179.946h-2.067v2.072h2.067v-2.072zM274.771 183.424h-2.067v2.071h2.067v-2.071zM274.771 186.901h-2.067v2.072h2.067v-2.072zM274.771 190.38h-2.067v2.071h2.067v-2.071zM274.771 193.857h-2.067v2.072h2.067v-2.072zM274.771 200.812h-2.067v2.072h2.067v-2.072zM274.771 204.29h-2.067v2.072h2.067v-2.072zM244.957 163.599h-2.066v2.071h2.066v-2.071zM244.957 167.076h-2.066v2.072h2.066v-2.072zM244.957 170.554h-2.066v2.071h2.066v-2.071zM244.957 174.031h-2.066v2.072h2.066v-2.072zM244.957 177.509h-2.066v2.071h2.066v-2.071zM244.957 180.986h-2.066v2.072h2.066v-2.072zM244.957 184.464h-2.066v2.071h2.066v-2.071zM244.957 194.897h-2.066v2.072h2.066v-2.072zM244.957 198.366h-2.066v2.072h2.066v-2.072zM244.957 201.844h-2.066v2.071h2.066v-2.071zM241.67 163.599h-2.066v2.071h2.066v-2.071zM241.67 167.076h-2.066v2.072h2.066v-2.072zM241.67 170.554h-2.066v2.071h2.066v-2.071zM241.67 174.031h-2.066v2.072h2.066v-2.072zM241.67 177.509h-2.066v2.071h2.066v-2.071zM241.67 180.986h-2.066v2.072h2.066v-2.072zM241.67 184.464h-2.066v2.071h2.066v-2.071zM238.384 163.599h-2.067v2.071h2.067v-2.071zM238.384 167.076h-2.067v2.072h2.067v-2.072zM238.384 170.554h-2.067v2.071h2.067v-2.071zM238.384 174.031h-2.067v2.072h2.067v-2.072zM238.384 177.509h-2.067v2.071h2.067v-2.071zM238.384 180.986h-2.067v2.072h2.067v-2.072zM238.384 184.464h-2.067v2.071h2.067v-2.071zM235.097 163.599h-2.067v2.071h2.067v-2.071zM235.097 167.076h-2.067v2.072h2.067v-2.072zM235.097 170.554h-2.067v2.071h2.067v-2.071zM235.097 174.031h-2.067v2.072h2.067v-2.072zM235.097 177.509h-2.067v2.071h2.067v-2.071zM235.097 180.986h-2.067v2.072h2.067v-2.072zM235.097 184.464h-2.067v2.071h2.067v-2.071zM235.097 187.941h-2.067v2.072h2.067v-2.072zM235.097 191.419h-2.067v2.072h2.067v-2.072zM235.097 194.897h-2.067v2.072h2.067v-2.072zM235.097 198.366h-2.067v2.072h2.067v-2.072zM231.81 163.599h-2.067v2.071h2.067v-2.071zM231.81 167.076h-2.067v2.072h2.067v-2.072zM231.81 170.554h-2.067v2.071h2.067v-2.071zM231.81 174.031h-2.067v2.072h2.067v-2.072zM231.81 177.509h-2.067v2.071h2.067v-2.071zM231.81 180.986h-2.067v2.072h2.067v-2.072zM231.81 184.464h-2.067v2.071h2.067v-2.071zM231.81 187.941h-2.067v2.072h2.067v-2.072zM231.81 191.419h-2.067v2.072h2.067v-2.072zM231.81 194.897h-2.067v2.072h2.067v-2.072zM231.81 198.366h-2.067v2.072h2.067v-2.072zM231.81 201.844h-2.067v2.071h2.067v-2.071zM231.81 212.277h-2.067v2.072h2.067v-2.072zM231.81 215.755h-2.067v2.072h2.067v-2.072zM228.524 163.599h-2.067v2.071h2.067v-2.071zM228.524 167.076h-2.067v2.072h2.067v-2.072zM228.524 170.554h-2.067v2.071h2.067v-2.071zM228.524 180.986h-2.067v2.072h2.067v-2.072zM228.524 184.464h-2.067v2.071h2.067v-2.071zM228.524 187.941h-2.067v2.072h2.067v-2.072zM228.524 191.419h-2.067v2.072h2.067v-2.072zM228.524 194.897h-2.067v2.072h2.067v-2.072zM228.524 198.366h-2.067v2.072h2.067v-2.072zM228.524 201.844h-2.067v2.071h2.067v-2.071zM228.524 212.277h-2.067v2.072h2.067v-2.072zM228.524 215.755h-2.067v2.072h2.067v-2.072zM228.524 219.232h-2.067v2.072h2.067v-2.072zM194.086 142.741h-2.066v2.071h2.066v-2.071zM194.086 146.219h-2.066v2.071h2.066v-2.071zM194.086 149.696h-2.066v2.072h2.066v-2.072zM194.086 153.174h-2.066v2.071h2.066v-2.071zM194.086 156.651h-2.066v2.072h2.066v-2.072zM194.086 160.129h-2.066v2.072h2.066v-2.072zM194.086 163.599h-2.066v2.071h2.066v-2.071zM194.086 167.076h-2.066v2.072h2.066v-2.072zM194.086 170.554h-2.066v2.071h2.066v-2.071zM194.086 174.031h-2.066v2.072h2.066v-2.072zM194.086 177.509h-2.066v2.071h2.066v-2.071zM194.086 180.986h-2.066v2.072h2.066v-2.072zM194.086 184.464h-2.066v2.071h2.066v-2.071zM194.086 187.941h-2.066v2.072h2.066v-2.072zM194.086 191.419h-2.066v2.072h2.066v-2.072zM194.086 194.897h-2.066v2.072h2.066v-2.072zM194.086 198.366h-2.066v2.072h2.066v-2.072zM194.086 201.844h-2.066v2.071h2.066v-2.071zM194.086 205.321h-2.066v2.072h2.066v-2.072zM194.086 208.799h-2.066v2.071h2.066v-2.071zM194.086 212.277h-2.066v2.072h2.066v-2.072zM194.086 215.755h-2.066v2.072h2.066v-2.072zM194.086 219.232h-2.066v2.072h2.066v-2.072zM190.8 142.741h-2.067v2.071h2.067v-2.071zM190.8 146.219h-2.067v2.071h2.067v-2.071zM190.8 149.696h-2.067v2.072h2.067v-2.072zM190.8 153.174h-2.067v2.071h2.067v-2.071zM190.8 156.651h-2.067v2.072h2.067v-2.072zM190.8 160.129h-2.067v2.072h2.067v-2.072zM190.8 163.599h-2.067v2.071h2.067v-2.071zM190.8 167.076h-2.067v2.072h2.067v-2.072zM190.8 170.554h-2.067v2.071h2.067v-2.071zM190.8 174.031h-2.067v2.072h2.067v-2.072zM190.8 177.509h-2.067v2.071h2.067v-2.071zM190.8 180.986h-2.067v2.072h2.067v-2.072zM190.8 184.464h-2.067v2.071h2.067v-2.071zM190.8 187.941h-2.067v2.072h2.067v-2.072zM190.8 191.419h-2.067v2.072h2.067v-2.072zM190.8 194.897h-2.067v2.072h2.067v-2.072zM190.8 198.366h-2.067v2.072h2.067v-2.072zM190.8 201.844h-2.067v2.071h2.067v-2.071zM190.8 205.321h-2.067v2.072h2.067v-2.072zM187.513 142.741h-2.067v2.071h2.067v-2.071zM187.513 146.219h-2.067v2.071h2.067v-2.071zM187.513 149.696h-2.067v2.072h2.067v-2.072zM187.513 153.174h-2.067v2.071h2.067v-2.071zM187.513 156.651h-2.067v2.072h2.067v-2.072zM187.513 160.129h-2.067v2.072h2.067v-2.072zM187.513 163.599h-2.067v2.071h2.067v-2.071zM187.513 167.076h-2.067v2.072h2.067v-2.072zM187.513 170.554h-2.067v2.071h2.067v-2.071zM187.513 174.031h-2.067v2.072h2.067v-2.072zM187.513 177.509h-2.067v2.071h2.067v-2.071zM187.513 180.986h-2.067v2.072h2.067v-2.072zM187.513 184.464h-2.067v2.071h2.067v-2.071zM187.513 187.941h-2.067v2.072h2.067v-2.072zM187.513 191.419h-2.067v2.072h2.067v-2.072zM187.513 194.897h-2.067v2.072h2.067v-2.072zM187.513 198.366h-2.067v2.072h2.067v-2.072zM187.513 201.844h-2.067v2.071h2.067v-2.071zM187.513 205.321h-2.067v2.072h2.067v-2.072zM184.226 142.741h-2.067v2.071h2.067v-2.071zM184.226 146.219h-2.067v2.071h2.067v-2.071zM184.226 149.696h-2.067v2.072h2.067v-2.072zM184.226 153.174h-2.067v2.071h2.067v-2.071zM184.226 156.651h-2.067v2.072h2.067v-2.072zM184.226 160.129h-2.067v2.072h2.067v-2.072zM184.226 163.599h-2.067v2.071h2.067v-2.071zM184.226 167.076h-2.067v2.072h2.067v-2.072zM184.226 170.554h-2.067v2.071h2.067v-2.071zM184.226 174.031h-2.067v2.072h2.067v-2.072zM184.226 177.509h-2.067v2.071h2.067v-2.071zM184.226 180.986h-2.067v2.072h2.067v-2.072zM184.226 184.464h-2.067v2.071h2.067v-2.071zM184.226 187.941h-2.067v2.072h2.067v-2.072zM184.226 191.419h-2.067v2.072h2.067v-2.072zM180.94 142.741h-2.067v2.071h2.067v-2.071zM180.94 146.219h-2.067v2.071h2.067v-2.071zM180.94 149.696h-2.067v2.072h2.067v-2.072zM180.94 153.174h-2.067v2.071h2.067v-2.071zM180.94 156.651h-2.067v2.072h2.067v-2.072zM180.94 160.129h-2.067v2.072h2.067v-2.072zM180.94 163.599h-2.067v2.071h2.067v-2.071zM180.94 167.076h-2.067v2.072h2.067v-2.072zM180.94 170.554h-2.067v2.071h2.067v-2.071zM180.94 174.031h-2.067v2.072h2.067v-2.072zM180.94 177.509h-2.067v2.071h2.067v-2.071zM180.94 180.986h-2.067v2.072h2.067v-2.072zM180.94 184.464h-2.067v2.071h2.067v-2.071zM177.653 142.741h-2.067v2.071h2.067v-2.071zM177.653 146.219h-2.067v2.071h2.067v-2.071zM177.653 149.696h-2.067v2.072h2.067v-2.072zM177.653 153.174h-2.067v2.071h2.067v-2.071zM177.653 156.651h-2.067v2.072h2.067v-2.072zM177.653 160.129h-2.067v2.072h2.067v-2.072zM177.653 163.599h-2.067v2.071h2.067v-2.071zM177.653 167.076h-2.067v2.072h2.067v-2.072zM177.653 170.554h-2.067v2.071h2.067v-2.071zM177.653 174.031h-2.067v2.072h2.067v-2.072zM177.653 177.509h-2.067v2.071h2.067v-2.071zM177.653 180.986h-2.067v2.072h2.067v-2.072zM369.457 141.701h-2.066v2.072h2.066v-2.072zM369.457 145.179h-2.066v2.071h2.066v-2.071zM369.457 148.656h-2.066v2.072h2.066v-2.072zM369.457 152.134h-2.066v2.071h2.066v-2.071zM369.457 155.611h-2.066v2.072h2.066v-2.072zM369.457 159.089h-2.066v2.071h2.066v-2.071zM369.457 162.566h-2.066v2.072h2.066v-2.072zM369.457 166.044h-2.066v2.072h2.066v-2.072zM369.457 169.522h-2.066v2.072h2.066v-2.072zM369.457 173h-2.066v2.072h2.066V173zM369.457 176.469h-2.066v2.071h2.066v-2.071zM369.457 179.946h-2.066v2.072h2.066v-2.072zM369.457 183.424h-2.066v2.071h2.066v-2.071zM369.457 186.901h-2.066v2.072h2.066v-2.072zM369.457 190.38h-2.066v2.071h2.066v-2.071zM369.457 193.857h-2.066v2.072h2.066v-2.072zM369.457 197.335h-2.066v2.072h2.066v-2.072zM369.457 204.29h-2.066v2.072h2.066v-2.072zM369.457 207.768h-2.066v2.071h2.066v-2.071zM369.457 211.237h-2.066v2.072h2.066v-2.072zM369.457 214.715h-2.066v2.071h2.066v-2.071zM369.457 218.192h-2.066v2.072h2.066v-2.072zM366.17 141.701h-2.066v2.072h2.066v-2.072zM366.17 145.179h-2.066v2.071h2.066v-2.071zM366.17 148.656h-2.066v2.072h2.066v-2.072zM366.17 152.134h-2.066v2.071h2.066v-2.071zM366.17 155.611h-2.066v2.072h2.066v-2.072zM366.17 159.089h-2.066v2.071h2.066v-2.071zM366.17 162.566h-2.066v2.072h2.066v-2.072zM366.17 166.044h-2.066v2.072h2.066v-2.072zM366.17 169.522h-2.066v2.072h2.066v-2.072zM366.17 173h-2.066v2.072h2.066V173zM366.17 176.469h-2.066v2.071h2.066v-2.071zM366.17 179.946h-2.066v2.072h2.066v-2.072zM366.17 183.424h-2.066v2.071h2.066v-2.071zM366.17 186.901h-2.066v2.072h2.066v-2.072zM366.17 190.38h-2.066v2.071h2.066v-2.071zM366.17 193.857h-2.066v2.072h2.066v-2.072zM366.17 214.715h-2.066v2.071h2.066v-2.071zM366.17 218.192h-2.066v2.072h2.066v-2.072zM362.892 141.701h-2.067v2.072h2.067v-2.072zM362.892 145.179h-2.067v2.071h2.067v-2.071zM362.892 148.656h-2.067v2.072h2.067v-2.072zM362.892 152.134h-2.067v2.071h2.067v-2.071zM362.892 155.611h-2.067v2.072h2.067v-2.072zM362.892 159.089h-2.067v2.071h2.067v-2.071zM362.892 162.566h-2.067v2.072h2.067v-2.072zM362.892 166.044h-2.067v2.072h2.067v-2.072zM362.892 169.522h-2.067v2.072h2.067v-2.072zM362.892 173h-2.067v2.072h2.067V173zM362.892 176.469h-2.067v2.071h2.067v-2.071zM362.892 179.946h-2.067v2.072h2.067v-2.072zM362.892 183.424h-2.067v2.071h2.067v-2.071zM362.892 186.901h-2.067v2.072h2.067v-2.072zM362.892 190.38h-2.067v2.071h2.067v-2.071zM362.892 193.857h-2.067v2.072h2.067v-2.072zM362.892 200.812h-2.067v2.072h2.067v-2.072zM362.892 204.29h-2.067v2.072h2.067v-2.072zM362.892 207.768h-2.067v2.071h2.067v-2.071zM362.892 211.237h-2.067v2.072h2.067v-2.072zM362.892 218.192h-2.067v2.072h2.067v-2.072zM305.564 166.044h-2.067v2.072h2.067v-2.072zM305.564 169.522h-2.067v2.072h2.067v-2.072zM305.564 173h-2.067v2.072h2.067V173zM305.564 176.469h-2.067v2.071h2.067v-2.071zM305.564 179.946h-2.067v2.072h2.067v-2.072zM305.564 183.424h-2.067v2.071h2.067v-2.071zM305.564 186.901h-2.067v2.072h2.067v-2.072zM305.564 190.38h-2.067v2.071h2.067v-2.071zM305.564 193.857h-2.067v2.072h2.067v-2.072zM305.564 197.335h-2.067v2.072h2.067v-2.072zM305.564 200.812h-2.067v2.072h2.067v-2.072zM305.564 204.29h-2.067v2.072h2.067v-2.072zM305.564 207.768h-2.067v2.071h2.067v-2.071zM305.564 214.715h-2.067v2.071h2.067v-2.071zM305.564 218.192h-2.067v2.072h2.067v-2.072zM305.564 221.67h-2.067v2.072h2.067v-2.072zM305.564 225.147h-2.067v2.072h2.067v-2.072zM305.564 232.103h-2.067v2.071h2.067v-2.071zM305.564 235.58h-2.067v2.072h2.067v-2.072zM305.564 239.058h-2.067v2.071h2.067v-2.071zM302.277 166.044h-2.067v2.072h2.067v-2.072zM302.277 169.522h-2.067v2.072h2.067v-2.072zM302.277 173h-2.067v2.072h2.067V173zM302.277 176.469h-2.067v2.071h2.067v-2.071zM302.277 179.946h-2.067v2.072h2.067v-2.072zM302.277 183.424h-2.067v2.071h2.067v-2.071zM302.277 186.901h-2.067v2.072h2.067v-2.072zM302.277 190.38h-2.067v2.071h2.067v-2.071zM302.277 193.857h-2.067v2.072h2.067v-2.072zM302.277 197.335h-2.067v2.072h2.067v-2.072zM302.277 200.812h-2.067v2.072h2.067v-2.072zM302.277 204.29h-2.067v2.072h2.067v-2.072zM302.277 207.768h-2.067v2.071h2.067v-2.071zM302.277 218.192h-2.067v2.072h2.067v-2.072zM302.277 221.67h-2.067v2.072h2.067v-2.072zM302.277 228.625h-2.067v2.072h2.067v-2.072zM302.277 232.103h-2.067v2.071h2.067v-2.071zM302.277 235.58h-2.067v2.072h2.067v-2.072zM302.277 239.058h-2.067v2.071h2.067v-2.071zM298.991 166.044h-2.067v2.072h2.067v-2.072zM298.991 169.522h-2.067v2.072h2.067v-2.072zM298.991 173h-2.067v2.072h2.067V173zM298.991 176.469h-2.067v2.071h2.067v-2.071zM298.991 179.946h-2.067v2.072h2.067v-2.072zM298.991 183.424h-2.067v2.071h2.067v-2.071zM298.991 186.901h-2.067v2.072h2.067v-2.072zM298.991 190.38h-2.067v2.071h2.067v-2.071zM298.991 193.857h-2.067v2.072h2.067v-2.072zM298.991 197.335h-2.067v2.072h2.067v-2.072zM298.991 200.812h-2.067v2.072h2.067v-2.072zM298.991 204.29h-2.067v2.072h2.067v-2.072zM298.991 207.768h-2.067v2.071h2.067v-2.071zM298.991 211.237h-2.067v2.072h2.067v-2.072zM298.991 218.192h-2.067v2.072h2.067v-2.072zM298.991 225.147h-2.067v2.072h2.067v-2.072zM298.991 228.625h-2.067v2.072h2.067v-2.072zM298.991 232.103h-2.067v2.071h2.067v-2.071zM298.991 235.58h-2.067v2.072h2.067v-2.072zM298.991 239.058h-2.067v2.071h2.067v-2.071zM318.951 185.87h-2.066v2.072h2.066v-2.072zM318.951 189.34h-2.066v2.071h2.066v-2.071zM318.951 192.817h-2.066v2.072h2.066v-2.072zM318.951 196.295h-2.066v2.072h2.066v-2.072zM318.951 199.772h-2.066v2.072h2.066v-2.072zM318.951 203.25h-2.066v2.072h2.066v-2.072zM318.951 213.683h-2.066v2.071h2.066v-2.071zM318.951 217.16h-2.066v2.072h2.066v-2.072zM318.951 220.63h-2.066v2.071h2.066v-2.071zM318.951 224.107h-2.066v2.072h2.066v-2.072zM318.951 227.585h-2.066v2.072h2.066v-2.072zM318.951 231.062h-2.066v2.072h2.066v-2.072zM318.951 234.54h-2.066v2.072h2.066v-2.072zM315.665 185.87h-2.066v2.072h2.066v-2.072zM315.665 189.34h-2.066v2.071h2.066v-2.071zM315.665 192.817h-2.066v2.072h2.066v-2.072zM315.665 196.295h-2.066v2.072h2.066v-2.072zM315.665 199.772h-2.066v2.072h2.066v-2.072zM315.665 203.25h-2.066v2.072h2.066v-2.072zM315.665 213.683h-2.066v2.071h2.066v-2.071zM315.665 217.16h-2.066v2.072h2.066v-2.072zM315.665 220.63h-2.066v2.071h2.066v-2.071zM315.665 224.107h-2.066v2.072h2.066v-2.072zM315.665 227.585h-2.066v2.072h2.066v-2.072zM315.665 231.062h-2.066v2.072h2.066v-2.072zM315.665 238.018h-2.066v2.071h2.066v-2.071zM206.495 170.554h-2.066v2.071h2.066v-2.071zM206.495 174.031h-2.066v2.072h2.066v-2.072zM206.495 177.509h-2.066v2.071h2.066v-2.071zM206.495 180.986h-2.066v2.072h2.066v-2.072zM206.495 184.464h-2.066v2.071h2.066v-2.071zM206.495 187.941h-2.066v2.072h2.066v-2.072zM206.495 191.419h-2.066v2.072h2.066v-2.072zM206.495 194.897h-2.066v2.072h2.066v-2.072zM206.495 198.366h-2.066v2.072h2.066v-2.072zM206.495 201.844h-2.066v2.071h2.066v-2.071zM206.495 205.321h-2.066v2.072h2.066v-2.072zM206.495 212.277h-2.066v2.072h2.066v-2.072zM206.495 215.755h-2.066v2.072h2.066v-2.072zM206.495 219.232h-2.066v2.072h2.066v-2.072zM206.495 222.71h-2.066v2.072h2.066v-2.072zM206.495 226.188h-2.066v2.071h2.066v-2.071zM206.495 229.665h-2.066v2.072h2.066v-2.072zM206.495 233.135h-2.066v2.071h2.066v-2.071zM206.495 236.612h-2.066v2.072h2.066v-2.072zM203.217 170.554h-2.067v2.071h2.067v-2.071zM203.217 174.031h-2.067v2.072h2.067v-2.072zM203.217 177.509h-2.067v2.071h2.067v-2.071zM203.217 180.986h-2.067v2.072h2.067v-2.072zM203.217 184.464h-2.067v2.071h2.067v-2.071zM203.217 187.941h-2.067v2.072h2.067v-2.072zM203.217 191.419h-2.067v2.072h2.067v-2.072zM203.217 194.897h-2.067v2.072h2.067v-2.072zM203.217 198.366h-2.067v2.072h2.067v-2.072zM203.217 201.844h-2.067v2.071h2.067v-2.071zM203.217 205.321h-2.067v2.072h2.067v-2.072zM203.217 208.799h-2.067v2.071h2.067v-2.071zM203.217 212.277h-2.067v2.072h2.067v-2.072zM203.217 215.755h-2.067v2.072h2.067v-2.072zM203.217 219.232h-2.067v2.072h2.067v-2.072zM203.217 222.71h-2.067v2.072h2.067v-2.072zM203.217 226.188h-2.067v2.071h2.067v-2.071zM203.217 229.665h-2.067v2.072h2.067v-2.072zM203.217 233.135h-2.067v2.071h2.067v-2.071zM203.217 236.612h-2.067v2.072h2.067v-2.072zM222.689 184.098h-2.067v2.071h2.067v-2.071zM222.689 187.576h-2.067v2.072h2.067v-2.072zM222.689 191.054h-2.067v2.071h2.067v-2.071zM222.689 194.531h-2.067v2.072h2.067v-2.072zM222.689 198h-2.067v2.072h2.067V198zM222.689 201.478h-2.067v2.071h2.067v-2.071zM222.689 204.955h-2.067v2.072h2.067v-2.072zM222.689 208.434h-2.067v2.071h2.067v-2.071zM222.689 211.911h-2.067v2.072h2.067v-2.072zM222.689 215.389h-2.067v2.071h2.067v-2.071zM219.402 184.098h-2.067v2.071h2.067v-2.071zM219.402 187.576h-2.067v2.072h2.067v-2.072zM219.402 191.054h-2.067v2.071h2.067v-2.071zM219.402 194.531h-2.067v2.072h2.067v-2.072zM219.402 198h-2.067v2.072h2.067V198zM219.402 201.478h-2.067v2.071h2.067v-2.071zM219.402 204.955h-2.067v2.072h2.067v-2.072zM219.402 208.434h-2.067v2.071h2.067v-2.071zM219.402 211.911h-2.067v2.072h2.067v-2.072z" fill="#993B3B"/>
        <path d="M238.948 52.156h-3.469v193.916h3.469V52.156zM304.277 52.156h-3.469v193.916h3.469V52.156zM369.598 52.156h-3.469v193.916h3.469V52.156z" fill="#13123D" fill-opacity=".18"/>
        <path d="M122.69 227.202h21.397a3.666 3.666 0 0 1 3.661 3.669v41.457h-28.71v-41.457a3.665 3.665 0 0 1 3.66-3.669h-.008z" fill="#040222"/>
        <path d="M147.748 233.301h-28.71v3.236h28.71v-3.236z" fill="#0E0E29" fill-opacity=".37"/>
        <path d="M135.365 266.862h7.154c1.087 0 1.967.882 1.967 1.972v3.494h-11.089v-3.494c0-1.09.88-1.972 1.968-1.972z" fill="#13123D" fill-opacity=".18"/>
        <path d="M144.519 272.328h-7.96a1.28 1.28 0 0 1 0-2.562h7.96a1.28 1.28 0 0 1 1.278 1.281 1.28 1.28 0 0 1-1.278 1.281z" fill="#0E0E29" fill-opacity=".37"/>
        <path d="M271.998 43.05c10.507-2.486 17.014-13.038 14.534-23.57-2.48-10.531-13.008-17.054-23.514-14.568-10.507 2.486-17.014 13.038-14.534 23.57 2.48 10.531 13.007 17.053 23.514 14.568z" fill="#13123D" fill-opacity=".18"/>
        <path d="M270.174 40.407c9.063-1.474 15.218-10.034 13.746-19.119-1.471-9.084-10.01-15.253-19.073-13.779-9.063 1.475-15.218 10.035-13.747 19.12 1.471 9.084 10.011 15.253 19.074 13.778z" fill="#040222" fill-opacity=".17"/>
        <path d="M268.289 12.546v11.648l7.702-4.368" fill="#040222" fill-opacity=".17"/>
        <path d="M268.289 12.546v11.648l7.702-4.368" stroke="#13123D" stroke-opacity=".18" stroke-width="2" stroke-linecap="round" stroke-linejoin="round"/>
        <path d="M80.451 215.222c-1.494-2.462-3.95-.324-3.95-.324.348-4.726-3.985-7.954-3.985-7.954s5.038 0 5.744-4.817c.706-4.817-1.76-2.579-4.067-2.612-2.307-.033-4.723 6.722-1.677 10.524 3.046 3.802 2.225 10.292-4.797 16.531-1.718 1.523-2.88 3.553-3.669 5.741.532-5.732.83-13.811-.854-19.202-2.856-9.16 2.59-11.622 4.166-16.207 1.585-4.575-4.166-8.452-4.166-8.452s5.403-2.463 2.763-5.283c-2.639-2.821-8.084-2.438-8.084 1.248 0 3.685 3.694 5.091 3.694 5.091s4.216 4.401 4.216 6.698c0 2.296-4.216 7.221-4.216 7.221s1.934-4.218-1.934-4.401c-3.868-.183-5.096 4.925-3.511 7.221 1.585 2.288 4.216.35 4.216.35s.307 4.933 1.212 7.929c.398 1.314.208 6.481-.124 11.855-.78-1.938-1.884-3.719-3.42-5.092-7.03-6.239-7.844-12.729-4.797-16.531 3.046-3.802.63-10.557-1.677-10.524-2.307.033-4.773-2.213-4.067 2.612.706 4.826 5.744 4.817 5.744 4.817s-4.341 3.237-3.984 7.954c0 0-2.457-2.147-3.951.324-2.665 4.401 3.51 7.13 4.556 4.967 0 0 13.106 9.302 9.944 22.688l.739 1.09c-.092 1.081-.158 1.73-.158 1.73l1.03-.441 1.17 1.723c-.059 3.344.298 5.815.298 5.815l3.138-4.634c-3.163-13.386 9.943-22.688 9.943-22.688 1.037 2.163 7.221-.566 4.557-4.967h-.042z" fill="#13123D" fill-opacity=".18"/>
        <path opacity=".2" d="M80.451 215.222c-1.494-2.462-3.95-.324-3.95-.324.348-4.726-3.985-7.954-3.985-7.954s5.038 0 5.744-4.817c.706-4.817-1.76-2.579-4.067-2.612-2.307-.033-4.723 6.722-1.677 10.524 3.046 3.802 2.225 10.292-4.797 16.531-1.718 1.523-2.88 3.553-3.669 5.741.532-5.732.83-13.811-.854-19.202-2.856-9.16 2.59-11.622 4.166-16.207 1.585-4.575-4.166-8.452-4.166-8.452s5.403-2.463 2.763-5.283c-2.639-2.821-8.084-2.438-8.084 1.248 0 3.685 3.694 5.091 3.694 5.091s4.216 4.401 4.216 6.698c0 2.296-4.216 7.221-4.216 7.221s1.934-4.218-1.934-4.401c-3.868-.183-5.096 4.925-3.511 7.221 1.585 2.288 4.216.35 4.216.35s.307 4.933 1.212 7.929c.398 1.314.208 6.481-.124 11.855-.78-1.938-1.884-3.719-3.42-5.092-7.03-6.239-7.844-12.729-4.797-16.531 3.046-3.802.63-10.557-1.677-10.524-2.307.033-4.773-2.213-4.067 2.612.706 4.826 5.744 4.817 5.744 4.817s-4.341 3.237-3.984 7.954c0 0-2.457-2.147-3.951.324-2.665 4.401 3.51 7.13 4.556 4.967 0 0 13.106 9.302 9.944 22.688l.739 1.09c-.092 1.081-.158 1.73-.158 1.73l1.03-.441 1.17 1.723c-.059 3.344.298 5.815.298 5.815l3.138-4.634c-3.163-13.386 9.943-22.688 9.943-22.688 1.037 2.163 7.221-.566 4.557-4.967h-.042z" fill="#13123D" fill-opacity=".18"/>
        <path d="M77.886 272.328h-30.02l-3.246-32.954h36.504l-3.237 32.954z" fill="#0E0E29" fill-opacity=".37"/>
        <path d="M82.726 235.738H43.019v7.272h39.707v-7.272z" fill="#040222"/>
        <path d="M207.5 310c88.878 0 160.929-4.217 160.929-9.418s-72.051-9.418-160.929-9.418-160.929 4.217-160.929 9.418S118.622 310 207.5 310z" fill="#01011D" fill-opacity=".22"/>
        <path d="M340.674 274.35c.125-.849 3.03-20.941-2.789-27.879-1.286-1.539-2.913-2.338-4.83-2.388-11.745-.275-13.355 9.185-13.371 9.276l1.386.217c.049-.341 1.444-8.345 11.952-8.087 1.519.033 2.764.657 3.793 1.889 5.42 6.456 2.506 26.564 2.473 26.764l1.386.208z" fill="#E8745A"/>
        <path d="m341.379 273.435 1.403-.041c0-.183-.465-18.512 8.54-22.297 8.832-3.711 12.799 3.919 12.965 4.243l1.253-.632c-.049-.092-4.706-9.135-14.757-4.909-9.894 4.16-9.429 22.846-9.404 23.636z" fill="#E8745A"/>
        <path d="M341.338 274.874c0-.291.083-29.277 5.719-37.755 5.412-8.136 14.143-4.309 14.517-4.143l.581-1.281c-.1-.05-10.176-4.501-16.26 4.642-5.868 8.828-5.959 37.323-5.959 38.537h1.402zM331.37 244.791s5.129 1.897 3.602 6.373c-1.527 4.476-17.746 11.838-17.746 11.838s-6.789-6.239-.556-16.389c6.242-10.15 14.559-5.017 14.691-1.822h.009z" fill="#E8745A"/>
        <path d="M347.313 235.597s-3.643-.391-3.344-2.612c.298-2.222 14.151-7.946 22.335 1.306 0 0-5.237 9.018-12.807 9.135-7.57.116-6.175-7.829-6.175-7.829h-.009zM351.057 250.448s-2.515-2.03.199-3.029c2.714-.99 16.019-.707 16.16 12.505 0 0-15.496 2.579-17.413-2.454-1.918-5.034 1.062-7.022 1.062-7.022h-.008z" fill="#E8745A"/>
        <path opacity=".2" d="M331.37 244.791s5.129 1.897 3.602 6.373c-1.527 4.476-17.746 11.838-17.746 11.838s-6.789-6.239-.556-16.389c6.242-10.15 14.559-5.017 14.691-1.822h.009zM347.313 235.597s-3.643-.391-3.344-2.612c.298-2.222 14.151-7.946 22.335 1.306 0 0-5.237 9.018-12.807 9.135-7.57.116-6.175-7.829-6.175-7.829h-.009zM351.057 250.448s-2.515-2.03.199-3.029c2.714-.99 16.019-.707 16.16 12.505 0 0-15.496 2.579-17.413-2.454-1.918-5.034 1.062-7.022 1.062-7.022h-.008z" fill="#000"/>
        <path d="M328.614 301.272h24.053l2.59-26.398h-29.233l2.59 26.398z" fill="#E8745A"/>
        <path opacity=".5" d="M328.614 301.272h24.053l2.59-26.398h-29.233l2.59 26.398z" fill="#fff"/>
        <path d="M324.738 277.795h31.806v-5.824h-31.806v5.824z" fill="#E8745A"/>
        <path opacity=".2" d="M324.738 277.795h31.806v-5.824h-31.806v5.824z" fill="#fff"/>
        <path d="m301.39 282.353-23.913-2.354v-33.687h-9.478v33.679l-24.012 2.362a4.664 4.664 0 0 0-4.2 4.643v3.602h65.803v-3.602a4.658 4.658 0 0 0-4.2-4.643z" fill="#263238"/>
        <path opacity=".2" d="m301.39 282.353-23.913-2.354v-33.687h-9.478v33.679l-24.012 2.362a4.664 4.664 0 0 0-4.2 4.643v3.602h65.803v-3.602a4.658 4.658 0 0 0-4.2-4.643z" fill="#fff"/>
        <path d="M242.318 301.272c3.424 0 6.2-2.782 6.2-6.214 0-3.433-2.776-6.215-6.2-6.215-3.424 0-6.2 2.782-6.2 6.215 0 3.432 2.776 6.214 6.2 6.214z" fill="#263238"/>
        <path d="M303.066 301.272c3.425 0 6.2-2.782 6.2-6.214 0-3.433-2.775-6.215-6.2-6.215-3.424 0-6.2 2.782-6.2 6.215 0 3.432 2.776 6.214 6.2 6.214z" fill="#020114"/>
        <path d="M266.372 223.542h12.741v26.565a3.433 3.433 0 0 1-3.428 3.436H269.8a3.433 3.433 0 0 1-3.428-3.436v-26.565z" fill="#263238"/>
        <path opacity=".3" d="M266.372 223.542h12.741v26.565a3.433 3.433 0 0 1-3.428 3.436H269.8a3.433 3.433 0 0 1-3.428-3.436v-26.565z" fill="#fff"/>
        <path d="M295.396 170.887s1.81 44.926-10.673 52.655h14.242s11.039-15.308 7.919-52.655h-11.496.008z" fill="#263238"/>
        <path opacity=".3" d="M295.396 170.887s1.81 44.926-10.673 52.655h14.242s11.039-15.308 7.919-52.655h-11.496.008z" fill="#fff"/>
        <path d="M303.821 226.986h-63.843v-5.566a4.156 4.156 0 0 1 4.15-4.159h55.543a4.156 4.156 0 0 1 4.15 4.159v5.566z" fill="#263238"/>
        <path d="M238.982 226.985h65.827a1.67 1.67 0 0 0 1.669-1.672v-1.514a1.67 1.67 0 0 0-1.669-1.672h-65.827a1.67 1.67 0 0 0-1.668 1.672v1.514a1.67 1.67 0 0 0 1.668 1.672z" fill="#263238"/>
        <path opacity=".6" d="M238.982 226.985h65.827a1.67 1.67 0 0 0 1.669-1.672v-1.514a1.67 1.67 0 0 0-1.669-1.672h-65.827a1.67 1.67 0 0 0-1.668 1.672v1.514a1.67 1.67 0 0 0 1.668 1.672z" fill="#fff"/>
        <path d="M310.386 146.801h-22.825c-6.683 0-12.101 5.431-12.101 12.13v8.952c0 6.699 5.418 12.13 12.101 12.13h22.825c6.684 0 12.102-5.431 12.102-12.13v-8.952c0-6.699-5.418-12.13-12.102-12.13z" fill="#000016"/>
        <path d="m218.331 110.095-4.556-12.039s1.95-1.814.614-3.652c-1.336-1.839-9.744-7.014-11.28-6.099-1.535.907-4.93 4.335-3.096 6.24 1.843 1.905 9.985 5.075 9.985 5.075l4.026 15.799 4.299-5.324h.008z" fill="#E4897B"/>
        <path d="M250.146 132.982s-20.725-4.268-22.975-5.291c-2.249-1.024-10.591-25.508-10.591-25.508l-6.391 2.995s5.146 24.576 10.409 30.425c5.262 5.84 27.713 10.79 27.713 10.79l1.835-13.403v-.008z" fill="#E8745A"/>
        <path opacity=".2" d="M248.311 146.377s-.132-.025-.381-.092a153.76 153.76 0 0 1-8.881-2.329c-6.831-1.989-15.447-5.034-18.451-8.37-5.254-5.849-10.409-30.425-10.409-30.425l6.391-2.995s8.342 24.493 10.6 25.508c2.249 1.015 22.966 5.283 22.966 5.283l-1.835 13.403v.017z" fill="#000"/>
        <path d="m216.688 101.7 1.32 2.554-8.217 2.837.315-3.12 6.582-2.271z" fill="#E8745A"/>
        <path opacity=".2" d="M248.469 146.044a152.814 152.814 0 0 1-9.038-1.63c2.448-4.235 9.619-6.415 9.619-6.415l-.581 8.045z" fill="#000"/>
        <path d="M279.362 116.026s1.22 11.507-3.038 14.335c-4.25 2.829-25.174-.482-27.548-5.116-2.373-4.626 6.557-17.197 6.557-17.197l24.021 7.978h.008z" fill="#05042A"/>
        <path d="m194.71 267.428 5.461 1.323 2.764-7.554 2.507-6.872-6.217-2.654-2.39 8.336-2.125 7.421z" fill="#E4897B"/>
        <path opacity=".2" d="m196.835 260.007 6.1 1.19 2.507-6.872-6.217-2.654-2.39 8.336z" fill="#000"/>
        <path d="m197.383 256.022 7.569 2.821s20.194-50.609 24.344-50.784c4.15-.175 46.406 19.294 56.996 8.495 10.591-10.791-4.722-36.807-4.722-36.807s-25.473-3.644-27.39 2.122c-.374 1.115-.78 3.303-1.079 5.175-.291 1.763-.49 3.244-.49 3.244h-.017c-.788-.199-26.36-6.814-36.437 0-10.233 6.939-18.774 65.734-18.774 65.734z" fill="#E8745A"/>
        <path opacity=".6" d="m197.383 256.022 7.569 2.821s20.194-50.609 24.344-50.784c4.15-.175 46.406 19.294 56.996 8.495 10.591-10.791-4.722-36.807-4.722-36.807s-25.473-3.644-27.39 2.122c-.374 1.115-.78 3.303-1.079 5.175-.291 1.763-.49 3.244-.49 3.244h-.017c-.788-.199-26.36-6.814-36.437 0-10.233 6.939-18.774 65.734-18.774 65.734z" fill="#fff"/>
        <path d="m240.924 289.018 5.437-1.398-1.046-7.821-.971-7.171-6.723.607 1.743 8.353 1.56 7.43z" fill="#E4897B"/>
        <path opacity=".2" d="m239.405 281.763 5.943-1.813-.988-7.247-6.731.566 1.776 8.494z" fill="#000"/>
        <path d="m208.081 256.03-11.03-3.752-.465 4.526 8.358 2.962 3.137-3.736zM267.999 219.149s-1.727.041-28.445-1.207c0 0 3.993 33.487 6.176 58.546l-7.993 1.364s-19.09-53.67-18.883-62.198c.208-8.527 9.96-11.023 9.96-11.023s19.032 11.023 39.185 14.518z" fill="#E8745A"/>
        <path opacity=".6" d="M267.999 219.149s-1.727.041-28.445-1.207c0 0 3.993 33.487 6.176 58.546l-7.993 1.364s-19.09-53.67-18.883-62.198c.208-8.527 9.96-11.023 9.96-11.023s19.032 11.023 39.185 14.518z" fill="#fff"/>
        <path opacity=".1" d="M267.999 219.149s-1.727.041-28.445-1.207c0 0 3.993 33.487 6.176 58.546l-7.993 1.364s-19.09-53.67-18.883-62.198c.208-8.527 9.96-11.023 9.96-11.023s19.032 11.023 39.185 14.518z" fill="#000"/>
        <path d="m246.892 274.059-10.981 1.248 2.125 4.317 8.889-1.139-.033-4.426z" fill="#E8745A"/>
        <path opacity=".1" d="m252.61 190.288 14.899 3.111s-8.234-4.559-14.409-6.356c-.29 1.764-.49 3.245-.49 3.245z" fill="#000"/>
        <path d="m280.955 175.771.615 3.976-27.39 2.114-.731-4.693 27.506-1.397z" fill="#263238"/>
        <path opacity=".2" d="m280.955 175.771.615 3.976-27.39 2.114-.731-4.693 27.506-1.397z" fill="#000"/>
        <path d="m272.318 182.429 1.354-.14-.709-6.91-1.354.139.709 6.911z" fill="#E8745A"/>
        <path d="m260.155 181.734 5.996-.386-.292-4.558-5.997.386.293 4.558z" fill="#fff"/>
        <path d="m255.511 183.146 1.354-.139-.709-6.911-1.354.14.709 6.91z" fill="#E8745A"/>
        <path opacity=".6" d="m272.318 182.429 1.354-.14-.709-6.91-1.354.139.709 6.911zM255.511 183.146l1.354-.139-.709-6.911-1.354.14.709 6.91z" fill="#fff"/>
        <path d="M249.648 132.599s6.989 2.197 15.778 1.747c8.79-.449 19.298 3.827 19.298 3.827l-3.777 37.597-27.498 1.389s-9.237-31.398-3.801-44.56z" fill="#E8745A"/>
        <path d="M254.071 111.367s1.544-18.261 16.775-11.622c19.115 8.328 3.917 30.566-5.42 25.999-9.338-4.568-11.355-14.377-11.355-14.377z" fill="#05042A"/>
        <path opacity=".2" d="m258.337 135.37.44 10.316 3.412-4.85s-1.22 11.415-.507 17.621c0 0 .656-11.14 2.2-17.621l3.627 4.85 5.204-10.25s-8.424-3.036-14.384-.066h.008z" fill="#000"/>
        <path d="m263.052 137.283 7.877-2.23c-4.856-3.344-2.407-10.832-2.407-10.832l-7.802 2.746c.415 1.298.68 2.396.838 3.344.813 4.876-1.386 5.267-1.386 5.267l2.88 1.705z" fill="#E4897B"/>
        <path opacity=".2" d="M260.72 126.975c.415 1.298.68 2.396.838 3.344 3.735-1.497 6.964-6.09 6.964-6.09l-7.802 2.746z" fill="#000"/>
        <path d="M265.816 103.58c-6.906-1.531-9.952 1.681-12.035 8.703-2.598 8.777-2.026 15.549 7.03 15.557 12.3.017 16.475-21.722 5.005-24.268v.008z" fill="#F7B0A5"/>
        <path d="M258.329 112.89s-1.353 1.598-2.647 2.429c0 0 .381 1.074 1.651 1.19l.996-3.611v-.008z" fill="#DE5954"/>
        <path d="M262.687 113.256c-.141.566.05 1.098.432 1.19.373.091.796-.291.929-.857.141-.566-.05-1.098-.431-1.19-.374-.091-.797.291-.93.857z" fill="#05042B"/>
        <path d="m263.766 112.466-1.112-.782s.357 1.189 1.112.782zM255.698 111.41c-.141.565.05 1.098.431 1.189.374.092.797-.291.93-.857.141-.565-.05-1.098-.432-1.189-.373-.092-.796.291-.929.857z" fill="#05042B"/>
        <path d="m256.777 110.619-1.112-.782s.357 1.19 1.112.782z" fill="#05042B"/>
        <path d="M263.808 108.489s2 .175 2.764 1.714M258.852 107.083s-1.121-.724-2.88-.042" stroke="#151442" stroke-width=".72" stroke-linecap="round" stroke-linejoin="round"/>
        <path d="M270.788 116.925s-1.976-6.406-.515-10.691c0 0-12.45-8.644-16.202 5.134 0 0 1.395-12.663 13.33-10.309 11.919 2.355 8.043 19.76.764 23.587 0 0 3.834-3.727 2.623-7.729v.008z" fill="#05042B"/>
        <path d="M269.335 118.132c.29-1.107 1.859-2.738 3.876-2.055 2.092.707 2.133 5.341-3.42 5.216-.796-.017-1.062-.865-.456-3.17v.009z" fill="#F7B0A5"/>
        <path d="M256.097 119.13c.24.915.357 2.571.357 2.571.149.016.307.033.456.041 2.058.175 3.079-.424 3.577-1.148.274-.391.382-.832.432-1.19.058-.415 0-.723 0-.723-1.145.565-3.088.549-4.117.491-.431-.017-.705-.05-.705-.05v.008z" fill="#05042B"/>
        <path d="m256.802 119.18.124.757c1.942.158 3.337.017 3.993-.524.058-.416 0-.724 0-.724-1.146.566-3.088.549-4.117.491z" fill="#fff"/>
        <path d="M256.91 121.742c2.059.175 3.079-.424 3.577-1.148-.705-.033-1.56 0-2.332.258a2.5 2.5 0 0 0-1.245.882v.008z" fill="#DE5954"/>
        <path d="M265.841 104.13s.265 12.013 7.453 13.452c7.188 1.44-.672-15.433-.672-15.433s-10.707-7.005-17.837-2.071c-7.138 4.942-.722 11.29-.722 11.29s1.511-8.919 11.769-7.238h.009z" fill="#05042B"/>
        <path d="M266.09 103.339s-2.565 7.596 2.498 11.581" stroke="#151442" stroke-width=".5" stroke-linecap="round" stroke-linejoin="round"/>
        <path d="M275.394 120.053c-.913 2.446-3.262 3.819-5.246 3.07-1.983-.748-2.846-3.327-1.933-5.773.913-2.446 3.261-3.819 5.245-3.07 1.984.748 2.847 3.327 1.934 5.773z" fill="#E8745A"/>
        <path opacity=".4" d="M275.394 120.053c-.913 2.446-3.262 3.819-5.246 3.07-1.983-.748-2.846-3.327-1.933-5.773.913-2.446 3.261-3.819 5.245-3.07 1.984.748 2.847 3.327 1.934 5.773z" fill="#000"/>
        <path d="M273.103 116.052s2.98-13.37-3.702-16.873c0 0 1.395.192 2.258.441.863.25 6.2 5.674 3.503 17.688l-2.059-1.256z" fill="#E8745A"/>
        <path opacity=".2" d="M273.103 116.052s2.98-13.37-3.702-16.873c0 0 1.395.192 2.258.441.863.25 6.2 5.674 3.503 17.688l-2.059-1.256z" fill="#000"/>
        <path d="m260.579 123.706-.498-.075.133-.824c6.017.982 10.491-2.204 10.533-2.238l.489.674c-.191.133-4.54 3.27-10.657 2.463z" fill="#E8745A"/>
        <path d="m260.579 123.706-.498-.075.133-.824c6.017.982 10.491-2.204 10.533-2.238l.489.674c-.191.133-4.54 3.27-10.657 2.463z" fill="#000" opacity=".2"/>
        <path d="M275.112 119.721c-.606 1.614-2.158 2.52-3.469 2.03-1.311-.491-1.884-2.205-1.278-3.819.606-1.614 2.158-2.521 3.469-2.03 1.312.491 1.884 2.205 1.278 3.819zM259.84 123.972l-.664-.092a.9.9 0 0 1-.78-1.015.9.9 0 0 1 1.012-.782l.664.092a.908.908 0 0 1 .781 1.015.901.901 0 0 1-1.013.782z" fill="#E8745A"/>
        <path opacity=".4" d="m259.84 123.972-.664-.092a.9.9 0 0 1-.78-1.015.9.9 0 0 1 1.012-.782l.664.092a.908.908 0 0 1 .781 1.015.901.901 0 0 1-1.013.782z" fill="#000"/>
        <path d="m268.812 132.2-4.93 4.851 1.975 5.948 6.864-7.571-3.909-3.228zM261.683 133.215l.797 3.735-2.548 5.283-1.594-6.863 3.345-2.155z" fill="#E8745A"/>
        <path d="m267.758 136.41 2.863-10.508s-1.386-2.621-1.087-3.161c.299-.549 1.793-7.605 2.855-8.37 1.063-.765 5.428.541 5.877 1.256.448.716-4.184 10.275-4.184 10.275l-1.684 11.381-4.632-.873h-.008z" fill="#E4897B"/>
        <path d="M284.724 138.173c7.876 8.087-7.918 26.407-16.965 25.625s.224-33.994.224-33.994l5.793.956s-2.033 14.377-1.394 15.5c.639 1.132 9.686-10.807 12.333-8.087h.009z" fill="#E8745A"/>
        <path opacity=".2" d="M284.724 138.173c7.876 8.087-7.918 26.407-16.965 25.625s.224-33.994.224-33.994l5.793.956s-2.033 14.377-1.394 15.5c.639 1.132 9.686-10.807 12.333-8.087h.009z" fill="#000"/>
        <path d="m267.509 128.739-.855 2.745 8.076.716v-2.396l-7.221-1.065z" fill="#E8745A"/>
        <path opacity=".6" d="M255.267 150.461h-3.27a.657.657 0 0 0-.656.658v6.19c0 .363.293.657.656.657h3.27a.656.656 0 0 0 .655-.657v-6.19a.657.657 0 0 0-.655-.658z" fill="#fff"/>
        <path opacity=".2" d="M255.333 150.953h-3.719v5.1h3.719v-5.1z" fill="#000"/>
        <path d="M253.972 148.648h-.822v3.003h.822v-3.003z" fill="#263238"/>
        <path d="M185.68 278.061a7.61 7.61 0 0 1 2.631-.674s3.154-1.864 6.274-9.085l3.511-.017a2.903 2.903 0 0 1 2.698 1.939c.058.158.091.324.099.491a18.7 18.7 0 0 1-.273 2.537c-.316 2.637-2.051 8.286-2.051 8.286l-.597-.149 1.079-5.258c.357-1.789-1.511-.059-2.382 1.738-.872 1.797-2.2 3.611-6.084 2.721-4.524-1.057-6.341-1.714-4.93-2.529h.025z" fill="#E8745A"/>
        <path d="M195.224 266.405s-4.39 9.201-6.913 10.982c0 0 3.386 2.021 6.913-2.48 4.557-5.823 5.678-4.201 5.678-4.201s-.191-1.997-.548-2.97c-.689-1.88-5.13-1.331-5.13-1.331z" fill="#E4897B"/>
        <path d="M234.002 299.983a7.669 7.669 0 0 1 2.399-1.281s2.622-2.554 3.95-10.317l3.412-.857a2.888 2.888 0 0 1 3.079 1.24c.091.141.166.291.216.449.166.832.282 1.681.34 2.529.316 2.638-.033 8.536-.033 8.536h-.614l-.191-5.366c-.075-1.822-1.486.3-1.901 2.255-.415 1.955-1.286 4.035-5.262 4.093-4.64.042-6.565-.158-5.387-1.281h-.008z" fill="#E8745A"/>
        <path d="M240.517 286.397s-2.083 9.984-4.117 12.305c0 0 3.769 1.165 6.126-4.051 3.054-6.748 4.523-5.425 4.523-5.425s-.655-1.888-1.236-2.754c-1.113-1.664-5.296-.075-5.296-.075z" fill="#E4897B"/>
        <path d="M317.691 85.019h-28.975a4.213 4.213 0 0 0-4.208 4.218v12.421a4.214 4.214 0 0 0 4.208 4.219h28.975a4.214 4.214 0 0 0 4.208-4.219v-12.42a4.213 4.213 0 0 0-4.208-4.219z" fill="#E8745A"/>
        <path d="m294.526 103.505-8.732 11.898 14.085-11.099-5.353-.799z" fill="#E8745A"/>
        <path d="M294.849 95.452c0 .674-.547 1.231-1.228 1.231-.681 0-1.228-.549-1.228-1.231s.547-1.231 1.228-1.231c.681 0 1.228.549 1.228 1.231zM301.232 95.452a1.227 1.227 0 1 1-2.457 0 1.227 1.227 0 1 1 2.457 0zM307.615 95.452a1.227 1.227 0 1 1-2.457 0 1.227 1.227 0 1 1 2.457 0zM313.998 95.452c0 .674-.548 1.231-1.229 1.231-.68 0-1.228-.549-1.228-1.231s.548-1.231 1.228-1.231c.681 0 1.229.549 1.229 1.231z" fill="#F2D0C9"/>
        <path d="m208.889 75.193-20.673-11.162a1.143 1.143 0 0 0-1.551.467l-6.597 12.276a1.15 1.15 0 0 0 .465 1.555l20.672 11.162c.557.3 1.252.092 1.552-.466l6.597-12.276a1.15 1.15 0 0 0-.465-1.556z" fill="#E8745A"/>
        <path opacity=".7" d="m208.889 75.193-20.673-11.162a1.143 1.143 0 0 0-1.551.467l-6.597 12.276a1.15 1.15 0 0 0 .465 1.555l20.672 11.162c.557.3 1.252.092 1.552-.466l6.597-12.276a1.15 1.15 0 0 0-.465-1.556z" fill="#fff"/>
        <path opacity=".2" d="m186.127 65.509 6.466 12.105a2.636 2.636 0 0 0 2.581 1.381l13.455-1.331-13.704 2.022a2.8 2.8 0 0 1-2.954-1.598l-5.852-12.58h.008z" fill="#000"/>
        <path d="M170.432 63.255c.216-4.626 3.636-13.953 7.794-16.806 4.158-2.854 1.419 1.098 1.419 1.098s3.943-3.844 6.018-3.727c2.075.116 0 2.52 0 2.52s4.266-2.637 6.241-2.529c1.967.108 0 2.413 0 2.413s3.503-2.52 4.922-1.314c1.42 1.206-18.168 14.151-20.36 19.418-2.191 5.266-6.266 3.61-6.042-1.074h.008z" fill="#E8745A"/>
        <path opacity=".4" d="M170.432 63.255c.216-4.626 3.636-13.953 7.794-16.806 4.158-2.854 1.419 1.098 1.419 1.098s3.943-3.844 6.018-3.727c2.075.116 0 2.52 0 2.52s4.266-2.637 6.241-2.529c1.967.108 0 2.413 0 2.413s3.503-2.52 4.922-1.314c1.42 1.206-18.168 14.151-20.36 19.418-2.191 5.266-6.266 3.61-6.042-1.074h.008z" fill="#fff"/>
        <path d="m187.265 62.572 2.614 1.68c.191.126.092.417-.132.4l-2.748-.216.233 2.113a.237.237 0 0 1-.415.183l-1.586-1.797 2.026-2.363h.008z" fill="#E8745A"/>
        <path opacity=".3" d="m187.265 62.572 2.614 1.68c.191.126.092.417-.132.4l-2.748-.216.233 2.113a.237.237 0 0 1-.415.183l-1.586-1.797 2.026-2.363h.008z" fill="#fff"/>
        <path d="M150.537 52.156s3.611-2.521 9.089-.882c0 0 1.577 7.238 5.876 9.65 2.366 1.324 8.151 1.215 12.732-.274 5.437-1.764 8.101-1.764 9.08.275.93 1.93-.107 4.168-4.266 5.158-4.158.99-7.445 8.228-14.998 8.336-7.553.109-11.529-7.479-9.628-14.151 0 0-2.299-4.976-7.877-8.12l-.008.008z" fill="#E8745A"/>
        <path opacity=".5" d="M150.537 52.156s3.611-2.521 9.089-.882c0 0 1.577 7.238 5.876 9.65 2.366 1.324 8.151 1.215 12.732-.274 5.437-1.764 8.101-1.764 9.08.275.93 1.93-.107 4.168-4.266 5.158-4.158.99-7.445 8.228-14.998 8.336-7.553.109-11.529-7.479-9.628-14.151 0 0-2.299-4.976-7.877-8.12l-.008.008z" fill="#fff"/>
        <path d="M185.239 62.298a.372.372 0 0 1-.373.374.373.373 0 0 1-.374-.374c0-.208.166-.375.374-.375.207 0 .373.167.373.375z" fill="#263238"/>
        <path d="M166.299 68.396c-4.457 1.223-14.367.84-18.36-2.246-3.992-3.087.606-1.698.606-1.698s-4.863-2.57-5.395-4.584c-.539-2.013 2.391-.782 2.391-.782s-3.818-3.253-4.325-5.166c-.498-1.914 2.291-.749 2.291-.749s-3.477-2.563-2.772-4.293c.706-1.73 19.04 12.954 24.709 13.42 5.669.457 5.362 4.858.847 6.098h.008z" fill="#E8745A"/>
        <path opacity=".4" d="M166.299 68.396c-4.457 1.223-14.367.84-18.36-2.246-3.992-3.087.606-1.698.606-1.698s-4.863-2.57-5.395-4.584c-.539-2.013 2.391-.782 2.391-.782s-3.818-3.253-4.325-5.166c-.498-1.914 2.291-.749 2.291-.749s-3.477-2.563-2.772-4.293c.706-1.73 19.04 12.954 24.709 13.42 5.669.457 5.362 4.858.847 6.098h.008z" fill="#fff"/>
        <path d="M137.083 47.846c-.78-.274-1.568-.54-2.365-.781M129.87 45.825a65.915 65.915 0 0 0-8.806-1.215c-8.068-.566-20.725-1.364-25.663 6.698-4.507 7.346 3.245 19.875 5.992 26.697 3.37 8.354 7.379 18.678 3.395 27.522-8.184 18.17-43.202 8.736-55.013-8.004M48.439 95.419a20.705 20.705 0 0 1-1.104-2.238" stroke="#E8745A" stroke-width=".75" stroke-linecap="round" stroke-linejoin="round"/>
        <path d="M149.243 161.477h-31.507v6.472h31.507v-6.472z" fill="#fff"/>
        <path opacity=".1" d="M149.243 161.477h-31.507v6.472h31.507v-6.472z" fill="#000"/>
        <path opacity=".1" d="M131.008 161.477h-13.272v6.472h13.272v-6.472z" fill="#000"/>
        <path opacity=".1" d="M117.736 162.408h28.046l-28.046.799v-.799zM149.243 163.531l-24.31.608h24.31v-.608zM119.022 165.345l11.986-.499 17.621.499-17.621.274-11.986-.274zM117.736 166.718h20.767l-20.767.491v-.491zM149.193 167.209l-13.861.258h13.911l-.05-.258z" fill="#000"/>
        <path d="M144.86 154.996h-31.506v6.473h31.506v-6.473z" fill="#fff"/>
        <path opacity=".1" d="M144.86 154.996h-31.506v6.473h31.506v-6.473z" fill="#000"/>
        <path opacity=".1" d="M126.625 154.996h-13.271v6.473h13.271v-6.473z" fill="#000"/>
        <path opacity=".1" d="M113.354 155.936h28.045l-28.045.79v-.79zM144.86 157.06l-24.31.599h24.31v-.599zM114.632 158.865l11.985-.491 17.621.491-17.621.274-11.985-.274zM113.354 160.237h20.766l-20.766.491v-.491zM144.811 160.729l-13.87.257h13.92l-.05-.257z" fill="#000"/>
        <path d="M148.454 148.523h-31.507v6.473h31.507v-6.473z" fill="#fff"/>
        <path opacity=".1" d="M148.454 148.523h-31.507v6.473h31.507v-6.473z" fill="#000"/>
        <path opacity=".1" d="M130.219 148.523h-13.272v6.473h13.272v-6.473z" fill="#000"/>
        <path opacity=".1" d="M116.947 149.455h28.046l-28.046.799v-.799zM148.454 150.579l-24.31.607h24.31v-.607zM118.233 152.392l11.986-.499 17.62.499-17.62.275-11.986-.275zM116.947 153.765h20.767l-20.767.491v-.491zM148.412 154.256l-13.869.258h13.911l-.042-.258z" fill="#000"/>
        <path d="m169.445 167.816.814-3.103h33.656l15.505 1.556.589 1.547h-50.564z" fill="#263238"/>
        <path opacity=".4" d="M203.915 164.713v3.103h-34.47l.814-3.103h33.656z" fill="#000"/>
        <path d="M197.159 149.863c.15 1.639-1.046 2.97-2.672 2.97h-51.56c-1.635 0-3.079-1.331-3.229-2.97l-3.062-33.088a2.815 2.815 0 0 1 .066-.965c.29-1.165 1.311-2.005 2.606-2.005h51.56c1.635 0 3.079 1.331 3.228 2.97l3.063 33.088z" fill="#263238"/>
        <path opacity=".4" d="M194.304 152.833h-51.377c-1.635 0-3.079-1.331-3.229-2.97l-3.062-33.088a2.815 2.815 0 0 1 .066-.965h51.377c1.627 0 3.071 1.331 3.229 2.97l3.062 33.088c.034.341 0 .665-.066.965z" fill="#000"/>
        <path d="M158.879 132.533h10.666l-2.839 30.616 16.866 2.538v2.13h-35.524v-2.13l7.279-2.538 3.552-30.616z" fill="#263238"/>
        <path opacity=".1" d="m169.545 132.533-7.902 34.801-6.316-.191 3.553-34.61h10.665z" fill="#fff"/>
        <path d="M169.495 301.273h-5.079l-9.139-127.5h6.748l7.47 127.5z" fill="#263238"/>
        <path opacity=".4" d="M169.504 301.273h-5.088l-8.69-121.168-.449-6.124h6.748l.365 6.124 7.114 121.168z" fill="#fff"/>
        <path opacity=".2" d="M162.39 179.805h-6.664l-.449-5.824h6.748l.365 5.824z" fill="#000"/>
        <path d="M206.812 301.273h-5.08l-.83-127.5h6.74l-.83 127.5z" fill="#263238"/>
        <path opacity=".5" d="m207.65 173.981-.133 20.567-.697 106.725h-5.088l-.697-106.725-.133-20.567h6.748z" fill="#fff"/>
        <path opacity=".2" d="m207.65 173.981-.133 20.8h-6.482l-.133-20.8h6.748z" fill="#000"/>
        <path d="M260.795 301.273h-5.08l-9.138-127.5h6.748l7.47 127.5z" fill="#263238"/>
        <path opacity=".5" d="M260.803 301.273h-5.088l-8.69-121.168-.448-6.124h6.748l.365 6.124 7.113 121.168z" fill="#fff"/>
        <path opacity=".2" d="M253.69 179.805h-6.665l-.448-5.824h6.748l.365 5.824z" fill="#000"/>
        <path d="M111.329 301.273h-5.08l7.47-127.5h6.748l-9.138 127.5z" fill="#263238"/>
        <path opacity=".5" d="m120.467 173.981-.448 6.124-8.69 121.168h-5.08l7.105-121.168.365-6.124h6.748z" fill="#fff"/>
        <path opacity=".2" d="M113.719 173.981h6.748l-.449 5.824h-6.664l.365-5.824z" fill="#000"/>
        <path d="M108.374 170.579H258.67v4.584c0 .99-.805 1.797-1.792 1.797H110.167a1.798 1.798 0 0 1-1.793-1.797v-4.584z" fill="#E8745A"/>
        <path opacity=".6" d="M108.374 170.579H258.67v4.584c0 .99-.805 1.797-1.792 1.797H110.167a1.798 1.798 0 0 1-1.793-1.797v-4.584z" fill="#fff"/>
        <path opacity=".2" d="M258.67 170.579H108.374v3.195H258.67v-3.195z" fill="#000"/>
        <path d="M261.824 171.419H105.22a1.798 1.798 0 0 1 0-3.594h156.604a1.798 1.798 0 0 1 0 3.594z" fill="#E8745A"/>
        <path opacity=".6" d="M261.824 171.419H105.22a1.798 1.798 0 0 1 0-3.594h156.604a1.798 1.798 0 0 1 0 3.594z" fill="#fff"/>
        <path d="m224.773 162.276 1.926-2.895a2.07 2.07 0 0 1 1.726-.924h2.44c.208 0 .407.033.598.092l8.706 2.645c.498.15.913.483 1.179.924l1.245 2.105-17.828-1.947h.008z" fill="#E8745A"/>
        <path opacity=".2" d="m242.602 164.223-12.674-1.382-5.155-.565 1.926-2.895a2.072 2.072 0 0 1 1.726-.924h2.441c.207 0 .406.033.606.092l.19.058 8.508 2.587c.498.15.921.474 1.187.924l1.245 2.105z" fill="#000"/>
        <path opacity=".2" d="m242.602 164.223-12.674-1.381 1.734-4.235 8.508 2.587c.498.15.921.475 1.187.924l1.245 2.105z" fill="#000"/>
        <path d="M248.627 167.542v.274h-26.908l.996-3.902a3.348 3.348 0 0 1 3.228-2.487h11.936c.398 0 .788.066 1.162.208l1.494.557 5.926 2.213a3.349 3.349 0 0 1 2.166 3.137z" fill="#E8745A"/>
        <path opacity=".2" d="M248.627 167.542v.274H237.58l.589-4.218a1.77 1.77 0 0 1 2.366-1.406l5.926 2.213a3.349 3.349 0 0 1 2.166 3.137z" fill="#000"/>
        <path d="m239.298 164.946 3.511-10.574a.784.784 0 0 1 1.502.449l-2.963 11.29s-1.967.799-2.05-1.165z" fill="#263238"/>
        <path opacity=".2" d="M224.773 166.943h-1.56l.299-1.539h1.56l-.299 1.539zM227.097 166.877h-1.56l.299-1.531h1.56l-.299 1.531z" fill="#000"/>
    </g>
    <defs>
        <clipPath id="x40pskeuda">
            <path fill="#fff" d="M0 0h415v310H0z"/>
        </clipPath>
    </defs>
</svg>
