<svg width="528" height="110" viewBox="0 0 528 110" fill="none" xmlns="http://www.w3.org/2000/svg">
<path d="M1.6 79L22.56 21.4H26.16L47.12 79H43.52L23.12 22.92H25.52L5.2 79H1.6ZM9.6 64.04V60.84H39.04V64.04H9.6ZM66.91 80.2C63.55 80.2 60.7633 79.6133 58.55 78.44C56.3367 77.2667 54.6833 75.72 53.59 73.8C52.4967 71.88 51.95 69.8 51.95 67.56C51.95 65.0267 52.4967 62.9333 53.59 61.28C54.71 59.6 56.1633 58.28 57.95 57.32C59.7367 56.36 61.6567 55.6667 63.71 55.24C66.2167 54.7333 68.8967 54.2933 71.75 53.92C74.63 53.52 77.2833 53.1867 79.71 52.92C82.1367 52.6533 83.95 52.44 85.15 52.28L83.95 53.08C84.0833 47.9867 83.15 44.2 81.15 41.72C79.1767 39.2133 75.6833 37.96 70.67 37.96C67.0433 37.96 64.1233 38.7733 61.91 40.4C59.7233 42 58.19 44.4667 57.31 47.8L53.63 46.84C54.59 42.84 56.55 39.8 59.51 37.72C62.4967 35.64 66.27 34.6 70.83 34.6C74.83 34.6 78.1633 35.4133 80.83 37.04C83.4967 38.6667 85.31 40.8667 86.27 43.64C86.6433 44.7067 86.91 46 87.07 47.52C87.23 49.04 87.31 50.52 87.31 51.96V79H84.19V67.16L85.79 67.24C84.6433 71.3467 82.3633 74.5333 78.95 76.8C75.5367 79.0667 71.5233 80.2 66.91 80.2ZM66.75 76.84C69.87 76.84 72.6167 76.28 74.99 75.16C77.39 74.04 79.3233 72.4267 80.79 70.32C82.2833 68.1867 83.23 65.64 83.63 62.68C83.8433 61.1867 83.95 59.5867 83.95 57.88C83.95 56.1733 83.95 54.9467 83.95 54.2L85.71 55.56C84.2967 55.6933 82.3367 55.88 79.83 56.12C77.35 56.3333 74.7233 56.6267 71.95 57C69.1767 57.3467 66.67 57.8 64.43 58.36C63.1233 58.68 61.7767 59.1867 60.39 59.88C59.0033 60.5733 57.83 61.5467 56.87 62.8C55.9367 64.0533 55.47 65.6667 55.47 67.64C55.47 69.0267 55.8167 70.4267 56.51 71.84C57.2033 73.2533 58.3633 74.44 59.99 75.4C61.6433 76.36 63.8967 76.84 66.75 76.84Z" fill="#212B36"/>
<path d="M49.1968 104V93.92H52.9068C53.0048 93.92 53.1051 93.9247 53.2078 93.934C53.3105 93.9387 53.4248 93.9527 53.5508 93.976C54.0361 94.0507 54.4561 94.228 54.8108 94.508C55.1701 94.7833 55.4455 95.1333 55.6368 95.558C55.8328 95.978 55.9308 96.44 55.9308 96.944C55.9308 97.6627 55.7348 98.2927 55.3428 98.834C54.9508 99.3753 54.4188 99.7207 53.7468 99.87L53.6348 99.968H49.7848V104H49.1968ZM55.5108 104L53.5228 99.898L54.0268 99.52L56.2108 104H55.5108ZM49.7848 99.38H52.9068C52.9861 99.38 53.0795 99.3753 53.1868 99.366C53.2988 99.3567 53.4108 99.3427 53.5228 99.324C53.9101 99.2493 54.2345 99.0953 54.4958 98.862C54.7618 98.6287 54.9625 98.3463 55.0978 98.015C55.2331 97.679 55.3008 97.322 55.3008 96.944C55.3008 96.566 55.2331 96.2113 55.0978 95.88C54.9625 95.544 54.7618 95.2593 54.4958 95.026C54.2345 94.7927 53.9101 94.6387 53.5228 94.564C53.4108 94.5407 53.2988 94.5267 53.1868 94.522C53.0795 94.5127 52.9861 94.508 52.9068 94.508H49.7848V99.38ZM60.7934 104.21C60.0794 104.21 59.4634 104.049 58.9454 103.727C58.4321 103.405 58.0354 102.945 57.7554 102.348C57.4754 101.751 57.3354 101.041 57.3354 100.22C57.3354 99.394 57.4731 98.6823 57.7484 98.085C58.0284 97.4877 58.4251 97.0303 58.9384 96.713C59.4564 96.391 60.0747 96.23 60.7934 96.23C61.5167 96.23 62.1351 96.3933 62.6484 96.72C63.1617 97.0467 63.5537 97.5203 63.8244 98.141C64.0997 98.7617 64.2374 99.5107 64.2374 100.388H63.6074V100.192C63.5794 99.1047 63.3227 98.2717 62.8374 97.693C62.3567 97.1097 61.6754 96.818 60.7934 96.818C59.8974 96.818 59.2021 97.1167 58.7074 97.714C58.2127 98.3067 57.9654 99.142 57.9654 100.22C57.9654 101.298 58.2127 102.136 58.7074 102.733C59.2021 103.326 59.8974 103.622 60.7934 103.622C61.4187 103.622 61.9671 103.475 62.4384 103.181C62.9097 102.887 63.2854 102.465 63.5654 101.914L64.0554 102.194C63.7474 102.838 63.3111 103.335 62.7464 103.685C62.1817 104.035 61.5307 104.21 60.7934 104.21ZM57.7134 100.388V99.8H63.8734V100.388H57.7134ZM68.6648 107.57C68.3008 107.57 67.9344 107.519 67.5658 107.416C67.1971 107.313 66.8494 107.138 66.5228 106.891C66.2008 106.648 65.9254 106.315 65.6968 105.89L66.2148 105.54C66.4668 106.058 66.8214 106.424 67.2788 106.639C67.7361 106.858 68.1981 106.968 68.6648 106.968C69.3414 106.968 69.8688 106.84 70.2468 106.583C70.6294 106.331 70.8978 105.953 71.0518 105.449C71.2058 104.95 71.2828 104.327 71.2828 103.58V101.648H71.3388V96.44H71.8848V103.58C71.8848 103.809 71.8801 104.03 71.8708 104.245C71.8614 104.46 71.8428 104.672 71.8148 104.882C71.7401 105.493 71.5768 105.997 71.3248 106.394C71.0774 106.791 70.7344 107.085 70.2958 107.276C69.8571 107.472 69.3134 107.57 68.6648 107.57ZM68.6508 104.21C67.9368 104.21 67.3348 104.035 66.8448 103.685C66.3594 103.33 65.9908 102.852 65.7388 102.25C65.4868 101.643 65.3608 100.962 65.3608 100.206C65.3608 99.464 65.4844 98.792 65.7318 98.19C65.9791 97.588 66.3384 97.112 66.8098 96.762C67.2858 96.4073 67.8621 96.23 68.5388 96.23C69.2434 96.23 69.8361 96.4027 70.3168 96.748C70.8021 97.0887 71.1684 97.56 71.4158 98.162C71.6631 98.7593 71.7868 99.4407 71.7868 100.206C71.7868 100.957 71.6631 101.636 71.4158 102.243C71.1731 102.845 70.8184 103.323 70.3518 103.678C69.8851 104.033 69.3181 104.21 68.6508 104.21ZM68.6508 103.622C69.2434 103.622 69.7381 103.473 70.1348 103.174C70.5361 102.875 70.8371 102.469 71.0378 101.956C71.2384 101.438 71.3388 100.855 71.3388 100.206C71.3388 99.548 71.2361 98.9647 71.0308 98.456C70.8301 97.9427 70.5291 97.5413 70.1278 97.252C69.7311 96.9627 69.2388 96.818 68.6508 96.818C68.0488 96.818 67.5494 96.9673 67.1528 97.266C66.7608 97.56 66.4691 97.9637 66.2778 98.477C66.0864 98.9857 65.9908 99.562 65.9908 100.206C65.9908 100.855 66.0911 101.438 66.2918 101.956C66.4924 102.469 66.7888 102.875 67.1808 103.174C67.5774 103.473 68.0674 103.622 68.6508 103.622ZM76.7732 104.168C76.3905 104.168 76.0382 104.114 75.7162 104.007C75.3989 103.9 75.1142 103.746 74.8622 103.545C74.6149 103.34 74.4049 103.09 74.2322 102.796C74.0595 102.502 73.9289 102.168 73.8402 101.795C73.7515 101.417 73.7072 101.004 73.7072 100.556V96.44H74.2952V100.444C74.2952 100.981 74.3489 101.447 74.4562 101.844C74.5682 102.241 74.7315 102.57 74.9462 102.831C75.1609 103.088 75.4199 103.279 75.7232 103.405C76.0312 103.531 76.3812 103.594 76.7732 103.594C77.2352 103.594 77.6272 103.515 77.9492 103.356C78.2759 103.193 78.5395 102.971 78.7402 102.691C78.9409 102.411 79.0879 102.089 79.1812 101.725C79.2745 101.361 79.3212 100.976 79.3212 100.57L79.8672 100.556C79.8672 101.419 79.7249 102.117 79.4402 102.649C79.1555 103.176 78.7775 103.561 78.3062 103.804C77.8395 104.047 77.3285 104.168 76.7732 104.168ZM79.3632 104V102.46H79.3212V96.44H79.9092V104H79.3632ZM82.0126 104V93.71H82.6006V104H82.0126ZM86.9007 104.21C86.3127 104.21 85.825 104.107 85.4377 103.902C85.0503 103.697 84.761 103.426 84.5697 103.09C84.3783 102.754 84.2827 102.39 84.2827 101.998C84.2827 101.555 84.3783 101.188 84.5697 100.899C84.7657 100.605 85.02 100.374 85.3327 100.206C85.6453 100.038 85.9813 99.9167 86.3407 99.842C86.7793 99.7533 87.2483 99.6763 87.7477 99.611C88.2517 99.541 88.716 99.4827 89.1407 99.436C89.5653 99.3893 89.8827 99.352 90.0927 99.324L89.8827 99.464C89.906 98.5727 89.7427 97.91 89.3927 97.476C89.0473 97.0373 88.436 96.818 87.5587 96.818C86.924 96.818 86.413 96.9603 86.0257 97.245C85.643 97.525 85.3747 97.9567 85.2207 98.54L84.5767 98.372C84.7447 97.672 85.0877 97.14 85.6057 96.776C86.1283 96.412 86.7887 96.23 87.5867 96.23C88.2867 96.23 88.87 96.3723 89.3367 96.657C89.8033 96.9417 90.1207 97.3267 90.2887 97.812C90.354 97.9987 90.4007 98.225 90.4287 98.491C90.4567 98.757 90.4707 99.016 90.4707 99.268V104H89.9247V101.928L90.2047 101.942C90.004 102.661 89.605 103.218 89.0077 103.615C88.4103 104.012 87.708 104.21 86.9007 104.21ZM86.8727 103.622C87.4187 103.622 87.8993 103.524 88.3147 103.328C88.7347 103.132 89.073 102.85 89.3297 102.481C89.591 102.108 89.7567 101.662 89.8267 101.144C89.864 100.883 89.8827 100.603 89.8827 100.304C89.8827 100.005 89.8827 99.7907 89.8827 99.66L90.1907 99.898C89.9433 99.9213 89.6003 99.954 89.1617 99.996C88.7277 100.033 88.268 100.085 87.7827 100.15C87.2973 100.211 86.8587 100.29 86.4667 100.388C86.238 100.444 86.0023 100.533 85.7597 100.654C85.517 100.775 85.3117 100.946 85.1437 101.165C84.9803 101.384 84.8987 101.667 84.8987 102.012C84.8987 102.255 84.9593 102.5 85.0807 102.747C85.202 102.994 85.405 103.202 85.6897 103.37C85.979 103.538 86.3733 103.622 86.8727 103.622ZM92.2905 104V96.44H92.8365V98.246L92.6545 98.008C92.7339 97.8027 92.8342 97.6113 92.9555 97.434C93.0769 97.2567 93.1959 97.112 93.3125 97C93.5179 96.7993 93.7605 96.6477 94.0405 96.545C94.3252 96.4377 94.6099 96.377 94.8945 96.363C95.1792 96.3443 95.4312 96.37 95.6505 96.44V97C95.3379 96.93 95.0065 96.9183 94.6565 96.965C94.3065 97.007 93.9799 97.168 93.6765 97.448C93.4105 97.6953 93.2215 97.98 93.1095 98.302C93.0022 98.624 92.9369 98.9577 92.9135 99.303C92.8902 99.6437 92.8785 99.968 92.8785 100.276V104H92.2905Z" fill="#637381"/>
<path d="M144.6 79L163.88 21.4H173.8L193.08 79H185.68L167.64 25.56H169.88L152 79H144.6ZM153.88 65.52V58.84H183.8V65.52H153.88ZM212.521 80.2C209.294 80.2 206.587 79.6133 204.401 78.44C202.241 77.24 200.601 75.6667 199.481 73.72C198.387 71.7733 197.841 69.64 197.841 67.32C197.841 65.0533 198.267 63.0933 199.121 61.44C200.001 59.76 201.227 58.3733 202.801 57.28C204.374 56.16 206.254 55.28 208.441 54.64C210.494 54.08 212.787 53.6 215.321 53.2C217.881 52.7733 220.467 52.3867 223.081 52.04C225.694 51.6933 228.134 51.36 230.401 51.04L227.841 52.52C227.921 48.68 227.147 45.84 225.521 44C223.921 42.16 221.147 41.24 217.201 41.24C214.587 41.24 212.294 41.84 210.321 43.04C208.374 44.2133 207.001 46.1333 206.201 48.8L199.441 46.76C200.481 42.9733 202.494 40 205.481 37.84C208.467 35.68 212.401 34.6 217.281 34.6C221.201 34.6 224.561 35.3067 227.361 36.72C230.187 38.1067 232.214 40.2133 233.441 43.04C234.054 44.3733 234.441 45.8267 234.601 47.4C234.761 48.9467 234.841 50.5733 234.841 52.28V79H228.521V68.64L230.001 69.6C228.374 73.0933 226.094 75.7333 223.161 77.52C220.254 79.3067 216.707 80.2 212.521 80.2ZM213.601 74.24C216.161 74.24 218.374 73.7867 220.241 72.88C222.134 71.9467 223.654 70.7333 224.801 69.24C225.947 67.72 226.694 66.0667 227.041 64.28C227.441 62.9467 227.654 61.4667 227.681 59.84C227.734 58.1867 227.761 56.92 227.761 56.04L230.241 57.12C227.921 57.44 225.641 57.7467 223.401 58.04C221.161 58.3333 219.041 58.6533 217.041 59C215.041 59.32 213.241 59.7067 211.641 60.16C210.467 60.5333 209.361 61.0133 208.321 61.6C207.307 62.1867 206.481 62.9467 205.841 63.88C205.227 64.7867 204.921 65.92 204.921 67.28C204.921 68.4533 205.214 69.5733 205.801 70.64C206.414 71.7067 207.347 72.5733 208.601 73.24C209.881 73.9067 211.547 74.24 213.601 74.24Z" fill="#212B36"/>
<path d="M190.996 104V93.92H191.556L195.84 103.286L200.082 93.92H200.67V103.986H200.082V95.334L196.162 104H195.504L191.584 95.334V104H190.996ZM205.668 104.21C204.954 104.21 204.338 104.049 203.82 103.727C203.307 103.405 202.91 102.945 202.63 102.348C202.35 101.751 202.21 101.041 202.21 100.22C202.21 99.394 202.348 98.6823 202.623 98.085C202.903 97.4877 203.3 97.0303 203.813 96.713C204.331 96.391 204.95 96.23 205.668 96.23C206.392 96.23 207.01 96.3933 207.523 96.72C208.037 97.0467 208.429 97.5203 208.699 98.141C208.975 98.7617 209.112 99.5107 209.112 100.388H208.482V100.192C208.454 99.1047 208.198 98.2717 207.712 97.693C207.232 97.1097 206.55 96.818 205.668 96.818C204.772 96.818 204.077 97.1167 203.582 97.714C203.088 98.3067 202.84 99.142 202.84 100.22C202.84 101.298 203.088 102.136 203.582 102.733C204.077 103.326 204.772 103.622 205.668 103.622C206.294 103.622 206.842 103.475 207.313 103.181C207.785 102.887 208.16 102.465 208.44 101.914L208.93 102.194C208.622 102.838 208.186 103.335 207.621 103.685C207.057 104.035 206.406 104.21 205.668 104.21ZM202.588 100.388V99.8H208.748V100.388H202.588ZM213.526 104.21C212.812 104.21 212.21 104.035 211.72 103.685C211.234 103.33 210.866 102.852 210.614 102.25C210.362 101.643 210.236 100.962 210.236 100.206C210.236 99.464 210.359 98.792 210.607 98.19C210.854 97.588 211.213 97.112 211.685 96.762C212.161 96.4073 212.737 96.23 213.414 96.23C214.118 96.23 214.711 96.4027 215.192 96.748C215.677 97.0887 216.043 97.56 216.291 98.162C216.538 98.7593 216.662 99.4407 216.662 100.206C216.662 100.957 216.538 101.636 216.291 102.243C216.048 102.845 215.693 103.323 215.227 103.678C214.76 104.033 214.193 104.21 213.526 104.21ZM213.526 103.622C214.118 103.622 214.613 103.473 215.01 103.174C215.411 102.875 215.712 102.469 215.913 101.956C216.113 101.438 216.214 100.855 216.214 100.206C216.214 99.548 216.111 98.9647 215.906 98.456C215.705 97.9427 215.404 97.5413 215.003 97.252C214.606 96.9627 214.114 96.818 213.526 96.818C212.924 96.818 212.424 96.9673 212.028 97.266C211.636 97.56 211.344 97.9637 211.153 98.477C210.961 98.9857 210.866 99.562 210.866 100.206C210.866 100.855 210.966 101.438 211.167 101.956C211.367 102.469 211.664 102.875 212.056 103.174C212.452 103.473 212.942 103.622 213.526 103.622ZM216.214 104V98.05H216.172V93.92H216.76V104H216.214ZM218.862 94.816V93.92H219.45V94.816H218.862ZM218.862 104V96.44H219.45V104H218.862ZM224.478 104.168C224.096 104.168 223.743 104.114 223.421 104.007C223.104 103.9 222.819 103.746 222.567 103.545C222.32 103.34 222.11 103.09 221.937 102.796C221.765 102.502 221.634 102.168 221.545 101.795C221.457 101.417 221.412 101.004 221.412 100.556V96.44H222V100.444C222 100.981 222.054 101.447 222.161 101.844C222.273 102.241 222.437 102.57 222.651 102.831C222.866 103.088 223.125 103.279 223.428 103.405C223.736 103.531 224.086 103.594 224.478 103.594C224.94 103.594 225.332 103.515 225.654 103.356C225.981 103.193 226.245 102.971 226.445 102.691C226.646 102.411 226.793 102.089 226.886 101.725C226.98 101.361 227.026 100.976 227.026 100.57L227.572 100.556C227.572 101.419 227.43 102.117 227.145 102.649C226.861 103.176 226.483 103.561 226.011 103.804C225.545 104.047 225.034 104.168 224.478 104.168ZM227.068 104V102.46H227.026V96.44H227.614V104H227.068ZM238.552 104L238.566 98.792C238.566 98.162 238.381 97.6673 238.013 97.308C237.644 96.944 237.189 96.762 236.648 96.762C236.349 96.762 236.046 96.8297 235.738 96.965C235.434 97.1003 235.178 97.329 234.968 97.651C234.762 97.973 234.66 98.414 234.66 98.974H234.142C234.118 98.4187 234.214 97.9357 234.429 97.525C234.648 97.1143 234.954 96.797 235.346 96.573C235.738 96.3443 236.186 96.23 236.69 96.23C237.404 96.23 237.992 96.454 238.454 96.902C238.92 97.35 239.154 97.966 239.154 98.75L239.14 104H238.552ZM229.578 104V96.44H230.124V97.98H230.166V104H229.578ZM234.072 104L234.086 98.89C234.086 98.2367 233.904 97.7187 233.54 97.336C233.18 96.9533 232.714 96.762 232.14 96.762C231.552 96.762 231.076 96.9627 230.712 97.364C230.348 97.7653 230.166 98.302 230.166 98.974L229.648 98.75C229.648 98.2647 229.757 97.833 229.977 97.455C230.196 97.0723 230.497 96.7737 230.88 96.559C231.267 96.3397 231.71 96.23 232.21 96.23C232.634 96.23 233.033 96.321 233.407 96.503C233.78 96.6803 234.081 96.958 234.31 97.336C234.543 97.714 234.66 98.1993 234.66 98.792L234.646 104H234.072Z" fill="#637381"/>
<path d="M286.6 79L305.88 21.4H315.8L335.08 79H327.68L309.64 25.56H311.88L294 79H286.6ZM295.88 65.52V58.84H325.8V65.52H295.88ZM354.521 80.2C351.294 80.2 348.587 79.6133 346.401 78.44C344.241 77.24 342.601 75.6667 341.481 73.72C340.387 71.7733 339.841 69.64 339.841 67.32C339.841 65.0533 340.267 63.0933 341.121 61.44C342.001 59.76 343.227 58.3733 344.801 57.28C346.374 56.16 348.254 55.28 350.441 54.64C352.494 54.08 354.787 53.6 357.321 53.2C359.881 52.7733 362.467 52.3867 365.081 52.04C367.694 51.6933 370.134 51.36 372.401 51.04L369.841 52.52C369.921 48.68 369.147 45.84 367.521 44C365.921 42.16 363.147 41.24 359.201 41.24C356.587 41.24 354.294 41.84 352.321 43.04C350.374 44.2133 349.001 46.1333 348.201 48.8L341.441 46.76C342.481 42.9733 344.494 40 347.481 37.84C350.467 35.68 354.401 34.6 359.281 34.6C363.201 34.6 366.561 35.3067 369.361 36.72C372.187 38.1067 374.214 40.2133 375.441 43.04C376.054 44.3733 376.441 45.8267 376.601 47.4C376.761 48.9467 376.841 50.5733 376.841 52.28V79H370.521V68.64L372.001 69.6C370.374 73.0933 368.094 75.7333 365.161 77.52C362.254 79.3067 358.707 80.2 354.521 80.2ZM355.601 74.24C358.161 74.24 360.374 73.7867 362.241 72.88C364.134 71.9467 365.654 70.7333 366.801 69.24C367.947 67.72 368.694 66.0667 369.041 64.28C369.441 62.9467 369.654 61.4667 369.681 59.84C369.734 58.1867 369.761 56.92 369.761 56.04L372.241 57.12C369.921 57.44 367.641 57.7467 365.401 58.04C363.161 58.3333 361.041 58.6533 359.041 59C357.041 59.32 355.241 59.7067 353.641 60.16C352.467 60.5333 351.361 61.0133 350.321 61.6C349.307 62.1867 348.481 62.9467 347.841 63.88C347.227 64.7867 346.921 65.92 346.921 67.28C346.921 68.4533 347.214 69.5733 347.801 70.64C348.414 71.7067 349.347 72.5733 350.601 73.24C351.881 73.9067 353.547 74.24 355.601 74.24Z" fill="#212B36"/>
<path d="M324.806 104.21C324.125 104.21 323.511 104.1 322.965 103.881C322.424 103.657 321.974 103.342 321.614 102.936C321.26 102.53 321.022 102.049 320.9 101.494L321.488 101.382C321.67 102.073 322.058 102.619 322.65 103.02C323.243 103.421 323.962 103.622 324.806 103.622C325.394 103.622 325.908 103.529 326.346 103.342C326.785 103.155 327.126 102.894 327.368 102.558C327.611 102.217 327.732 101.821 327.732 101.368C327.732 101.027 327.669 100.743 327.543 100.514C327.417 100.285 327.256 100.101 327.06 99.961C326.869 99.8163 326.668 99.702 326.458 99.618C326.248 99.534 326.062 99.4687 325.898 99.422L323.378 98.666C323.014 98.5587 322.699 98.428 322.433 98.274C322.172 98.12 321.957 97.945 321.789 97.749C321.621 97.553 321.495 97.3383 321.411 97.105C321.332 96.8717 321.292 96.622 321.292 96.356C321.292 95.8427 321.43 95.3877 321.705 94.991C321.985 94.5897 322.373 94.277 322.867 94.053C323.362 93.8243 323.934 93.71 324.582 93.71C325.24 93.71 325.831 93.8313 326.353 94.074C326.876 94.3167 327.303 94.6597 327.634 95.103C327.97 95.5417 328.18 96.0573 328.264 96.65L327.676 96.762C327.611 96.272 327.438 95.8427 327.158 95.474C326.878 95.1007 326.517 94.8113 326.073 94.606C325.63 94.4007 325.133 94.298 324.582 94.298C324.055 94.298 323.591 94.389 323.189 94.571C322.793 94.753 322.482 94.998 322.258 95.306C322.034 95.614 321.922 95.9593 321.922 96.342C321.922 96.7433 322.03 97.0653 322.244 97.308C322.464 97.546 322.73 97.7327 323.042 97.868C323.355 97.9987 323.654 98.106 323.938 98.19L326.024 98.82C326.202 98.8713 326.419 98.9483 326.675 99.051C326.932 99.149 327.184 99.2913 327.431 99.478C327.683 99.6647 327.891 99.912 328.054 100.22C328.222 100.523 328.306 100.906 328.306 101.368C328.306 101.802 328.225 102.194 328.061 102.544C327.898 102.894 327.662 103.193 327.354 103.44C327.046 103.687 326.678 103.876 326.248 104.007C325.819 104.142 325.338 104.21 324.806 104.21ZM332.743 104.21C332.029 104.21 331.413 104.049 330.895 103.727C330.381 103.405 329.985 102.945 329.705 102.348C329.425 101.751 329.285 101.041 329.285 100.22C329.285 99.394 329.422 98.6823 329.698 98.085C329.978 97.4877 330.374 97.0303 330.888 96.713C331.406 96.391 332.024 96.23 332.743 96.23C333.466 96.23 334.084 96.3933 334.598 96.72C335.111 97.0467 335.503 97.5203 335.774 98.141C336.049 98.7617 336.187 99.5107 336.187 100.388H335.557V100.192C335.529 99.1047 335.272 98.2717 334.787 97.693C334.306 97.1097 333.625 96.818 332.743 96.818C331.847 96.818 331.151 97.1167 330.657 97.714C330.162 98.3067 329.915 99.142 329.915 100.22C329.915 101.298 330.162 102.136 330.657 102.733C331.151 103.326 331.847 103.622 332.743 103.622C333.368 103.622 333.916 103.475 334.388 103.181C334.859 102.887 335.235 102.465 335.515 101.914L336.005 102.194C335.697 102.838 335.26 103.335 334.696 103.685C334.131 104.035 333.48 104.21 332.743 104.21ZM329.663 100.388V99.8H335.823V100.388H329.663ZM346.499 104L346.513 98.792C346.513 98.162 346.329 97.6673 345.96 97.308C345.591 96.944 345.136 96.762 344.595 96.762C344.296 96.762 343.993 96.8297 343.685 96.965C343.382 97.1003 343.125 97.329 342.915 97.651C342.71 97.973 342.607 98.414 342.607 98.974H342.089C342.066 98.4187 342.161 97.9357 342.376 97.525C342.595 97.1143 342.901 96.797 343.293 96.573C343.685 96.3443 344.133 96.23 344.637 96.23C345.351 96.23 345.939 96.454 346.401 96.902C346.868 97.35 347.101 97.966 347.101 98.75L347.087 104H346.499ZM337.525 104V96.44H338.071V97.98H338.113V104H337.525ZM342.019 104L342.033 98.89C342.033 98.2367 341.851 97.7187 341.487 97.336C341.128 96.9533 340.661 96.762 340.087 96.762C339.499 96.762 339.023 96.9627 338.659 97.364C338.295 97.7653 338.113 98.302 338.113 98.974L337.595 98.75C337.595 98.2647 337.705 97.833 337.924 97.455C338.143 97.0723 338.444 96.7737 338.827 96.559C339.214 96.3397 339.658 96.23 340.157 96.23C340.582 96.23 340.981 96.321 341.354 96.503C341.727 96.6803 342.028 96.958 342.257 97.336C342.49 97.714 342.607 98.1993 342.607 98.792L342.593 104H342.019ZM349.067 94.816V93.92H349.655V94.816H349.067ZM349.067 104V96.44H349.655V104H349.067ZM351.617 99.884V99.296H355.817V99.884H351.617ZM357.636 104V93.92H361.458C361.944 93.92 362.392 94.025 362.802 94.235C363.213 94.4403 363.542 94.7297 363.789 95.103C364.037 95.4763 364.16 95.908 364.16 96.398C364.16 96.93 364.006 97.42 363.698 97.868C363.39 98.3113 362.984 98.624 362.48 98.806L362.452 98.47C363.12 98.6847 363.654 99.03 364.055 99.506C364.461 99.9773 364.664 100.57 364.664 101.284C364.664 101.858 364.534 102.348 364.272 102.754C364.011 103.155 363.656 103.463 363.208 103.678C362.765 103.893 362.27 104 361.724 104H357.636ZM358.224 103.412H361.444C361.93 103.412 362.366 103.33 362.753 103.167C363.145 103.004 363.453 102.768 363.677 102.46C363.906 102.152 364.02 101.779 364.02 101.34C364.02 100.901 363.915 100.505 363.705 100.15C363.5 99.7907 363.222 99.506 362.872 99.296C362.527 99.0813 362.144 98.974 361.724 98.974H358.224V103.412ZM358.224 98.4H361.458C361.836 98.4 362.182 98.309 362.494 98.127C362.812 97.945 363.064 97.7 363.25 97.392C363.437 97.084 363.53 96.7387 363.53 96.356C363.53 95.796 363.33 95.3457 362.928 95.005C362.532 94.6643 362.042 94.494 361.458 94.494H358.224V98.4ZM369.082 104.21C368.336 104.21 367.706 104.04 367.192 103.699C366.679 103.358 366.289 102.887 366.023 102.285C365.757 101.683 365.624 100.99 365.624 100.206C365.624 99.4127 365.76 98.7173 366.03 98.12C366.301 97.5227 366.693 97.0583 367.206 96.727C367.724 96.3957 368.35 96.23 369.082 96.23C369.834 96.23 370.466 96.4003 370.979 96.741C371.493 97.077 371.88 97.5437 372.141 98.141C372.407 98.7383 372.54 99.4267 372.54 100.206C372.54 101.004 372.407 101.704 372.141 102.306C371.875 102.903 371.483 103.37 370.965 103.706C370.452 104.042 369.824 104.21 369.082 104.21ZM369.082 103.622C370.034 103.622 370.744 103.307 371.21 102.677C371.677 102.042 371.91 101.219 371.91 100.206C371.91 99.1747 371.675 98.3533 371.203 97.742C370.737 97.126 370.03 96.818 369.082 96.818C368.443 96.818 367.913 96.9627 367.493 97.252C367.078 97.5413 366.768 97.9403 366.562 98.449C366.357 98.9577 366.254 99.5433 366.254 100.206C366.254 101.233 366.492 102.059 366.968 102.684C367.449 103.309 368.154 103.622 369.082 103.622ZM374.224 104V93.71H374.812V104H374.224ZM379.784 104.21C379.07 104.21 378.468 104.035 377.978 103.685C377.492 103.33 377.124 102.852 376.872 102.25C376.62 101.643 376.494 100.962 376.494 100.206C376.494 99.464 376.617 98.792 376.865 98.19C377.112 97.588 377.471 97.112 377.943 96.762C378.419 96.4073 378.995 96.23 379.672 96.23C380.376 96.23 380.969 96.4027 381.45 96.748C381.935 97.0887 382.301 97.56 382.549 98.162C382.796 98.7593 382.92 99.4407 382.92 100.206C382.92 100.957 382.796 101.636 382.549 102.243C382.306 102.845 381.951 103.323 381.485 103.678C381.018 104.033 380.451 104.21 379.784 104.21ZM379.784 103.622C380.376 103.622 380.871 103.473 381.268 103.174C381.669 102.875 381.97 102.469 382.171 101.956C382.371 101.438 382.472 100.855 382.472 100.206C382.472 99.548 382.369 98.9647 382.164 98.456C381.963 97.9427 381.662 97.5413 381.261 97.252C380.864 96.9627 380.372 96.818 379.784 96.818C379.182 96.818 378.682 96.9673 378.286 97.266C377.894 97.56 377.602 97.9637 377.411 98.477C377.219 98.9857 377.124 99.562 377.124 100.206C377.124 100.855 377.224 101.438 377.425 101.956C377.625 102.469 377.922 102.875 378.314 103.174C378.71 103.473 379.2 103.622 379.784 103.622ZM382.472 104V98.05H382.43V93.92H383.018V104H382.472Z" fill="#637381"/>
<path d="M429.6 79L450.56 21.4H454.16L475.12 79H471.52L451.12 22.92H453.52L433.2 79H429.6ZM437.6 64.04V60.84H467.04V64.04H437.6ZM494.91 80.2C491.55 80.2 488.763 79.6133 486.55 78.44C484.337 77.2667 482.683 75.72 481.59 73.8C480.497 71.88 479.95 69.8 479.95 67.56C479.95 65.0267 480.497 62.9333 481.59 61.28C482.71 59.6 484.163 58.28 485.95 57.32C487.737 56.36 489.657 55.6667 491.71 55.24C494.217 54.7333 496.897 54.2933 499.75 53.92C502.63 53.52 505.283 53.1867 507.71 52.92C510.137 52.6533 511.95 52.44 513.15 52.28L511.95 53.08C512.083 47.9867 511.15 44.2 509.15 41.72C507.177 39.2133 503.683 37.96 498.67 37.96C495.043 37.96 492.123 38.7733 489.91 40.4C487.723 42 486.19 44.4667 485.31 47.8L481.63 46.84C482.59 42.84 484.55 39.8 487.51 37.72C490.497 35.64 494.27 34.6 498.83 34.6C502.83 34.6 506.163 35.4133 508.83 37.04C511.497 38.6667 513.31 40.8667 514.27 43.64C514.643 44.7067 514.91 46 515.07 47.52C515.23 49.04 515.31 50.52 515.31 51.96V79H512.19V67.16L513.79 67.24C512.643 71.3467 510.363 74.5333 506.95 76.8C503.537 79.0667 499.523 80.2 494.91 80.2ZM494.75 76.84C497.87 76.84 500.617 76.28 502.99 75.16C505.39 74.04 507.323 72.4267 508.79 70.32C510.283 68.1867 511.23 65.64 511.63 62.68C511.843 61.1867 511.95 59.5867 511.95 57.88C511.95 56.1733 511.95 54.9467 511.95 54.2L513.71 55.56C512.297 55.6933 510.337 55.88 507.83 56.12C505.35 56.3333 502.723 56.6267 499.95 57C497.177 57.3467 494.67 57.8 492.43 58.36C491.123 58.68 489.777 59.1867 488.39 59.88C487.003 60.5733 485.83 61.5467 484.87 62.8C483.937 64.0533 483.47 65.6667 483.47 67.64C483.47 69.0267 483.817 70.4267 484.51 71.84C485.203 73.2533 486.363 74.44 487.99 75.4C489.643 76.36 491.897 76.84 494.75 76.84Z" fill="#212B36"/>
<path d="M501.636 104V93.92H505.458C505.944 93.92 506.392 94.025 506.802 94.235C507.213 94.4403 507.542 94.7297 507.789 95.103C508.037 95.4763 508.16 95.908 508.16 96.398C508.16 96.93 508.006 97.42 507.698 97.868C507.39 98.3113 506.984 98.624 506.48 98.806L506.452 98.47C507.12 98.6847 507.654 99.03 508.055 99.506C508.461 99.9773 508.664 100.57 508.664 101.284C508.664 101.858 508.534 102.348 508.272 102.754C508.011 103.155 507.656 103.463 507.208 103.678C506.765 103.893 506.27 104 505.724 104H501.636ZM502.224 103.412H505.444C505.93 103.412 506.366 103.33 506.753 103.167C507.145 103.004 507.453 102.768 507.677 102.46C507.906 102.152 508.02 101.779 508.02 101.34C508.02 100.901 507.915 100.505 507.705 100.15C507.5 99.7907 507.222 99.506 506.872 99.296C506.527 99.0813 506.144 98.974 505.724 98.974H502.224V103.412ZM502.224 98.4H505.458C505.836 98.4 506.182 98.309 506.494 98.127C506.812 97.945 507.064 97.7 507.25 97.392C507.437 97.084 507.53 96.7387 507.53 96.356C507.53 95.796 507.33 95.3457 506.928 95.005C506.532 94.6643 506.042 94.494 505.458 94.494H502.224V98.4ZM513.082 104.21C512.336 104.21 511.706 104.04 511.192 103.699C510.679 103.358 510.289 102.887 510.023 102.285C509.757 101.683 509.624 100.99 509.624 100.206C509.624 99.4127 509.76 98.7173 510.03 98.12C510.301 97.5227 510.693 97.0583 511.206 96.727C511.724 96.3957 512.35 96.23 513.082 96.23C513.834 96.23 514.466 96.4003 514.979 96.741C515.493 97.077 515.88 97.5437 516.141 98.141C516.407 98.7383 516.54 99.4267 516.54 100.206C516.54 101.004 516.407 101.704 516.141 102.306C515.875 102.903 515.483 103.37 514.965 103.706C514.452 104.042 513.824 104.21 513.082 104.21ZM513.082 103.622C514.034 103.622 514.744 103.307 515.21 102.677C515.677 102.042 515.91 101.219 515.91 100.206C515.91 99.1747 515.675 98.3533 515.203 97.742C514.737 97.126 514.03 96.818 513.082 96.818C512.443 96.818 511.913 96.9627 511.493 97.252C511.078 97.5413 510.768 97.9403 510.562 98.449C510.357 98.9577 510.254 99.5433 510.254 100.206C510.254 101.233 510.492 102.059 510.968 102.684C511.449 103.309 512.154 103.622 513.082 103.622ZM518.224 104V93.71H518.812V104H518.224ZM523.784 104.21C523.07 104.21 522.468 104.035 521.978 103.685C521.492 103.33 521.124 102.852 520.872 102.25C520.62 101.643 520.494 100.962 520.494 100.206C520.494 99.464 520.617 98.792 520.865 98.19C521.112 97.588 521.471 97.112 521.943 96.762C522.419 96.4073 522.995 96.23 523.672 96.23C524.376 96.23 524.969 96.4027 525.45 96.748C525.935 97.0887 526.301 97.56 526.549 98.162C526.796 98.7593 526.92 99.4407 526.92 100.206C526.92 100.957 526.796 101.636 526.549 102.243C526.306 102.845 525.951 103.323 525.485 103.678C525.018 104.033 524.451 104.21 523.784 104.21ZM523.784 103.622C524.376 103.622 524.871 103.473 525.268 103.174C525.669 102.875 525.97 102.469 526.171 101.956C526.371 101.438 526.472 100.855 526.472 100.206C526.472 99.548 526.369 98.9647 526.164 98.456C525.963 97.9427 525.662 97.5413 525.261 97.252C524.864 96.9627 524.372 96.818 523.784 96.818C523.182 96.818 522.682 96.9673 522.286 97.266C521.894 97.56 521.602 97.9637 521.411 98.477C521.219 98.9857 521.124 99.562 521.124 100.206C521.124 100.855 521.224 101.438 521.425 101.956C521.625 102.469 521.922 102.875 522.314 103.174C522.71 103.473 523.2 103.622 523.784 103.622ZM526.472 104V98.05H526.43V93.92H527.018V104H526.472Z" fill="#637381"/>
</svg>
