<svg width="17" height="16" viewBox="0 0 17 16" fill="none" xmlns="http://www.w3.org/2000/svg">
<path d="M13.5073 16H2.85597C1.38411 16 0.181641 14.7975 0.181641 13.3257V2.67433C0.181641 1.20246 1.38411 0 2.85597 0H13.5073C14.9792 0 16.1816 1.20246 16.1816 2.67433V13.3257C16.1816 14.8041 14.9857 16 13.5073 16Z" fill="#4719B2"/>
<path d="M8.18099 12.11C7.08366 12.11 6.05204 11.6829 5.27668 10.9076C4.50132 10.1322 4.07422 9.10059 4.07422 8.00326C4.07422 6.90593 4.50132 5.87431 5.27668 5.09895C6.05204 4.32359 7.08366 3.89648 8.18099 3.89648C9.27833 3.89648 10.3099 4.32359 11.0853 5.09895C11.8607 5.87431 12.2878 6.90593 12.2878 8.00326C12.2878 9.10059 11.8607 10.1322 11.0853 10.9076C10.3034 11.6829 9.27833 12.11 8.18099 12.11ZM8.18099 4.77041C6.4003 4.77041 4.94814 6.21599 4.94814 8.00326C4.94814 9.78396 6.39373 11.2361 8.18099 11.2361C9.96169 11.2361 11.4139 9.79053 11.4139 8.00326C11.4073 6.22256 9.96169 4.77041 8.18099 4.77041Z" fill="white"/>
<path d="M13.0913 3.76064C13.5267 3.76064 13.8798 3.4076 13.8798 2.97211C13.8798 2.53663 13.5267 2.18359 13.0913 2.18359C12.6558 2.18359 12.3027 2.53663 12.3027 2.97211C12.3027 3.4076 12.6558 3.76064 13.0913 3.76064Z" fill="white"/>
</svg>
