<svg width="17" height="16" viewBox="0 0 17 16" fill="none" xmlns="http://www.w3.org/2000/svg">
<path d="M3.61087 5.25977H0.267578V15.9213H3.61087V5.25977Z" fill="#4719B2"/>
<path d="M12.6583 5.02877C12.5351 5.01336 12.4041 5.00566 12.2732 4.99796C10.4012 4.92092 9.34587 6.03022 8.9761 6.50783C8.87596 6.63879 8.82973 6.71582 8.82973 6.71582V5.29069H5.63281V15.9522H8.82973H8.9761C8.9761 14.866 8.9761 13.7876 8.9761 12.7014C8.9761 12.1159 8.9761 11.5305 8.9761 10.945C8.9761 10.2209 8.92218 9.45054 9.28424 8.78804C9.59238 8.2334 10.147 7.95607 10.771 7.95607C12.6198 7.95607 12.6583 9.62772 12.6583 9.78178C12.6583 9.78949 12.6583 9.79719 12.6583 9.79719V15.9984H16.0016V9.04226C16.0016 6.6619 14.7922 5.25987 12.6583 5.02877Z" fill="#4719B2"/>
<path d="M1.94126 3.88253C3.01339 3.88253 3.88253 3.01339 3.88253 1.94126C3.88253 0.869133 3.01339 0 1.94126 0C0.869129 0 0 0.869133 0 1.94126C0 3.01339 0.869129 3.88253 1.94126 3.88253Z" fill="#4719B2"/>
</svg>
