<svg width="20" height="16" viewBox="0 0 20 16" fill="none" xmlns="http://www.w3.org/2000/svg">
<path d="M0.998047 13.7067C2.97163 13.8178 4.69745 13.3564 6.38054 12.1347C4.68036 11.8442 3.50134 11.0667 2.86057 9.46054C3.3561 9.39219 3.79183 9.52035 4.30444 9.3153C2.62989 8.58055 1.54484 7.47842 1.50212 5.57318C2.03183 5.6159 2.43339 5.96619 3.06562 5.91493C1.52776 4.41125 1.05785 2.77087 2.02328 0.7802C3.62949 2.62563 5.5091 3.88154 7.80734 4.47105C7.93549 4.50523 8.0551 4.5394 8.18325 4.56503C8.77276 4.70173 9.47335 4.99222 9.83218 4.9495C10.4473 4.87261 9.83218 4.16348 9.98597 3.24077C10.473 0.370105 13.6341 -0.937073 15.9751 0.746025C16.6586 1.24156 17.1968 1.23301 17.8717 0.933985C18.222 0.7802 18.5809 0.626414 18.9995 0.446998C18.9055 1.26719 18.2733 1.72 17.7692 2.3266C18.3417 2.45475 18.803 2.29243 19.3327 2.12155C19.1533 2.71106 18.709 3.04427 18.3075 3.36892C17.8888 3.70213 17.7265 4.05242 17.7094 4.59921C17.4531 12.878 8.04656 19.2772 1.6132 14.1852C0.989509 13.6896 1.5961 14.1852 0.998047 13.7067Z" fill="#4719B2"/>
</svg>
