<svg width="23" height="23" viewBox="0 0 23 23" fill="none" xmlns="http://www.w3.org/2000/svg">
<path d="M2.67963 2.43149L3.404 1.70711C3.79453 1.31658 4.42769 1.31658 4.81822 1.70711L8.51512 5.404C8.90564 5.79453 8.90564 6.42769 8.51511 6.81822L7.0139 8.31944C6.80653 8.5268 6.75513 8.84359 6.88627 9.10588C8.40256 12.1385 10.8615 14.5974 13.8941 16.1137C14.1564 16.2449 14.4732 16.1935 14.6806 15.9861L16.1818 14.4849C16.5723 14.0944 17.2055 14.0944 17.596 14.4849L21.2929 18.1818C21.6834 18.5723 21.6834 19.2055 21.2929 19.596L20.5685 20.3204C18.4572 22.4317 15.1146 22.6693 12.7259 20.8777L9.29524 18.3048C7.55171 16.9971 6.00288 15.4483 4.69524 13.7048L2.12226 10.2741C0.330722 7.88541 0.568273 4.54284 2.67963 2.43149Z" stroke="#4719B2"/>
</svg>
